<svg width="140" height="34" viewBox="0 0 140 34" fill="none" xmlns="http://www.w3.org/2000/svg">
<path d="M106.991 11.4523H104.114C103.779 11.4523 103.46 11.3097 103.237 11.0619L102.071 9.75909C101.897 9.56527 101.647 9.45312 101.385 9.45312C101.123 9.45312 100.873 9.56388 100.699 9.75909L99.6981 10.8778C99.3705 11.2433 98.9001 11.4537 98.4059 11.4537H82.6615C82.2135 12.7177 81.9209 14.0524 81.8047 15.4382H96.6685C96.9303 15.4382 97.1795 15.333 97.3601 15.1461L98.7447 13.7187C98.9169 13.5401 99.1563 13.439 99.4055 13.439H99.4629C99.7247 13.439 99.9753 13.5498 100.149 13.745L101.315 15.0478C101.538 15.2956 101.855 15.4382 102.191 15.4382H114.324C114.208 14.0524 113.915 12.7177 113.467 11.4537H106.991V11.4523Z" fill="white"/>
<path d="M90.7983 23.813C91.0601 23.813 91.3093 23.7078 91.4899 23.5209L92.8745 22.0935C93.0468 21.9149 93.2861 21.8138 93.5353 21.8138H93.5928C93.8546 21.8138 94.1051 21.9246 94.2787 22.1198L95.4449 23.4226C95.6675 23.6704 95.9853 23.813 96.3213 23.813H112.763C113.379 22.5545 113.83 21.2033 114.099 19.7897H98.3178C97.9832 19.7897 97.6639 19.6471 97.4413 19.3993L96.2751 18.0965C96.1015 17.9027 95.8509 17.7905 95.5891 17.7905C95.3273 17.7905 95.0767 17.9013 94.9031 18.0965L93.9021 19.2152C93.5745 19.5807 93.1041 19.7911 92.6099 19.7911H82.0273C82.2961 21.206 82.7469 22.5559 83.3629 23.8144H90.7983V23.813Z" fill="white"/>
<path d="M102.462 7.09945C102.724 7.09945 102.973 6.99423 103.154 6.80732L104.539 5.37993C104.711 5.20133 104.95 5.10026 105.199 5.10026H105.257C105.519 5.10026 105.769 5.21102 105.943 5.40623L107.109 6.70902C107.332 6.95685 107.649 7.09945 107.985 7.09945H111.112C108.134 3.18553 103.398 0.65332 98.0636 0.65332C92.7296 0.65332 87.9934 3.18553 85.0156 7.09945H102.464H102.462Z" fill="white"/>
<path d="M96.1834 27.8019H91.9078C91.5732 27.8019 91.254 27.6593 91.0314 27.4115L89.8652 26.1087C89.6916 25.9149 89.441 25.8027 89.1792 25.8027C88.9174 25.8027 88.6668 25.9135 88.4932 26.1087L87.4922 27.2274C87.1646 27.5929 86.6942 27.8033 86.2 27.8033H86.1328C89.112 30.9599 93.3526 32.9356 98.0636 32.9356C102.775 32.9356 107.015 30.9599 109.994 27.8033H96.1834V27.8019Z" fill="white"/>
<path d="M25.9139 31.8913L22.5931 23.9153H7.75726L4.43646 31.8913H0.597656L15.1535 1.6958L29.7527 31.8913H25.9139ZM9.00746 20.8874H21.2995L15.1339 8.02286L9.00886 20.8874H9.00746Z" fill="white"/>
<path d="M35.0547 31.8913V1.6958H43.5513C50.1929 1.6958 53.6859 4.72365 53.6859 10.3959C53.6859 16.0681 49.9773 19.0115 43.5079 19.0115H38.6345V31.8913H35.0547ZM38.6345 15.8549H42.6889C47.8213 15.8549 50.0641 14.1921 50.0641 10.3959C50.0641 6.59962 47.7779 4.85103 42.6889 4.85103H38.6345V15.8549Z" fill="white"/>
<path d="M66.6865 4.93686H56.1641V1.6958H80.7901V4.93686H70.2663V31.8913H66.6865V4.93686Z" fill="white"/>
<path d="M119.361 26.3896L122.444 24.3212L122.682 24.8113C124.579 28.2227 126.649 29.5878 129.798 29.5878C133.291 29.5878 135.749 27.1995 135.749 24.2991C135.749 21.5689 134.369 19.7358 128.849 17.475C122.509 14.8735 120.352 12.1863 120.352 8.34848C120.352 4.16875 123.673 0.884766 129.409 0.884766C133.635 0.884766 136.525 2.67628 138.164 5.57676L135.662 7.28244L134.929 7.11215C133.635 5.10742 132.039 3.95554 129.322 3.95554C126.001 3.95554 124.061 5.78997 124.061 8.26265C124.061 10.565 125.311 11.8872 130.702 14.3184C137.732 17.475 139.458 20.0764 139.458 24.2561C139.458 28.8194 135.49 32.7001 129.84 32.7001C125.095 32.7001 121.818 30.9085 119.359 26.3882L119.361 26.3896Z" fill="white"/>
</svg>
