<svg width="169" height="43" viewBox="0 0 169 43" fill="none" xmlns="http://www.w3.org/2000/svg">
<g id="arbitrum" clip-path="url(#clip0_9282_81458)">
<g id="Layer_x0020_1">
<g id="_2405611885616">
<g id="Group">
<g id="Group_2">
<path id="Vector" d="M1.61719 13.0754V29.9244C1.61719 30.9572 2.21797 31.99 3.08202 32.503L17.6966 40.9275C18.6417 41.4406 19.7622 41.4406 20.7073 40.9275L35.3219 32.503C36.2669 31.99 36.7867 30.9572 36.7867 29.9244V13.0754C36.7867 12.0426 36.1859 11.0098 35.3219 10.4968L20.7005 2.07227C19.7555 1.55924 18.6349 1.55924 17.6899 2.07227L3.07527 10.4968C2.13022 11.0098 1.61719 12.0426 1.61719 13.0754Z" fill="white"/>
<g id="Group_3">
<g id="Group_4">
<g id="Group_5">
<path id="Vector_2" d="M22.4205 24.767L20.3549 30.4441C20.2671 30.6128 20.2671 30.7883 20.3549 30.9571L23.9663 40.7587L28.0908 38.3488L23.1023 24.767C23.0213 24.4227 22.5893 24.4227 22.4205 24.767Z" fill="#A0A0A1"/>
</g>
<g id="Group_6">
<path id="Vector_3" d="M26.5465 15.141C26.4588 14.7967 26.0335 14.7967 25.858 15.141L23.7924 20.8181C23.7046 20.9869 23.7046 21.1624 23.7924 21.3311L29.6382 37.4106L33.7627 35.0007L26.5465 15.141Z" fill="#A0A0A1"/>
</g>
</g>
</g>
<g id="Group_7">
<path id="Vector_4" d="M19.1537 2.67324C19.2414 2.67324 19.3224 2.67324 19.4102 2.761L35.2264 11.874C35.3951 11.9618 35.4829 12.1305 35.4829 12.3871V30.6131C35.4829 30.7819 35.3951 31.0451 35.2264 31.1261L19.4102 40.2392C19.3224 40.3269 19.2414 40.3269 19.1537 40.3269C19.0659 40.3269 18.9849 40.3269 18.8972 40.2392L3.08099 31.1261C2.91223 31.0384 2.82447 30.8696 2.82447 30.6131V12.3871C2.82447 12.2183 2.91223 11.955 3.08099 11.874L18.8972 2.761C18.9782 2.67324 19.0659 2.67324 19.1537 2.67324ZM19.1537 0.00683594C18.5529 0.00683594 18.0331 0.175596 17.5201 0.438861L1.70391 9.55189C0.671098 10.1527 0.0703125 11.1855 0.0703125 12.3871V30.6131C0.0703125 31.7337 0.671098 32.8475 1.70391 33.4483L17.5201 42.5613C18.0331 42.8178 18.5529 42.9933 19.1537 42.9933C19.7545 42.9933 20.2742 42.8246 20.7873 42.5613L36.6034 33.4483C37.6362 32.8475 38.237 31.8147 38.237 30.6131V12.3871C38.237 11.2665 37.6362 10.1527 36.6034 9.55189L20.8683 0.438861C20.3552 0.182346 19.8355 0.00683594 19.2347 0.00683594H19.1537Z" fill="#A0A0A1"/>
</g>
<path id="Vector_5" d="M8.75 37.404L10.2081 33.4482L13.131 35.8581L10.3836 38.4368L8.75 37.404Z" fill="white"/>
<g id="Group_8">
<path id="Vector_6" d="M17.8643 11.0977H13.8209C13.5643 11.0977 13.2201 11.2664 13.1323 11.5297L4.53906 35.0818L8.66355 37.4917L18.1209 11.6107C18.2086 11.3542 18.0331 11.0977 17.7766 11.0977H17.8643Z" fill="#C1C1C1"/>
<path id="Vector_7" d="M24.8237 11.0976H20.7802C20.5237 11.0976 20.1794 11.2664 20.0917 11.5296L10.2969 38.3489L14.4214 40.7588L25.0802 11.5296C25.168 11.2731 24.9925 11.0166 24.736 11.0166L24.8237 11.0976Z" fill="#C1C1C1"/>
</g>
</g>
<g id="Group_9">
<g id="Group_10">
<path id="Vector_8" d="M55.2601 15.9985C55.6922 15.9985 56.0364 16.0863 56.293 16.2551C56.5495 16.4238 56.806 16.7681 57.0692 17.2001L62.3143 26.6574C62.4021 26.7452 62.4021 26.8262 62.3143 26.9139C62.3143 27.0017 62.2265 27.0017 62.0578 27.0017H60.0799C59.9112 27.0017 59.8234 26.9139 59.7357 26.8329L58.6083 24.7673H51.2167L50.0961 26.8329C50.0083 27.0017 49.9273 27.0017 49.7518 27.0017H47.6862C47.5174 27.0017 47.4297 27.0017 47.4297 26.9139C47.4297 26.8262 47.4297 26.7452 47.4297 26.6574L52.587 17.2001C52.8435 16.6871 53.1 16.4238 53.3633 16.2551C53.6265 16.0863 53.8763 15.9985 54.2206 15.9985H55.1656H55.2601ZM52.1617 22.9649H57.5755L55.0846 18.3207C54.9969 18.2329 54.9969 18.2329 54.9159 18.2329H54.8281C54.7404 18.2329 54.6594 18.2329 54.6594 18.3207L52.1617 22.9649Z" fill="white"/>
<path id="Vector_9" d="M73.7443 15.9985C74.9459 15.9985 75.81 16.255 76.323 16.8558C76.836 17.3689 77.0993 18.2329 77.0993 19.2657V20.123C77.0993 21.0681 76.9305 21.7566 76.5863 22.2696C76.242 22.7827 75.6412 23.127 74.7839 23.3025L77.4503 26.6574C77.5381 26.7452 77.5381 26.8262 77.5381 26.9139C77.5381 27.0017 77.4503 27.0827 77.2815 27.0827H75.2159C75.0472 27.0827 74.9594 27.0827 74.9594 26.9949C74.8716 26.9949 74.8716 26.9072 74.7906 26.8262L72.2998 23.559H67.2302V26.7384C67.2302 26.9949 67.1424 27.0827 66.8859 27.0827H65.1646C64.9081 27.0827 64.8203 26.9949 64.8203 26.7384V16.5116C64.8203 16.1673 64.9891 15.9985 65.3333 15.9985H73.8456H73.7443ZM67.21 21.6689H73.2246C73.7376 21.6689 74.1696 21.5811 74.3451 21.3246C74.6016 21.0681 74.6894 20.7238 74.6894 20.2918V19.6032C74.6894 19.0902 74.6016 18.7459 74.3451 18.5704C74.0886 18.3139 73.7443 18.2262 73.2246 18.2262H67.3787C67.21 18.2262 67.21 18.3139 67.21 18.3949V21.6689Z" fill="white"/>
<path id="Vector_10" d="M90.3362 15.9985C91.4568 15.9985 92.2264 16.255 92.6584 16.6871C93.0904 17.1191 93.3469 17.8076 93.3469 18.6649V19.4412C93.3469 20.2985 93.0026 20.9871 92.3141 21.4191C93.0026 21.8511 93.4347 22.5397 93.4347 23.4847V24.4298C93.4347 24.8618 93.3469 25.2061 93.2659 25.5503C93.1849 25.8946 93.0094 26.1511 92.8339 26.4076C92.5774 26.6642 92.3209 26.8397 91.9766 26.9207C91.6323 27.0084 91.2003 27.0894 90.6873 27.0894H81.3177C80.9734 27.0894 80.8047 26.9207 80.8047 26.5764V16.5183C80.8047 16.174 80.9734 16.0053 81.3177 16.0053H90.4307H90.3362V15.9985ZM83.2011 20.5551H89.6477C90.1607 20.5551 90.505 20.4673 90.6805 20.2985C90.856 20.1298 90.937 19.9543 90.937 19.61V19.097C90.937 18.7527 90.8493 18.4962 90.6805 18.4084C90.5117 18.2397 90.1675 18.1519 89.8232 18.1519H83.3766C83.2078 18.1519 83.2078 18.2397 83.2078 18.3207V20.5551H83.2011ZM83.2011 22.2764V24.5985C83.2011 24.7673 83.2888 24.7673 83.3698 24.7673H89.8165C90.2485 24.7673 90.505 24.6795 90.6738 24.5108C90.8425 24.342 90.9303 24.0788 90.9303 23.8222V23.2215C90.9303 22.8772 90.8425 22.6207 90.6738 22.4452C90.505 22.2697 90.1607 22.1886 89.5532 22.1886H83.1133L83.2011 22.2764Z" fill="white"/>
<path id="Vector_11" d="M99.2726 15.9985C99.5292 15.9985 99.6169 16.0863 99.6169 16.3428V26.6574C99.6169 26.9139 99.5292 27.0017 99.2726 27.0017H97.5513C97.2948 27.0017 97.207 26.9139 97.207 26.6574V16.3428C97.207 16.0863 97.2948 15.9985 97.5513 15.9985H99.2726Z" fill="white"/>
<path id="Vector_12" d="M115.864 15.9985C116.121 15.9985 116.208 16.0863 116.208 16.3428V17.8886C116.208 18.1452 116.121 18.2329 115.864 18.2329H110.876V26.6574C110.876 26.9139 110.788 27.0017 110.531 27.0017H108.81C108.553 27.0017 108.466 26.9139 108.466 26.6574V18.2329H103.477C103.221 18.2329 103.133 18.1452 103.133 17.8886V16.3428C103.133 16.0863 103.221 15.9985 103.477 15.9985H115.77H115.864Z" fill="white"/>
<path id="Vector_13" d="M128.334 15.9985C129.536 15.9985 130.4 16.255 130.913 16.8558C131.426 17.3689 131.689 18.2329 131.689 19.2657V20.123C131.689 21.0681 131.52 21.7566 131.176 22.2696C130.832 22.7827 130.231 23.127 129.374 23.3025L132.04 26.6574C132.128 26.7452 132.128 26.8262 132.128 26.9139C132.128 27.0017 132.04 27.0827 131.871 27.0827H129.806C129.637 27.0827 129.549 27.0827 129.549 26.9949C129.461 26.9949 129.461 26.9072 129.38 26.8262L126.89 23.559H121.82V26.7384C121.82 26.9949 121.732 27.0827 121.476 27.0827H119.754C119.498 27.0827 119.41 26.9949 119.41 26.7384V16.5116C119.41 16.1673 119.579 15.9985 119.923 15.9985H128.435H128.334ZM121.8 21.6689H127.814C128.327 21.6689 128.759 21.5811 128.935 21.3246C129.191 21.0681 129.279 20.7238 129.279 20.2918V19.6032C129.279 19.0902 129.191 18.7459 128.935 18.5704C128.678 18.3139 128.334 18.2262 127.814 18.2262H121.969C121.8 18.2262 121.8 18.3139 121.8 18.3949V21.6689Z" fill="white"/>
<path id="Vector_14" d="M137.191 15.9985C137.448 15.9985 137.536 16.0863 137.536 16.3428V22.6207C137.536 23.0527 137.536 23.397 137.623 23.6535C137.711 23.91 137.792 24.1665 137.968 24.342C138.143 24.5175 138.312 24.5985 138.568 24.6863C138.825 24.774 139.169 24.774 139.601 24.774H143.989C144.421 24.774 144.765 24.774 145.022 24.6863C145.278 24.5985 145.535 24.5175 145.623 24.342C145.791 24.1733 145.879 23.91 145.967 23.6535C146.055 23.397 146.055 23.0527 146.055 22.6207V16.3428C146.055 16.0863 146.142 15.9985 146.399 15.9985H148.12C148.377 15.9985 148.465 16.0863 148.465 16.3428V22.8772C148.465 23.6535 148.377 24.2543 148.208 24.7673C148.039 25.2803 147.776 25.7123 147.432 26.0566C147.087 26.4009 146.655 26.6574 146.055 26.7452C145.454 26.9139 144.853 27.0017 143.989 27.0017H139.433C138.656 27.0017 137.968 26.9139 137.367 26.7452C136.854 26.5764 136.334 26.3131 135.99 26.0566C135.646 25.7123 135.389 25.2803 135.214 24.7673C135.045 24.2543 134.957 23.5657 134.957 22.8772V16.3428C134.957 16.0863 135.045 15.9985 135.301 15.9985H137.023H137.191Z" fill="white"/>
<path id="Vector_15" d="M155.241 15.9985C155.498 15.9985 155.673 15.9985 155.842 16.0863C156.011 16.0863 156.186 16.174 156.274 16.2551C156.362 16.3428 156.53 16.4238 156.618 16.5993C156.706 16.7681 156.787 16.9436 156.963 17.2001L160.23 24.7673C160.317 24.855 160.317 24.9361 160.486 24.9361H160.655C160.743 24.9361 160.824 24.8483 160.911 24.7673L164.179 17.2001C164.266 16.9436 164.347 16.7681 164.523 16.5993C164.611 16.4306 164.692 16.3428 164.867 16.2551C164.955 16.1673 165.124 16.0863 165.299 16.0863C165.475 16.0863 165.643 15.9985 165.9 15.9985H167.621C168.134 15.9985 168.566 16.0863 168.742 16.3428C168.911 16.5993 168.998 17.0313 168.998 17.6321V26.6574C168.998 26.9139 168.911 27.0017 168.654 27.0017H167.021C166.764 27.0017 166.676 26.9139 166.676 26.6574V18.4084C166.676 18.3207 166.589 18.2397 166.589 18.2397H166.42C166.332 18.2397 166.251 18.3274 166.251 18.3274L163.072 25.3748C162.984 25.6313 162.815 25.8879 162.64 26.0634C162.464 26.2389 162.383 26.4076 162.208 26.5764C162.039 26.6642 161.863 26.8329 161.695 26.8329C161.526 26.9207 161.262 26.9207 161.006 26.9207H160.23C159.973 26.9207 159.717 26.9207 159.541 26.8329C159.366 26.7452 159.197 26.6642 159.028 26.5764C158.859 26.4886 158.772 26.3199 158.596 26.0634C158.427 25.8946 158.34 25.6313 158.164 25.3748L154.985 18.3274C154.985 18.2397 154.897 18.2397 154.816 18.2397H154.647C154.559 18.2397 154.559 18.3274 154.559 18.4084V26.6642C154.559 26.9207 154.472 27.0084 154.215 27.0084H152.575C152.318 27.0084 152.23 26.9207 152.23 26.6642V17.6321C152.23 17.0313 152.318 16.5993 152.487 16.3428C152.656 16.0863 153.088 15.9985 153.608 15.9985H155.329H155.241Z" fill="white"/>
</g>
</g>
</g>
</g>
</g>
</g>
<defs>
<clipPath id="clip0_9282_81458">
<rect width="168.76" height="43" fill="white" transform="translate(0.152344)"/>
</clipPath>
</defs>
</svg>
