<svg width="134" height="34" viewBox="0 0 134 34" fill="none" xmlns="http://www.w3.org/2000/svg">
<g clip-path="url(#clip0_9282_81458)">
<path d="M17.6111 19.5831L15.9778 24.0719C15.9084 24.2054 15.9084 24.3441 15.9778 24.4776L18.8334 32.2276L22.0946 30.3222L18.1502 19.5831C18.0861 19.3109 17.7445 19.3109 17.6111 19.5831Z" fill="#F3F3F3"/>
<path d="M20.8743 11.9722C20.8049 11.7 20.4686 11.7 20.3299 11.9722L18.6966 16.4611C18.6272 16.5945 18.6272 16.7333 18.6966 16.8667L23.3189 29.5807L26.5801 27.6752L20.8743 11.9722Z" fill="#F3F3F3"/>
<path d="M15.0306 2.11369C15.1 2.11369 15.164 2.11369 15.2334 2.18308L27.7392 9.38873C27.8726 9.45812 27.942 9.59156 27.942 9.79438V24.2057C27.942 24.3391 27.8726 24.5473 27.7392 24.6113L15.2334 31.817C15.164 31.8864 15.1 31.8864 15.0306 31.8864C14.9612 31.8864 14.8971 31.8864 14.8277 31.817L2.32194 24.6113C2.1885 24.542 2.11911 24.4085 2.11911 24.2057V9.79438C2.11911 9.66094 2.1885 9.45278 2.32194 9.38873L14.8277 2.18308C14.8918 2.11369 14.9612 2.11369 15.0306 2.11369ZM15.0306 0.00537109C14.5555 0.00537109 14.1445 0.138809 13.7389 0.346972L1.23309 7.55262C0.416446 8.02766 -0.0585938 8.8443 -0.0585938 9.79438V24.2057C-0.0585938 25.0917 0.416446 25.9724 1.23309 26.4474L13.7389 33.6531C14.1445 33.8559 14.5555 33.9947 15.0306 33.9947C15.5056 33.9947 15.9166 33.8613 16.3223 33.6531L28.8281 26.4474C29.6447 25.9724 30.1197 25.1558 30.1197 24.2057V9.79438C30.1197 8.90835 29.6447 8.02766 28.8281 7.55262L16.3863 0.346972C15.9807 0.144147 15.5697 0.00537109 15.0946 0.00537109H15.0306Z" fill="#FDFDFD"/>
<path d="M6.80469 29.5751L7.95759 26.4473L10.2687 28.3528L8.09637 30.3917L6.80469 29.5751Z" fill="white"/>
<path d="M14.0089 8.7749H10.8117C10.6089 8.7749 10.3367 8.90834 10.2673 9.1165L3.47266 27.7391L6.73388 29.6446L14.2117 9.18055C14.2811 8.97773 14.1424 8.7749 13.9395 8.7749H14.0089Z" fill="#F3F3F3"/>
<path d="M19.5098 8.77499H16.3126C16.1098 8.77499 15.8376 8.90843 15.7682 9.11659L8.02344 30.3226L11.2847 32.228L19.7126 9.11659C19.782 8.91376 19.6432 8.71094 19.4404 8.71094L19.5098 8.77499Z" fill="#F3F3F3"/>
<path d="M43.5743 12.6499C43.9159 12.6499 44.1881 12.7193 44.391 12.8527C44.5938 12.9862 44.7966 13.2584 45.0048 13.6L49.152 21.0778C49.2214 21.1472 49.2214 21.2113 49.152 21.2807C49.152 21.3501 49.0827 21.3501 48.9492 21.3501H47.3853C47.2519 21.3501 47.1825 21.2807 47.1131 21.2166L46.2217 19.5833H40.3772L39.4911 21.2166C39.4217 21.3501 39.3577 21.3501 39.2189 21.3501H37.5856C37.4522 21.3501 37.3828 21.3501 37.3828 21.2807C37.3828 21.2113 37.3828 21.1472 37.3828 21.0778L41.4607 13.6C41.6635 13.1943 41.8663 12.9862 42.0745 12.8527C42.2827 12.7193 42.4801 12.6499 42.7524 12.6499H43.4996H43.5743ZM41.1244 18.1582H45.4051L43.4356 14.486C43.3662 14.4166 43.3662 14.4166 43.3021 14.4166H43.2327C43.1633 14.4166 43.0993 14.4166 43.0993 14.486L41.1244 18.1582Z" fill="white"/>
<path d="M58.189 12.6499C59.1391 12.6499 59.8223 12.8527 60.2279 13.3278C60.6336 13.7334 60.8418 14.4166 60.8418 15.2333V15.9111C60.8418 16.6584 60.7083 17.2028 60.4361 17.6085C60.1639 18.0141 59.6889 18.2863 59.011 18.4251L61.1193 21.0778C61.1887 21.1472 61.1887 21.2113 61.1887 21.2807C61.1887 21.3501 61.1193 21.4141 60.9859 21.4141H59.3526C59.2192 21.4141 59.1498 21.4141 59.1498 21.3447C59.0804 21.3447 59.0804 21.2753 59.0163 21.2113L57.0468 18.6279H53.0383V21.1419C53.0383 21.3447 52.9689 21.4141 52.7661 21.4141H51.405C51.2022 21.4141 51.1328 21.3447 51.1328 21.1419V13.0556C51.1328 12.7833 51.2662 12.6499 51.5385 12.6499H58.2691H58.189ZM53.0223 17.1334H57.778C58.1837 17.1334 58.5253 17.064 58.6641 16.8612C58.8669 16.6584 58.9363 16.3862 58.9363 16.0446V15.5001C58.9363 15.0945 58.8669 14.8223 58.6641 14.6835C58.4612 14.4807 58.189 14.4113 57.778 14.4113H53.1557C53.0223 14.4113 53.0223 14.4807 53.0223 14.5447V17.1334Z" fill="white"/>
<path d="M71.31 12.6499C72.196 12.6499 72.8045 12.8527 73.1461 13.1943C73.4877 13.5359 73.6905 14.0804 73.6905 14.7582V15.372C73.6905 16.0499 73.4183 16.5943 72.8739 16.9359C73.4183 17.2775 73.7599 17.822 73.7599 18.5692V19.3165C73.7599 19.6581 73.6905 19.9303 73.6265 20.2025C73.5624 20.4747 73.4237 20.6775 73.2849 20.8804C73.0821 21.0832 72.8792 21.222 72.607 21.286C72.3348 21.3554 71.9932 21.4194 71.5876 21.4194H64.1791C63.9069 21.4194 63.7734 21.286 63.7734 21.0138V13.0609C63.7734 12.7887 63.9069 12.6552 64.1791 12.6552H71.3847H71.31V12.6499ZM65.6683 16.2527H70.7656C71.1712 16.2527 71.4434 16.1833 71.5822 16.0499C71.721 15.9165 71.7851 15.7777 71.7851 15.5055V15.0998C71.7851 14.8276 71.7157 14.6248 71.5822 14.5554C71.4488 14.422 71.1766 14.3526 70.9044 14.3526H65.807C65.6736 14.3526 65.6736 14.422 65.6736 14.486V16.2527H65.6683ZM65.6683 17.6138V19.4499C65.6683 19.5833 65.7376 19.5833 65.8017 19.5833H70.899C71.2406 19.5833 71.4435 19.514 71.5769 19.3805C71.7103 19.2471 71.7797 19.0389 71.7797 18.8361V18.361C71.7797 18.0888 71.7103 17.886 71.5769 17.7472C71.4435 17.6085 71.1712 17.5444 70.6909 17.5444H65.5989L65.6683 17.6138Z" fill="white"/>
<path d="M78.3755 12.6499C78.5783 12.6499 78.6477 12.7193 78.6477 12.9221V21.0778C78.6477 21.2807 78.5783 21.3501 78.3755 21.3501H77.0144C76.8116 21.3501 76.7422 21.2807 76.7422 21.0778V12.9221C76.7422 12.7193 76.8116 12.6499 77.0144 12.6499H78.3755Z" fill="white"/>
<path d="M91.4923 12.6499C91.6952 12.6499 91.7646 12.7193 91.7646 12.9221V14.1444C91.7646 14.3472 91.6952 14.4166 91.4923 14.4166H87.5479V21.0778C87.5479 21.2807 87.4785 21.3501 87.2757 21.3501H85.9146C85.7118 21.3501 85.6424 21.2807 85.6424 21.0778V14.4166H81.698C81.4952 14.4166 81.4258 14.3472 81.4258 14.1444V12.9221C81.4258 12.7193 81.4952 12.6499 81.698 12.6499H91.4176H91.4923Z" fill="white"/>
<path d="M101.353 12.6499C102.303 12.6499 102.986 12.8527 103.392 13.3278C103.798 13.7334 104.006 14.4166 104.006 15.2333V15.9111C104.006 16.6584 103.872 17.2028 103.6 17.6085C103.328 18.0141 102.853 18.2863 102.175 18.4251L104.283 21.0778C104.353 21.1472 104.353 21.2113 104.353 21.2807C104.353 21.3501 104.283 21.4141 104.15 21.4141H102.517C102.383 21.4141 102.314 21.4141 102.314 21.3447C102.244 21.3447 102.244 21.2753 102.18 21.2113L100.211 18.6279H96.2024V21.1419C96.2024 21.3447 96.133 21.4141 95.9302 21.4141H94.5691C94.3663 21.4141 94.2969 21.3447 94.2969 21.1419V13.0556C94.2969 12.7833 94.4303 12.6499 94.7025 12.6499H101.433H101.353ZM96.1864 17.1334H100.942C101.348 17.1334 101.689 17.064 101.828 16.8612C102.031 16.6584 102.1 16.3862 102.1 16.0446V15.5001C102.1 15.0945 102.031 14.8223 101.828 14.6835C101.625 14.4807 101.353 14.4113 100.942 14.4113H96.3198C96.1864 14.4113 96.1864 14.4807 96.1864 14.5447V17.1334Z" fill="white"/>
<path d="M108.357 12.6499C108.559 12.6499 108.629 12.7193 108.629 12.9221V17.886C108.629 18.2276 108.629 18.4998 108.698 18.7026C108.768 18.9055 108.832 19.1083 108.97 19.2471C109.109 19.3859 109.243 19.4499 109.445 19.5193C109.648 19.5887 109.92 19.5887 110.262 19.5887H113.731C114.073 19.5887 114.345 19.5887 114.548 19.5193C114.751 19.4499 114.954 19.3859 115.023 19.2471C115.157 19.1136 115.226 18.9055 115.295 18.7026C115.365 18.4998 115.365 18.2276 115.365 17.886V12.9221C115.365 12.7193 115.434 12.6499 115.637 12.6499H116.998C117.201 12.6499 117.27 12.7193 117.27 12.9221V18.0888C117.27 18.7026 117.201 19.1777 117.067 19.5833C116.934 19.989 116.726 20.3306 116.454 20.6028C116.181 20.875 115.84 21.0778 115.365 21.1472C114.89 21.2807 114.415 21.3501 113.731 21.3501H110.129C109.515 21.3501 108.97 21.2807 108.495 21.1472C108.09 21.0138 107.679 20.8056 107.406 20.6028C107.134 20.3306 106.931 19.989 106.793 19.5833C106.659 19.1777 106.59 18.6333 106.59 18.0888V12.9221C106.59 12.7193 106.659 12.6499 106.862 12.6499H108.223H108.357Z" fill="white"/>
<path d="M122.631 12.6499C122.833 12.6499 122.972 12.6499 123.106 12.7193C123.239 12.7193 123.378 12.7887 123.447 12.8527C123.517 12.9221 123.65 12.9862 123.719 13.1249C123.789 13.2584 123.853 13.3972 123.992 13.6L126.575 19.5833C126.644 19.6527 126.644 19.7168 126.778 19.7168H126.911C126.981 19.7168 127.045 19.6474 127.114 19.5833L129.697 13.6C129.767 13.3972 129.831 13.2584 129.97 13.1249C130.039 12.9915 130.103 12.9221 130.242 12.8527C130.311 12.7833 130.445 12.7193 130.583 12.7193C130.722 12.7193 130.856 12.6499 131.058 12.6499H132.42C132.825 12.6499 133.167 12.7193 133.306 12.9221C133.439 13.1249 133.508 13.4665 133.508 13.9416V21.0778C133.508 21.2807 133.439 21.3501 133.236 21.3501H131.945C131.742 21.3501 131.672 21.2807 131.672 21.0778V14.5554C131.672 14.486 131.603 14.422 131.603 14.422H131.469C131.4 14.422 131.336 14.4913 131.336 14.4913L128.822 20.0637C128.753 20.2665 128.619 20.4694 128.48 20.6081C128.342 20.7469 128.278 20.8804 128.139 21.0138C128.005 21.0832 127.867 21.2166 127.733 21.2166C127.6 21.286 127.392 21.286 127.189 21.286H126.575C126.372 21.286 126.169 21.286 126.031 21.2166C125.892 21.1472 125.758 21.0832 125.625 21.0138C125.491 20.9444 125.422 20.811 125.283 20.6081C125.15 20.4747 125.08 20.2665 124.942 20.0637L122.428 14.4913C122.428 14.422 122.358 14.422 122.294 14.422H122.161C122.091 14.422 122.091 14.4913 122.091 14.5554V21.0832C122.091 21.286 122.022 21.3554 121.819 21.3554H120.522C120.319 21.3554 120.25 21.286 120.25 21.0832V13.9416C120.25 13.4665 120.319 13.1249 120.453 12.9221C120.586 12.7193 120.928 12.6499 121.339 12.6499H122.7H122.631Z" fill="white"/>
</g>
<defs>
<clipPath id="clip0_9282_81458">
<rect width="133.438" height="34" fill="white"/>
</clipPath>
</defs>
</svg>
