<svg width="194" height="34" viewBox="0 0 194 34" fill="none" xmlns="http://www.w3.org/2000/svg">
<g clip-path="url(#clip0_10201_109898)">
<path d="M45.4105 11.0693H47.2324L52.3387 22.9304H49.9219L48.8188 20.2161H43.6753L42.6094 22.9304H40.2422L45.3981 11.0693H45.4105ZM48.0876 18.4066L46.2657 13.5853L44.4066 18.4066H48.0876Z" fill="white"/>
<path d="M54.6094 11.0693H57.0386L60.2734 20.0302L63.6074 11.0693H65.8879L61.0914 22.9304H59.2695L54.6094 11.0693Z" fill="white"/>
<path d="M73.4215 11.0693H75.2435L80.3498 22.9304H77.933L76.8299 20.2161H71.6864L70.6205 22.9304H68.2656L73.4215 11.0693ZM76.0986 18.4066L74.2767 13.5853L72.4176 18.4066H76.0986Z" fill="white"/>
<path d="M85.0234 11.0693H87.1304V21.0217H92.1748V22.9304H85.0234V11.0693Z" fill="white"/>
<path d="M100.886 11.0693H102.708L107.815 22.9304H105.398L104.295 20.2161H99.1512L98.0853 22.9304H95.7305L100.886 11.0693ZM103.563 18.4066L101.742 13.5853L99.8825 18.4066H103.563Z" fill="white"/>
<path d="M112.488 11.0693H115.289L121.028 19.8815H121.065V11.0693H123.172V22.9304H120.495L114.632 13.8332H114.595V22.9304H112.488V11.0693Z" fill="white"/>
<path d="M137.299 13.8455C136.865 13.3745 136.444 13.0647 136.022 12.9036C135.626 12.7424 135.217 12.6681 134.795 12.6681C134.176 12.6681 133.618 12.7796 133.122 13.0027C132.627 13.2134 132.205 13.5109 131.846 13.9075C131.486 14.2917 131.214 14.7379 131.003 15.246C130.817 15.7542 130.718 16.3119 130.718 16.9068C130.718 17.5389 130.817 18.1338 131.003 18.6668C131.201 19.1997 131.486 19.6707 131.846 20.0549C132.205 20.4515 132.627 20.749 133.122 20.9721C133.63 21.1951 134.188 21.3067 134.795 21.3067C135.279 21.3067 135.737 21.1951 136.184 20.9721C136.642 20.7366 137.064 20.3647 137.46 19.869L139.195 21.1084C138.662 21.8396 138.006 22.385 137.237 22.7196C136.469 23.0542 135.651 23.2278 134.771 23.2278C133.854 23.2278 133.011 23.079 132.242 22.794C131.486 22.4965 130.829 22.0751 130.272 21.5422C129.726 20.9968 129.293 20.34 128.983 19.5839C128.673 18.8279 128.512 17.9851 128.512 17.0555C128.512 16.1012 128.673 15.246 128.983 14.4776C129.293 13.6968 129.726 13.0275 130.272 12.4822C130.829 11.9368 131.486 11.5154 132.242 11.2304C133.011 10.9329 133.854 10.7842 134.771 10.7842C135.576 10.7842 136.32 10.9329 137.002 11.218C137.696 11.503 138.34 11.974 138.923 12.6557L137.287 13.8579L137.299 13.8455Z" fill="white"/>
<path d="M143.98 11.0693H146.087V15.7915H151.628V11.0693H153.747V22.9304H151.628V17.7001H146.087V22.9304H143.98V11.0693Z" fill="white"/>
<path d="M159.746 11.0693H167.592V12.978H161.853V15.8906H167.294V17.7993H161.853V21.0217H167.901V22.9304H159.746V11.0693Z" fill="white"/>
<path fill-rule="evenodd" clip-rule="evenodd" d="M34.0092 17.006C34.0092 26.4007 26.3992 34.0106 17.0046 34.0106C7.60992 34.0106 0 26.4007 0 17.006C0 7.61139 7.60992 0.00146484 17.0046 0.00146484C26.3992 0.00146484 34.0092 7.61139 34.0092 17.006ZM12.1833 23.7732H8.88651C8.19244 23.7732 7.84541 23.7732 7.6471 23.6368C7.42401 23.4881 7.28768 23.2526 7.26289 22.98C7.2505 22.7321 7.42401 22.4346 7.75865 21.8273L15.9139 7.46266C16.2609 6.85535 16.4345 6.5455 16.6575 6.43396C16.893 6.31002 17.1781 6.31002 17.4136 6.43396C17.6367 6.5455 17.8102 6.85535 18.1572 7.46266L19.8304 10.3876L19.8428 10.4C20.2146 11.0569 20.4129 11.3916 20.4873 11.7386C20.5741 12.1228 20.5741 12.5194 20.4873 12.9036C20.4005 13.2507 20.2146 13.5853 19.8304 14.2546L15.5545 21.8273L15.5421 21.8521C15.1703 22.509 14.972 22.8436 14.7117 23.1039C14.4266 23.3766 14.0796 23.5749 13.6954 23.6988C13.3483 23.798 12.9641 23.798 12.1833 23.798V23.7732ZM20.5121 23.7732H25.2466C25.9407 23.7732 26.3001 23.7732 26.4984 23.6368C26.7215 23.4881 26.8702 23.2402 26.8826 22.98C26.895 22.7445 26.7215 22.447 26.3992 21.8893C26.3868 21.8645 26.3745 21.8521 26.3621 21.8273L23.9948 17.7745L23.97 17.7249C23.6354 17.1672 23.4743 16.8821 23.2512 16.7706C23.0157 16.6466 22.7306 16.6466 22.4951 16.7706C22.272 16.8821 22.0985 17.1796 21.7515 17.7745L19.3966 21.8273L19.3842 21.8397C19.0372 22.4346 18.8637 22.7321 18.8761 22.98C18.8885 23.2526 19.0248 23.4881 19.2603 23.6368C19.471 23.7732 19.818 23.7732 20.5121 23.7732Z" fill="white"/>
</g>
<rect x="164" width="30" height="12.2432" rx="6.12158" fill="#7767F6"/>
<path d="M170.07 9.62158H168.81V2.31158H170.08L173.51 7.49158V2.31158H174.77V9.62158H173.51L170.07 4.44158V9.62158ZM178.518 9.75158C177.048 9.75158 176.018 8.68158 176.018 7.15158C176.018 5.60158 177.028 4.53158 178.478 4.53158C179.958 4.53158 180.898 5.52158 180.898 7.06158V7.43158L177.178 7.44158C177.268 8.31158 177.728 8.75158 178.538 8.75158C179.208 8.75158 179.648 8.49158 179.788 8.02158H180.918C180.708 9.10158 179.808 9.75158 178.518 9.75158ZM178.488 5.53158C177.768 5.53158 177.328 5.92158 177.208 6.66158H179.688C179.688 5.98158 179.218 5.53158 178.488 5.53158ZM182.85 9.62158L181.25 4.68158H182.52L183.17 6.80158C183.28 7.19158 183.38 7.62158 183.47 8.08158C183.56 7.60158 183.65 7.29158 183.81 6.80158L184.49 4.68158H185.73L186.39 6.80158C186.45 7.00158 186.65 7.74158 186.71 8.07158C186.79 7.70158 186.95 7.11158 187.04 6.80158L187.7 4.68158H188.99L187.28 9.62158H186.14L185.46 7.48158C185.26 6.83158 185.15 6.36158 185.11 6.11158C185.06 6.34158 184.97 6.69158 184.72 7.50158L184.04 9.62158H182.85Z" fill="#F3F3F3"/>
<defs>
<clipPath id="clip0_10201_109898">
<rect width="167.902" height="34" fill="white"/>
</clipPath>
</defs>
</svg>
