<svg width="169" height="35" viewBox="0 0 169 35" fill="none" xmlns="http://www.w3.org/2000/svg">
<g clip-path="url(#clip0_9282_81512)">
<path d="M46.2191 11.5693H48.041L53.1473 23.4304H50.7305L49.6274 20.7161H44.4839L43.418 23.4304H41.0508L46.2067 11.5693H46.2191ZM48.8962 18.9066L47.0743 14.0853L45.2152 18.9066H48.8962Z" fill="white"/>
<path d="M55.418 11.5693H57.8472L61.082 20.5302L64.416 11.5693H66.6965L61.9 23.4304H60.0781L55.418 11.5693Z" fill="white"/>
<path d="M74.2301 11.5693H76.052L81.1584 23.4304H78.7415L77.6385 20.7161H72.495L71.4291 23.4304H69.0742L74.2301 11.5693ZM76.9072 18.9066L75.0853 14.0853L73.2262 18.9066H76.9072Z" fill="white"/>
<path d="M85.832 11.5693H87.939V21.5217H92.9834V23.4304H85.832V11.5693Z" fill="white"/>
<path d="M101.695 11.5693H103.517L108.623 23.4304H106.206L105.103 20.7161H99.9598L98.8939 23.4304H96.5391L101.695 11.5693ZM104.372 18.9066L102.55 14.0853L100.691 18.9066H104.372Z" fill="white"/>
<path d="M113.297 11.5693H116.098L121.836 20.3815H121.874V11.5693H123.981V23.4304H121.303L115.441 14.3332H115.404V23.4304H113.297V11.5693Z" fill="white"/>
<path d="M138.108 14.3455C137.674 13.8745 137.252 13.5647 136.831 13.4036C136.434 13.2424 136.025 13.1681 135.604 13.1681C134.984 13.1681 134.427 13.2796 133.931 13.5027C133.435 13.7134 133.014 14.0109 132.654 14.4075C132.295 14.7917 132.022 15.2379 131.812 15.746C131.626 16.2542 131.526 16.8119 131.526 17.4068C131.526 18.0389 131.626 18.6338 131.812 19.1668C132.01 19.6997 132.295 20.1707 132.654 20.5549C133.014 20.9515 133.435 21.249 133.931 21.4721C134.439 21.6951 134.997 21.8067 135.604 21.8067C136.087 21.8067 136.546 21.6951 136.992 21.4721C137.451 21.2366 137.872 20.8647 138.269 20.369L140.004 21.6084C139.471 22.3396 138.814 22.885 138.046 23.2196C137.277 23.5542 136.459 23.7278 135.579 23.7278C134.662 23.7278 133.819 23.579 133.051 23.294C132.295 22.9965 131.638 22.5751 131.08 22.0422C130.535 21.4968 130.101 20.84 129.791 20.0839C129.481 19.3279 129.32 18.4851 129.32 17.5555C129.32 16.6012 129.481 15.746 129.791 14.9776C130.101 14.1968 130.535 13.5275 131.08 12.9822C131.638 12.4368 132.295 12.0154 133.051 11.7304C133.819 11.4329 134.662 11.2842 135.579 11.2842C136.385 11.2842 137.129 11.4329 137.81 11.718C138.504 12.003 139.149 12.474 139.731 13.1557L138.095 14.3579L138.108 14.3455Z" fill="white"/>
<path d="M144.789 11.5693H146.896V16.2915H152.436V11.5693H154.556V23.4304H152.436V18.2001H146.896V23.4304H144.789V11.5693Z" fill="white"/>
<path d="M160.555 11.5693H168.4V13.478H162.662V16.3906H168.103V18.2993H162.662V21.5217H168.71V23.4304H160.555V11.5693Z" fill="white"/>
<path fill-rule="evenodd" clip-rule="evenodd" d="M34.8178 17.506C34.8178 26.9007 27.2078 34.5106 17.8132 34.5106C8.41852 34.5106 0.808594 26.9007 0.808594 17.506C0.808594 8.11139 8.41852 0.501465 17.8132 0.501465C27.2078 0.501465 34.8178 8.11139 34.8178 17.506ZM12.9919 24.2732H9.6951C9.00103 24.2732 8.654 24.2732 8.4557 24.1368C8.23261 23.9881 8.09627 23.7526 8.07148 23.48C8.05909 23.2321 8.23261 22.9346 8.56724 22.3273L16.7225 7.96266C17.0695 7.35535 17.2431 7.0455 17.4661 6.93396C17.7016 6.81002 17.9867 6.81002 18.2222 6.93396C18.4453 7.0455 18.6188 7.35535 18.9658 7.96266L20.639 10.8876L20.6514 10.9C21.0232 11.5569 21.2215 11.8916 21.2959 12.2386C21.3827 12.6228 21.3827 13.0194 21.2959 13.4036C21.2091 13.7507 21.0232 14.0853 20.639 14.7546L16.3631 22.3273L16.3507 22.3521C15.9789 23.009 15.7806 23.3436 15.5203 23.6039C15.2352 23.8766 14.8882 24.0749 14.504 24.1988C14.1569 24.298 13.7727 24.298 12.9919 24.298V24.2732ZM21.3207 24.2732H26.0552C26.7493 24.2732 27.1087 24.2732 27.307 24.1368C27.5301 23.9881 27.6788 23.7402 27.6912 23.48C27.7036 23.2445 27.5301 22.947 27.2078 22.3893C27.1954 22.3645 27.183 22.3521 27.1707 22.3273L24.8034 18.2745L24.7786 18.2249C24.444 17.6672 24.2828 17.3821 24.0598 17.2706C23.8243 17.1466 23.5392 17.1466 23.3037 17.2706C23.0806 17.3821 22.9071 17.6796 22.5601 18.2745L20.2052 22.3273L20.1928 22.3397C19.8458 22.9346 19.6723 23.2321 19.6847 23.48C19.6971 23.7526 19.8334 23.9881 20.0689 24.1368C20.2796 24.2732 20.6266 24.2732 21.3207 24.2732Z" fill="white"/>
</g>
<defs>
<clipPath id="clip0_9282_81512">
<rect width="167.902" height="34" fill="white" transform="translate(0.808594 0.5)"/>
</clipPath>
</defs>
</svg>
