<svg width="185" height="35" viewBox="0 0 185 35" fill="none" xmlns="http://www.w3.org/2000/svg">
<g clip-path="url(#clip0_10201_109871)">
<path d="M45.4105 12.0693H47.2324L52.3387 23.9304H49.9219L48.8188 21.2161H43.6753L42.6094 23.9304H40.2422L45.3981 12.0693H45.4105ZM48.0876 19.4066L46.2657 14.5853L44.4066 19.4066H48.0876Z" fill="white"/>
<path d="M54.6094 12.0693H57.0386L60.2734 21.0302L63.6074 12.0693H65.8879L61.0914 23.9304H59.2695L54.6094 12.0693Z" fill="white"/>
<path d="M73.4215 12.0693H75.2435L80.3498 23.9304H77.933L76.8299 21.2161H71.6864L70.6205 23.9304H68.2656L73.4215 12.0693ZM76.0986 19.4066L74.2767 14.5853L72.4176 19.4066H76.0986Z" fill="white"/>
<path d="M85.0234 12.0693H87.1304V22.0217H92.1748V23.9304H85.0234V12.0693Z" fill="white"/>
<path d="M100.886 12.0693H102.708L107.815 23.9304H105.398L104.295 21.2161H99.1512L98.0853 23.9304H95.7305L100.886 12.0693ZM103.563 19.4066L101.742 14.5853L99.8825 19.4066H103.563Z" fill="white"/>
<path d="M112.488 12.0693H115.289L121.028 20.8815H121.065V12.0693H123.172V23.9304H120.495L114.632 14.8332H114.595V23.9304H112.488V12.0693Z" fill="white"/>
<path d="M137.299 14.8455C136.865 14.3745 136.444 14.0647 136.022 13.9036C135.626 13.7424 135.217 13.6681 134.795 13.6681C134.176 13.6681 133.618 13.7796 133.122 14.0027C132.627 14.2134 132.205 14.5109 131.846 14.9075C131.486 15.2917 131.214 15.7379 131.003 16.246C130.817 16.7542 130.718 17.3119 130.718 17.9068C130.718 18.5389 130.817 19.1338 131.003 19.6668C131.201 20.1997 131.486 20.6707 131.846 21.0549C132.205 21.4515 132.627 21.749 133.122 21.9721C133.63 22.1951 134.188 22.3067 134.795 22.3067C135.279 22.3067 135.737 22.1951 136.184 21.9721C136.642 21.7366 137.064 21.3647 137.46 20.869L139.195 22.1084C138.662 22.8396 138.006 23.385 137.237 23.7196C136.469 24.0542 135.651 24.2278 134.771 24.2278C133.854 24.2278 133.011 24.079 132.242 23.794C131.486 23.4965 130.829 23.0751 130.272 22.5422C129.726 21.9968 129.293 21.34 128.983 20.5839C128.673 19.8279 128.512 18.9851 128.512 18.0555C128.512 17.1012 128.673 16.246 128.983 15.4776C129.293 14.6968 129.726 14.0275 130.272 13.4822C130.829 12.9368 131.486 12.5154 132.242 12.2304C133.011 11.9329 133.854 11.7842 134.771 11.7842C135.576 11.7842 136.32 11.9329 137.002 12.218C137.696 12.503 138.34 12.974 138.923 13.6557L137.287 14.8579L137.299 14.8455Z" fill="white"/>
<path d="M143.98 12.0693H146.087V16.7915H151.628V12.0693H153.747V23.9304H151.628V18.7001H146.087V23.9304H143.98V12.0693Z" fill="white"/>
<path d="M159.746 12.0693H167.592V13.978H161.853V16.8906H167.294V18.7993H161.853V22.0217H167.901V23.9304H159.746V12.0693Z" fill="white"/>
<path fill-rule="evenodd" clip-rule="evenodd" d="M34.0092 18.006C34.0092 27.4007 26.3992 35.0106 17.0046 35.0106C7.60992 35.0106 0 27.4007 0 18.006C0 8.61139 7.60992 1.00146 17.0046 1.00146C26.3992 1.00146 34.0092 8.61139 34.0092 18.006ZM12.1833 24.7732H8.88651C8.19244 24.7732 7.84541 24.7732 7.6471 24.6368C7.42401 24.4881 7.28768 24.2526 7.26289 23.98C7.2505 23.7321 7.42401 23.4346 7.75865 22.8273L15.9139 8.46266C16.2609 7.85535 16.4345 7.5455 16.6575 7.43396C16.893 7.31002 17.1781 7.31002 17.4136 7.43396C17.6367 7.5455 17.8102 7.85535 18.1572 8.46266L19.8304 11.3876L19.8428 11.4C20.2146 12.0569 20.4129 12.3916 20.4873 12.7386C20.5741 13.1228 20.5741 13.5194 20.4873 13.9036C20.4005 14.2507 20.2146 14.5853 19.8304 15.2546L15.5545 22.8273L15.5421 22.8521C15.1703 23.509 14.972 23.8436 14.7117 24.1039C14.4266 24.3766 14.0796 24.5749 13.6954 24.6988C13.3483 24.798 12.9641 24.798 12.1833 24.798V24.7732ZM20.5121 24.7732H25.2466C25.9407 24.7732 26.3001 24.7732 26.4984 24.6368C26.7215 24.4881 26.8702 24.2402 26.8826 23.98C26.895 23.7445 26.7215 23.447 26.3992 22.8893C26.3868 22.8645 26.3745 22.8521 26.3621 22.8273L23.9948 18.7745L23.97 18.7249C23.6354 18.1672 23.4743 17.8821 23.2512 17.7706C23.0157 17.6466 22.7306 17.6466 22.4951 17.7706C22.272 17.8821 22.0985 18.1796 21.7515 18.7745L19.3966 22.8273L19.3842 22.8397C19.0372 23.4346 18.8637 23.7321 18.8761 23.98C18.8885 24.2526 19.0248 24.4881 19.2603 24.6368C19.471 24.7732 19.818 24.7732 20.5121 24.7732Z" fill="white"/>
</g>
<rect x="163" y="0.756836" width="21" height="9" rx="4.5" fill="#7767F6"/>
<path d="M167.901 7.25684H167.588V2.61897H167.908L170.625 6.72773V2.61897H170.939V7.25684H170.625L167.901 3.13501V7.25684ZM173.332 7.33522C172.424 7.33522 171.823 6.682 171.823 5.69564C171.823 4.71581 172.418 4.04299 173.293 4.04299C174.109 4.04299 174.671 4.63089 174.671 5.48661V5.69564H172.124C172.15 6.55136 172.594 7.06087 173.332 7.06087C173.887 7.06087 174.24 6.81918 174.364 6.35539H174.671C174.488 7.00208 174.038 7.33522 173.332 7.33522ZM173.293 4.31734C172.653 4.31734 172.202 4.76153 172.13 5.44741H174.364C174.364 4.76806 173.94 4.31734 173.293 4.31734ZM176.042 7.25684L174.997 4.12138H175.304L176.009 6.25088C176.075 6.44031 176.133 6.62974 176.199 6.87144C176.251 6.63628 176.375 6.26394 176.382 6.25088L177.087 4.12138H177.394L178.1 6.25088C178.165 6.44031 178.224 6.62321 178.289 6.8649C178.361 6.59708 178.341 6.64934 178.472 6.25088L179.184 4.12138H179.491L178.439 7.25684H178.132L177.388 5.01629C177.335 4.86605 177.29 4.72234 177.244 4.51331C177.198 4.69621 177.146 4.86605 177.094 5.01629L176.349 7.25684H176.042Z" fill="#F3F3F3"/>
<defs>
<clipPath id="clip0_10201_109871">
<rect width="167.902" height="34" fill="white" transform="translate(0 1)"/>
</clipPath>
</defs>
</svg>
