<svg width="120" height="34" viewBox="0 0 120 34" fill="none" xmlns="http://www.w3.org/2000/svg">
<path fill-rule="evenodd" clip-rule="evenodd" d="M25.128 21.2371C25.128 28.1559 19.493 33.7647 12.5421 33.7647C5.94737 33.7647 0.5373 28.7162 0 22.2901H16.6357V20.184H0C0.5373 13.758 5.94737 8.70947 12.5421 8.70947C19.493 8.70947 25.128 14.3183 25.128 21.2371ZM71.7887 31.495C76.1498 31.495 79.0099 29.1514 79.0099 25.6218C79.0099 22.3463 76.8577 20.7933 73.601 20.2568L70.7124 19.7768C68.5037 19.4097 67.031 18.4496 67.031 16.3319C67.031 14.1859 68.6736 12.5481 71.7887 12.5481C74.8187 12.5481 76.3763 14.0729 76.5462 16.2472H78.7267C78.5568 13.367 76.348 10.7975 71.817 10.7975C67.3424 10.7975 64.8788 13.3105 64.8788 16.4166C64.8788 19.7203 67.1159 21.2451 70.1744 21.7534L73.0913 22.2051C75.5266 22.6287 76.8861 23.617 76.8861 25.7065C76.8861 28.1631 74.8753 29.7444 71.817 29.7444C68.6453 29.7444 66.6628 28.2196 66.4929 25.6218H64.3408C64.5107 29.0102 67.1159 31.495 71.7887 31.495ZM39.6383 31.0998H31.7092V11.221H39.3551C42.7251 11.221 45.0757 13.1976 45.0757 16.3601C45.0757 18.6473 43.7729 20.1721 41.6774 20.6803V20.7651C44.1693 21.2451 45.6987 22.9393 45.6987 25.5936C45.6987 29.0102 43.1782 31.0998 39.6383 31.0998ZM39.0719 19.9462C41.4791 19.9462 42.9516 18.6473 42.9516 16.6142V16.3319C42.9516 14.2988 41.4791 13.0282 39.0719 13.0282H33.833V19.9462H39.0719ZM39.3268 29.2926C41.9605 29.2926 43.5746 27.8525 43.5746 25.65V25.3677C43.5746 23.0805 41.9322 21.6969 39.2985 21.6969H33.833V29.2926H39.3268ZM62.8498 31.0998H60.5844L58.8852 25.7065H50.9559L49.2568 31.0998H47.1045L53.6462 11.221H56.2233L62.8498 31.0998ZM55.0338 13.3952H54.8639L51.5222 23.9276H58.3471L55.0338 13.3952ZM82.1999 31.0998V11.221H95V13.0564H84.3239V19.8897H94.1505V21.6969H84.3239V29.2644H95V31.0998H82.1999Z" fill="white"/>
<rect x="90" width="30" height="12.2432" rx="6.12158" fill="#7767F6"/>
<path d="M96.07 9.62158H94.81V2.31158H96.08L99.51 7.49158V2.31158H100.77V9.62158H99.51L96.07 4.44158V9.62158ZM104.518 9.75158C103.048 9.75158 102.018 8.68158 102.018 7.15158C102.018 5.60158 103.028 4.53158 104.478 4.53158C105.958 4.53158 106.898 5.52158 106.898 7.06158V7.43158L103.178 7.44158C103.268 8.31158 103.728 8.75158 104.538 8.75158C105.208 8.75158 105.648 8.49158 105.788 8.02158H106.918C106.708 9.10158 105.808 9.75158 104.518 9.75158ZM104.488 5.53158C103.768 5.53158 103.328 5.92158 103.208 6.66158H105.688C105.688 5.98158 105.218 5.53158 104.488 5.53158ZM108.85 9.62158L107.25 4.68158H108.52L109.17 6.80158C109.28 7.19158 109.38 7.62158 109.47 8.08158C109.56 7.60158 109.65 7.29158 109.81 6.80158L110.49 4.68158H111.73L112.39 6.80158C112.45 7.00158 112.65 7.74158 112.71 8.07158C112.79 7.70158 112.95 7.11158 113.04 6.80158L113.7 4.68158H114.99L113.28 9.62158H112.14L111.46 7.48158C111.26 6.83158 111.15 6.36158 111.11 6.11158C111.06 6.34158 110.97 6.69158 110.72 7.50158L110.04 9.62158H108.85Z" fill="#F3F3F3"/>
</svg>
