<svg width="129" height="35" viewBox="0 0 129 35" fill="none" xmlns="http://www.w3.org/2000/svg">
<g clip-path="url(#clip0_9282_81501)">
<path fill-rule="evenodd" clip-rule="evenodd" d="M34.3721 17.3521C34.3721 26.6592 26.814 34.2041 17.4906 34.2041C8.64517 34.2041 1.38865 27.4128 0.667969 18.7686H22.9814V15.9355H0.667969C1.38865 7.29124 8.64517 0.5 17.4906 0.5C26.814 0.5 34.3721 8.04491 34.3721 17.3521ZM96.9581 31.1508C102.808 31.1508 106.644 27.9983 106.644 23.2503C106.644 18.8442 103.757 16.7551 99.389 16.0334L95.5145 15.3876C92.5519 14.8939 90.5765 13.6024 90.5765 10.7536C90.5765 7.86682 92.7798 5.66374 96.9581 5.66374C101.022 5.66374 103.111 7.71486 103.339 10.6396H106.264C106.036 6.76528 103.074 3.30873 96.9961 3.30873C90.9943 3.30873 87.6899 6.68929 87.6899 10.8675C87.6899 15.3117 90.6905 17.3628 94.7928 18.0465L98.7053 18.6543C101.972 19.224 103.795 20.5534 103.795 23.3643C103.795 26.6689 101.098 28.796 96.9961 28.796C92.7418 28.796 90.0828 26.7448 89.8549 23.2503H86.9682C87.1961 27.8084 90.6905 31.1508 96.9581 31.1508ZM53.8348 30.6192H43.1995V3.8785H53.455C57.9751 3.8785 61.1279 6.53736 61.1279 10.7916C61.1279 13.8683 59.3805 15.9194 56.5698 16.6031V16.7171C59.9122 17.3628 61.9635 19.6418 61.9635 23.2123C61.9635 27.8084 58.5828 30.6192 53.8348 30.6192ZM53.0751 15.6155C56.3039 15.6155 58.279 13.8683 58.279 11.1334V10.7536C58.279 8.01875 56.3039 6.30947 53.0751 6.30947H46.0482V15.6155H53.0751ZM53.417 28.1882C56.9496 28.1882 59.1146 26.251 59.1146 23.2883V22.9084C59.1146 19.8318 56.9116 17.9705 53.379 17.9705H46.0482V28.1882H53.417ZM84.9684 30.6192H81.9298L79.6506 23.3643H69.015L66.7361 30.6192H63.8492L72.6236 3.8785H76.0803L84.9684 30.6192ZM74.4847 6.80326H74.2568L69.7747 20.9713H78.9289L74.4847 6.80326ZM110.923 30.6192V3.8785H128.091V6.34745H113.772V15.5396H126.952V17.9705H113.772V28.1502H128.091V30.6192H110.923Z" fill="white"/>
</g>
<defs>
<clipPath id="clip0_9282_81501">
<rect width="127.423" height="34" fill="white" transform="translate(0.667969 0.5)"/>
</clipPath>
</defs>
</svg>
