<svg width="117" height="35" viewBox="0 0 117 35" fill="none" xmlns="http://www.w3.org/2000/svg">
<g clip-path="url(#clip0_10201_109873)">
<path fill-rule="evenodd" clip-rule="evenodd" d="M26.7874 21.4101C26.7874 28.7858 20.7803 34.7651 13.3703 34.7651C6.34013 34.7651 0.572783 29.3831 0 22.5327H17.7343V20.2875H0C0.572783 13.4371 6.34013 8.05518 13.3703 8.05518C20.7803 8.05518 26.7874 14.0344 26.7874 21.4101ZM76.5296 32.3454C81.1787 32.3454 84.2276 29.8471 84.2276 26.0844C84.2276 22.5926 81.9334 20.937 78.4616 20.3651L75.3822 19.8533C73.0276 19.462 71.4576 18.4386 71.4576 16.1809C71.4576 13.8932 73.2087 12.1473 76.5296 12.1473C79.7596 12.1473 81.4202 13.7728 81.6013 16.0906H83.9257C83.7446 13.0203 81.39 10.281 76.5598 10.281C71.7897 10.281 69.1634 12.9601 69.1634 16.2713C69.1634 19.7931 71.5482 21.4186 74.8087 21.9605L77.9182 22.4421C80.5143 22.8936 81.9635 23.9472 81.9635 26.1747C81.9635 28.7935 79.82 30.4792 76.5598 30.4792C73.1785 30.4792 71.0652 28.8537 70.8841 26.0844H68.5898C68.7709 29.6966 71.5482 32.3454 76.5296 32.3454ZM42.256 31.9241H33.8033V10.7326H41.9541C45.5466 10.7326 48.0524 12.8397 48.0524 16.2111C48.0524 18.6493 46.6636 20.2748 44.4297 20.8166V20.9069C47.0862 21.4186 48.7166 23.2247 48.7166 26.0543C48.7166 29.6966 46.0296 31.9241 42.256 31.9241ZM41.6522 20.034C44.2184 20.034 45.7881 18.6493 45.7881 16.482V16.1809C45.7881 14.0136 44.2184 12.6591 41.6522 12.6591H36.0673V20.034H41.6522ZM41.9239 29.9976C44.7316 29.9976 46.4523 28.4624 46.4523 26.1145V25.8135C46.4523 23.3752 44.7014 21.9003 41.8937 21.9003H36.0673V29.9976H41.9239ZM67.0004 31.9241H64.5854L62.7739 26.1747H54.3209L52.5097 31.9241H50.2152L57.189 10.7326H59.9363L67.0004 31.9241ZM58.6682 13.0504H58.487L54.9247 24.2783H62.2003L58.6682 13.0504ZM87.6283 31.9241V10.7326H101.274V12.6892H89.8926V19.9738H100.368V21.9003H89.8926V29.9675H101.274V31.9241H87.6283Z" fill="white"/>
</g>
<rect x="95.3633" y="0.756836" width="21" height="9" rx="4.5" fill="#7767F6"/>
<path d="M100.265 7.25684H99.9512V2.61897H100.271L102.989 6.72773V2.61897H103.302V7.25684H102.989L100.265 3.13501V7.25684ZM105.695 7.33522C104.787 7.33522 104.186 6.682 104.186 5.69564C104.186 4.71581 104.781 4.04299 105.656 4.04299C106.473 4.04299 107.034 4.63089 107.034 5.48661V5.69564H104.487C104.513 6.55136 104.957 7.06087 105.695 7.06087C106.251 7.06087 106.603 6.81918 106.727 6.35539H107.034C106.852 7.00208 106.401 7.33522 105.695 7.33522ZM105.656 4.31734C105.016 4.31734 104.565 4.76153 104.493 5.44741H106.727C106.727 4.76806 106.303 4.31734 105.656 4.31734ZM108.405 7.25684L107.36 4.12138H107.667L108.373 6.25088C108.438 6.44031 108.497 6.62974 108.562 6.87144C108.614 6.63628 108.738 6.26394 108.745 6.25088L109.45 4.12138H109.757L110.463 6.25088C110.528 6.44031 110.587 6.62321 110.652 6.8649C110.724 6.59708 110.705 6.64934 110.835 6.25088L111.547 4.12138H111.854L110.803 7.25684H110.496L109.751 5.01629C109.699 4.86605 109.653 4.72234 109.607 4.51331C109.561 4.69621 109.509 4.86605 109.457 5.01629L108.712 7.25684H108.405Z" fill="#F3F3F3"/>
<defs>
<clipPath id="clip0_10201_109873">
<rect width="101.274" height="26.9444" fill="white" transform="translate(0 8.05518)"/>
</clipPath>
</defs>
</svg>
