<svg width="114" height="35" viewBox="0 0 114 35" fill="none" xmlns="http://www.w3.org/2000/svg">
<g clip-path="url(#clip0_10201_109873)">
<path fill-rule="evenodd" clip-rule="evenodd" d="M26.7874 21.4101C26.7874 28.7858 20.7803 34.7651 13.3703 34.7651C6.34013 34.7651 0.572783 29.3831 0 22.5327H17.7343V20.2875H0C0.572783 13.4371 6.34013 8.05518 13.3703 8.05518C20.7803 8.05518 26.7874 14.0344 26.7874 21.4101ZM76.5296 32.3454C81.1787 32.3454 84.2276 29.8471 84.2276 26.0844C84.2276 22.5926 81.9334 20.937 78.4616 20.3651L75.3822 19.8533C73.0276 19.462 71.4576 18.4386 71.4576 16.1809C71.4576 13.8932 73.2087 12.1473 76.5296 12.1473C79.7596 12.1473 81.4202 13.7728 81.6013 16.0906H83.9257C83.7446 13.0203 81.39 10.281 76.5598 10.281C71.7897 10.281 69.1634 12.9601 69.1634 16.2713C69.1634 19.7931 71.5482 21.4186 74.8087 21.9605L77.9182 22.4421C80.5143 22.8936 81.9635 23.9472 81.9635 26.1747C81.9635 28.7935 79.82 30.4792 76.5598 30.4792C73.1785 30.4792 71.0652 28.8537 70.8841 26.0844H68.5898C68.7709 29.6966 71.5482 32.3454 76.5296 32.3454ZM42.256 31.9241H33.8033V10.7326H41.9541C45.5466 10.7326 48.0524 12.8397 48.0524 16.2111C48.0524 18.6493 46.6636 20.2748 44.4297 20.8166V20.9069C47.0862 21.4186 48.7166 23.2247 48.7166 26.0543C48.7166 29.6966 46.0296 31.9241 42.256 31.9241ZM41.6522 20.034C44.2184 20.034 45.7881 18.6493 45.7881 16.482V16.1809C45.7881 14.0136 44.2184 12.6591 41.6522 12.6591H36.0673V20.034H41.6522ZM41.9239 29.9976C44.7316 29.9976 46.4523 28.4624 46.4523 26.1145V25.8135C46.4523 23.3752 44.7014 21.9003 41.8937 21.9003H36.0673V29.9976H41.9239ZM67.0004 31.9241H64.5854L62.7739 26.1747H54.3209L52.5097 31.9241H50.2152L57.189 10.7326H59.9363L67.0004 31.9241ZM58.6682 13.0504H58.487L54.9247 24.2783H62.2003L58.6682 13.0504ZM87.6283 31.9241V10.7326H101.274V12.6892H89.8926V19.9738H100.368V21.9003H89.8926V29.9675H101.274V31.9241H87.6283Z" fill="white"/>
</g>
<path d="M98 8.61859C98 4.27666 101.52 0.756836 105.862 0.756836H109.078C111.644 0.756836 113.724 2.83673 113.724 5.40242C113.724 7.96811 111.644 10.048 109.078 10.048H99.3273C98.5943 10.048 98 9.45375 98 8.72069V8.61859Z" fill="white"/>
<path d="M100.656 7.90234H100.356V4.76688H100.598L100.663 5.37438C100.872 4.93672 101.303 4.6885 101.773 4.6885C102.662 4.6885 102.995 5.21107 102.995 5.99494V7.90234H102.694V6.05373C102.694 5.22414 102.335 4.96285 101.767 4.96285C101.055 4.96285 100.656 5.49196 100.656 6.28236V7.90234ZM105.254 7.98073C104.346 7.98073 103.745 7.32751 103.745 6.34115C103.745 5.36131 104.339 4.6885 105.215 4.6885C106.031 4.6885 106.593 5.2764 106.593 6.13212V6.34115H104.045C104.071 7.19687 104.516 7.70638 105.254 7.70638C105.809 7.70638 106.162 7.46469 106.286 7.0009H106.593C106.41 7.64759 105.959 7.98073 105.254 7.98073ZM105.215 4.96285C104.574 4.96285 104.124 5.40704 104.052 6.09292H106.286C106.286 5.41357 105.861 4.96285 105.215 4.96285ZM107.964 7.90234L106.918 4.76688H107.226L107.931 6.89638C107.996 7.08582 108.055 7.27525 108.12 7.51694C108.173 7.28178 108.297 6.90945 108.303 6.89638L109.009 4.76688H109.316L110.021 6.89638C110.087 7.08582 110.145 7.26872 110.211 7.51041C110.283 7.24259 110.263 7.29485 110.394 6.89638L111.106 4.76688H111.413L110.361 7.90234H110.054L109.309 5.6618C109.257 5.51156 109.211 5.36785 109.166 5.15882C109.12 5.34172 109.068 5.51156 109.015 5.6618L108.271 7.90234H107.964Z" fill="black"/>
<defs>
<clipPath id="clip0_10201_109873">
<rect width="101.274" height="26.9444" fill="white" transform="translate(0 8.05518)"/>
</clipPath>
</defs>
</svg>
