<svg width="194" height="34" viewBox="0 0 194 34" fill="none" xmlns="http://www.w3.org/2000/svg">
<path d="M5.66925 5.24328L14.7308 0L23.7923 5.24328L20.3923 7.08656L14.7308 3.82597L8.9221 7.08656L5.66925 5.24328ZM23.6528 11.7567L20.3923 9.91344L14.7308 13.174L8.9221 9.91344L5.6615 11.7567V15.5827L11.3308 18.8433V25.5039L14.5913 27.4866L17.8519 25.5039V18.9904L23.5212 15.7298V11.7645H23.6528V11.7567ZM23.6528 22.2433V18.4173L20.3923 20.4V24.0788L23.6528 22.2433ZM26.0615 23.5134L20.4 26.774V30.6L29.4693 25.3567V14.8779L26.0693 17L26.0615 23.5134ZM22.8009 8.50387L26.0615 10.4866V14.3125L29.3221 12.3298V8.50387L26.0615 6.52118L22.8009 8.50387ZM11.3308 28.1913V32.0173L14.5913 34L17.8519 32.0173V28.1913L14.5913 30.174L11.3308 28.1913ZM5.6615 22.2433L8.9221 24.0866V20.2606L5.6615 18.2779V22.2433ZM11.3308 8.50387L14.5913 10.4866L17.9913 8.50387L14.7308 6.52118L11.3308 8.50387ZM3.26059 10.4866L6.66059 8.50387L3.26059 6.52118L0 8.50387V12.3298L3.26059 14.3125V10.4866ZM3.26059 17L0 15.0173V25.4961L9.06925 30.7394V26.9134L3.4 23.6528V16.9923L3.26059 17Z" fill="white"/>
<path d="M55.5204 21.3908C55.5204 18.8427 54.1031 17.5648 51.981 16.7129C53.3983 16.0081 54.529 14.7302 54.529 12.6081C54.529 9.63406 52.1204 7.65137 48.2944 7.65137H39.5117V26.6341H48.5732C52.6858 26.4869 55.5204 24.7908 55.5204 21.3908ZM50.2771 13.3129C50.2771 14.7302 49.1463 15.2956 47.3031 15.2956H43.4771V11.1908H47.5819C49.4329 11.1908 50.2771 11.9033 50.2771 13.3129ZM51.4156 20.8254C51.4156 22.2427 50.2848 22.9475 48.4416 22.9475H43.4848V18.8427H48.3022C50.4242 18.6956 51.4156 19.5475 51.4156 20.8254Z" fill="white"/>
<path d="M76.056 26.4869V7.65137H71.9434V19.2687L63.0213 7.65137H59.2031V26.6341H63.3079V14.5908L72.5166 26.6341H76.056V26.4869Z" fill="white"/>
<path d="M96.8837 21.3908C96.8837 18.8427 95.4663 17.5648 93.3443 16.7129C94.7616 16.0081 95.8923 14.7302 95.8923 12.6081C95.8923 9.63406 93.4837 7.65137 89.6577 7.65137H80.875V26.6341H89.9365C94.049 26.4869 96.8837 24.7908 96.8837 21.3908ZM91.7875 13.3129C91.7875 14.7302 90.6568 15.2956 88.8135 15.2956H84.9875V11.1908H89.0923C90.7962 11.1908 91.7875 11.9033 91.7875 13.3129ZM92.7789 20.8254C92.7789 22.2427 91.6481 22.9475 89.8048 22.9475H84.8481V18.8427H89.6654C91.7875 18.6956 92.7789 19.5475 92.7789 20.8254Z" fill="white"/>
<path d="M121.951 23.2353L119.829 21.1132C118.272 22.6699 116.715 23.5219 114.446 23.5219C110.759 23.5219 108.211 20.5478 108.211 16.7219C108.211 13.0353 110.906 10.069 114.446 10.069C116.568 10.069 118.272 11.0604 119.689 12.4777L121.811 9.9296C119.968 8.23347 117.846 6.95557 114.446 6.95557C108.777 6.95557 104.672 11.3469 104.672 16.7296C104.672 22.2517 108.777 26.5036 114.307 26.5036C117.846 26.4881 119.968 25.218 121.951 23.2353Z" fill="white"/>
<path d="M138.096 18.2785V26.2093H141.356V7.22656H138.096V15.1573H129.034V7.22656H125.773V26.2093H129.034V18.2785H138.096Z" fill="white"/>
<path d="M156.369 7.22656H153.255L144.898 26.3487H148.298L150.281 21.8179H159.203L161.186 26.3487H164.725L156.369 7.22656ZM158.072 18.6967H151.559L154.82 11.1919L158.072 18.6967Z" fill="white"/>
<path d="M168.406 7.22656V26.2093H171.659V7.22656H168.406Z" fill="white"/>
<path d="M190.221 20.4006L180.021 7.36597H177.047V26.3487H180.307V12.7487L190.786 26.2092H193.621V7.22656H190.36V20.4006H190.221Z" fill="white"/>
</svg>
