<svg width="118" height="35" viewBox="0 0 118 35" fill="none" xmlns="http://www.w3.org/2000/svg">
<rect x="0.8125" y="0.40918" width="34.1818" height="34.1818" rx="17.0909" fill="white"/>
<path fill-rule="evenodd" clip-rule="evenodd" d="M25.4396 20.6899H14.9009V14.813H13.2754V21.5068C13.2752 21.6133 13.2962 21.7186 13.3374 21.8168C13.3792 21.9143 13.4395 22.0027 13.5151 22.0771C13.6676 22.2284 13.8734 22.3135 14.0882 22.3141H23.3182L21.4129 24.0292H11.1869V14.3005H21.727C21.9275 14.301 22.121 14.2269 22.2698 14.0925L25.9825 10.7615C26.1045 10.6518 26.1905 10.5077 26.229 10.3482C26.2575 10.2288 26.2586 10.1047 26.2323 9.98484C26.2059 9.86495 26.1527 9.75272 26.0768 9.65631C26.0009 9.55997 25.9041 9.4821 25.7937 9.42842C25.6834 9.37481 25.5623 9.34682 25.4396 9.34668H14.0882C13.9815 9.34668 13.8759 9.36772 13.7774 9.40859C13.6788 9.44946 13.5893 9.5093 13.514 9.58481C13.4386 9.66032 13.3788 9.74993 13.3382 9.84849C13.2975 9.94712 13.2766 10.0528 13.2768 10.1595V12.1652H14.9009V10.9626H23.3209L21.4157 12.6777H10.3756C10.2679 12.6769 10.1611 12.6976 10.0616 12.7385C9.96199 12.7794 9.87152 12.8398 9.79558 12.9161C9.71978 12.9911 9.6598 13.0805 9.61922 13.1792C9.57928 13.2776 9.55874 13.3829 9.55859 13.4892V24.8407C9.55845 24.9473 9.57928 25.0529 9.62001 25.1516C9.66066 25.2501 9.72043 25.3398 9.79579 25.4153C9.87116 25.4908 9.96063 25.5507 10.0592 25.5915C10.1577 25.6323 10.2633 25.6534 10.37 25.6534H21.7215C21.9219 25.6532 22.1151 25.5792 22.2643 25.4454L25.977 22.1061C26.099 21.9963 26.185 21.8521 26.2233 21.6924C26.2618 21.5328 26.2508 21.3653 26.192 21.212C26.1332 21.0588 26.0293 20.9269 25.894 20.834C25.7587 20.741 25.5983 20.6912 25.4341 20.6912" fill="#C1C1C1"/>
<path d="M48.9488 23.7089C48.0087 23.7089 47.1325 23.558 46.3201 23.2563C45.5193 22.9429 44.8229 22.5019 44.231 21.9332C43.6391 21.3645 43.1749 20.6972 42.8383 19.9312C42.5133 19.1652 42.3508 18.3237 42.3508 17.4069C42.3508 16.49 42.5133 15.6485 42.8383 14.8825C43.1749 14.1166 43.6391 13.4492 44.231 12.8805C44.8345 12.3118 45.5367 11.8766 46.3375 11.5748C47.1383 11.2615 48.0146 11.1048 48.9662 11.1048C50.0224 11.1048 50.9741 11.2905 51.8213 11.6619C52.6802 12.0217 53.3997 12.5555 53.98 13.2635L52.1695 14.9348C51.7517 14.4589 51.2874 14.1049 50.7768 13.8728C50.2661 13.6291 49.709 13.5072 49.1055 13.5072C48.5368 13.5072 48.0146 13.6001 47.5387 13.7858C47.0629 13.9715 46.6508 14.2384 46.3027 14.5866C45.9545 14.9348 45.6817 15.3468 45.4844 15.8226C45.2987 16.2985 45.2059 16.8266 45.2059 17.4069C45.2059 17.9872 45.2987 18.5152 45.4844 18.9911C45.6817 19.4669 45.9545 19.8789 46.3027 20.2271C46.6508 20.5753 47.0629 20.8422 47.5387 21.0279C48.0146 21.2136 48.5368 21.3065 49.1055 21.3065C49.709 21.3065 50.2661 21.1904 50.7768 20.9583C51.2874 20.7146 51.7517 20.349 52.1695 19.8615L53.98 21.5328C53.3997 22.2407 52.6802 22.7804 51.8213 23.1518C50.9741 23.5232 50.0166 23.7089 48.9488 23.7089ZM59.9138 23.6393C58.9157 23.6393 58.0278 23.4304 57.2502 23.0125C56.4842 22.5947 55.8749 22.026 55.4223 21.3065C54.9812 20.5753 54.7607 19.7455 54.7607 18.817C54.7607 17.8769 54.9812 17.0471 55.4223 16.3275C55.8749 15.5963 56.4842 15.0276 57.2502 14.6214C58.0278 14.2036 58.9157 13.9947 59.9138 13.9947C60.9003 13.9947 61.7823 14.2036 62.56 14.6214C63.3376 15.0276 63.9469 15.5905 64.3879 16.3101C64.8289 17.0297 65.0494 17.8653 65.0494 18.817C65.0494 19.7455 64.8289 20.5753 64.3879 21.3065C63.9469 22.026 63.3376 22.5947 62.56 23.0125C61.7823 23.4304 60.9003 23.6393 59.9138 23.6393ZM59.9138 21.4109C60.3664 21.4109 60.7726 21.3065 61.1324 21.0976C61.4922 20.8887 61.7765 20.5927 61.9855 20.2097C62.1944 19.8151 62.2988 19.3509 62.2988 18.817C62.2988 18.2715 62.1944 17.8073 61.9855 17.4243C61.7765 17.0413 61.4922 16.7453 61.1324 16.5364C60.7726 16.3275 60.3664 16.223 59.9138 16.223C59.4611 16.223 59.0549 16.3275 58.6952 16.5364C58.3354 16.7453 58.0452 17.0413 57.8247 17.4243C57.6158 17.8073 57.5113 18.2715 57.5113 18.817C57.5113 19.3509 57.6158 19.8151 57.8247 20.2097C58.0452 20.5927 58.3354 20.8887 58.6952 21.0976C59.0549 21.3065 59.4611 21.4109 59.9138 21.4109ZM78.9466 13.9947C79.6894 13.9947 80.3451 14.1456 80.9138 14.4473C81.4941 14.7375 81.9467 15.1901 82.2717 15.8052C82.6083 16.4087 82.7766 17.1863 82.7766 18.138V23.5H80.0608V18.5558C80.0608 17.8015 79.9041 17.2444 79.5907 16.8846C79.2773 16.5248 78.8363 16.3449 78.2676 16.3449C77.873 16.3449 77.519 16.4378 77.2057 16.6234C76.8923 16.7975 76.6486 17.0645 76.4745 17.4243C76.3004 17.784 76.2134 18.2425 76.2134 18.7996V23.5H73.4976V18.5558C73.4976 17.8015 73.3409 17.2444 73.0275 16.8846C72.7258 16.5248 72.2905 16.3449 71.7218 16.3449C71.3272 16.3449 70.9733 16.4378 70.6599 16.6234C70.3465 16.7975 70.1028 17.0645 69.9287 17.4243C69.7546 17.784 69.6676 18.2425 69.6676 18.7996V23.5H66.9518V14.134H69.5457V16.6931L69.0583 15.9445C69.3832 15.3062 69.8417 14.8245 70.4336 14.4995C71.0371 14.163 71.7218 13.9947 72.4878 13.9947C73.3467 13.9947 74.0953 14.2152 74.7336 14.6562C75.3835 15.0857 75.813 15.7472 76.0219 16.6409L75.0644 16.3797C75.3777 15.6485 75.8768 15.0682 76.5615 14.6388C77.2579 14.2094 78.0529 13.9947 78.9466 13.9947ZM89.3873 23.6393C88.5053 23.6393 87.7103 23.442 87.0023 23.0474C86.2944 22.6412 85.7315 22.0783 85.3136 21.3587C84.9074 20.6391 84.7043 19.7919 84.7043 18.817C84.7043 17.8305 84.9074 16.9774 85.3136 16.2579C85.7315 15.5383 86.2944 14.9812 87.0023 14.5866C87.7103 14.192 88.5053 13.9947 89.3873 13.9947C90.1766 13.9947 90.8671 14.1688 91.459 14.517C92.0509 14.8651 92.5094 15.3932 92.8343 16.1012C93.1593 16.8091 93.3218 17.7144 93.3218 18.817C93.3218 19.9079 93.1651 20.8132 92.8517 21.5328C92.5384 22.2407 92.0857 22.7688 91.4938 23.117C90.9135 23.4652 90.2114 23.6393 89.3873 23.6393ZM89.8574 21.4109C90.2984 21.4109 90.6988 21.3065 91.0586 21.0976C91.4184 20.8887 91.7027 20.5927 91.9117 20.2097C92.1322 19.8151 92.2424 19.3509 92.2424 18.817C92.2424 18.2715 92.1322 17.8073 91.9117 17.4243C91.7027 17.0413 91.4184 16.7453 91.0586 16.5364C90.6988 16.3275 90.2984 16.223 89.8574 16.223C89.4048 16.223 88.9985 16.3275 88.6388 16.5364C88.279 16.7453 87.9888 17.0413 87.7683 17.4243C87.5594 17.8073 87.455 18.2715 87.455 18.817C87.455 19.3509 87.5594 19.8151 87.7683 20.2097C87.9888 20.5927 88.279 20.8887 88.6388 21.0976C88.9985 21.3065 89.4048 21.4109 89.8574 21.4109ZM92.3121 23.5V21.585L92.3643 18.7996L92.1902 16.0315V10.5825H94.906V23.5H92.3121ZM102.155 23.6393C101.087 23.6393 100.147 23.4304 99.3346 23.0125C98.5337 22.5947 97.9128 22.026 97.4718 21.3065C97.0308 20.5753 96.8102 19.7455 96.8102 18.817C96.8102 17.8769 97.025 17.0471 97.4544 16.3275C97.8954 15.5963 98.4931 15.0276 99.2475 14.6214C100.002 14.2036 100.855 13.9947 101.807 13.9947C102.724 13.9947 103.548 14.192 104.279 14.5866C105.021 14.9696 105.608 15.5267 106.037 16.2579C106.466 16.9774 106.681 17.8421 106.681 18.8518C106.681 18.9563 106.675 19.0781 106.664 19.2174C106.652 19.3451 106.641 19.4669 106.629 19.583H99.0212V17.9988H105.201L104.157 18.4688C104.157 17.9813 104.058 17.5577 103.861 17.1979C103.664 16.8382 103.391 16.5596 103.043 16.3623C102.694 16.1534 102.288 16.0489 101.824 16.0489C101.36 16.0489 100.948 16.1534 100.588 16.3623C100.24 16.5596 99.9671 16.844 99.7698 17.2154C99.5725 17.5751 99.4738 18.0046 99.4738 18.5036V18.9214C99.4738 19.4321 99.5841 19.8847 99.8046 20.2793C100.037 20.6623 100.356 20.9583 100.762 21.1672C101.18 21.3645 101.667 21.4631 102.224 21.4631C102.724 21.4631 103.159 21.3877 103.53 21.2368C103.913 21.086 104.261 20.8596 104.575 20.5579L106.02 22.1247C105.59 22.6121 105.051 22.9893 104.401 23.2563C103.751 23.5116 103.002 23.6393 102.155 23.6393ZM107.137 23.5L111.333 17.9988L111.281 19.4959L107.259 14.134H110.306L112.848 17.6332L111.699 17.668L114.327 14.134H117.217L113.178 19.4437V17.9813L117.357 23.5H114.275L111.612 19.7745L112.743 19.9312L110.097 23.5H107.137Z" fill="white"/>
</svg>
