<svg width="136" height="34" viewBox="0 0 136 34" fill="none" xmlns="http://www.w3.org/2000/svg">
<path d="M38.5578 19.563C38.5558 19.6812 38.507 19.7938 38.4221 19.8762C38.3371 19.9586 38.2229 20.0041 38.1045 20.0028H29.7556C29.9697 22.0634 31.5186 23.9481 33.7097 23.9481C35.2082 23.9481 36.3163 23.3827 37.1474 22.189C37.1861 22.1263 37.2397 22.074 37.3033 22.0368C37.367 21.9996 37.4389 21.9785 37.5126 21.9754C37.5676 21.9739 37.6224 21.9835 37.6735 22.0038C37.7246 22.0241 37.771 22.0546 37.8099 22.0934C37.8488 22.1322 37.8794 22.1785 37.8997 22.2296C37.9201 22.2806 37.9297 22.3352 37.9282 22.3901C37.9285 22.4659 37.9066 22.5401 37.8652 22.6037C37.0215 24.0612 35.3467 24.7773 33.7097 24.7773C30.9015 24.7773 28.8867 22.2644 28.8867 19.5881C28.8867 16.9119 30.8889 14.3989 33.7097 14.3989C36.5304 14.3989 38.5452 16.8867 38.5578 19.563ZM37.6637 19.1735C37.4874 17.1129 35.9008 15.2282 33.7097 15.2282C31.5186 15.2282 29.9697 17.1129 29.7556 19.1735H37.6637Z" fill="white"/>
<path d="M48.708 14.6005C48.8172 14.6036 48.9211 14.6483 48.9984 14.7254C49.0756 14.8025 49.1204 14.9061 49.1236 15.0151C49.1252 15.07 49.1155 15.1246 49.0951 15.1756C49.0748 15.2266 49.0443 15.2729 49.0054 15.3118C48.9665 15.3506 48.92 15.3811 48.8689 15.4013C48.8178 15.4216 48.763 15.4313 48.708 15.4297H46.4666V24.2124C46.4656 24.3221 46.4215 24.427 46.3438 24.5045C46.266 24.5821 46.1609 24.6261 46.051 24.6271C45.9418 24.6239 45.8379 24.5792 45.7607 24.5021C45.6834 24.425 45.6386 24.3214 45.6355 24.2124V15.4297H43.4821C43.4271 15.4313 43.3724 15.4216 43.3213 15.4013C43.2701 15.3811 43.2237 15.3506 43.1848 15.3118C43.1459 15.2729 43.1153 15.2266 43.095 15.1756C43.0747 15.1246 43.065 15.07 43.0666 15.0151C43.0676 14.9054 43.1117 14.8005 43.1894 14.723C43.2671 14.6454 43.3722 14.6014 43.4821 14.6005H45.6355V11.3965C45.6357 11.2903 45.6738 11.1877 45.7431 11.1071C45.8123 11.0265 45.9081 10.9731 46.0132 10.9567C46.072 10.9489 46.1317 10.9539 46.1884 10.9713C46.2451 10.9886 46.2973 11.018 46.3415 11.0574C46.3858 11.0967 46.421 11.1452 46.4447 11.1993C46.4685 11.2535 46.4802 11.3122 46.4792 11.3713V14.6005H48.708Z" fill="white"/>
<path d="M62.3736 18.8469V24.1618C62.3704 24.2707 62.3256 24.3744 62.2484 24.4514C62.1711 24.5285 62.0673 24.5732 61.958 24.5764C61.903 24.578 61.8483 24.5683 61.7972 24.548C61.7461 24.5277 61.6996 24.4972 61.6607 24.4584C61.6218 24.4196 61.5913 24.3733 61.5709 24.3223C61.5506 24.2712 61.5409 24.2166 61.5425 24.1618V18.8469C61.5425 17.0502 60.5225 15.266 58.5203 15.266C55.9514 15.266 54.8433 17.5025 54.9944 19.8018C54.9944 19.8646 55.0195 20.1285 55.0195 20.1662V24.1492C55.0193 24.2554 54.9812 24.358 54.9119 24.4386C54.8427 24.5192 54.7469 24.5725 54.6418 24.589C54.583 24.5967 54.5233 24.5918 54.4666 24.5744C54.4099 24.557 54.3577 24.5277 54.3135 24.4883C54.2692 24.4489 54.234 24.4005 54.2103 24.3463C54.1865 24.2921 54.1748 24.2335 54.1758 24.1743V6.69686C54.1768 6.5872 54.2209 6.4823 54.2986 6.40476C54.3764 6.32721 54.4815 6.28321 54.5914 6.28223C54.7006 6.28539 54.8045 6.33009 54.8817 6.40717C54.959 6.48426 55.0038 6.58789 55.007 6.69686V16.5727C55.7247 15.2911 57.0092 14.4241 58.5077 14.4241C60.9758 14.4241 62.3736 16.5727 62.3736 18.8469Z" fill="white"/>
<path d="M77.3664 19.563C77.3644 19.6812 77.3156 19.7938 77.2307 19.8762C77.1457 19.9586 77.0315 20.0041 76.9131 20.0028H68.5642C68.7783 22.0634 70.3272 23.9481 72.5183 23.9481C74.0168 23.9481 75.1249 23.3827 75.956 22.189C75.9947 22.1263 76.0483 22.074 76.1119 22.0368C76.1756 21.9996 76.2475 21.9785 76.3212 21.9754C76.3762 21.9739 76.4309 21.9835 76.4821 22.0038C76.5332 22.0241 76.5796 22.0546 76.6185 22.0934C76.6574 22.1322 76.688 22.1785 76.7083 22.2296C76.7287 22.2806 76.7383 22.3352 76.7368 22.3901C76.7371 22.4659 76.7152 22.5401 76.6738 22.6037C75.8301 24.0612 74.1553 24.7773 72.5183 24.7773C69.7101 24.7773 67.6953 22.2644 67.6953 19.5881C67.6953 16.9119 69.6975 14.3989 72.5183 14.3989C75.3138 14.3989 77.3538 16.8867 77.3664 19.563ZM76.4597 19.1735C76.2834 17.1129 74.6968 15.2282 72.5057 15.2282C70.3146 15.2282 68.7657 17.1129 68.5516 19.1735H76.4597Z" fill="white"/>
<path d="M87.6299 14.9906C87.6379 15.1021 87.6013 15.2123 87.5281 15.2971C87.455 15.3818 87.3512 15.4342 87.2395 15.4429C84.7839 15.8073 83.6758 17.8051 83.6758 20.1295V24.1125C83.6756 24.2187 83.6374 24.3213 83.5682 24.4019C83.4989 24.4825 83.4031 24.5358 83.298 24.5523C83.2393 24.5601 83.1795 24.5551 83.1229 24.5377C83.0662 24.5204 83.014 24.491 82.9697 24.4516C82.9255 24.4123 82.8903 24.3638 82.8665 24.3096C82.8428 24.2555 82.831 24.1968 82.8321 24.1377V15.0534C82.8323 14.9472 82.8705 14.8446 82.9397 14.764C83.009 14.6834 83.1048 14.6301 83.2099 14.6136C83.2686 14.6059 83.3284 14.6108 83.385 14.6282C83.4417 14.6456 83.4939 14.6749 83.5382 14.7143C83.5824 14.7537 83.6176 14.8021 83.6414 14.8563C83.6651 14.9105 83.6769 14.9691 83.6758 15.0283V16.8753C84.3684 15.7068 85.741 14.6011 87.1765 14.6011C87.3906 14.6011 87.6299 14.7519 87.6299 14.9906Z" fill="white"/>
<path d="M101.355 19.563C101.353 19.6812 101.304 19.7938 101.219 19.8762C101.134 19.9586 101.02 20.0041 100.901 20.0028H92.5525C92.7666 22.0634 94.3154 23.9481 96.5065 23.9481C98.0051 23.9481 99.1132 23.3827 99.9443 22.189C99.983 22.1263 100.037 22.074 100.1 22.0368C100.164 21.9996 100.236 21.9785 100.309 21.9754C100.364 21.9739 100.419 21.9835 100.47 22.0038C100.521 22.0241 100.568 22.0546 100.607 22.0934C100.646 22.1322 100.676 22.1785 100.697 22.2296C100.717 22.2806 100.727 22.3352 100.725 22.3901C100.725 22.4659 100.703 22.5401 100.662 22.6037C99.8184 24.0612 98.1436 24.7773 96.5065 24.7773C93.6984 24.7773 91.6836 22.2644 91.6836 19.5881C91.6836 16.9119 93.6858 14.3989 96.5065 14.3989C99.3273 14.3989 101.342 16.8867 101.355 19.563ZM100.461 19.1735C100.284 17.1129 98.6977 15.2282 96.5065 15.2282C94.3154 15.2282 92.7666 17.1129 92.5525 19.1735H100.461Z" fill="white"/>
<path d="M114.855 15.0911V24.2131C114.852 24.322 114.807 24.4257 114.73 24.5027C114.653 24.5798 114.549 24.6245 114.44 24.6277C114.385 24.6293 114.33 24.6196 114.279 24.5993C114.228 24.579 114.181 24.5485 114.142 24.5097C114.104 24.4709 114.073 24.4246 114.053 24.3736C114.032 24.3225 114.023 24.2679 114.024 24.2131V22.4791C113.332 23.8487 112.11 24.8413 110.549 24.8413C108.068 24.8413 106.695 22.6927 106.695 20.4185V15.0785C106.696 14.9689 106.74 14.864 106.818 14.7864C106.896 14.7089 107.001 14.6649 107.111 14.6639C107.22 14.6671 107.324 14.7118 107.401 14.7889C107.478 14.8659 107.523 14.9696 107.526 15.0785V20.4185C107.526 22.2153 108.546 23.9995 110.549 23.9995C113.357 23.9995 114.024 21.3734 114.024 18.471V15.066C114.025 14.9988 114.042 14.9327 114.074 14.8734C114.106 14.8141 114.151 14.7633 114.207 14.7252C114.262 14.687 114.326 14.6627 114.393 14.6542C114.46 14.6458 114.528 14.6534 114.591 14.6765C114.67 14.7132 114.737 14.7717 114.784 14.8452C114.831 14.9187 114.855 15.004 114.855 15.0911Z" fill="white"/>
<path d="M135.999 18.8104V24.1503C135.996 24.2593 135.951 24.363 135.874 24.44C135.797 24.5171 135.693 24.5618 135.584 24.565C135.529 24.5665 135.474 24.5569 135.423 24.5366C135.372 24.5163 135.325 24.4858 135.286 24.447C135.248 24.4082 135.217 24.3619 135.197 24.3109C135.176 24.2598 135.167 24.2052 135.168 24.1503V18.8104C135.168 17.0136 134.148 15.2546 132.146 15.2546C129.628 15.2546 128.67 17.9434 128.67 20.0291V24.1503C128.667 24.2593 128.623 24.363 128.545 24.44C128.468 24.5171 128.364 24.5618 128.255 24.565C128.2 24.5665 128.145 24.5569 128.094 24.5366C128.043 24.5163 127.997 24.4858 127.958 24.447C127.919 24.4082 127.888 24.3619 127.868 24.3109C127.847 24.2598 127.838 24.2052 127.839 24.1503V18.8104C127.839 17.0136 126.819 15.2546 124.817 15.2546C122.273 15.2546 121.228 17.2523 121.316 19.9161C121.316 19.9789 121.342 20.092 121.316 20.1297V24.1378C121.316 24.244 121.278 24.3466 121.209 24.4272C121.14 24.5078 121.044 24.5611 120.939 24.5775C120.88 24.5853 120.82 24.5804 120.763 24.563C120.707 24.5456 120.655 24.5162 120.61 24.4769C120.566 24.4375 120.531 24.3891 120.507 24.3349C120.483 24.2807 120.472 24.222 120.473 24.1629V15.0535C120.473 14.9474 120.511 14.8447 120.58 14.7641C120.65 14.6835 120.745 14.6302 120.85 14.6138C120.909 14.606 120.969 14.6109 121.026 14.6283C121.082 14.6457 121.135 14.6751 121.179 14.7144C121.223 14.7538 121.258 14.8022 121.282 14.8564C121.306 14.9106 121.317 14.9693 121.316 15.0284V16.5487C122.034 15.2671 123.319 14.4253 124.817 14.4253C126.517 14.4253 127.839 15.5059 128.381 17.0764C129.073 15.5184 130.421 14.4253 132.146 14.4253C134.602 14.4253 135.999 16.5487 135.999 18.8104Z" fill="white"/>
<path d="M10.4518 12.5776L0 17.3145L10.4518 23.4838L20.9162 17.3145L10.4518 12.5776Z" fill="black"/>
<path d="M0 17.3141L10.4518 23.4834V0L0 17.3141Z" fill="white"/>
<path d="M10.4531 0V23.4834L20.9175 17.3141L10.4531 0Z" fill="white"/>
<path d="M0 19.2993L10.4518 34V25.456L0 19.2993Z" fill="white"/>
<path d="M10.4531 25.456V34L20.9175 19.2993L10.4531 25.456Z" fill="white"/>
</svg>
