<svg width="117" height="35" viewBox="0 0 117 35" fill="none" xmlns="http://www.w3.org/2000/svg">
<g id="Hedera">
<g id="full-hedera-logo 1">
<g id="Layer_x0020_1">
<g id="_2285360550768">
<g id="Group">
<path id="Subtract" fill-rule="evenodd" clip-rule="evenodd" d="M0 17.5C0 8.1125 7.6125 0.5 17 0.5C26.3828 0.5 33.9953 8.1125 33.9953 17.5C33.9953 26.8875 26.3875 34.5 17 34.5C7.6125 34.5 0 26.8875 0 17.5ZM21.7508 24.9401H23.9079V10.0598H21.7508V14.5369H12.2469V10.0598H10.0898V24.9401H12.2469V20.3511H21.7508V24.9401ZM21.8533 18.6367H12.3494V16.2654H21.8533V18.6367Z" fill="white"/>
</g>
<path id="Vector" d="M54.5367 24.567V18.4546H46.0204V24.567H44.1289V10.7024H46.0204V16.6983H54.532V10.7024H56.4282V24.567H54.5367ZM64.5904 14.6857C66.0999 14.6857 67.2972 15.1888 68.1823 16.1998C69.0675 17.2107 69.5101 18.4593 69.5101 19.9594H61.483C61.5109 20.5977 61.7066 21.194 62.07 21.7438C62.4334 22.2982 62.9039 22.6848 63.4769 22.9038C63.8543 23.0715 64.2829 23.1554 64.7674 23.1554C65.3405 23.1554 65.9088 23.0436 66.4679 22.8153C67.027 22.587 67.4183 22.2516 67.6373 21.809H69.3936C69.2911 22.396 68.9883 22.9178 68.4945 23.379C68.0007 23.8402 67.4463 24.1943 66.836 24.4412C66.2769 24.6741 65.5874 24.7906 64.7674 24.7906C63.3092 24.7906 62.0979 24.3108 61.1382 23.3464C60.1785 22.382 59.694 21.18 59.694 19.7358C59.694 18.2916 60.1552 17.0849 61.0777 16.1252C62.0001 15.1702 63.1741 14.6857 64.5904 14.6857ZM64.5904 16.2091C63.8357 16.2091 63.1928 16.4048 62.6663 16.7961C62.1399 17.1874 61.7858 17.7465 61.6041 18.4733H67.5394C67.3205 17.7558 66.9524 17.2014 66.4446 16.8054C65.9368 16.4094 65.3218 16.2091 64.5904 16.2091ZM79.9365 24.567V22.9085C79.8993 22.9737 79.7874 23.1367 79.6058 23.3976C79.2424 23.8542 78.7718 24.2036 78.1988 24.4412C77.6258 24.6835 77.0341 24.7999 76.4238 24.7999C74.9935 24.7999 73.8381 24.3154 72.9669 23.3464C72.0957 22.3774 71.6578 21.1754 71.6578 19.7451C71.6578 18.2869 72.0958 17.0803 72.9763 16.1252C73.8568 15.1702 75.0028 14.6903 76.4238 14.6903C77.0341 14.6903 77.6258 14.8021 78.1988 15.0211C78.7718 15.2447 79.2331 15.5755 79.5871 16.0181C79.7688 16.251 79.8853 16.4234 79.9365 16.5259V10.1992H81.7115V24.5717H79.9365V24.567ZM79.9785 19.7451C79.9785 18.7575 79.6803 17.9375 79.0886 17.2946C78.497 16.6517 77.7189 16.3302 76.7546 16.3302C75.7669 16.3302 74.9749 16.6563 74.3832 17.3086C73.7916 17.9608 73.4934 18.7714 73.4934 19.7498C73.4934 20.7374 73.7962 21.5574 74.4019 22.2003C75.0075 22.8432 75.7902 23.1647 76.7546 23.1647C77.7329 23.1647 78.5109 22.8339 79.0979 22.177C79.685 21.5201 79.9785 20.7095 79.9785 19.7451ZM89.5663 14.6857C91.0757 14.6857 92.2731 15.1888 93.1582 16.1998C94.0434 17.2107 94.486 18.4593 94.486 19.9594H86.4589C86.4868 20.5977 86.6825 21.194 87.0459 21.7438C87.4093 22.2982 87.8798 22.6848 88.4528 22.9038C88.8302 23.0715 89.2588 23.1554 89.7433 23.1554C90.3164 23.1554 90.8847 23.0436 91.4438 22.8153C92.0029 22.587 92.3942 22.2516 92.6132 21.809H94.3695C94.267 22.396 93.9642 22.9178 93.4704 23.379C92.9765 23.8402 92.4221 24.1943 91.8118 24.4412C91.2528 24.6741 90.5633 24.7906 89.7433 24.7906C88.2851 24.7906 87.0738 24.3108 86.1141 23.3464C85.1497 22.382 84.6699 21.18 84.6699 19.7358C84.6699 18.2916 85.1311 17.0849 86.0582 16.1252C86.976 15.1702 88.1454 14.6857 89.5663 14.6857ZM89.5663 16.2091C88.8116 16.2091 88.1686 16.4048 87.6422 16.7961C87.1158 17.1874 86.7617 17.7465 86.58 18.4733H92.5153C92.2964 17.7558 91.9283 17.2014 91.4205 16.8054C90.9127 16.4094 90.2931 16.2091 89.5663 16.2091ZM99.1122 19.1208V24.567H97.3372V14.9233H99.1122V16.6983C99.1634 16.5399 99.2753 16.3488 99.443 16.1113C99.7178 15.6687 100.137 15.3472 100.701 15.1469C101.269 14.9465 101.856 14.8441 102.467 14.8441H104.889V16.6191H102.429C101.362 16.6191 100.542 16.7914 99.9694 17.1362C99.401 17.4856 99.1122 18.1425 99.1122 19.1208ZM114.696 24.567V22.9085C114.384 23.5188 113.918 23.9893 113.298 24.3154C112.679 24.6415 112.008 24.8046 111.276 24.8046C109.855 24.8046 108.719 24.3154 107.861 23.3417C107.004 22.3634 106.571 21.1661 106.571 19.7498C106.571 18.3195 107.009 17.1176 107.88 16.1485C108.751 15.1795 109.883 14.695 111.276 14.695C112.618 14.695 113.648 15.1376 114.36 16.0227C114.542 16.2836 114.654 16.4513 114.691 16.5305V14.9279H116.466V24.5717L114.696 24.567ZM114.733 19.7451C114.733 18.7668 114.449 17.9561 113.876 17.3039C113.303 16.6517 112.548 16.3256 111.612 16.3256C110.647 16.3256 109.874 16.6563 109.287 17.3132C108.7 17.9701 108.407 18.7807 108.407 19.7451C108.407 20.7747 108.7 21.5807 109.287 22.1677C109.874 22.8339 110.647 23.1647 111.612 23.1647C112.548 23.1647 113.303 22.8339 113.876 22.1677C114.449 21.5015 114.733 20.6955 114.733 19.7451Z" fill="white"/>
</g>
</g>
</g>
</g>
</svg>
