<svg width="118" height="34" viewBox="0 0 118 34" fill="none" xmlns="http://www.w3.org/2000/svg">
<g id="linea">
<g id="Linea_Logo-Black">
<path id="Vector" d="M30.8894 33.5323H25.9922V9.70117H30.8894V33.5323Z" fill="white"/>
<path id="Vector_2" d="M48.5872 9.2334C51.2904 9.2334 53.4991 10.1813 55.2103 12.0772C56.919 13.973 57.7759 16.3835 57.7759 19.306V33.5298H52.8785V20.052C52.8785 18.2177 52.2878 16.7011 51.1058 15.5045C49.9241 14.3079 48.464 13.7096 46.7232 13.7096C44.7634 13.7096 43.163 14.3079 41.9196 15.5045C40.6762 16.7011 40.0534 18.2177 40.0534 20.052V33.5298H35.1562V9.70121H40.0534V15.8566C40.7058 13.8056 41.7867 12.188 43.296 11.0061C44.8027 9.8243 46.5682 9.2334 48.5897 9.2334H48.5872Z" fill="white"/>
<path id="Vector_3" d="M73.0418 9.2334C76.8656 9.2334 79.9752 10.6024 82.3685 13.3378C84.7618 16.0757 85.7415 19.3848 85.3058 23.2725H65.5791C65.9212 25.2004 66.8077 26.7638 68.2382 27.9605C69.6688 29.157 71.3923 29.7555 73.4135 29.7555C74.9672 29.7555 76.3584 29.3737 77.587 28.6129C78.8156 27.8521 79.7708 26.818 80.4553 25.5106L84.5598 27.3301C83.5036 29.3516 81.9943 30.9668 80.0367 32.1806C78.0794 33.3944 75.8241 34.0002 73.2733 34.0002C69.6984 34.0002 66.6968 32.8182 64.2717 30.4571C61.8466 28.0959 60.6328 25.1561 60.6328 21.6426C60.6328 18.1291 61.8218 15.1844 64.2002 12.8035C66.5787 10.4251 69.5235 9.23586 73.0393 9.23586L73.0418 9.2334ZM73.0418 13.4781C71.237 13.4781 69.676 14.0296 68.3539 15.1351C67.0317 16.2382 66.1528 17.6761 65.7196 19.4488H80.3643C79.9604 17.6761 79.0963 16.2382 77.7766 15.1351C76.4545 14.0321 74.8762 13.4781 73.0418 13.4781Z" fill="white"/>
<path id="Vector_4" d="M98.8453 9.2334C101.706 9.2334 104.038 9.97942 105.84 11.4715C107.642 12.9636 108.546 15.1105 108.546 17.9075V33.5324H103.649V27.1898C102.186 31.7301 99.2491 34.0002 94.8344 34.0002C92.781 34.0002 91.0723 33.3871 89.7035 32.1585C88.3344 30.9299 87.6523 29.322 87.6523 27.3326C87.6523 25.0009 88.4749 23.2504 90.1244 22.0858C91.7716 20.9212 93.8716 20.1973 96.4202 19.9166L101.037 19.4488C102.777 19.2937 103.649 18.5157 103.649 17.1172C103.649 15.9673 103.206 15.049 102.319 14.367C101.433 13.6825 100.276 13.3403 98.8453 13.3403C97.4147 13.3403 96.1468 13.7145 95.1374 14.4605C94.1277 15.2066 93.4829 16.2948 93.2022 17.7253L88.3517 16.5583C88.7874 14.3202 89.952 12.5401 91.8504 11.2179C93.7462 9.89817 96.0778 9.23586 98.8453 9.23586V9.2334ZM96.4202 30.0337C98.4414 30.0337 100.15 29.3564 101.549 28.0049C102.947 26.653 103.646 25.0748 103.646 23.2701V21.9651C103.275 22.588 102.371 22.9746 100.941 23.1297L96.4177 23.6886C95.2357 23.8462 94.2953 24.1934 93.596 24.7375C92.8966 25.2816 92.5472 26.0203 92.5472 26.9534C92.5472 27.8866 92.8966 28.6327 93.596 29.1916C94.2953 29.7505 95.2357 30.0311 96.4177 30.0311L96.4202 30.0337Z" fill="white"/>
<path id="Vector_5" d="M22.6197 33.5323H0V9.70117H5.17541V28.9156H22.6197V33.5323Z" fill="white"/>
<path id="Vector_6" d="M113.163 9.23303C115.713 9.23303 117.78 7.16615 117.78 4.61652C117.78 2.06688 115.713 0 113.163 0C110.614 0 108.547 2.06688 108.547 4.61652C108.547 7.16615 110.614 9.23303 113.163 9.23303Z" fill="white"/>
</g>
</g>
</svg>
