<svg width="119" height="35" viewBox="0 0 119 35" fill="none" xmlns="http://www.w3.org/2000/svg">
<g id="linea">
<g id="Linea_Logo-Black">
<path id="Vector" d="M31.409 34.0323H26.5117V10.2012H31.409V34.0323Z" fill="white"/>
<path id="Vector_2" d="M49.1067 9.7334C51.81 9.7334 54.0186 10.6813 55.7299 12.5772C57.4386 14.473 58.2954 16.8835 58.2954 19.806V34.0298H53.398V20.552C53.398 18.7177 52.8073 17.2011 51.6254 16.0045C50.4437 14.8079 48.9835 14.2096 47.2427 14.2096C45.2829 14.2096 43.6825 14.8079 42.4391 16.0045C41.1957 17.2011 40.5729 18.7177 40.5729 20.552V34.0298H35.6758V10.2012H40.5729V16.3566C41.2253 14.3056 42.3062 12.688 43.8155 11.5061C45.3223 10.3243 47.0877 9.7334 49.1092 9.7334H49.1067Z" fill="white"/>
<path id="Vector_3" d="M73.5613 9.7334C77.3851 9.7334 80.4948 11.1024 82.888 13.8378C85.2813 16.5757 86.2611 19.8848 85.8254 23.7725H66.0986C66.4408 25.7004 67.3272 27.2638 68.7578 28.4605C70.1883 29.657 71.9118 30.2555 73.9331 30.2555C75.4868 30.2555 76.8779 29.8737 78.1065 29.1129C79.3352 28.3521 80.2903 27.318 80.9749 26.0106L85.0794 27.8301C84.0231 29.8516 82.5138 31.4668 80.5562 32.6806C78.5989 33.8944 76.3436 34.5002 73.7929 34.5002C70.2179 34.5002 67.2164 33.3182 64.7913 30.9571C62.3662 28.5959 61.1523 25.6561 61.1523 22.1426C61.1523 18.6291 62.3413 15.6844 64.7198 13.3035C67.0982 10.9251 70.0431 9.73586 73.5588 9.73586L73.5613 9.7334ZM73.5613 13.9781C71.7565 13.9781 70.1956 14.5296 68.8734 15.6351C67.5512 16.7382 66.6723 18.1761 66.2391 19.9488H80.8838C80.48 18.1761 79.6158 16.7382 78.2962 15.6351C76.974 14.5321 75.3957 13.9781 73.5613 13.9781Z" fill="white"/>
<path id="Vector_4" d="M99.3648 9.7334C102.226 9.7334 104.557 10.4794 106.36 11.9715C108.162 13.4636 109.066 15.6105 109.066 18.4075V34.0324H104.168V27.6898C102.706 32.2301 99.7687 34.5002 95.3539 34.5002C93.3005 34.5002 91.5918 33.8871 90.223 32.6585C88.8539 31.4299 88.1719 29.822 88.1719 27.8326C88.1719 25.5009 88.9944 23.7504 90.6439 22.5858C92.2912 21.4212 94.3912 20.6973 96.9397 20.4166L101.556 19.9488C103.297 19.7937 104.168 19.0157 104.168 17.6172C104.168 16.4673 103.725 15.549 102.839 14.867C101.952 14.1825 100.795 13.8403 99.3648 13.8403C97.9343 13.8403 96.6663 14.2145 95.6569 14.9605C94.6473 15.7066 94.0024 16.7948 93.7217 18.2253L88.8712 17.0583C89.3069 14.8202 90.4716 13.0401 92.3699 11.7179C94.2658 10.3982 96.5973 9.73586 99.3648 9.73586V9.7334ZM96.9397 30.5337C98.961 30.5337 100.67 29.8564 102.068 28.5049C103.467 27.153 104.166 25.5748 104.166 23.7701V22.4651C103.794 23.088 102.891 23.4746 101.46 23.6297L96.9372 24.1886C95.7552 24.3462 94.8149 24.6934 94.1155 25.2375C93.4162 25.7816 93.0668 26.5203 93.0668 27.4534C93.0668 28.3866 93.4162 29.1327 94.1155 29.6916C94.8149 30.2504 95.7552 30.5311 96.9372 30.5311L96.9397 30.5337Z" fill="white"/>
<path id="Vector_5" d="M23.1392 34.0323H0.519531V10.2012H5.69494V29.4156H23.1392V34.0323Z" fill="white"/>
<path id="Vector_6" d="M113.683 9.73303C116.233 9.73303 118.299 7.66615 118.299 5.11652C118.299 2.56688 116.233 0.5 113.683 0.5C111.133 0.5 109.066 2.56688 109.066 5.11652C109.066 7.66615 111.133 9.73303 113.683 9.73303Z" fill="white"/>
</g>
</g>
</svg>
