<svg width="177" height="35" viewBox="0 0 177 35" fill="none" xmlns="http://www.w3.org/2000/svg">
<g id="Moonbeam">
<g id="group moonbeam">
<path id="Vector" d="M101.15 4.75808C101.191 5.66378 100.903 6.56947 100.738 7.434C99.9971 10.8509 99.7913 14.3914 98.8856 17.7672C100.244 16.5733 101.767 15.3383 103.661 15.1736C106.008 14.8442 108.437 16.3675 109.219 18.5494C109.713 20.3608 109.507 22.2545 109.136 24.0659C110.083 24.1482 110.989 24.1071 111.936 23.9835C111.689 21.8016 112.265 19.5374 113.706 17.8495C115.517 15.6264 118.687 14.7207 121.446 15.3794C123.833 16.0793 125.192 19.2081 123.71 21.2665C122.104 23.5719 119.387 24.7246 116.876 25.7949C117.535 26.536 118.482 27.0712 119.511 26.9888C122.393 26.8241 124.945 25.2598 127.25 23.6954C127.127 21.0195 127.827 18.0142 130.132 16.3675C132.479 14.6796 135.813 15.0089 138.119 16.5733C139.354 15.6676 141.371 15.7499 142.03 17.3143C142.194 20.0314 141.453 22.7897 142.236 25.4656C142.441 26.1655 143.182 26.9888 143.965 26.536C145.735 25.5891 146.846 23.9012 147.958 22.2957C148.617 20.5666 148.411 18.6317 148.946 16.8615C149.316 16.0381 150.428 15.6264 151.21 16.2028C152.075 16.6145 152.157 17.6025 152.322 18.4259C153.474 16.9026 154.956 15.2559 157.056 15.2971C158.867 15.0501 160.555 16.1205 161.255 17.726C162.367 16.2028 164.137 15.0501 166.113 15.3383C168.336 15.2559 170.271 17.1497 170.271 19.2904C170.477 21.6781 168.295 23.4072 168.213 25.7126C168.171 26.8653 169.571 26.9888 170.394 26.7006C172.741 25.8773 173.935 23.613 175.499 21.884C176.364 22.378 177.434 23.366 176.817 24.4364C175.499 26.3301 173.935 28.2239 171.918 29.4589C170.394 30.4058 168.336 30.6939 166.648 29.9529C165.001 29.2942 164.137 27.4417 164.219 25.7538C164.343 23.86 165.578 22.3368 166.072 20.5254C166.319 19.8667 165.99 18.9611 165.248 18.8375C163.972 18.714 162.778 19.5374 162.037 20.5254C160.926 22.0487 160.391 23.86 159.855 25.6303C159.485 26.9476 159.608 28.4297 159.032 29.7059C158.209 31.188 155.739 29.9941 155.739 28.5532C155.574 26.8653 156.068 25.3009 156.686 23.7777L157.097 22.7073C157.427 21.884 157.715 21.0195 157.921 20.1549C158.044 19.4551 157.385 18.7964 156.686 18.8375C155.08 18.9611 153.886 20.2373 153.186 21.5958C152.075 23.7777 151.375 26.1655 151.169 28.5944C151.087 29.5001 150.469 30.6939 149.316 30.3646C147.876 30.1176 147.299 28.5944 147.546 27.3182C147.423 27.4417 147.299 27.524 147.176 27.6475L146.805 27.9768C145.529 29.1707 144.17 30.4058 142.318 30.3646C139.971 30.0764 138.695 27.6887 138.407 25.6303C137.337 27.5652 136.102 29.7471 133.755 30.2823C131.244 30.6939 128.815 29.0472 127.703 26.9065C125.151 28.9237 121.981 30.4469 118.646 30.3646C116.3 30.2823 114.365 28.7179 113.047 26.9888C111.277 27.524 109.342 27.771 107.654 26.8241C106.049 30.1588 101.644 31.5996 98.2681 30.1176C96.786 29.5001 95.8803 28.1415 95.2216 26.7418C93.1632 28.5532 90.6932 29.9941 87.9349 30.4058C86.4117 30.6528 85.0943 29.3766 84.8061 27.9768C84.1063 25.3009 85.6707 22.7485 85.9588 20.1549C86.1235 19.4139 85.3825 18.714 84.6415 18.9199C82.8301 19.0434 81.6362 20.6489 80.854 22.0898C79.9483 23.9012 79.2073 25.8361 78.878 27.8122C78.7133 28.6355 78.6309 29.5412 78.0134 30.1999C76.8195 30.9409 75.214 29.9117 75.0905 28.6355C75.0081 27.3182 75.2963 26.0008 75.5433 24.6834C74.3495 26.1655 72.2499 26.4536 70.6443 25.4244C69.574 28.8414 65.7453 30.9409 62.2049 30.2823C59.8172 29.8294 57.6764 27.9357 57.2236 25.5479C56.6884 22.9543 57.0589 20.0726 58.6233 17.8495C61.2169 14.4326 67.1862 14.5561 69.821 17.8907C70.8502 19.2081 70.9737 20.8959 70.8913 22.5015C71.6324 22.8308 72.4969 23.0367 73.1556 22.4603C74.967 21.1018 76.2844 19.0846 76.9019 16.9438C77.2312 16.0793 78.4251 15.7088 79.1661 16.2851C79.9483 16.738 80.113 17.6437 80.113 18.4259C81.7597 16.4086 84.4356 15.0501 87.1116 15.3794C88.5524 15.5441 89.5405 16.8203 89.7051 18.1789C90.0345 20.0726 89.4993 21.8428 88.923 23.613L88.7171 24.3129C88.5113 24.8892 88.3466 25.5068 88.2231 26.0831C88.0996 27.03 89.2935 26.783 89.7875 26.4536C91.5577 25.6303 93.1632 24.4776 94.6041 23.119C94.9746 16.985 96.1273 10.9333 96.9095 4.84041C97.3624 2.69968 100.862 2.78201 101.15 4.75808ZM14.0795 1.54697C16.0967 7.14582 17.2082 13.0329 18.1139 18.8787C18.6903 18.22 18.8138 17.3143 19.1431 16.491C20.4605 12.9505 21.6956 9.3689 23.1776 5.86962C23.754 4.51107 24.3303 3.11136 25.236 1.87632C25.5653 1.34113 26.224 1.09412 26.8416 1.21763C27.8296 1.83515 28.0354 3.07019 28.1589 4.09939C28.7353 10.3981 29.0646 16.738 29.5998 23.0367C29.7233 24.9304 30.5467 26.783 30.4643 28.6767C30.135 30.4881 26.8004 30.6939 26.5945 28.6767C25.9359 22.4603 25.4418 16.1616 25.1948 9.90408C23.3834 14.4737 22.1484 19.2904 20.2958 23.86C19.596 25.0951 18.6903 26.9065 17.0024 26.7006C15.9732 26.6595 15.932 25.5068 15.7674 24.7657C14.7382 20.3196 13.7913 15.8734 12.9679 11.3861C11.6506 16.2851 10.2097 21.1841 7.73959 25.6714C6.66922 27.4828 5.39301 29.4589 3.16994 30.0352C2.09957 30.4058 0.329344 30.4881 0 29.1296C0 27.7298 1.68789 27.4417 2.47008 26.536C3.91096 24.8481 4.81666 22.7897 5.68119 20.7724C8.06894 14.7207 9.67449 8.38087 11.1977 2.08216C11.3212 0.764781 13.5031 0.311931 14.0795 1.54697ZM62.9871 19.0022C60.3935 20.4431 60.517 24.3541 62.5754 26.2066C63.7281 27.1535 65.5395 26.6183 66.404 25.5068C67.7626 23.8189 67.5567 21.3488 66.404 19.6197C65.6218 18.5494 64.0575 18.3847 62.9871 19.0022ZM101.726 18.8375C99.1738 19.9079 97.8976 23.3249 99.4208 25.6714C100.203 26.9065 101.973 26.8241 103.167 26.3301C105.761 25.1774 106.708 21.5958 105.102 19.2904C104.361 18.1789 102.797 18.3435 101.726 18.8375ZM133.179 18.9199C130.297 19.9902 130.091 24.1071 132.108 26.0831C132.726 26.6595 133.837 26.8653 134.496 26.2066C136.06 24.7657 136.966 22.7073 137.337 20.6489C136.843 19.0846 134.661 18.467 133.179 18.9199ZM117.494 18.6729C116.259 19.9491 116.135 21.8016 115.847 23.4484C117.411 22.5015 118.852 21.3488 120.211 20.1549C120.705 19.7432 121.116 19.0434 120.787 18.3847C119.922 17.3967 118.317 17.8907 117.494 18.6729ZM48.8253 15.5029C51.5424 16.6556 53.3538 19.4962 53.1479 22.378C48.2901 22.378 43.4323 22.4192 38.5744 22.3368C38.5744 20.4019 39.2331 18.4259 40.6328 17.0673C42.6912 14.9677 46.1082 14.3091 48.8253 15.5029Z" fill="white"/>
<path id="Vector_2" d="M48.6149 34.0283C48.9031 34.0283 49.1501 34.193 49.1501 34.3988C49.1501 34.6047 48.9031 34.7693 48.6149 34.7693H40.793C40.5048 34.7693 40.2578 34.6047 40.2578 34.3988C40.2578 34.193 40.5048 34.0283 40.793 34.0283H48.6149Z" fill="white"/>
<path id="Vector_3" d="M39.1133 34.7696C39.4089 34.7696 39.6485 34.53 39.6485 34.2344C39.6485 33.9388 39.4089 33.6992 39.1133 33.6992C38.8177 33.6992 38.5781 33.9388 38.5781 34.2344C38.5781 34.53 38.8177 34.7696 39.1133 34.7696Z" fill="white"/>
<path id="Vector_4" d="M43.8086 32.7935C44.1042 32.7935 44.3438 32.5539 44.3438 32.2583C44.3438 31.9628 44.1042 31.7231 43.8086 31.7231C43.513 31.7231 43.2734 31.9628 43.2734 32.2583C43.2734 32.5539 43.513 32.7935 43.8086 32.7935Z" fill="white"/>
<path id="Vector_5" d="M52.9854 31.7231C53.2736 31.7231 53.5206 31.9702 53.5206 32.2583C53.5206 32.5465 53.2736 32.7935 52.9854 32.7935H45.3282C45.04 32.7935 44.793 32.5465 44.793 32.2583C44.793 31.9702 45.04 31.7231 45.3282 31.7231H52.9854Z" fill="white"/>
<path id="Vector_6" d="M33.7578 30.817C34.0534 30.817 34.293 30.5773 34.293 30.2818C34.293 29.9862 34.0534 29.7466 33.7578 29.7466C33.4623 29.7466 33.2227 29.9862 33.2227 30.2818C33.2227 30.5773 33.4623 30.817 33.7578 30.817Z" fill="white"/>
<path id="Vector_7" d="M41.373 29.7466C41.6611 29.7466 41.9081 29.9936 41.9081 30.2818C41.9081 30.5699 41.6611 30.817 41.373 30.817H35.0742C34.7861 30.817 34.5391 30.5699 34.5391 30.2818C34.5391 29.9936 34.7861 29.7466 35.0742 29.7466H41.373Z" fill="white"/>
<path id="Vector_8" d="M55.4917 29.7466C55.7798 29.7466 56.0269 29.9936 56.0269 30.2818C56.0269 30.5699 55.7798 30.817 55.4917 30.817H42.9766C42.6884 30.817 42.4414 30.5699 42.4414 30.2818C42.4414 29.9936 42.6884 29.7466 42.9766 29.7466H55.4917Z" fill="white"/>
<path id="Vector_9" d="M53.1487 27.771C53.4368 27.771 53.6839 28.018 53.6839 28.3062C53.6839 28.5944 53.4368 28.8414 53.1487 28.8414H37.793C37.5048 28.8414 37.2578 28.5944 37.2578 28.3062C37.2578 28.018 37.5048 27.771 37.793 27.771H53.1487Z" fill="white"/>
<path id="Vector_10" d="M36.1016 28.8414C36.3972 28.8414 36.6368 28.6018 36.6368 28.3062C36.6368 28.0106 36.3972 27.771 36.1016 27.771C35.806 27.771 35.5664 28.0106 35.5664 28.3062C35.5664 28.6018 35.806 28.8414 36.1016 28.8414Z" fill="white"/>
<path id="Vector_11" d="M49.9377 25.8359C50.2259 25.8359 50.4729 26.0829 50.4729 26.3711C50.4729 26.6593 50.2259 26.9063 49.9377 26.9063H34.5821C34.2939 26.9063 34.0469 26.6593 34.0469 26.3711C34.0469 26.0829 34.2939 25.8359 34.5821 25.8359H49.9377Z" fill="white"/>
<path id="Vector_12" d="M32.7305 26.9063C33.0261 26.9063 33.2657 26.6667 33.2657 26.3711C33.2657 26.0755 33.0261 25.8359 32.7305 25.8359C32.4349 25.8359 32.1953 26.0755 32.1953 26.3711C32.1953 26.6667 32.4349 26.9063 32.7305 26.9063Z" fill="white"/>
<path id="Vector_13" d="M36.1016 24.9302C36.3972 24.9302 36.6368 24.6906 36.6368 24.395C36.6368 24.0995 36.3972 23.8599 36.1016 23.8599C35.806 23.8599 35.5664 24.0995 35.5664 24.395C35.5664 24.6906 35.806 24.9302 36.1016 24.9302Z" fill="white"/>
<path id="Vector_14" d="M54.6244 23.8599C54.9126 23.8599 55.1596 24.1069 55.1596 24.395C55.1596 24.6832 54.9126 24.9302 54.6244 24.9302H37.9102C37.622 24.9302 37.375 24.6832 37.375 24.395C37.375 24.1069 37.622 23.8599 37.9102 23.8599H54.6244Z" fill="white"/>
</g>
</g>
</svg>
