<svg width="139" height="35" viewBox="0 0 139 35" fill="none" xmlns="http://www.w3.org/2000/svg">
<path d="M78.6261 8.05701C78.6557 8.70745 78.4487 9.35788 78.3305 9.97875C77.7983 12.4327 77.6505 14.9753 77 17.3996C77.9757 16.5422 79.0696 15.6553 80.4296 15.537C82.1148 15.3005 83.8592 16.3944 84.4209 17.9614C84.7757 19.2622 84.6279 20.6222 84.3618 21.9231C85.0418 21.9822 85.6922 21.9527 86.3722 21.864C86.1948 20.297 86.6087 18.6709 87.6435 17.4588C88.9444 15.8622 91.2209 15.2118 93.2018 15.6848C94.9166 16.1874 95.8922 18.4344 94.8279 19.9127C93.6748 21.5683 91.7235 22.3961 89.92 23.1648C90.3931 23.697 91.0731 24.0814 91.8122 24.0222C93.8818 23.904 95.7148 22.7805 97.3705 21.657C97.2818 19.7353 97.7844 17.577 99.44 16.3944C101.125 15.1822 103.52 15.4188 105.176 16.5422C106.063 15.8918 107.511 15.9509 107.984 17.0744C108.103 19.0257 107.57 21.0066 108.132 22.9283C108.28 23.4309 108.812 24.0222 109.374 23.697C110.645 23.017 111.444 21.8048 112.242 20.6518C112.715 19.4101 112.567 18.0205 112.951 16.7492C113.217 16.1579 114.016 15.8622 114.577 16.2761C115.198 16.5718 115.257 17.2814 115.376 17.8727C116.204 16.7788 117.268 15.5961 118.776 15.6257C120.077 15.4483 121.289 16.217 121.791 17.3701C122.59 16.2761 123.861 15.4483 125.28 15.6553C126.877 15.5961 128.266 16.9561 128.266 18.4935C128.414 20.2083 126.847 21.4501 126.788 23.1057C126.758 23.9335 127.764 24.0222 128.355 23.8153C130.04 23.224 130.897 21.5979 132.021 20.3561C132.642 20.7109 133.41 21.4205 132.967 22.1892C132.021 23.5492 130.897 24.9092 129.449 25.7961C128.355 26.4761 126.877 26.6831 125.664 26.1509C124.482 25.6779 123.861 24.3474 123.92 23.1353C124.009 21.7753 124.896 20.6814 125.25 19.3805C125.428 18.9074 125.191 18.257 124.659 18.1683C123.743 18.0796 122.885 18.6709 122.353 19.3805C121.555 20.4744 121.17 21.7753 120.786 23.0466C120.52 23.9927 120.609 25.057 120.195 25.9735C119.604 27.0379 117.83 26.1805 117.83 25.1457C117.711 23.9335 118.066 22.8101 118.51 21.7161L118.805 20.9474C119.042 20.3561 119.249 19.7353 119.397 19.1144C119.485 18.6118 119.012 18.1388 118.51 18.1683C117.357 18.257 116.499 19.1735 115.997 20.1492C115.198 21.7161 114.696 23.4309 114.548 25.1753C114.489 25.8257 114.045 26.6831 113.217 26.4466C112.183 26.2692 111.769 25.1753 111.946 24.2588C111.857 24.3474 111.769 24.4066 111.68 24.4953L111.414 24.7318C110.497 25.5892 109.522 26.4761 108.191 26.4466C106.506 26.2396 105.59 24.5248 105.383 23.0466C104.614 24.4361 103.727 26.0031 102.042 26.3874C100.238 26.6831 98.4939 25.5005 97.6957 23.9631C95.8626 25.4118 93.5861 26.5057 91.1913 26.4466C89.5061 26.3874 88.1166 25.264 87.1705 24.0222C85.8992 24.4066 84.5096 24.584 83.2974 23.904C82.1444 26.2987 78.9809 27.3335 76.5565 26.2692C75.4922 25.8257 74.8418 24.8501 74.3687 23.8448C72.8905 25.1457 71.1166 26.1805 69.1357 26.4761C68.0418 26.6535 67.0957 25.737 66.8887 24.7318C66.3861 22.8101 67.5096 20.977 67.7165 19.1144C67.8348 18.5822 67.3026 18.0796 66.7705 18.2274C65.4696 18.3161 64.6122 19.4692 64.0505 20.504C63.4 21.8048 62.8679 23.1944 62.6313 24.6135C62.5131 25.2048 62.4539 25.8553 62.0105 26.3283C61.1531 26.8605 60 26.1214 59.9113 25.2048C59.8522 24.2588 60.0592 23.3127 60.2366 22.3666C59.3792 23.4309 57.8713 23.6379 56.7183 22.8988C55.9496 25.3527 53.2 26.8605 50.6574 26.3874C48.9426 26.0622 47.4052 24.7022 47.08 22.9874C46.6957 21.1248 46.9618 19.0553 48.0852 17.4588C49.9479 15.0048 54.2348 15.0935 56.127 17.4883C56.8661 18.4344 56.9548 19.6466 56.8957 20.7996C57.4278 21.0361 58.0487 21.184 58.5218 20.7701C59.8226 19.7944 60.7687 18.3457 61.2122 16.8083C61.4487 16.1874 62.3061 15.9214 62.8383 16.3353C63.4 16.6605 63.5183 17.3109 63.5183 17.8727C64.7009 16.424 66.6226 15.4483 68.5444 15.6848C69.5792 15.8031 70.2887 16.7196 70.407 17.6953C70.6435 19.0553 70.2592 20.3266 69.8452 21.5979L69.6974 22.1005C69.5496 22.5144 69.4313 22.9579 69.3426 23.3718C69.2539 24.0518 70.1113 23.8744 70.4661 23.6379C71.7374 23.0466 72.8905 22.2187 73.9252 21.2431C74.1913 16.8379 75.0192 12.4918 75.5809 8.11614C75.9061 6.57875 78.4192 6.63788 78.6261 8.05701ZM16.0957 5.75092C17.5444 9.77179 18.3426 13.9996 18.9931 18.1979C19.407 17.7248 19.4957 17.0744 19.7322 16.4831C20.6783 13.9405 21.5652 11.3683 22.6296 8.85527C23.0435 7.87962 23.4574 6.8744 24.1079 5.98745C24.3444 5.6031 24.8174 5.42571 25.2609 5.5144C25.9705 5.95788 26.1183 6.84484 26.207 7.58397C26.6209 12.1074 26.8574 16.6605 27.2418 21.184C27.3305 22.544 27.9218 23.8744 27.8626 25.2344C27.6261 26.5353 25.2313 26.6831 25.0835 25.2344C24.6105 20.7701 24.2557 16.2466 24.0783 11.7527C22.7774 15.0344 21.8905 18.4935 20.56 21.7753C20.0574 22.6622 19.407 23.9631 18.1948 23.8153C17.4557 23.7857 17.4261 22.9579 17.3079 22.4257C16.5687 19.2327 15.8887 16.0396 15.2974 12.817C14.3513 16.3353 13.3165 19.8535 11.5426 23.0761C10.7739 24.377 9.85742 25.7961 8.2609 26.2101C7.4922 26.4761 6.2209 26.5353 5.98438 25.5596C5.98438 24.5544 7.19655 24.3474 7.75829 23.697C8.79307 22.4848 9.44351 21.0066 10.0644 19.5579C11.7792 15.2118 12.9322 10.6588 14.0261 6.13527C14.1148 5.18919 15.6818 4.86397 16.0957 5.75092ZM51.2192 18.2866C49.3565 19.3214 49.4452 22.1301 50.9235 23.4605C51.7513 24.1405 53.0522 23.7561 53.6731 22.9579C54.6487 21.7457 54.5009 19.9718 53.6731 18.7301C53.1113 17.9614 51.9879 17.8431 51.2192 18.2866ZM79.04 18.1683C77.207 18.937 76.2905 21.3909 77.3844 23.0761C77.9461 23.9631 79.2174 23.904 80.0748 23.5492C81.9374 22.7214 82.6174 20.1492 81.4644 18.4935C80.9322 17.6953 79.8087 17.8135 79.04 18.1683ZM101.628 18.2274C99.5583 18.9961 99.4105 21.9527 100.859 23.3718C101.303 23.7857 102.101 23.9335 102.574 23.4605C103.697 22.4257 104.348 20.9474 104.614 19.4692C104.259 18.3457 102.692 17.9022 101.628 18.2274ZM90.3635 18.0501C89.4765 18.9666 89.3879 20.297 89.1809 21.4796C90.3044 20.7996 91.3392 19.9718 92.3148 19.1144C92.6696 18.8187 92.9652 18.3161 92.7287 17.8431C92.1079 17.1335 90.9548 17.4883 90.3635 18.0501ZM41.0487 15.7735C43 16.6014 44.3009 18.6414 44.1531 20.7109C40.6644 20.7109 37.1757 20.7405 33.687 20.6814C33.687 19.2918 34.16 17.8727 35.1652 16.897C36.6435 15.3892 39.0974 14.9161 41.0487 15.7735Z" fill="white"/>
<path d="M40.9002 29.0776C41.1071 29.0776 41.2845 29.1959 41.2845 29.3437C41.2845 29.4916 41.1071 29.6098 40.9002 29.6098H35.2828C35.0758 29.6098 34.8984 29.4916 34.8984 29.3437C34.8984 29.1959 35.0758 29.0776 35.2828 29.0776H40.9002Z" fill="white"/>
<path d="M34.0718 29.61C34.2841 29.61 34.4562 29.4379 34.4562 29.2257C34.4562 29.0134 34.2841 28.8413 34.0718 28.8413C33.8596 28.8413 33.6875 29.0134 33.6875 29.2257C33.6875 29.4379 33.8596 29.61 34.0718 29.61Z" fill="white"/>
<path d="M37.4429 28.1911C37.6552 28.1911 37.8273 28.019 37.8273 27.8067C37.8273 27.5944 37.6552 27.4224 37.4429 27.4224C37.2307 27.4224 37.0586 27.5944 37.0586 27.8067C37.0586 28.019 37.2307 28.1911 37.4429 28.1911Z" fill="white"/>
<path d="M44.0358 27.4224C44.2428 27.4224 44.4202 27.5998 44.4202 27.8067C44.4202 28.0137 44.2428 28.1911 44.0358 28.1911H38.5367C38.3297 28.1911 38.1523 28.0137 38.1523 27.8067C38.1523 27.5998 38.3297 27.4224 38.5367 27.4224H44.0358Z" fill="white"/>
<path d="M30.2281 26.7716C30.4404 26.7716 30.6124 26.5995 30.6124 26.3873C30.6124 26.175 30.4404 26.0029 30.2281 26.0029C30.0158 26.0029 29.8438 26.175 29.8438 26.3873C29.8438 26.5995 30.0158 26.7716 30.2281 26.7716Z" fill="white"/>
<path d="M35.6969 26.0029C35.9038 26.0029 36.0812 26.1803 36.0812 26.3873C36.0812 26.5942 35.9038 26.7716 35.6969 26.7716H31.1734C30.9665 26.7716 30.7891 26.5942 30.7891 26.3873C30.7891 26.1803 30.9665 26.0029 31.1734 26.0029H35.6969Z" fill="white"/>
<path d="M45.837 26.0029C46.044 26.0029 46.2214 26.1803 46.2214 26.3873C46.2214 26.5942 46.044 26.7716 45.837 26.7716H36.8492C36.6422 26.7716 36.4648 26.5942 36.4648 26.3873C36.4648 26.1803 36.6422 26.0029 36.8492 26.0029H45.837Z" fill="white"/>
<path d="M44.1544 24.584C44.3613 24.584 44.5387 24.7614 44.5387 24.9683C44.5387 25.1753 44.3613 25.3527 44.1544 25.3527H33.1265C32.9196 25.3527 32.7422 25.1753 32.7422 24.9683C32.7422 24.7614 32.9196 24.584 33.1265 24.584H44.1544Z" fill="white"/>
<path d="M31.9117 25.3527C32.124 25.3527 32.296 25.1806 32.296 24.9683C32.296 24.7561 32.124 24.584 31.9117 24.584C31.6994 24.584 31.5273 24.7561 31.5273 24.9683C31.5273 25.1806 31.6994 25.3527 31.9117 25.3527Z" fill="white"/>
<path d="M41.8458 23.1943C42.0527 23.1943 42.2301 23.3717 42.2301 23.5787C42.2301 23.7856 42.0527 23.963 41.8458 23.963H30.8179C30.611 23.963 30.4336 23.7856 30.4336 23.5787C30.4336 23.3717 30.611 23.1943 30.8179 23.1943H41.8458Z" fill="white"/>
<path d="M29.4898 23.963C29.7021 23.963 29.8742 23.791 29.8742 23.5787C29.8742 23.3664 29.7021 23.1943 29.4898 23.1943C29.2775 23.1943 29.1055 23.3664 29.1055 23.5787C29.1055 23.791 29.2775 23.963 29.4898 23.963Z" fill="white"/>
<path d="M31.9117 22.5441C32.124 22.5441 32.296 22.372 32.296 22.1597C32.296 21.9475 32.124 21.7754 31.9117 21.7754C31.6994 21.7754 31.5273 21.9475 31.5273 22.1597C31.5273 22.372 31.6994 22.5441 31.9117 22.5441Z" fill="white"/>
<path d="M45.216 21.7754C45.4229 21.7754 45.6003 21.9528 45.6003 22.1597C45.6003 22.3667 45.4229 22.5441 45.216 22.5441H33.2125C33.0055 22.5441 32.8281 22.3667 32.8281 22.1597C32.8281 21.9528 33.0055 21.7754 33.2125 21.7754H45.216Z" fill="white"/>
</svg>
