<svg width="43" height="35" viewBox="0 0 43 35" fill="none" xmlns="http://www.w3.org/2000/svg">
<path id="Vector" d="M36.8739 9.85014L36.9351 9.82431C37.1174 9.74631 37.2512 9.70373 37.3565 9.69034L37.4722 9.67071C37.7094 9.62191 37.9542 9.59752 38.199 9.59752C39.6716 9.59752 40.9013 9.13867 41.7553 8.27073C42.3696 7.64586 42.7562 6.83487 42.8914 5.89611L42.9663 5.89708V0.5H33.9725V4.40474C33.9508 4.68608 33.9525 4.94493 33.9544 5.17412C33.9563 5.42578 33.9578 5.66358 33.9275 5.84396L33.9189 5.90138C33.8173 6.66405 33.4488 7.37218 32.8814 7.89514C32.3003 8.43102 32.0284 8.54872 31.9388 8.57408C31.8486 8.59992 31.7176 8.58795 31.339 8.53676C31.0126 8.49273 30.5653 8.43246 30.0197 8.43246C27.6889 8.43246 25.7354 10.1922 25.4754 12.5276C25.4174 13.0587 25.4502 13.4558 25.4739 13.7453C25.5005 14.0673 25.5086 14.1645 25.397 14.485C25.176 15.1151 24.7053 15.6999 24.0721 16.1309C23.4388 16.562 22.7095 16.7999 22.0198 16.7999L21.9524 16.7989L21.885 16.7999C21.1952 16.7999 20.4661 16.5626 19.8327 16.1309C19.199 15.6999 18.7283 15.1151 18.5082 14.4865C18.3962 14.1645 18.4038 14.0668 18.4308 13.7444C18.4546 13.4549 18.4873 13.0582 18.4295 12.5257C18.17 10.1918 16.2164 8.43197 13.8856 8.43197C13.34 8.43197 12.8926 8.49226 12.5638 8.53676C12.1881 8.58747 12.0567 8.59944 11.9666 8.5736C11.8769 8.54776 11.6051 8.43054 11.0239 7.89418C10.4565 7.3717 10.0884 6.66357 9.98638 5.9009L9.97785 5.84348C9.96313 5.75592 9.95602 5.65497 9.9527 5.5454V0.5H0.956951V5.07459C0.946514 6.3631 1.35878 7.46835 2.14819 8.27122C3.00165 9.13914 4.23132 9.59752 5.70389 9.59752C5.94869 9.59752 6.19301 9.62239 6.43116 9.6712L6.54645 9.69034C6.65129 9.70421 6.78507 9.74679 6.96866 9.82479L7.02892 9.85014C7.63853 10.0932 8.17272 10.5004 8.57359 11.0281C9.56036 12.3257 9.56321 14.1415 8.58118 15.4429C8.25953 15.8696 7.8411 16.2257 7.37191 16.4731L7.32969 16.496C7.20112 16.5668 7.08631 16.6194 6.98099 16.6563C6.93403 16.6726 6.89181 16.6859 6.85243 16.6975L6.80784 16.7108C6.45299 16.8257 6.08152 16.8835 5.70436 16.8835C2.85316 16.8835 0.9375 18.6519 0.9375 21.2839C0.9375 23.3385 1.86639 24.4046 2.64537 24.937C3.59609 25.5868 4.74273 25.771 5.84053 25.8724L5.91643 25.8811C6.20771 25.9194 6.45345 25.9796 6.73573 26.082L6.87188 26.1342L6.89514 26.1428C7.63426 26.3974 8.25337 26.9175 8.63907 27.6078C8.85682 27.9978 9.00768 28.5084 9.06366 29.0446C9.08549 29.2557 9.10019 29.46 9.11441 29.6619C9.12533 29.8155 9.13767 29.9878 9.15427 30.1609V34.1236H18.1481V28.8322L18.0846 28.8312C17.9365 27.8136 17.4574 26.8816 16.6993 26.1576C16.6324 26.0945 16.5708 26.0409 16.5214 25.9982L16.4909 25.972C15.5232 25.1261 14.2646 25.1036 13.3453 25.0868H13.3352C13.1815 25.0839 13.0359 25.081 12.9073 25.0749L12.7693 25.0533L12.4737 24.9868L12.1952 24.9002L11.8949 24.7797C11.5804 24.6356 11.2867 24.4481 11.0263 24.2247L10.9679 24.1739C10.1358 23.4236 9.72308 22.4988 9.70601 21.3472C9.70838 20.5242 9.96931 19.7443 10.4608 19.0912C10.9399 18.4549 11.6188 17.9812 12.3722 17.7572C13.135 17.5309 14.5578 17.5252 15.2438 17.7463C16.4938 18.1486 17.3811 19.3055 17.4507 20.6251C17.4564 20.7342 17.4522 20.8486 17.4474 20.9826C17.4332 21.3696 17.4137 21.8997 17.6352 22.5701C18.2619 24.4352 19.9955 25.693 21.9538 25.7007C23.907 25.693 25.6399 24.4346 26.2681 22.5668C26.4887 21.9003 26.4693 21.3702 26.455 20.9812C26.4502 20.8486 26.446 20.7342 26.4517 20.6257C26.5215 19.3061 27.4086 18.1486 28.6586 17.7467C29.3447 17.5257 30.767 17.5314 31.5298 17.7577C32.2837 17.9821 32.963 18.4558 33.4417 19.0922C33.9331 19.7452 34.1941 20.5252 34.1964 21.3481C34.1794 22.4998 33.7666 23.4247 32.934 24.1753L32.8808 24.2218C32.6162 24.4485 32.322 24.6366 32.0075 24.7806L31.7077 24.9011L31.4292 24.9878L31.1872 25.0442L30.9956 25.0759C30.8675 25.082 30.7214 25.0849 30.5676 25.0878H30.5577C29.6383 25.1046 28.3797 25.127 27.4143 25.971L27.381 26.0003C27.3318 26.0428 27.2706 26.0959 27.2022 26.1605C26.4721 26.8576 26.0006 27.7518 25.8359 28.7294H25.7553V34.125H34.7491V30.1624C34.7657 29.9897 34.778 29.817 34.7889 29.6633C34.8032 29.4647 34.8179 29.2595 34.8398 29.0471C34.8957 28.5097 35.0465 27.9992 35.2644 27.6093C35.6501 26.9194 36.2692 26.3993 37.0083 26.1442L37.1677 26.0835C37.4499 25.9815 37.6957 25.9213 37.9874 25.8825L38.0629 25.8739C39.1606 25.7725 40.3073 25.5882 41.258 24.9385C42.6699 23.9739 42.9659 22.4194 42.9659 21.2854C42.9659 18.6534 41.0502 16.885 38.199 16.885C37.8219 16.885 37.4504 16.8267 37.0955 16.7123L37.051 16.6988C37.0116 16.6874 36.9694 16.6739 36.9252 16.6587C36.8171 16.6213 36.7023 16.5683 36.5708 16.496L36.5315 16.4744C36.0623 16.227 35.6438 15.8711 35.3218 15.4444C34.3397 14.143 34.3426 12.3271 35.3294 11.0296C35.7302 10.5023 36.2644 10.0946 36.8739 9.85205V9.85014Z" fill="white"/>
</svg>
