<svg width="264" height="34" viewBox="0 0 264 34" fill="none" xmlns="http://www.w3.org/2000/svg">
<path d="M36.163 9.35014L36.2242 9.32431C36.4064 9.24631 36.5403 9.20373 36.6455 9.19034L36.7613 9.17071C36.9985 9.12191 37.2433 9.09752 37.4881 9.09752C38.9607 9.09752 40.1904 8.63867 41.0443 7.77073C41.6586 7.14586 42.0453 6.33487 42.1805 5.39611L42.2554 5.39708V0H33.2616V3.90474C33.2398 4.18608 33.2416 4.44493 33.2435 4.67412C33.2454 4.92578 33.2469 5.16358 33.2166 5.34396L33.208 5.40138C33.1064 6.16405 32.7378 6.87218 32.1705 7.39514C31.5893 7.93102 31.3175 8.04873 31.2278 8.07408C31.1377 8.09992 31.0067 8.08795 30.6281 8.03676C30.3017 7.99273 29.8544 7.93246 29.3087 7.93246C26.978 7.93246 25.0245 9.69224 24.7644 12.0276C24.7065 12.5587 24.7393 12.9558 24.7629 13.2453C24.7896 13.5673 24.7976 13.6645 24.6861 13.985C24.4651 14.6151 23.9944 15.1999 23.3612 15.6309C22.7278 16.062 21.9986 16.2999 21.3088 16.2999L21.2415 16.2989L21.174 16.2999C20.4842 16.2999 19.7552 16.0626 19.1218 15.6309C18.488 15.1999 18.0173 14.6151 17.7973 13.9865C17.6852 13.6645 17.6928 13.5668 17.7199 13.2444C17.7437 12.9549 17.7764 12.5582 17.7186 12.0257C17.4591 9.69177 15.5054 7.93197 13.1747 7.93197C12.629 7.93197 12.1817 7.99226 11.8529 8.03676C11.4772 8.08747 11.3458 8.09944 11.2556 8.0736C11.166 8.04776 10.8941 7.93054 10.313 7.39418C9.74559 6.8717 9.37744 6.16357 9.27544 5.4009L9.26691 5.34348C9.2522 5.25592 9.24508 5.15497 9.24177 5.0454V0H0.246013V4.57459C0.235577 5.8631 0.647844 6.96835 1.43726 7.77122C2.29071 8.63914 3.52038 9.09752 4.99295 9.09752C5.23775 9.09752 5.48207 9.12239 5.72022 9.1712L5.83551 9.19034C5.94035 9.20421 6.07414 9.24679 6.25772 9.32479L6.31798 9.35014C6.92759 9.5932 7.46178 10.0004 7.86266 10.5281C8.84942 11.8257 8.85227 13.6415 7.87025 14.9429C7.54859 15.3696 7.13016 15.7257 6.66098 15.9731L6.61875 15.996C6.49019 16.0668 6.37537 16.1194 6.27006 16.1563C6.2231 16.1726 6.18087 16.1859 6.1415 16.1975L6.0969 16.2108C5.74205 16.3257 5.37058 16.3835 4.99343 16.3835C2.14223 16.3835 0.226562 18.1519 0.226562 20.7839C0.226562 22.8385 1.15545 23.9046 1.93443 24.437C2.88515 25.0868 4.0318 25.271 5.12959 25.3724L5.20549 25.3811C5.49678 25.4194 5.74251 25.4796 6.02479 25.582L6.16094 25.6342L6.1842 25.6428C6.92332 25.8974 7.54243 26.4175 7.92813 27.1078C8.14588 27.4978 8.29674 28.0084 8.35272 28.5446C8.37455 28.7557 8.38925 28.96 8.40348 29.1619C8.4144 29.3155 8.42673 29.4878 8.44334 29.6609V33.6236H17.4372V28.3322L17.3737 28.3312C17.2256 27.3136 16.7464 26.3816 15.9884 25.6576C15.9214 25.5945 15.8598 25.5409 15.8105 25.4982L15.78 25.472C14.8122 24.6261 13.5537 24.6036 12.6343 24.5868H12.6243C12.4706 24.5839 12.325 24.581 12.1964 24.5749L12.0583 24.5533L11.7628 24.4868L11.4843 24.4002L11.184 24.2797C10.8695 24.1356 10.5758 23.9481 10.3154 23.7247L10.257 23.6739C9.42489 22.9236 9.01214 21.9988 8.99508 20.8472C8.99744 20.0242 9.25837 19.2443 9.74985 18.5912C10.229 17.9549 10.9079 17.4812 11.6612 17.2572C12.4241 17.0309 13.8469 17.0252 14.5329 17.2463C15.7829 17.6486 16.6701 18.8055 16.7398 20.1251C16.7455 20.2342 16.7413 20.3486 16.7365 20.4826C16.7222 20.8696 16.7028 21.3997 16.9243 22.0701C17.551 23.9352 19.2846 25.193 21.2429 25.2007C23.1961 25.193 24.929 23.9346 25.5572 22.0668C25.7778 21.4003 25.7583 20.8702 25.744 20.4812C25.7393 20.3486 25.7351 20.2342 25.7408 20.1257C25.8106 18.8061 26.6977 17.6486 27.9477 17.2467C28.6338 17.0257 30.0561 17.0314 30.8189 17.2577C31.5727 17.4821 32.2521 17.9558 32.7308 18.5922C33.2221 19.2452 33.4831 20.0252 33.4854 20.8481C33.4684 21.9998 33.0557 22.9247 32.2231 23.6753L32.1699 23.7218C31.9053 23.9485 31.6111 24.1366 31.2965 24.2806L30.9968 24.4011L30.7182 24.4878L30.4763 24.5442L30.2847 24.5759C30.1566 24.582 30.0105 24.5849 29.8567 24.5878H29.8468C28.9274 24.6046 27.6687 24.627 26.7034 25.471L26.6701 25.5003C26.6208 25.5428 26.5596 25.5959 26.4912 25.6605C25.7612 26.3576 25.2897 27.2518 25.125 28.2294H25.0443V33.625H34.0381V29.6624C34.0547 29.4897 34.0671 29.317 34.078 29.1633C34.0923 28.9647 34.107 28.7595 34.1289 28.5471C34.1847 28.0097 34.3356 27.4992 34.5534 27.1093C34.9391 26.4194 35.5582 25.8993 36.2974 25.6442L36.4568 25.5835C36.739 25.4815 36.9847 25.4213 37.2764 25.3825L37.3519 25.3739C38.4497 25.2725 39.5963 25.0882 40.5471 24.4385C41.9589 23.4739 42.255 21.9194 42.255 20.7854C42.255 18.1534 40.3393 16.385 37.4881 16.385C37.1109 16.385 36.7395 16.3267 36.3846 16.2123L36.3401 16.1988C36.3006 16.1874 36.2585 16.1739 36.2143 16.1587C36.1062 16.1213 35.9914 16.0683 35.8599 15.996L35.8206 15.9744C35.3514 15.727 34.9329 15.3711 34.6108 14.9444C33.6288 13.643 33.6316 11.8271 34.6185 10.5296C35.0192 10.0023 35.5535 9.59464 36.163 9.35205V9.35014Z" fill="white"/>
<path d="M98.8818 33.301H93.3087V9.18863C93.3087 7.96209 91.5624 7.73718 91.2514 8.92188L84.8417 33.301H74.2575L67.8453 8.92188C67.5342 7.73718 65.788 7.96209 65.788 9.18863V33.301H60.2148V0.451172H71.2304L78.5524 28.7688C78.8217 29.8149 80.309 29.8149 80.5783 28.7688L87.8636 0.451172H98.8791V33.2984L98.8818 33.301Z" fill="white"/>
<path d="M100.738 21.629C100.738 14.4554 105.274 9.48389 112.447 9.48389C119.62 9.48389 124.197 14.4554 124.197 21.629C124.197 28.8026 119.661 33.8185 112.447 33.8185C105.232 33.8185 100.738 28.847 100.738 21.629ZM118.668 21.629C118.668 16.5292 116.464 13.2864 112.447 13.2864C108.429 13.2864 106.225 16.5292 106.225 21.629C106.225 26.7287 108.471 30.0134 112.447 30.0134C116.423 30.0134 118.668 26.7704 118.668 21.629Z" fill="white"/>
<path d="M141.951 10.0044H147.394L140.179 33.3008H130.07L122.855 10.0044H128.256L134.122 29.3439C134.423 30.3351 135.824 30.3325 136.125 29.3439L141.951 10.007V10.0044Z" fill="white"/>
<path d="M168.78 23.2295H152.789C152.128 23.2295 151.638 23.8362 151.765 24.4874C152.476 28.1514 154.629 30.0159 157.588 30.0159C160.548 30.0159 162.082 28.677 162.903 26.4279H168.389C166.921 31.3995 162.989 33.8185 157.546 33.8185C150.418 33.8185 146.098 28.7188 146.098 21.629C146.098 14.5391 150.546 9.48389 157.546 9.48389C164.547 9.48389 168.91 14.2383 168.91 21.4983C168.91 22.016 168.865 22.6227 168.78 23.2268V23.2295ZM152.885 19.4687H162.178C162.845 19.4687 163.34 18.8516 163.201 18.1978C162.569 15.2008 160.474 13.289 157.543 13.289C154.614 13.289 152.681 14.866 151.87 18.1717C151.706 18.8306 152.207 19.4687 152.885 19.4687Z" fill="white"/>
<path d="M205.022 18.6476V33.3008H199.621V19.6859C199.621 15.321 198.067 13.3335 195.042 13.3335C192.017 13.3335 190.419 15.321 190.419 19.7722V33.3008H185.019V19.6859C185.019 15.321 183.464 13.3335 180.44 13.3335C177.415 13.3335 175.819 15.321 175.819 19.7722V33.3008H170.418V10.0043H175.774V11.0033C175.774 11.9527 176.942 12.4182 177.582 11.7173C178.793 10.3887 180.5 9.48389 182.861 9.48389C185.917 9.48389 188 11.0844 189.2 13.1635C189.605 13.8644 190.595 13.8696 191.014 13.1766C192.236 11.1367 194.286 9.48389 197.421 9.48389C202.604 9.48389 205.025 13.3309 205.025 18.6476H205.022Z" fill="white"/>
<path d="M229.041 23.2295H213.052C212.391 23.2295 211.901 23.8362 212.028 24.4874C212.738 28.1514 214.892 30.0159 217.851 30.0159C220.811 30.0159 222.345 28.677 223.166 26.4279H228.652C227.184 31.3995 223.252 33.8185 217.809 33.8185C210.681 33.8185 206.359 28.7188 206.359 21.629C206.359 14.5391 210.809 9.48389 217.809 9.48389C224.811 9.48389 229.173 14.2383 229.173 21.4983C229.173 22.016 229.128 22.6227 229.041 23.2268V23.2295ZM213.149 19.4687H222.441C223.108 19.4687 223.603 18.8516 223.464 18.1978C222.832 15.2008 220.737 13.289 217.806 13.289C214.877 13.289 212.944 14.866 212.131 18.1717C211.969 18.8306 212.469 19.4687 213.149 19.4687Z" fill="white"/>
<path d="M251.335 18.648V33.301H245.935V19.6862C245.935 15.277 244.076 13.3338 241.01 13.3338C237.943 13.3338 236.086 15.3214 236.086 19.7724V33.301H230.684V10.0046H236.041V11.0638C236.041 12.0183 237.203 12.4656 237.858 11.7699C239.14 10.4022 240.957 9.48682 243.431 9.48682C248.787 9.48682 251.335 13.462 251.335 18.6506V18.648Z" fill="white"/>
<path d="M261.493 29.281C259.506 29.281 258.338 28.6324 258.338 26.3859V15.028C258.338 14.45 258.806 13.9819 259.384 13.9819H263.866V10.0068H259.384C258.806 10.0068 258.338 9.53865 258.338 8.96069V4.47559H252.938V26.6475C252.938 31.1848 256.265 33.3032 260.583 33.3032H263.954V29.2836H261.491L261.493 29.281Z" fill="white"/>
</svg>
