<svg width="307" height="35" viewBox="0 0 307 35" fill="none" xmlns="http://www.w3.org/2000/svg">
<g clip-path="url(#clip0_9282_81543)">
<path d="M37.8739 9.85014L37.9351 9.82431C38.1174 9.74631 38.2512 9.70373 38.3565 9.69034L38.4722 9.67071C38.7094 9.62191 38.9542 9.59752 39.199 9.59752C40.6716 9.59752 41.9013 9.13867 42.7553 8.27073C43.3696 7.64586 43.7562 6.83487 43.8914 5.89611L43.9663 5.89708V0.5H34.9725V4.40474C34.9508 4.68608 34.9525 4.94493 34.9544 5.17412C34.9563 5.42578 34.9578 5.66358 34.9275 5.84396L34.9189 5.90138C34.8173 6.66405 34.4488 7.37218 33.8814 7.89514C33.3003 8.43102 33.0284 8.54873 32.9388 8.57408C32.8486 8.59992 32.7176 8.58795 32.339 8.53676C32.0126 8.49273 31.5653 8.43246 31.0197 8.43246C28.6889 8.43246 26.7354 10.1922 26.4754 12.5276C26.4174 13.0587 26.4502 13.4558 26.4739 13.7453C26.5005 14.0673 26.5086 14.1645 26.397 14.485C26.176 15.1151 25.7053 15.6999 25.0721 16.1309C24.4388 16.562 23.7095 16.7999 23.0198 16.7999L22.9524 16.7989L22.885 16.7999C22.1952 16.7999 21.4661 16.5626 20.8327 16.1309C20.199 15.6999 19.7283 15.1151 19.5082 14.4865C19.3962 14.1645 19.4038 14.0668 19.4308 13.7444C19.4546 13.4549 19.4873 13.0582 19.4295 12.5257C19.17 10.1918 17.2164 8.43197 14.8856 8.43197C14.34 8.43197 13.8926 8.49226 13.5638 8.53676C13.1881 8.58747 13.0567 8.59944 12.9666 8.5736C12.8769 8.54776 12.6051 8.43054 12.0239 7.89418C11.4565 7.3717 11.0884 6.66357 10.9864 5.9009L10.9778 5.84348C10.9631 5.75592 10.956 5.65497 10.9527 5.5454V0.5H1.95695V5.07459C1.94651 6.3631 2.35878 7.46835 3.14819 8.27122C4.00165 9.13914 5.23132 9.59752 6.70389 9.59752C6.94869 9.59752 7.19301 9.62239 7.43116 9.6712L7.54645 9.69034C7.65129 9.70421 7.78507 9.74679 7.96866 9.82479L8.02892 9.85014C8.63853 10.0932 9.17272 10.5004 9.5736 11.0281C10.5604 12.3257 10.5632 14.1415 9.58118 15.4429C9.25953 15.8696 8.8411 16.2257 8.37191 16.4731L8.32969 16.496C8.20112 16.5668 8.08631 16.6194 7.98099 16.6563C7.93403 16.6726 7.89181 16.6859 7.85243 16.6975L7.80784 16.7108C7.45299 16.8257 7.08152 16.8835 6.70436 16.8835C3.85316 16.8835 1.9375 18.6519 1.9375 21.2839C1.9375 23.3385 2.86639 24.4046 3.64537 24.937C4.59609 25.5868 5.74273 25.771 6.84053 25.8724L6.91643 25.8811C7.20771 25.9194 7.45345 25.9796 7.73573 26.082L7.87188 26.1342L7.89514 26.1428C8.63426 26.3974 9.25337 26.9175 9.63907 27.6078C9.85682 27.9978 10.0077 28.5084 10.0637 29.0446C10.0855 29.2557 10.1002 29.46 10.1144 29.6619C10.1253 29.8155 10.1377 29.9878 10.1543 30.1609V34.1236H19.1481V28.8322L19.0846 28.8312C18.9365 27.8136 18.4574 26.8816 17.6993 26.1576C17.6324 26.0945 17.5708 26.0409 17.5214 25.9982L17.4909 25.972C16.5232 25.1261 15.2646 25.1036 14.3453 25.0868H14.3352C14.1815 25.0839 14.0359 25.081 13.9073 25.0749L13.7693 25.0533L13.4737 24.9868L13.1952 24.9002L12.8949 24.7797C12.5804 24.6356 12.2867 24.4481 12.0263 24.2247L11.9679 24.1739C11.1358 23.4236 10.7231 22.4988 10.706 21.3472C10.7084 20.5242 10.9693 19.7443 11.4608 19.0912C11.9399 18.4549 12.6188 17.9812 13.3722 17.7572C14.135 17.5309 15.5578 17.5252 16.2438 17.7463C17.4938 18.1486 18.3811 19.3055 18.4507 20.6251C18.4564 20.7342 18.4522 20.8486 18.4474 20.9826C18.4332 21.3696 18.4137 21.8997 18.6353 22.5701C19.2619 24.4352 20.9955 25.693 22.9538 25.7007C24.907 25.693 26.6399 24.4346 27.2681 22.5668C27.4887 21.9003 27.4693 21.3702 27.455 20.9812C27.4502 20.8486 27.446 20.7342 27.4517 20.6257C27.5215 19.3061 28.4086 18.1486 29.6586 17.7467C30.3447 17.5257 31.767 17.5314 32.5298 17.7577C33.2837 17.9821 33.963 18.4558 34.4417 19.0922C34.9331 19.7452 35.1941 20.5252 35.1964 21.3481C35.1794 22.4998 34.7666 23.4247 33.934 24.1753L33.8808 24.2218C33.6162 24.4485 33.322 24.6366 33.0075 24.7806L32.7077 24.9011L32.4292 24.9878L32.1872 25.0442L31.9956 25.0759C31.8675 25.082 31.7214 25.0849 31.5676 25.0878H31.5577C30.6383 25.1046 29.3797 25.127 28.4143 25.971L28.381 26.0003C28.3318 26.0428 28.2706 26.0959 28.2022 26.1605C27.4721 26.8576 27.0006 27.7518 26.8359 28.7294H26.7553V34.125H35.7491V30.1624C35.7657 29.9897 35.778 29.817 35.7889 29.6633C35.8032 29.4647 35.8179 29.2595 35.8398 29.0471C35.8957 28.5097 36.0465 27.9992 36.2644 27.6093C36.6501 26.9194 37.2692 26.3993 38.0083 26.1442L38.1677 26.0835C38.4499 25.9815 38.6957 25.9213 38.9874 25.8825L39.0629 25.8739C40.1606 25.7725 41.3073 25.5882 42.258 24.9385C43.6699 23.9739 43.9659 22.4194 43.9659 21.2854C43.9659 18.6534 42.0502 16.885 39.199 16.885C38.8219 16.885 38.4504 16.8267 38.0955 16.7123L38.051 16.6988C38.0116 16.6874 37.9694 16.6739 37.9252 16.6587C37.8171 16.6213 37.7023 16.5683 37.5708 16.496L37.5315 16.4744C37.0623 16.227 36.6438 15.8711 36.3218 15.4444C35.3397 14.143 35.3426 12.3271 36.3294 11.0296C36.7302 10.5023 37.2644 10.0946 37.8739 9.85205V9.85014Z" fill="white"/>
<path d="M100.593 33.801H95.0196V9.68863C95.0196 8.46209 93.2734 8.23718 92.9623 9.42188L86.5527 33.801H75.9685L69.5562 9.42188C69.2452 8.23718 67.4989 8.46209 67.4989 9.68863V33.801H61.9258V0.951172H72.9414L80.2633 29.2688C80.5326 30.3149 82.0199 30.3149 82.2892 29.2688L89.5746 0.951172H100.59V33.7984L100.593 33.801Z" fill="white"/>
<path d="M102.449 22.129C102.449 14.9554 106.985 9.98389 114.158 9.98389C121.331 9.98389 125.908 14.9554 125.908 22.129C125.908 29.3026 121.372 34.3185 114.158 34.3185C106.943 34.3185 102.449 29.347 102.449 22.129ZM120.379 22.129C120.379 17.0292 118.175 13.7864 114.158 13.7864C110.14 13.7864 107.936 17.0292 107.936 22.129C107.936 27.2287 110.182 30.5134 114.158 30.5134C118.134 30.5134 120.379 27.2704 120.379 22.129Z" fill="white"/>
<path d="M143.662 10.5044H149.104L141.89 33.8008H131.781L124.566 10.5044H129.967L135.833 29.8439C136.133 30.8351 137.535 30.8325 137.836 29.8439L143.662 10.507V10.5044Z" fill="white"/>
<path d="M170.491 23.7295H154.5C153.839 23.7295 153.349 24.3362 153.476 24.9874C154.187 28.6514 156.34 30.5159 159.299 30.5159C162.259 30.5159 163.793 29.177 164.614 26.9279H170.1C168.632 31.8995 164.7 34.3185 159.257 34.3185C152.129 34.3185 147.809 29.2188 147.809 22.129C147.809 15.0391 152.257 9.98389 159.257 9.98389C166.258 9.98389 170.621 14.7383 170.621 21.9983C170.621 22.516 170.576 23.1227 170.491 23.7268V23.7295ZM154.596 19.9687H163.889C164.556 19.9687 165.051 19.3516 164.912 18.6978C164.28 15.7008 162.185 13.789 159.254 13.789C156.325 13.789 154.392 15.366 153.58 18.6717C153.417 19.3306 153.918 19.9687 154.596 19.9687Z" fill="white"/>
<path d="M206.733 19.1476V33.8008H201.332V20.1859C201.332 15.821 199.778 13.8335 196.753 13.8335C193.728 13.8335 192.13 15.821 192.13 20.2722V33.8008H186.73V20.1859C186.73 15.821 185.175 13.8335 182.151 13.8335C179.126 13.8335 177.529 15.821 177.529 20.2722V33.8008H172.129V10.5043H177.485V11.5033C177.485 12.4527 178.653 12.9182 179.293 12.2173C180.504 10.8887 182.211 9.98389 184.572 9.98389C187.627 9.98389 189.711 11.5844 190.911 13.6635C191.316 14.3644 192.306 14.3696 192.725 13.6766C193.947 11.6367 195.997 9.98389 199.132 9.98389C204.315 9.98389 206.735 13.8309 206.735 19.1476H206.733Z" fill="white"/>
<path d="M230.752 23.7295H214.763C214.102 23.7295 213.612 24.3362 213.739 24.9874C214.449 28.6514 216.603 30.5159 219.562 30.5159C222.522 30.5159 224.056 29.177 224.877 26.9279H230.363C228.895 31.8995 224.963 34.3185 219.52 34.3185C212.392 34.3185 208.07 29.2188 208.07 22.129C208.07 15.0391 212.52 9.98389 219.52 9.98389C226.521 9.98389 230.884 14.7383 230.884 21.9983C230.884 22.516 230.839 23.1227 230.752 23.7268V23.7295ZM214.859 19.9687H224.152C224.819 19.9687 225.314 19.3516 225.175 18.6978C224.543 15.7008 222.448 13.789 219.517 13.789C216.588 13.789 214.655 15.366 213.842 18.6717C213.68 19.3306 214.179 19.9687 214.859 19.9687Z" fill="white"/>
<path d="M253.046 19.148V33.801H247.646V20.1862C247.646 15.777 245.786 13.8338 242.721 13.8338C239.654 13.8338 237.796 15.8214 237.796 20.2724V33.801H232.395V10.5046H237.752V11.5638C237.752 12.5183 238.914 12.9656 239.569 12.2699C240.851 10.9022 242.668 9.98682 245.142 9.98682C250.497 9.98682 253.046 13.962 253.046 19.1506V19.148Z" fill="white"/>
<path d="M263.204 29.781C261.217 29.781 260.049 29.1324 260.049 26.8859V15.528C260.049 14.95 260.517 14.4819 261.095 14.4819H265.577V10.5068H261.095C260.517 10.5068 260.049 10.0386 260.049 9.46069V4.97559H254.648V27.1475C254.648 31.6848 257.976 33.8032 262.294 33.8032H265.664V29.7836H263.201L263.204 29.781Z" fill="white"/>
<path d="M277.633 12.344H280.773V13.4432H276.105V5.91553H277.392V12.1043C277.392 12.2367 277.499 12.344 277.633 12.344Z" fill="white"/>
<path d="M287.325 13.4432L286.652 11.4474C286.619 11.3497 286.527 11.2838 286.424 11.2838H283.23C283.127 11.2838 283.034 11.3497 283.002 11.4474L282.329 13.4432H280.973L283.596 5.91553H286.059L288.681 13.4432H287.325ZM283.762 10.1942H285.892C286.058 10.1942 286.173 10.0336 286.12 9.87775L285.059 6.7462C284.986 6.52864 284.676 6.52864 284.602 6.7462L283.534 9.87775C283.48 10.033 283.596 10.1942 283.762 10.1942Z" fill="white"/>
<path d="M294.968 11.3431C294.968 12.6802 293.939 13.4432 292.064 13.4432H289.062V5.91553H292.045C293.95 5.91553 294.708 6.82652 294.708 7.87655C294.708 8.92659 293.91 9.4714 292.803 9.58047C294.179 9.63022 294.968 10.2038 294.968 11.3431ZM290.349 7.25445V8.78575C290.349 8.9182 290.457 9.02549 290.59 9.02549H292.075C292.902 9.02549 293.381 8.71862 293.381 8.0252C293.381 7.33176 292.902 7.01471 292.075 7.01471H290.59C290.457 7.01471 290.349 7.122 290.349 7.25445ZM292.124 12.3434C293.143 12.3434 293.64 11.9569 293.64 11.2341C293.64 10.5113 293.143 10.1247 292.124 10.1247H290.59C290.457 10.1247 290.349 10.2319 290.349 10.3644V12.1037C290.349 12.2361 290.457 12.3434 290.59 12.3434H292.124Z" fill="white"/>
<path d="M295.246 11.1451H296.583C296.712 12.0663 297.43 12.5218 298.358 12.5218C299.565 12.5218 300.233 12.0465 300.233 11.3627C300.233 10.6788 299.685 10.4613 298.567 10.2137L297.55 9.99557C296.323 9.72826 295.476 9.11395 295.476 7.95482C295.476 6.707 296.722 5.79541 298.309 5.79541C300.033 5.79541 301.101 6.65726 301.32 7.8955H299.983C299.764 7.15231 299.145 6.83586 298.309 6.83586C297.471 6.83586 296.762 7.22243 296.762 7.83616C296.762 8.44987 297.211 8.66804 298.318 8.91556L299.325 9.13372C300.802 9.46037 301.509 10.0447 301.509 11.2236C301.509 12.6398 300.243 13.561 298.328 13.561C296.662 13.561 295.465 12.6506 295.246 11.1451Z" fill="white"/>
<path d="M273.439 7.86563C273.439 8.74245 273.161 9.15 272.68 9.38315C272.502 9.47005 272.504 9.72476 272.683 9.81107C273.158 10.04 273.439 10.444 273.439 11.3028V12.6993C273.439 13.2339 273.669 13.4916 274.118 13.4916H274.238V14.4128H273.888C272.71 14.4128 272.192 13.7691 272.192 12.8575V11.5006C272.192 10.4308 271.883 10.2624 271.195 10.1833V9.00437C271.883 8.92525 272.192 8.75684 272.192 7.66725V6.51832C272.192 5.59774 272.701 4.94385 273.888 4.94385H274.238V5.86503H274.118C273.66 5.86503 273.439 6.13234 273.439 6.67714V7.86563Z" fill="white"/>
<path d="M304.177 11.491C304.177 10.6142 304.456 10.2066 304.935 9.97348C305.113 9.88658 305.112 9.63186 304.933 9.54556C304.459 9.31662 304.177 8.91265 304.177 8.0538V6.65735C304.177 6.12274 303.947 5.86502 303.499 5.86502H303.379V4.94385H303.728C304.905 4.94385 305.423 5.58754 305.423 6.49912V7.85602C305.423 8.92585 305.733 9.09425 306.421 9.17337V10.3523C305.733 10.4314 305.423 10.5998 305.423 11.6894V12.8383C305.423 13.7595 304.914 14.4134 303.728 14.4134H303.379V13.4922H303.499C303.957 13.4922 304.177 13.2249 304.177 12.6801V11.491Z" fill="white"/>
</g>
<defs>
<clipPath id="clip0_9282_81543">
<rect width="306" height="34" fill="white" transform="translate(0.710938 0.5)"/>
</clipPath>
</defs>
</svg>
