<svg width="136" height="35" viewBox="0 0 136 35" fill="none" xmlns="http://www.w3.org/2000/svg">
<g id="Polygon">
<path id="Vector" d="M44.8945 29.0639V12.0868H47.4205L47.661 13.4571H47.7814C48.503 12.5185 49.7295 11.8462 51.4371 11.8462C54.5623 11.8462 57.0646 14.3957 57.0646 18.1697C57.0646 21.9436 54.5645 24.4931 51.4371 24.4931C49.7531 24.4931 48.576 23.795 47.951 23.0025H47.8307V29.0617H44.8967L44.8945 29.0639ZM54.1284 18.1718C54.1284 15.9595 52.7087 14.5655 50.9774 14.5655C49.2462 14.5655 47.8264 15.9595 47.8264 18.1718C47.8264 20.3842 49.2462 21.7782 50.9774 21.7782C52.7087 21.7782 54.1284 20.3842 54.1284 18.1718Z" fill="white"/>
<path id="Vector_2" d="M58.5547 18.1726C58.5547 14.4932 61.1988 11.8491 64.7343 11.8491C68.2697 11.8491 70.9138 14.4932 70.9138 18.1726C70.9138 21.852 68.2697 24.4961 64.7343 24.4961C61.1988 24.4961 58.5547 21.8262 58.5547 18.1726ZM67.9562 18.1726C67.9562 16.0075 66.5128 14.5663 64.7343 14.5663C62.9557 14.5663 61.4888 16.0097 61.4888 18.1726C61.4888 20.3356 62.9557 21.7553 64.7343 21.7553C66.5128 21.7553 67.9562 20.3376 67.9562 18.1726Z" fill="white"/>
<path id="Vector_3" d="M73.0391 24.2544V7.42334H75.973V24.2565H73.0391V24.2544Z" fill="white"/>
<path id="Vector_4" d="M86.8643 12.0869H89.9895L84.6991 26.8753C84.1708 28.3423 83.449 29.064 81.5482 29.064H78.7108V26.3469H81.1165C81.5504 26.3469 81.7887 26.13 81.9348 25.7691L82.2226 24.9766L77.2695 12.0869H80.3947L83.5458 20.5283H84.0269L86.8643 12.0869Z" fill="white"/>
<path id="Vector_5" d="M90.5523 24.8561H93.5336C93.6539 25.6487 94.4465 26.7313 96.3238 26.7313C98.0786 26.7313 99.2342 25.6251 99.2342 23.9411V22.2336H99.1139C98.4652 22.9315 97.2624 23.5567 95.7224 23.5567C92.5972 23.5567 90.1914 21.1509 90.1914 17.6885C90.1914 14.2261 92.5972 11.8462 95.7224 11.8462C97.3332 11.8462 98.5125 12.4949 99.2577 13.4098H99.3781L99.6186 12.0868H102.168V23.9411C102.168 27.163 100.003 29.3045 96.3238 29.3045C92.2127 29.3045 90.6254 26.6109 90.5523 24.8561ZM99.2342 17.6907C99.2342 15.7919 97.8874 14.4688 96.1799 14.4688C94.4723 14.4688 93.1492 15.7919 93.1492 17.6907C93.1492 19.5895 94.4959 20.9362 96.1799 20.9362C97.8639 20.9362 99.2342 19.613 99.2342 17.6907Z" fill="white"/>
<path id="Vector_6" d="M104.207 18.1726C104.207 14.4932 106.851 11.8491 110.387 11.8491C113.922 11.8491 116.566 14.4932 116.566 18.1726C116.566 21.852 113.922 24.4961 110.387 24.4961C106.851 24.4961 104.207 21.8262 104.207 18.1726ZM113.609 18.1726C113.609 16.0075 112.165 14.5663 110.387 14.5663C108.608 14.5663 107.141 16.0097 107.141 18.1726C107.141 20.3356 108.608 21.7553 110.387 21.7553C112.165 21.7553 113.609 20.3376 113.609 18.1726Z" fill="white"/>
<path id="Vector_7" d="M118.608 24.2547V12.0868H121.131L121.372 13.2402H121.492C121.973 12.6882 123.176 11.8462 125.003 11.8462C127.792 11.8462 129.811 13.8652 129.811 16.9432V24.2526H126.877V17.3277C126.877 15.764 125.771 14.6342 124.257 14.6342C122.743 14.6342 121.54 15.8134 121.54 17.3277V24.2526H118.605L118.608 24.2547Z" fill="white"/>
<path id="Vector_8" d="M27.8151 22.8351L35.0277 18.6704C35.4101 18.4491 35.6464 18.0388 35.6464 17.5985V9.26892C35.6464 8.8286 35.4101 8.41835 35.0277 8.19711L27.8151 4.03231C27.4327 3.81107 26.958 3.81322 26.5778 4.03231L19.3651 8.19711C18.9828 8.41835 18.7465 8.8286 18.7465 9.26892V24.154L13.6882 27.073L8.62984 24.154V18.3138L13.6882 15.3948L17.0239 17.3214V13.4036L14.3067 11.8335C14.1199 11.7261 13.9052 11.6681 13.6882 11.6681C13.4712 11.6681 13.2565 11.7261 13.0696 11.8335L5.85689 15.9983C5.47456 16.2196 5.23828 16.6299 5.23828 17.0702V25.3998C5.23828 25.8401 5.47456 26.2503 5.85689 26.4715L13.0696 30.6364C13.4519 30.8555 13.9245 30.8555 14.3067 30.6364L21.5195 26.4715C21.9019 26.2503 22.138 25.8401 22.138 25.3998V10.5126L22.2283 10.461L27.1943 7.59355L32.2527 10.5126V16.3528L27.1943 19.2718L23.8628 17.3493V21.2672L26.5756 22.8331C26.958 23.0521 27.4327 23.0521 27.8129 22.8331L27.8151 22.8351Z" fill="white"/>
</g>
</svg>
