<svg width="158" height="34" viewBox="0 0 158 34" fill="none" xmlns="http://www.w3.org/2000/svg">
<g id="polygon">
<path id="Vector" d="M50.0586 31.8074V10.376H53.2473L53.5509 12.1058H53.7028C54.6138 10.921 56.162 10.0723 58.3177 10.0723C62.2629 10.0723 65.4217 13.2907 65.4217 18.0549C65.4217 22.8189 62.2656 26.0373 58.3177 26.0373C56.1919 26.0373 54.706 25.1561 53.917 24.1556H53.7651V31.8046H50.0614L50.0586 31.8074ZM61.7152 18.0575C61.7152 15.2647 59.9229 13.505 57.7374 13.505C55.552 13.505 53.7597 15.2647 53.7597 18.0575C53.7597 20.8504 55.552 22.6101 57.7374 22.6101C59.9229 22.6101 61.7152 20.8504 61.7152 18.0575Z" fill="white"/>
<path id="Vector_2" d="M67.3047 18.0587C67.3047 13.4139 70.6425 10.0762 75.1056 10.0762C79.5686 10.0762 82.9064 13.4139 82.9064 18.0587C82.9064 22.7035 79.5686 26.0413 75.1056 26.0413C70.6425 26.0413 67.3047 22.671 67.3047 18.0587ZM79.1728 18.0587C79.1728 15.3256 77.3507 13.5062 75.1056 13.5062C72.8604 13.5062 71.0086 15.3283 71.0086 18.0587C71.0086 20.7892 72.8604 22.5814 75.1056 22.5814C77.3507 22.5814 79.1728 20.7918 79.1728 18.0587Z" fill="white"/>
<path id="Vector_3" d="M85.5898 25.7363V4.48926H89.2936V25.7389H85.5898V25.7363Z" fill="white"/>
<path id="Vector_4" d="M103.042 10.3765H106.987L100.309 29.0449C99.6416 30.8968 98.7305 31.8078 96.3309 31.8078H92.7491V28.3778H95.786C96.3337 28.3778 96.6346 28.104 96.819 27.6485L97.1823 26.6479L90.9297 10.3765H94.8748L98.8527 21.0326H99.46L103.042 10.3765Z" fill="white"/>
<path id="Vector_5" d="M107.698 26.4955H111.461C111.613 27.4962 112.614 28.8627 114.984 28.8627C117.199 28.8627 118.658 27.4663 118.658 25.3405V23.185H118.506C117.687 24.066 116.168 24.8552 114.224 24.8552C110.279 24.8552 107.242 21.8182 107.242 17.4474C107.242 13.0766 110.279 10.0723 114.224 10.0723C116.258 10.0723 117.747 10.8911 118.687 12.0462H118.839L119.143 10.376H122.361V25.3405C122.361 29.4077 119.628 32.111 114.984 32.111C109.794 32.111 107.79 28.7108 107.698 26.4955ZM118.658 17.4502C118.658 15.0532 116.957 13.383 114.802 13.383C112.646 13.383 110.976 15.0532 110.976 17.4502C110.976 19.8471 112.676 21.5472 114.802 21.5472C116.928 21.5472 118.658 19.8769 118.658 17.4502Z" fill="white"/>
<path id="Vector_6" d="M124.934 18.0587C124.934 13.4139 128.271 10.0762 132.735 10.0762C137.198 10.0762 140.535 13.4139 140.535 18.0587C140.535 22.7035 137.198 26.0413 132.735 26.0413C128.271 26.0413 124.934 22.671 124.934 18.0587ZM136.802 18.0587C136.802 15.3256 134.98 13.5062 132.735 13.5062C130.489 13.5062 128.637 15.3283 128.637 18.0587C128.637 20.7892 130.489 22.5814 132.735 22.5814C134.98 22.5814 136.802 20.7918 136.802 18.0587Z" fill="white"/>
<path id="Vector_7" d="M143.116 25.7364V10.376H146.302L146.606 11.832H146.758C147.365 11.1352 148.883 10.0723 151.189 10.0723C154.71 10.0723 157.259 12.621 157.259 16.5065V25.7337H153.556V16.992C153.556 15.0179 152.159 13.5918 150.248 13.5918C148.336 13.5918 146.817 15.0803 146.817 16.992V25.7337H143.113L143.116 25.7364Z" fill="white"/>
<path id="Vector_8" d="M28.5002 23.9445L37.6052 18.687C38.0879 18.4078 38.3862 17.8898 38.3862 17.334V6.81898C38.3862 6.26313 38.0879 5.74524 37.6052 5.46595L28.5002 0.20844C28.0175 -0.0708348 27.4183 -0.0681216 26.9383 0.20844L17.8332 5.46595C17.3507 5.74524 17.0524 6.26313 17.0524 6.81898V25.6094L10.6669 29.2942L4.2814 25.6094V18.237L10.6669 14.5521L14.8778 16.9842V12.0385L11.4477 10.0565C11.2118 9.92089 10.9408 9.84768 10.6669 9.84768C10.393 9.84768 10.1219 9.92089 9.88603 10.0565L0.780908 15.314C0.298267 15.5932 0 16.1112 0 16.667V27.1821C0 27.7379 0.298267 28.2557 0.780908 28.535L9.88603 33.7926C10.3686 34.0691 10.9652 34.0691 11.4477 33.7926L20.5528 28.535C21.0355 28.2557 21.3337 27.7379 21.3337 27.1821V8.38892L21.4476 8.32383L27.7166 4.70404L34.1021 8.38892V15.7614L27.7166 19.4463L23.511 17.0194V21.9653L26.9356 23.9419C27.4183 24.2184 28.0175 24.2184 28.4974 23.9419L28.5002 23.9445Z" fill="white"/>
</g>
</svg>
