<svg width="91" height="35" viewBox="0 0 91 35" fill="none" xmlns="http://www.w3.org/2000/svg">
<g clip-path="url(#clip0_9282_81614)">
<path fill-rule="evenodd" clip-rule="evenodd" d="M16.7205 34.3813C21.7003 34.3813 26.1744 32.2153 29.2518 28.7741C27.8202 27.5299 25.6628 27.4543 24.1388 28.6841L23.8477 28.919C21.0573 31.1706 16.9912 30.8381 14.6037 28.1631C13.3015 26.7041 11.0714 26.5551 9.58675 27.8279L6.2299 30.7058C9.10502 33.0059 12.7521 34.3813 16.7205 34.3813ZM22.1694 26.2434C24.8272 24.0987 28.563 24.1757 31.1193 26.247C32.6472 23.7153 33.5263 20.748 33.5263 17.5755C33.5263 14.0501 32.4409 10.7783 30.586 8.07608C29.3902 7.82142 28.0941 8.11885 27.1103 8.99071L26.8302 9.23886C24.1466 11.6169 20.0697 11.4724 17.5612 8.91037C16.1931 7.51303 13.9584 7.46715 12.5341 8.80714L8.6277 12.4823L6.47872 10.1981L10.3851 6.52292C13.0532 4.01277 17.2393 4.09873 19.8021 6.71629C21.1412 8.08398 23.3176 8.16111 24.7502 6.89164L25.0303 6.64351C25.8999 5.8729 26.9059 5.35341 27.9594 5.08019C24.9819 2.40039 21.0416 0.769531 16.7205 0.769531C8.18913 0.769531 1.14255 7.12645 0.0590193 15.362C2.65033 14.1185 5.8467 14.597 7.95951 16.7606C9.29336 18.1265 11.4411 18.2707 12.9455 17.0953L15.1296 15.389C17.8747 13.2445 21.755 13.3483 24.3814 15.6365L28.6337 19.3413L26.5736 21.7059L22.3213 18.0012C20.8279 16.7 18.6214 16.6409 17.0605 17.8603L14.8763 19.5668C12.1122 21.7261 8.16633 21.4613 5.7157 18.9517C4.29068 17.4924 1.96004 17.4415 0.472651 18.8372L0 19.2807C0.353719 22.7908 1.78758 25.9822 3.96415 28.5174L7.5455 25.447C10.3266 23.0626 14.5042 23.3417 16.9435 26.0747C18.2181 27.5028 20.3886 27.6803 21.8782 26.4783L22.1694 26.2434Z" fill="white"/>
<path d="M45.6328 22.9652C45.6328 26.4818 48.3931 28.7883 52.7415 28.7883C57.1278 28.7883 60.1528 26.5574 60.1528 23.0409C60.1528 20.2805 58.6025 18.8437 55.464 18.0874L52.2122 17.2933C50.3972 16.8396 49.4897 16.0077 49.4897 14.7599C49.4897 13.0584 50.7375 12.0752 52.9684 12.0752C55.1237 12.0752 56.3715 13.2474 56.4471 15.1003H59.8503C59.7747 11.5837 57.1278 9.31494 53.0819 9.31494C48.9981 9.31494 46.1244 11.4702 46.1244 14.8734C46.1244 17.5959 47.6747 19.2218 50.9644 20.0159L54.2162 20.7721C56.1446 21.2637 56.7497 22.0199 56.7497 23.2677C56.7497 24.9693 55.3128 25.9902 52.8172 25.9902C50.4728 25.9902 49.0359 24.8558 49.0359 22.9652H45.6328Z" fill="white"/>
<path d="M72.829 28.7883C77.4044 28.7883 80.505 26.5574 81.4124 22.5871H78.085C77.48 24.7045 75.665 25.839 72.9046 25.839C69.3881 25.839 67.3463 23.6836 67.0815 19.7889L81.3747 19.7512V18.4277C81.3747 12.9449 77.9337 9.31494 72.6778 9.31494C67.3084 9.31494 63.6406 13.323 63.6406 19.1083C63.6406 24.8558 67.384 28.7883 72.829 28.7883ZM72.6778 12.3021C75.8162 12.3021 77.8202 14.344 77.8202 17.4068H67.1572C67.6109 14.1549 69.5772 12.3021 72.6778 12.3021Z" fill="white"/>
<path d="M87.8404 5.45827C89.126 5.45827 90.1846 4.39951 90.1846 3.11389C90.1846 1.79046 89.126 0.769531 87.8404 0.769531C86.5548 0.769531 85.4961 1.79046 85.4961 3.11389C85.4961 4.39951 86.5548 5.45827 87.8404 5.45827ZM86.101 28.3348H89.6558V9.84449H86.101V28.3348Z" fill="white"/>
</g>
<defs>
<clipPath id="clip0_9282_81614">
<rect width="90.3684" height="34" fill="white" transform="translate(0 0.769531)"/>
</clipPath>
</defs>
</svg>
