<svg width="91" height="35" viewBox="0 0 91 35" fill="none" xmlns="http://www.w3.org/2000/svg">
<g clip-path="url(#clip0_9282_81614)">
<path fill-rule="evenodd" clip-rule="evenodd" d="M16.7205 34.1118C21.7003 34.1118 26.1744 31.9458 29.2518 28.5045C27.8202 27.2604 25.6628 27.1848 24.1388 28.4145L23.8477 28.6495C21.0573 30.9011 16.9912 30.5686 14.6037 27.8935C13.3015 26.4346 11.0714 26.2856 9.58675 27.5584L6.2299 30.4363C9.10502 32.7364 12.7521 34.1118 16.7205 34.1118ZM22.1694 25.9739C24.8272 23.8292 28.563 23.9061 31.1193 25.9775C32.6472 23.4458 33.5263 20.4785 33.5263 17.3059C33.5263 13.7806 32.4409 10.5088 30.586 7.80655C29.3902 7.55189 28.0941 7.84931 27.1103 8.72118L26.8302 8.96933C24.1466 11.3473 20.0697 11.2028 17.5612 8.64083C16.1931 7.2435 13.9584 7.19761 12.5341 8.53761L8.6277 12.2127L6.47872 9.92856L10.3851 6.25339C13.0532 3.74324 17.2393 3.8292 19.8021 6.44676C21.1412 7.81445 23.3176 7.89158 24.7502 6.62211L25.0303 6.37397C25.8999 5.60337 26.9059 5.08388 27.9594 4.81065C24.9819 2.13086 21.0416 0.5 16.7205 0.5C8.18913 0.5 1.14255 6.85692 0.0590193 15.0924C2.65033 13.8489 5.8467 14.3274 7.95951 16.4911C9.29336 17.857 11.4411 18.0011 12.9455 16.8258L15.1296 15.1195C17.8747 12.975 21.755 13.0787 24.3814 15.3669L28.6337 19.0718L26.5736 21.4364L22.3213 17.7316C20.8279 16.4304 18.6214 16.3714 17.0605 17.5908L14.8763 19.2973C12.1122 21.4566 8.16633 21.1918 5.7157 18.6822C4.29068 17.2229 1.96004 17.172 0.472651 18.5677L0 19.0112C0.353719 22.5213 1.78758 25.7127 3.96415 28.2478L7.5455 25.1775C10.3266 22.7931 14.5042 23.0722 16.9435 25.8052C18.2181 27.2333 20.3886 27.4107 21.8782 26.2087L22.1694 25.9739Z" fill="white"/>
<path d="M45.6328 22.6956C45.6328 26.2122 48.3931 28.5188 52.7415 28.5188C57.1278 28.5188 60.1528 26.2878 60.1528 22.7713C60.1528 20.011 58.6025 18.5741 55.464 17.8179L52.2122 17.0238C50.3972 16.5701 49.4897 15.7382 49.4897 14.4904C49.4897 12.7888 50.7375 11.8057 52.9684 11.8057C55.1237 11.8057 56.3715 12.9779 56.4471 14.8307H59.8503C59.7747 11.3141 57.1278 9.04541 53.0819 9.04541C48.9981 9.04541 46.1244 11.2007 46.1244 14.6038C46.1244 17.3263 47.6747 18.9522 50.9644 19.7463L54.2162 20.5026C56.1446 20.9941 56.7497 21.7504 56.7497 22.9982C56.7497 24.6998 55.3128 25.7207 52.8172 25.7207C50.4728 25.7207 49.0359 24.5863 49.0359 22.6956H45.6328Z" fill="white"/>
<path d="M72.829 28.5188C77.4044 28.5188 80.505 26.2878 81.4124 22.3175H78.085C77.48 24.435 75.665 25.5694 72.9046 25.5694C69.3881 25.5694 67.3463 23.4141 67.0815 19.5194L81.3747 19.4817V18.1582C81.3747 12.6754 77.9337 9.04541 72.6778 9.04541C67.3084 9.04541 63.6406 13.0535 63.6406 18.8388C63.6406 24.5863 67.384 28.5188 72.829 28.5188ZM72.6778 12.0326C75.8162 12.0326 77.8202 14.0745 77.8202 17.1373H67.1572C67.6109 13.8853 69.5772 12.0326 72.6778 12.0326Z" fill="white"/>
<path d="M87.8404 5.18873C89.126 5.18873 90.1846 4.12998 90.1846 2.84436C90.1846 1.52093 89.126 0.5 87.8404 0.5C86.5548 0.5 85.4961 1.52093 85.4961 2.84436C85.4961 4.12998 86.5548 5.18873 87.8404 5.18873ZM86.101 28.0652H89.6558V9.57496H86.101V28.0652Z" fill="white"/>
</g>
<defs>
<clipPath id="clip0_9282_81614">
<rect width="90.3684" height="34" fill="white" transform="translate(0 0.5)"/>
</clipPath>
</defs>
</svg>
