<svg width="230" height="34" viewBox="0 0 230 34" fill="none" xmlns="http://www.w3.org/2000/svg">
<mask id="mask0_10201_109789" style="mask-type:luminance" maskUnits="userSpaceOnUse" x="0" y="0" width="230" height="34">
<path d="M229.5 0H0V34H229.5V0Z" fill="white"/>
</mask>
<g mask="url(#mask0_10201_109789)">
<path d="M38.6558 26.8033L32.38 33.5325C32.2459 33.6811 32.0819 33.7995 31.8989 33.8801C31.7157 33.9608 31.5175 34.0016 31.3175 34H1.56746C1.42527 33.9987 1.28647 33.9564 1.16783 33.878C1.04919 33.7997 0.955766 33.6886 0.898848 33.5583C0.841929 33.4279 0.823944 33.284 0.847063 33.1436C0.870181 33.0034 0.933417 32.8728 1.02914 32.7675L7.30496 26.0383C7.58542 25.7529 7.96735 25.59 8.36746 25.585H38.1175C38.2597 25.5824 38.3995 25.622 38.5194 25.6985C38.6392 25.7751 38.7339 25.8853 38.7912 26.0154C38.8487 26.1456 38.8666 26.2896 38.8425 26.4299C38.8184 26.57 38.7534 26.6999 38.6558 26.8033ZM32.38 13.26C32.2499 13.1038 32.0876 12.9773 31.9042 12.8893C31.7209 12.8013 31.5208 12.7538 31.3175 12.75H1.56746C1.42527 12.7475 1.28548 12.787 1.16561 12.8635C1.04575 12.9401 0.951152 13.0503 0.893671 13.1804C0.836188 13.3105 0.81838 13.4547 0.842478 13.5948C0.866576 13.735 0.931507 13.8649 1.02914 13.9684L7.30496 20.6975C7.43099 20.8617 7.59141 20.9961 7.77497 21.0916C7.95853 21.1871 8.16077 21.2411 8.36746 21.25H38.1175C38.2597 21.2526 38.3995 21.2132 38.5194 21.1365C38.6392 21.06 38.7339 20.9498 38.7912 20.8196C38.8487 20.6896 38.8666 20.5453 38.8425 20.4052C38.8184 20.2651 38.7534 20.1351 38.6558 20.0317L32.38 13.26ZM1.56746 8.41504H31.3175C31.7175 8.4101 32.0995 8.24714 32.38 7.96171L38.6558 1.23254C38.7516 1.12738 38.8147 0.996757 38.8378 0.856446C38.8609 0.716135 38.8429 0.572131 38.7861 0.441817C38.7292 0.311502 38.6358 0.200447 38.5171 0.122056C38.3985 0.0436645 38.2597 0.00128793 38.1175 4.1056e-05H8.36746C8.1674 -0.00148209 7.96927 0.0393914 7.78613 0.11997C7.603 0.200549 7.43902 0.319006 7.30496 0.467541L1.02914 7.19671C0.931507 7.30014 0.866576 7.43008 0.842478 7.57024C0.81838 7.71041 0.836188 7.85457 0.893671 7.98466C0.951152 8.11475 1.04575 8.22498 1.16561 8.30155C1.28548 8.37811 1.42527 8.41759 1.56746 8.41504Z" fill="white"/>
<path d="M75.4228 14.3795H59.5136V9.13774H79.5595V3.89607H59.5136C58.8271 3.89235 58.1467 4.02387 57.511 4.28313C56.8754 4.5424 56.297 4.92433 55.8089 5.40712C55.3209 5.8899 54.9327 6.46411 54.6665 7.09692C54.4005 7.72973 54.2615 8.40875 54.2578 9.09524V14.422C54.2615 15.1084 54.4005 15.7875 54.6665 16.4202C54.9327 17.053 55.3209 17.6272 55.8089 18.11C56.297 18.5928 56.8754 18.9747 57.511 19.234C58.1467 19.4932 58.8271 19.6248 59.5136 19.6211H75.3945V24.8628H54.5836V30.1045H75.4228C76.1158 30.1175 76.8048 29.9931 77.4494 29.7383C78.0939 29.4833 78.6817 29.1032 79.1784 28.6195C79.6751 28.136 80.071 27.5587 80.343 26.9212C80.6152 26.2836 80.7581 25.5985 80.7636 24.9053V19.5786C80.7581 18.8853 80.6152 18.2002 80.343 17.5626C80.071 16.9251 79.6751 16.3478 79.1784 15.8643C78.6817 15.3806 78.0939 15.0005 77.4494 14.7457C76.8048 14.4907 76.1158 14.3663 75.4228 14.3795Z" fill="white"/>
<path d="M106.25 3.89617H90.27C89.5824 3.89057 88.9004 4.02071 88.263 4.27914C87.6256 4.53757 87.0457 4.9192 86.5561 5.40217C86.0666 5.88516 85.6772 6.45997 85.4101 7.09371C85.1431 7.72744 85.0037 8.40766 85 9.09534V24.9053C85.0037 25.5918 85.1427 26.2708 85.4087 26.9037C85.6749 27.5365 86.0631 28.1107 86.5511 28.5935C87.0391 29.0763 87.6176 29.4582 88.2532 29.7174C88.8889 29.9767 89.5693 30.1083 90.2558 30.1045H106.25C107.638 30.112 108.972 29.569 109.96 28.5943C110.948 27.6196 111.509 26.2931 111.52 24.9053V9.09534C111.509 7.70763 110.948 6.38099 109.96 5.40635C108.972 4.43171 107.638 3.88863 106.25 3.89617ZM106.25 24.8628H90.3125V9.13784H106.25V24.8628Z" fill="white"/>
<path d="M162.214 3.89596H146.631C145.944 3.89222 145.264 4.02375 144.628 4.28301C143.993 4.54227 143.414 4.92421 142.926 5.40699C142.438 5.88979 142.049 6.46398 141.784 7.09679C141.518 7.7296 141.379 8.40864 141.375 9.09513V30.1043H146.673V21.491H162.257V30.1043H167.555V9.09513C167.549 8.40194 167.406 7.71673 167.134 7.07916C166.862 6.44158 166.467 5.86432 165.97 5.38078C165.473 4.89725 164.886 4.51703 164.24 4.26216C163.595 4.0073 162.907 3.88282 162.214 3.89596ZM162.214 16.2493H146.631V9.16596H162.214V16.2493Z" fill="white"/>
<path d="M224.253 3.89607H208.67C207.983 3.89235 207.303 4.02387 206.667 4.28313C206.032 4.5424 205.453 4.92433 204.965 5.40712C204.477 5.8899 204.088 6.46411 203.823 7.09692C203.557 7.72973 203.418 8.40875 203.414 9.09524V30.1045H208.712V21.4911H224.225V30.1045H229.509V9.09524C229.505 8.40875 229.366 7.72973 229.1 7.09692C228.835 6.46411 228.447 5.8899 227.958 5.40712C227.47 4.92433 226.891 4.5424 226.256 4.28313C225.62 4.02387 224.94 3.89235 224.253 3.89607ZM224.253 16.2495H208.698V9.16607H224.211L224.253 16.2495Z" fill="white"/>
<path d="M193.382 24.8627H191.257L183.678 6.07769C183.413 5.43135 182.962 4.8786 182.381 4.48999C181.801 4.1014 181.118 3.89461 180.419 3.89603H175.673C174.748 3.89224 173.859 4.25536 173.2 4.90587C172.541 5.55637 172.167 6.44128 172.16 7.36686V30.1043H177.458V9.13769H179.583L187.177 27.9227C187.442 28.5691 187.892 29.1217 188.473 29.5103C189.054 29.8991 189.737 30.1057 190.435 30.1043H195.153C195.61 30.1062 196.064 30.0179 196.487 29.8445C196.911 29.6711 197.296 29.416 197.621 29.0937C197.946 28.7714 198.204 28.3882 198.381 27.9662C198.558 27.544 198.65 27.0912 198.652 26.6335V3.96686H193.382V24.8627Z" fill="white"/>
<path d="M121.517 3.896H116.176V24.9052C116.179 25.5917 116.318 26.2707 116.584 26.9035C116.851 27.5363 117.239 28.1105 117.727 28.5933C118.215 29.0761 118.793 29.458 119.429 29.7173C120.065 29.9765 120.745 30.108 121.432 30.1043H137.426V24.8627H121.517V3.896Z" fill="white"/>
</g>
</svg>
