<svg width="151" height="35" viewBox="0 0 151 35" fill="none" xmlns="http://www.w3.org/2000/svg">
<g id="Starkne" clip-path="url(#clip0_9282_81827)">
<path id="Vector" fill-rule="evenodd" clip-rule="evenodd" d="M0.5 17.4485C0.5 26.7782 8.06307 34.3413 17.3928 34.3413C26.7225 34.3413 34.2861 26.7782 34.2861 17.4485C34.2861 8.11875 26.7225 0.555664 17.3928 0.555664C8.06307 0.555664 0.5 8.11875 0.5 17.4485Z" fill="white"/>
<path id="Vector_2" fill-rule="evenodd" clip-rule="evenodd" d="M9.94151 13.4685L10.3585 12.1801C10.4433 11.9181 10.6501 11.7142 10.9131 11.6338L12.2077 11.2357C12.3869 11.181 12.3884 10.9281 12.2106 10.8705L10.9218 10.4535C10.6603 10.3687 10.4563 10.1619 10.3755 9.89893L9.97782 8.6043C9.9231 8.4256 9.67028 8.42365 9.61263 8.60189L9.19563 9.89021C9.11086 10.1518 8.90406 10.3557 8.64106 10.4365L7.34643 10.8342C7.16724 10.8894 7.16529 11.1417 7.34353 11.1994L8.63234 11.6164C8.89388 11.7011 9.0978 11.9084 9.17867 12.1714L9.57632 13.4656C9.63104 13.6448 9.88386 13.6467 9.94151 13.4685Z" fill="#C1C1C1"/>
<path id="Vector_3" fill-rule="evenodd" clip-rule="evenodd" d="M30.405 12.7185C29.8715 12.1217 29.0384 11.7857 28.2286 11.6479C27.4124 11.5155 26.5564 11.5278 25.7507 11.671C24.1202 11.9468 22.6389 12.6219 21.347 13.4548C20.676 13.8635 20.1039 14.3365 19.5112 14.8182C19.2256 15.0618 18.9652 15.3212 18.694 15.5769L17.953 16.3141C17.1478 17.1558 16.3542 17.9223 15.5864 18.5577C14.8154 19.1901 14.0947 19.6705 13.3843 20.0059C12.6745 20.3431 11.9149 20.5414 10.9249 20.5731C9.94353 20.6077 8.78248 20.4306 7.54056 20.1383C6.29197 19.8472 4.98081 19.4323 3.51562 19.0754C4.02687 20.4937 4.79672 21.747 5.78514 22.8928C6.78514 24.0186 8.03386 25.0448 9.63798 25.7195C11.2189 26.4093 13.2057 26.6569 15.0634 26.2834C16.926 25.925 18.5605 25.063 19.8817 24.0663C21.2063 23.0591 22.278 21.9121 23.1814 20.7196C23.4308 20.3901 23.5627 20.2057 23.7432 19.9482L24.242 19.2093C24.5887 18.7523 24.9043 18.2319 25.2475 17.779C25.9202 16.8306 26.5833 15.8833 27.354 15.0106C27.7419 14.5679 28.151 14.1445 28.6338 13.7376C28.8748 13.5389 29.1348 13.3446 29.4231 13.1695C29.7156 12.9806 30.0246 12.8328 30.405 12.7185Z" fill="#A0A0A1"/>
<path id="Vector_4" fill-rule="evenodd" clip-rule="evenodd" d="M30.405 12.7185C29.8317 11.2717 28.7658 10.0539 27.3352 9.15516C25.913 8.26633 23.938 7.81272 21.9809 8.1994C21.0139 8.38638 20.0772 8.74639 19.2552 9.22584C18.4369 9.70335 17.7036 10.2782 17.0688 10.8949C16.7518 11.2042 16.4642 11.527 16.1784 11.8515L15.4377 12.7959L14.2937 14.316C12.8353 16.2718 11.2648 18.5639 8.68745 19.2431C6.15727 19.9099 5.05989 19.3194 3.51562 19.0754C3.798 19.8044 4.14775 20.5124 4.62193 21.1352C5.08726 21.7706 5.63688 22.3675 6.32022 22.879C6.66554 23.1247 7.03013 23.3672 7.43508 23.5729C7.83816 23.7715 8.27284 23.9464 8.73683 24.0782C9.65975 24.3311 10.6988 24.4197 11.7048 24.2837C12.7113 24.1494 13.6734 23.8303 14.5143 23.4067C15.3615 22.987 16.0994 22.4761 16.7583 21.9366C18.0682 20.8489 19.087 19.647 19.9477 18.4321C20.3806 17.8247 20.7735 17.2058 21.1369 16.5867L21.5647 15.8497C21.6954 15.6343 21.8277 15.4175 21.9621 15.2156C22.504 14.4046 23.0341 13.7542 23.6779 13.2661C24.3128 12.7653 25.197 12.3953 26.3785 12.3094C27.555 12.2224 28.9133 12.3831 30.405 12.7185Z" fill="#C1C1C1"/>
<path id="Vector_5" fill-rule="evenodd" clip-rule="evenodd" d="M24.0391 24.7395C24.0391 25.8022 24.901 26.664 25.9636 26.664C27.0264 26.664 27.8871 25.8022 27.8871 24.7395C27.8871 23.6769 27.0264 22.8149 25.9636 22.8149C24.901 22.8149 24.0391 23.6769 24.0391 24.7395Z" fill="#A0A0A1"/>
<path id="Vector_6" d="M148.14 12.7249V10.7816C148.14 10.7046 148.078 10.6421 148.001 10.6421H136.928C136.851 10.6421 136.789 10.7046 136.789 10.7816V12.7249H141.289V25.2963H143.64V12.7249H148.14Z" fill="white"/>
<path id="Vector_7" d="M125.218 10.6421C125.141 10.6421 125.078 10.7046 125.078 10.7816V25.1568C125.078 25.2338 125.141 25.2963 125.218 25.2963H134.535C134.612 25.2963 134.675 25.2338 134.675 25.1568V23.2342H127.429V18.6287H133.416V16.6078H127.429V12.7042H134.159V10.7816C134.159 10.7046 134.096 10.6421 134.019 10.6421H125.218Z" fill="white"/>
<path id="Vector_8" d="M119.814 25.2109L119.865 25.2963H121.671C121.748 25.2963 121.811 25.2338 121.811 25.1568V10.7816C121.811 10.7046 121.748 10.6421 121.671 10.6421H119.501V20.7909C119.124 20.191 118.686 19.5307 118.188 18.81C117.554 17.872 116.871 16.9206 116.141 15.9556C115.424 14.9769 114.693 14.0324 113.948 13.1224C113.217 12.1978 112.526 11.3892 111.875 10.697L111.824 10.6421H110.124C110.047 10.6421 109.984 10.7046 109.984 10.7816V25.1568C109.984 25.2338 110.047 25.2963 110.124 25.2963H112.294V14.4242C112.591 14.7747 112.907 15.1631 113.242 15.5895C113.695 16.1657 114.161 16.7833 114.642 17.4423L114.642 17.443L114.643 17.4437C115.123 18.0886 115.604 18.7611 116.084 19.4612L116.085 19.4622L116.085 19.4631C116.58 20.1636 117.053 20.857 117.507 21.5436L117.507 21.5442L117.508 21.5449C117.96 22.2172 118.379 22.8686 118.762 23.4992L118.763 23.5005L118.764 23.5015C119.162 24.1336 119.512 24.7035 119.814 25.2109Z" fill="white"/>
<path id="Vector_9" d="M107.143 10.934L107.196 10.8756C107.278 10.786 107.214 10.6421 107.093 10.6421H104.519L104.467 10.7026C104.125 11.099 103.7 11.5647 103.192 12.1002C102.698 12.6224 102.168 13.1724 101.605 13.7498C101.041 14.327 100.471 14.9043 99.8936 15.4816C99.4319 15.9323 99.001 16.3478 98.6009 16.7279V10.6421H96.3894C96.3124 10.6421 96.25 10.7046 96.25 10.7816V25.1568C96.25 25.2338 96.3124 25.2963 96.3894 25.2963H98.6009V18.6483C99.0863 18.9661 99.5826 19.338 100.09 19.7644L100.091 19.765L100.091 19.7656C100.705 20.2706 101.306 20.8236 101.894 21.4249L101.895 21.4263L101.897 21.4277C102.497 22.0147 103.064 22.6359 103.597 23.2915L103.597 23.2922L103.598 23.2928C104.13 23.9345 104.601 24.5756 105.009 25.2156L105.06 25.2963H107.57C107.677 25.2963 107.744 25.1804 107.691 25.0873L107.661 25.035C107.284 24.3798 106.811 23.6918 106.243 22.9712C105.69 22.2517 105.095 21.5461 104.459 20.8546C103.823 20.1631 103.172 19.5128 102.508 18.9037C101.906 18.3521 101.331 17.8785 100.783 17.4836C101.249 17.0286 101.743 16.54 102.266 16.0179C102.844 15.4394 103.423 14.8541 104.001 14.2619C104.593 13.6558 105.158 13.0704 105.695 12.5055L105.696 12.5048L105.697 12.504C106.234 11.9257 106.716 11.4023 107.143 10.934Z" fill="white"/>
<path id="Vector_10" fill-rule="evenodd" clip-rule="evenodd" d="M82.905 10.5321C82.8281 10.5321 82.7656 10.5945 82.7656 10.6715V25.1654C82.7656 25.2424 82.8281 25.3048 82.905 25.3048H84.8974V19.976H87.8077C88.1351 20.368 88.4543 20.7782 88.7659 21.2065L88.7669 21.2081L88.7682 21.2097C89.2776 21.8776 89.7482 22.5743 90.1804 23.2999L90.1808 23.3007L90.1813 23.3014C90.5726 23.9438 90.9141 24.5778 91.206 25.2041L91.2528 25.3048H93.6103C93.7115 25.3048 93.7788 25.2009 93.7369 25.1089C93.4658 24.5147 93.172 23.9331 92.8457 23.3662C92.4022 22.5741 91.9157 21.7899 91.3864 21.0137C91.0839 20.57 90.7749 20.139 90.4595 19.7207C91.3388 19.4519 92.0346 18.9657 92.5377 18.2601L92.5382 18.2595C93.1423 17.4055 93.4416 16.4011 93.4416 15.254C93.4416 14.4657 93.3046 13.7444 93.0272 13.0926C92.7488 12.4314 92.3299 11.883 91.7718 11.4503C91.2175 11.0154 90.5347 10.7386 89.7305 10.6145C89.543 10.58 89.3492 10.5592 89.1495 10.5522C88.9545 10.5388 88.7843 10.532 88.6395 10.532C88.0284 10.532 87.417 10.5319 86.8059 10.5318C85.5055 10.5317 84.2054 10.5316 82.905 10.5321ZM91.2699 15.254C91.2699 15.6347 91.2066 16.0093 91.0792 16.3786C90.9547 16.7333 90.7558 17.0442 90.4811 17.3129C90.2206 17.5672 89.8772 17.7477 89.442 17.8486C89.3041 17.8799 89.1557 17.9021 88.9962 17.9149L88.996 17.9149L88.9958 17.9149C88.839 17.928 88.7004 17.9344 88.5794 17.9344H84.8974V12.5736H88.5794C88.7004 12.5736 88.839 12.5799 88.9958 12.593L88.9994 12.5933L89.0032 12.5935C89.1583 12.5997 89.302 12.6213 89.4352 12.6576L89.4395 12.6588L89.444 12.6597C89.8774 12.754 90.2198 12.9337 90.4796 13.1936L90.4802 13.1943L90.4811 13.195C90.7554 13.4633 90.9543 13.7773 91.0792 14.1389V14.1393L91.0794 14.1397C91.2064 14.502 91.2699 14.8731 91.2699 15.254Z" fill="white"/>
<path id="Vector_11" fill-rule="evenodd" clip-rule="evenodd" d="M77.5356 23.3617L77.5358 23.3621L77.536 23.3628C77.7428 23.9559 77.9635 24.563 78.198 25.1836L78.2406 25.2963H80.599C80.6959 25.2963 80.7632 25.2 80.7301 25.1092C80.2149 23.6938 79.6949 22.2801 79.1644 20.8704C78.6824 19.5758 78.2072 18.3498 77.7387 17.1925C77.2841 16.0351 76.8293 14.9326 76.3744 13.885C75.9181 12.8202 75.4378 11.7661 74.9377 10.7213C74.9144 10.6729 74.8656 10.6421 74.8119 10.6421H72.9308C72.8771 10.6421 72.8282 10.6729 72.8051 10.7213C72.3047 11.7661 71.8246 12.8203 71.3683 13.8851C70.9135 14.9323 70.452 16.0345 69.9837 17.1916L69.9833 17.1924L69.9831 17.1932C69.5285 18.3502 69.0602 19.5759 68.5784 20.8703C68.0476 22.2801 67.5276 23.6938 67.0125 25.1092C66.9793 25.2 67.0467 25.2963 67.1435 25.2963H69.4012H69.4455L69.4972 25.2407C70.0419 24.6558 70.6507 24.0821 71.3238 23.5193L71.3245 23.5186L71.3251 23.518C72.0008 22.9411 72.7054 22.406 73.4387 21.9127L73.4404 21.9117L73.4419 21.9106C74.1642 21.4002 74.8913 20.9422 75.6228 20.5364L75.6237 20.536L75.6245 20.5355C75.888 20.3855 76.1473 20.2458 76.4027 20.1164L76.8962 21.5261L76.8966 21.5272C77.1164 22.1455 77.3294 22.7572 77.5356 23.3617ZM74.9984 16.4104L74.9988 16.4116L74.9992 16.4128C75.1979 16.9157 75.3966 17.427 75.5952 17.9467C75.5805 17.9533 75.5653 17.96 75.5499 17.9671C74.8508 18.2855 74.0994 18.6971 73.296 19.201C72.5269 19.6834 71.7637 20.2076 71.0067 20.7733L71.3272 19.858C71.7513 18.6682 72.1753 17.5194 72.5994 16.4116C72.9892 15.4125 73.3953 14.4515 73.8174 13.5286C74.2271 14.4511 74.6208 15.4117 74.9984 16.4104Z" fill="white"/>
<path id="Vector_12" d="M67.5857 12.7249V10.7816C67.5857 10.7046 67.5232 10.6421 67.446 10.6421H56.3738C56.2968 10.6421 56.2344 10.7046 56.2344 10.7816V12.7249H60.7344V25.1568C60.7344 25.2338 60.7968 25.2963 60.874 25.2963H62.9461C63.023 25.2963 63.0855 25.2338 63.0855 25.1568V12.7249H67.5857Z" fill="white"/>
<path id="Vector_13" d="M46.0746 25.1177L46.074 25.1175C45.2212 24.754 44.5119 24.235 43.9495 23.5601L43.9489 23.5591L43.9482 23.5586C43.3916 22.875 43.03 22.0693 42.8622 21.1456C42.8538 21.0994 42.8643 21.0517 42.8915 21.0134C42.9186 20.9751 42.9601 20.9494 43.0065 20.9421L44.8821 20.6465C44.9708 20.6325 45.0557 20.6883 45.0779 20.7753C45.3059 21.6609 45.7751 22.3483 46.4863 22.8466C47.2082 23.3405 48.0595 23.5901 49.0474 23.5901C49.6883 23.5901 50.2609 23.4911 50.7679 23.2963C51.2807 23.0948 51.6789 22.8123 51.9695 22.4522C52.2554 22.0979 52.3997 21.6787 52.3997 21.1857C52.3997 20.8797 52.3454 20.6292 52.2447 20.4279C52.2438 20.4261 52.243 20.4243 52.2421 20.4224C52.1442 20.208 52.0073 20.0288 51.8309 19.8829C51.8292 19.8815 51.8275 19.8801 51.826 19.8786C51.6489 19.7206 51.4456 19.587 51.2153 19.4782C50.9796 19.3668 50.7339 19.2751 50.478 19.2029L50.4756 19.2023L46.7345 18.0911C46.318 17.9662 45.9153 17.81 45.5266 17.6225L45.5255 17.622L45.5242 17.6214C45.1295 17.424 44.7758 17.1801 44.464 16.8897L44.4632 16.8888L44.4625 16.8883C44.1465 16.5866 43.8959 16.228 43.7105 15.8142L43.71 15.8132C43.5214 15.3855 43.4301 14.8883 43.4301 14.3261C43.4301 13.4249 43.663 12.6467 44.1366 12.001L44.1368 12.0007C44.6124 11.3547 45.2537 10.8638 46.0543 10.5266C46.8541 10.1899 47.7511 10.027 48.7429 10.0339C49.7479 10.0408 50.652 10.2211 51.4518 10.5787C52.2577 10.9292 52.9262 11.4353 53.4539 12.0968C53.9898 12.7596 54.3471 13.5507 54.5287 14.4654C54.5379 14.5115 54.528 14.5593 54.5015 14.598C54.475 14.6367 54.4339 14.6631 54.3877 14.6711L52.4613 15.0075C52.4155 15.0155 52.3687 15.0049 52.3308 14.9782C52.2928 14.9515 52.2671 14.9107 52.2594 14.865C52.1621 14.2942 51.9462 13.8101 51.6139 13.4076L51.6119 13.4053C51.2835 12.9931 50.8716 12.6773 50.3734 12.4573L50.3717 12.4565C49.8724 12.2296 49.3224 12.1118 48.7194 12.1052H48.7192C48.1412 12.0986 47.6245 12.1906 47.1665 12.3777C46.7072 12.5652 46.3488 12.8241 46.0845 13.1514L46.0834 13.1527C45.824 13.4675 45.6951 13.8291 45.6951 14.2446C45.6951 14.6571 45.8127 14.9753 46.0353 15.2158C46.2754 15.4686 46.5707 15.6726 46.924 15.8269C47.2984 15.9806 47.6617 16.1072 48.0143 16.207L48.0152 16.2073L50.8071 17.0122C51.1325 17.1023 51.5042 17.2263 51.9216 17.3836C52.3584 17.5457 52.7797 17.7741 53.1851 18.0677C53.6025 18.3629 53.9453 18.7571 54.2145 19.246C54.4912 19.7412 54.6238 20.3571 54.6238 21.0838C54.6238 21.8142 54.4763 22.4706 54.1765 23.0491C53.8857 23.6236 53.4772 24.1063 52.9533 24.4957L52.952 24.4965C52.4311 24.8767 51.8279 25.1637 51.1449 25.3589C50.4615 25.561 49.7315 25.6613 48.9557 25.6613C47.8961 25.6613 46.9347 25.4812 46.0746 25.1177Z" fill="white"/>
</g>
<defs>
<clipPath id="clip0_9282_81827">
<rect width="149.686" height="34" fill="white" transform="translate(0.464844 0.5)"/>
</clipPath>
</defs>
</svg>
