<svg width="124" height="34" viewBox="0 0 124 34" fill="none" xmlns="http://www.w3.org/2000/svg">
<g clip-path="url(#clip0_9282_81486)">
<path d="M69.7751 26.875C69.157 27.7547 68.3368 28.4084 67.3144 28.8364C66.2921 29.2407 65.1508 29.4428 63.8907 29.4428C62.8922 29.4428 61.9769 29.3239 61.1446 29.0861C60.3364 28.8484 59.6231 28.4916 59.0049 28.0162C58.3868 27.517 57.8994 26.9106 57.5427 26.1974C57.186 25.4604 57.0078 24.6282 57.0078 23.7009C57.0078 22.6787 57.2099 21.8108 57.614 21.0975C58.0183 20.3606 58.5651 19.7662 59.2545 19.3143C59.9678 18.8626 60.8 18.5298 61.751 18.3158C62.7019 18.0781 63.7006 17.9593 64.7467 17.9593H69.5613C69.5613 16.5802 69.2521 15.5104 68.634 14.7495C68.0158 13.9887 66.934 13.5964 65.3887 13.5726C64.4851 13.5726 63.7006 13.7272 63.0349 14.0363C62.3929 14.3453 61.965 14.8565 61.751 15.5697H57.5784C57.7211 14.5712 58.042 13.7272 58.5412 13.0377C59.0644 12.3482 59.6825 11.7776 60.3957 11.3259C61.1329 10.8741 61.9412 10.5531 62.8209 10.363C63.7243 10.1727 64.6278 10.0776 65.5312 10.0776C66.6963 10.0776 67.7781 10.2322 68.7766 10.5413C69.7751 10.8503 70.643 11.3734 71.38 12.1104C72.2122 12.9664 72.7708 13.9887 73.0563 15.1775C73.3415 16.3662 73.4841 17.6621 73.4841 19.0647V29.1931H69.9535L69.7751 26.875ZM69.5613 20.8479H65.6383C64.9488 20.8479 64.2592 20.9074 63.5698 21.0263C62.8803 21.1214 62.2859 21.371 61.7866 21.7752C61.3111 22.1556 61.0733 22.7143 61.0733 23.4513C61.0733 24.3548 61.3944 25.0442 62.0362 25.5198C62.7019 25.9715 63.5103 26.1974 64.4614 26.1974C65.1984 26.1974 65.876 26.1023 66.4941 25.9121C67.1361 25.7218 67.6829 25.4129 68.1346 24.9849C68.5865 24.5332 68.9311 23.9744 69.1689 23.3087C69.4305 22.6192 69.5613 21.7989 69.5613 20.8479Z" fill="white"/>
<path d="M80.1698 2.58838C80.9069 2.58838 81.5131 2.81424 81.9886 3.26598C82.4879 3.71772 82.7375 4.33587 82.7375 5.12047C82.7375 5.88128 82.4879 6.48755 81.9886 6.93929C81.5131 7.39101 80.9069 7.61689 80.1698 7.61689C79.3853 7.61689 78.7552 7.39101 78.2797 6.93929C77.8041 6.48755 77.5664 5.88128 77.5664 5.12047C77.5664 4.33587 77.8041 3.71772 78.2797 3.26598C78.7552 2.81424 79.3853 2.58838 80.1698 2.58838ZM78.1013 29.1931V10.3986H82.167V29.1931H78.1013Z" fill="white"/>
<path d="M114.478 10.0776C115.976 10.0776 117.295 10.3154 118.437 10.7909C119.578 11.2664 120.541 11.9321 121.325 12.788C122.134 13.6202 122.74 14.6306 123.144 15.8193C123.548 17.0081 123.75 18.3277 123.75 19.778C123.75 21.252 123.548 22.5836 123.144 23.7724C122.764 24.9373 122.181 25.9478 121.397 26.8037C120.612 27.6595 119.637 28.3134 118.472 28.7651C117.331 29.2168 116 29.4428 114.478 29.4428C112.98 29.4428 111.661 29.2168 110.519 28.7651C109.378 28.2896 108.415 27.6358 107.631 26.8037C106.87 25.9478 106.287 24.9254 105.883 23.7366C105.503 22.5479 105.312 21.2283 105.312 19.778C105.312 18.3277 105.503 17.0081 105.883 15.8193C106.287 14.6306 106.882 13.6202 107.666 12.788C108.451 11.9321 109.414 11.2664 110.555 10.7909C111.696 10.3154 113.004 10.0776 114.478 10.0776ZM114.478 25.9121C115.405 25.9121 116.19 25.7575 116.832 25.4485C117.497 25.1157 118.032 24.6757 118.437 24.1289C118.864 23.5821 119.174 22.9401 119.364 22.2031C119.578 21.466 119.685 20.6696 119.685 19.8137C119.685 18.9578 119.578 18.1613 119.364 17.4242C119.174 16.6634 118.864 16.0096 118.437 15.4628C118.032 14.916 117.497 14.488 116.832 14.1789C116.19 13.8698 115.405 13.7153 114.478 13.7153C113.574 13.7153 112.802 13.8698 112.16 14.1789C111.518 14.488 110.983 14.916 110.555 15.4628C110.127 16.0096 109.806 16.6634 109.592 17.4242C109.402 18.1613 109.307 18.9578 109.307 19.8137C109.307 20.6696 109.402 21.466 109.592 22.2031C109.806 22.9401 110.115 23.5821 110.519 24.1289C110.947 24.6757 111.482 25.1157 112.124 25.4485C112.79 25.7575 113.574 25.9121 114.478 25.9121Z" fill="white"/>
<path d="M93.8253 18.0659H90.901V4.72461H86.8711V29.1928H90.901V21.5965H94.0751L99.0322 29.1928H103.74L97.3203 19.3498L103.24 10.3983H98.6755L93.8253 18.0659Z" fill="white"/>
<path d="M54.2599 10.3449H49.4459V4.72461H48.2019L42.3516 12.6732V13.7011H45.3558V23.0033C45.3558 25.1991 45.8504 26.7797 46.8399 27.745C47.8533 28.7101 49.5303 29.1928 51.871 29.1928H54.1151V25.6456H52.2329C51.1471 25.6456 50.4111 25.3802 50.025 24.8493C49.6389 24.3184 49.4459 23.51 49.4459 22.4241V13.7011H54.2599V10.3449Z" fill="white"/>
<path d="M37.0206 27.4177L30.5408 18.6138C29.8368 17.6572 28.7944 17.0841 27.6843 16.9578C27.4317 16.9284 27.2061 16.7818 27.0797 16.5607C26.9511 16.3395 26.9375 16.0711 27.0391 15.8364C27.4836 14.8121 27.5106 13.6231 27.0324 12.5356L22.6485 2.52243C21.9987 1.03556 20.5299 0.0766602 18.9076 0.0766602C17.2854 0.0766602 15.8166 1.03782 15.1668 2.52243L10.7829 12.5356C10.3069 13.6231 10.3317 14.8121 10.7762 15.8364C10.8777 16.0711 10.8619 16.3395 10.7355 16.5607C10.6069 16.7818 10.3836 16.9284 10.1309 16.9578C9.02081 17.0841 7.97843 17.6572 7.27449 18.6138L0.794575 27.4177C-0.166581 28.724 -0.2636 30.4749 0.546389 31.8805C1.35863 33.2839 2.92446 34.0759 4.53541 33.8977L15.3992 32.6883C16.5792 32.5574 17.5968 31.9415 18.2601 31.0435C18.4113 30.8382 18.6527 30.7163 18.9076 30.7163C19.1626 30.7163 19.4018 30.8382 19.5552 31.0435C20.2185 31.9415 21.2361 32.5574 22.4161 32.6883L33.2799 33.8977C34.8909 34.0782 36.4566 33.2862 37.2689 31.8805C38.0788 30.4749 37.9819 28.724 37.0206 27.4177ZM13.6168 13.7923L18.0073 3.76787C18.1654 3.40912 18.5196 3.17673 18.9098 3.17673C19.3002 3.17673 19.6544 3.40912 19.8125 3.76787L24.2031 13.7923C24.3407 14.1082 24.3113 14.4737 24.1218 14.7625C23.9323 15.0513 23.612 15.225 23.2645 15.225H14.5531C14.2079 15.225 13.8853 15.0513 13.6957 14.7625C13.5062 14.4737 13.4769 14.1082 13.6145 13.7923H13.6168ZM15.8707 29.0535C15.715 29.3626 15.4127 29.5702 15.0698 29.6085L4.19472 30.8179C3.80664 30.8607 3.4276 30.6713 3.23131 30.3328C3.03501 29.9943 3.05984 29.5724 3.29223 29.2566L9.77891 20.4437C9.98422 20.1662 10.3136 20.0083 10.6588 20.0285C11.004 20.0466 11.3154 20.2384 11.4891 20.5384L11.4959 20.5497L15.8392 28.0721L15.8459 28.0833C16.0197 28.3835 16.0286 28.749 15.8729 29.0557L15.8707 29.0535ZM19.8011 25.6511C19.6161 25.9692 19.2777 26.1678 18.9076 26.1678C18.5398 26.1678 18.1992 25.9715 18.0142 25.6533L14.6772 19.8751C14.4922 19.557 14.4922 19.1621 14.6772 18.8441C14.8622 18.5258 15.2007 18.3274 15.5707 18.3274H22.2424C22.6101 18.3274 22.9507 18.5214 23.1358 18.8418C23.3209 19.1621 23.3209 19.5548 23.1358 19.8729L19.8011 25.6511ZM34.5862 30.3328C34.39 30.6713 34.0131 30.8631 33.6229 30.8201L22.7478 29.6107C22.4048 29.5724 22.1025 29.3648 21.9469 29.0557C21.7912 28.7467 21.8001 28.3811 21.9738 28.0833L21.9807 28.0721L26.3239 20.5497L26.3306 20.5384C26.5043 20.2384 26.8157 20.0466 27.1609 20.0285C27.5061 20.0105 27.8356 20.1662 28.0409 20.4437L34.5276 29.2566C34.7599 29.5724 34.7824 29.9943 34.5884 30.3328H34.5862Z" fill="white"/>
</g>
<defs>
<clipPath id="clip0_9282_81486">
<rect width="123.772" height="34" fill="white"/>
</clipPath>
</defs>
</svg>
