<svg width="125" height="35" viewBox="0 0 125 35" fill="none" xmlns="http://www.w3.org/2000/svg">
<g id="Taiko" clip-path="url(#clip0_9282_81486)">
<path id="Vector" d="M70.6853 27.375C70.0672 28.2547 69.247 28.9084 68.2246 29.3364C67.2022 29.7407 66.061 29.9428 64.8009 29.9428C63.8024 29.9428 62.887 29.8239 62.0548 29.5861C61.2465 29.3484 60.5333 28.9916 59.915 28.5162C59.2969 28.017 58.8096 27.4106 58.4529 26.6974C58.0962 25.9604 57.918 25.1282 57.918 24.2009C57.918 23.1787 58.12 22.3108 58.5242 21.5975C58.9284 20.8606 59.4753 20.2662 60.1647 19.8143C60.8779 19.3626 61.7102 19.0298 62.6611 18.8158C63.6121 18.5781 64.6108 18.4593 65.6568 18.4593H70.4714C70.4714 17.0802 70.1623 16.0104 69.5442 15.2495C68.9259 14.4887 67.8442 14.0964 66.2988 14.0726C65.3953 14.0726 64.6108 14.2272 63.9451 14.5363C63.3031 14.8453 62.8751 15.3565 62.6611 16.0697H58.4885C58.6312 15.0712 58.9521 14.2272 59.4514 13.5377C59.9745 12.8482 60.5926 12.2776 61.3059 11.8259C62.043 11.3741 62.8514 11.0531 63.7311 10.863C64.6345 10.6727 65.538 10.5776 66.4414 10.5776C67.6065 10.5776 68.6882 10.7322 69.6867 11.0413C70.6853 11.3503 71.5532 11.8734 72.2901 12.6104C73.1224 13.4664 73.681 14.4887 73.9664 15.6775C74.2517 16.8662 74.3943 18.1621 74.3943 19.5647V29.6931H70.8636L70.6853 27.375ZM70.4714 21.3479H66.5485C65.8589 21.3479 65.1694 21.4074 64.48 21.5263C63.7904 21.6214 63.196 21.871 62.6968 22.2752C62.2212 22.6556 61.9835 23.2143 61.9835 23.9513C61.9835 24.8548 62.3046 25.5442 62.9464 26.0198C63.6121 26.4715 64.4205 26.6974 65.3716 26.6974C66.1085 26.6974 66.7862 26.6023 67.4043 26.4121C68.0462 26.2218 68.5931 25.9129 69.0448 25.4849C69.4966 25.0332 69.8412 24.4744 70.0791 23.8087C70.3406 23.1192 70.4714 22.2989 70.4714 21.3479Z" fill="white"/>
<path id="Vector_2" d="M81.0799 3.08838C81.8171 3.08838 82.4232 3.31424 82.8988 3.76598C83.3981 4.21772 83.6477 4.83587 83.6477 5.62047C83.6477 6.38128 83.3981 6.98755 82.8988 7.43929C82.4232 7.89101 81.8171 8.11689 81.0799 8.11689C80.2954 8.11689 79.6654 7.89101 79.1898 7.43929C78.7143 6.98755 78.4766 6.38128 78.4766 5.62047C78.4766 4.83587 78.7143 4.21772 79.1898 3.76598C79.6654 3.31424 80.2954 3.08838 81.0799 3.08838ZM79.0115 29.6931V10.8986H83.0772V29.6931H79.0115Z" fill="white"/>
<path id="Vector_3" d="M115.388 10.5776C116.886 10.5776 118.206 10.8154 119.347 11.2909C120.488 11.7664 121.451 12.4321 122.235 13.288C123.044 14.1202 123.65 15.1306 124.054 16.3193C124.458 17.5081 124.66 18.8277 124.66 20.278C124.66 21.752 124.458 23.0836 124.054 24.2724C123.674 25.4373 123.091 26.4478 122.307 27.3037C121.522 28.1595 120.547 28.8134 119.382 29.2651C118.241 29.7168 116.91 29.9428 115.388 29.9428C113.89 29.9428 112.571 29.7168 111.43 29.2651C110.288 28.7896 109.325 28.1358 108.541 27.3037C107.78 26.4478 107.197 25.4254 106.793 24.2366C106.413 23.0479 106.223 21.7283 106.223 20.278C106.223 18.8277 106.413 17.5081 106.793 16.3193C107.197 15.1306 107.792 14.1202 108.576 13.288C109.361 12.4321 110.324 11.7664 111.465 11.2909C112.606 10.8154 113.914 10.5776 115.388 10.5776ZM115.388 26.4121C116.315 26.4121 117.1 26.2575 117.742 25.9485C118.408 25.6157 118.943 25.1757 119.347 24.6289C119.775 24.0821 120.084 23.4401 120.274 22.7031C120.488 21.966 120.595 21.1696 120.595 20.3137C120.595 19.4578 120.488 18.6613 120.274 17.9242C120.084 17.1634 119.775 16.5096 119.347 15.9628C118.943 15.416 118.408 14.988 117.742 14.6789C117.1 14.3698 116.315 14.2153 115.388 14.2153C114.485 14.2153 113.712 14.3698 113.07 14.6789C112.428 14.988 111.893 15.416 111.465 15.9628C111.037 16.5096 110.716 17.1634 110.502 17.9242C110.312 18.6613 110.217 19.4578 110.217 20.3137C110.217 21.1696 110.312 21.966 110.502 22.7031C110.716 23.4401 111.025 24.0821 111.43 24.6289C111.857 25.1757 112.392 25.6157 113.034 25.9485C113.7 26.2575 114.485 26.4121 115.388 26.4121Z" fill="white"/>
<path id="Vector_4" d="M94.7354 18.5659H91.8111V5.22461H87.7812V29.6928H91.8111V22.0965H94.9852L99.9424 29.6928H104.65L98.2304 19.8498L104.151 10.8983H99.5857L94.7354 18.5659Z" fill="white"/>
<path id="Vector_5" d="M55.1701 10.8449H50.3561V5.22461H49.1121L43.2617 13.1732V14.2011H46.2659V23.5033C46.2659 25.6991 46.7606 27.2797 47.75 28.245C48.7635 29.2101 50.4405 29.6928 52.7811 29.6928H55.0253V26.1456H53.143C52.0573 26.1456 51.3212 25.8802 50.9351 25.3493C50.5491 24.8184 50.3561 24.01 50.3561 22.9241V14.2011H55.1701V10.8449Z" fill="white"/>
<path id="Vector_6" d="M37.9308 27.9177L31.451 19.1138C30.7469 18.1572 29.7046 17.5841 28.5945 17.4578C28.3419 17.4284 28.1163 17.2818 27.9898 17.0607C27.8613 16.8395 27.8477 16.5711 27.9493 16.3364C28.3938 15.3121 28.4208 14.1231 27.9425 13.0356L23.5586 3.02243C22.9089 1.53556 21.44 0.57666 19.8177 0.57666C18.1956 0.57666 16.7267 1.53782 16.077 3.02243L11.6931 13.0356C11.217 14.1231 11.2418 15.3121 11.6863 16.3364C11.7878 16.5711 11.7721 16.8395 11.6457 17.0607C11.5171 17.2818 11.2937 17.4284 11.041 17.4578C9.93097 17.5841 8.88858 18.1572 8.18465 19.1138L1.70473 27.9177C0.743576 29.224 0.646556 30.9749 1.45655 32.3805C2.26879 33.7839 3.83462 34.5759 5.44556 34.3977L16.3093 33.1883C17.4893 33.0574 18.5069 32.4415 19.1702 31.5435C19.3215 31.3382 19.5629 31.2163 19.8177 31.2163C20.0727 31.2163 20.3119 31.3382 20.4654 31.5435C21.1287 32.4415 22.1463 33.0574 23.3263 33.1883L34.19 34.3977C35.801 34.5782 37.3668 33.7862 38.1791 32.3805C38.989 30.9749 38.892 29.224 37.9308 27.9177ZM14.5269 14.2923L18.9175 4.26787C19.0756 3.90912 19.4297 3.67673 19.82 3.67673C20.2104 3.67673 20.5645 3.90912 20.7226 4.26787L25.1132 14.2923C25.2509 14.6082 25.2215 14.9737 25.032 15.2625C24.8424 15.5513 24.5221 15.725 24.1747 15.725H15.4633C15.1181 15.725 14.7954 15.5513 14.6059 15.2625C14.4164 14.9737 14.387 14.6082 14.5247 14.2923H14.5269ZM16.7808 29.5535C16.6252 29.8626 16.3229 30.0702 15.9799 30.1085L5.10488 31.3179C4.7168 31.3607 4.33776 31.1713 4.14147 30.8328C3.94516 30.4943 3.96999 30.0724 4.20239 29.7566L10.6891 20.9437C10.8944 20.6662 11.2238 20.5083 11.569 20.5285C11.9142 20.5466 12.2255 20.7384 12.3993 21.0384L12.4061 21.0497L16.7494 28.5721L16.7561 28.5833C16.9298 28.8835 16.9388 29.249 16.7831 29.5557L16.7808 29.5535ZM20.7113 26.1511C20.5262 26.4692 20.1879 26.6678 19.8177 26.6678C19.45 26.6678 19.1094 26.4715 18.9243 26.1533L15.5873 20.3751C15.4023 20.057 15.4023 19.6621 15.5873 19.3441C15.7724 19.0258 16.1108 18.8274 16.4808 18.8274H23.1526C23.5203 18.8274 23.8609 19.0214 24.046 19.3418C24.231 19.6621 24.231 20.0548 24.046 20.3729L20.7113 26.1511ZM35.4964 30.8328C35.3001 31.1713 34.9233 31.3631 34.533 31.3201L23.6579 30.1107C23.315 30.0724 23.0127 29.8648 22.857 29.5557C22.7013 29.2467 22.7103 28.8811 22.884 28.5833L22.8909 28.5721L27.2341 21.0497L27.2408 21.0384C27.4145 20.7384 27.7259 20.5466 28.0711 20.5285C28.4163 20.5105 28.7457 20.6662 28.9511 20.9437L35.4378 29.7566C35.6701 30.0724 35.6926 30.4943 35.4986 30.8328H35.4964Z" fill="white"/>
</g>
<defs>
<clipPath id="clip0_9282_81486">
<rect width="123.772" height="34" fill="white" transform="translate(0.910156 0.5)"/>
</clipPath>
</defs>
</svg>
