<svg width="161" height="35" viewBox="0 0 161 35" fill="none" xmlns="http://www.w3.org/2000/svg">
<path d="M30.6033 3.19141V15.3114C25.9175 17.3595 20.7431 18.4955 15.3017 18.4955C9.86016 18.4955 4.68339 17.3595 0 15.3114V3.19141C4.6858 5.23949 9.86016 6.37544 15.3017 6.37544C20.7431 6.37544 25.9175 5.23949 30.6033 3.19141Z" fill="white"/>
<path d="M30.6033 34.1043V21.9843C25.9175 19.9362 20.7431 18.8003 15.3017 18.8003C9.86016 18.8003 4.68339 19.9362 0 21.9843V34.1043C4.6858 32.0563 9.86016 30.9203 15.3017 30.9203C20.7431 30.9203 25.9175 32.0563 30.6033 34.1043Z" fill="white"/>
<path d="M39.8672 9.75H43.6404L46.7682 20.0259C47.1162 21.1932 47.5371 22.8563 47.5371 22.8563H47.5876C47.5876 22.8563 48.0086 21.1688 48.3565 20.0259L51.46 9.75H55.108L49.1254 27.4976H45.8497L39.8672 9.75Z" fill="white"/>
<path d="M56.793 9.75H60.3922V27.4976H56.793V9.75Z" fill="white"/>
<path d="M62.1289 18.6844C62.1289 13.4221 65.4063 9.40186 70.6426 9.40186C75.0108 9.40186 77.5923 12.0078 77.9646 15.3844H74.3897C74.0679 13.5978 72.7266 12.4305 70.6426 12.4305C67.3651 12.4305 65.803 15.16 65.803 18.6862C65.803 22.2124 67.6887 24.9157 70.6687 24.9157C72.7788 24.9157 74.2679 23.6493 74.4906 21.7879H78.0151C77.9159 23.3518 77.2462 24.8653 76.0545 25.9821C74.8385 27.1233 73.125 27.8679 70.6687 27.8679C65.6795 27.8679 62.1306 24.0216 62.1306 18.6844H62.1289Z" fill="white"/>
<path d="M78.9588 9.75H93.2306V12.7787H87.8934V27.4976H84.2942V12.7787H78.957V9.75H78.9588Z" fill="white"/>
<path d="M95.0625 9.75H98.6618V27.4976H95.0625V9.75Z" fill="white"/>
<path d="M100.645 18.6601C100.645 13.349 103.971 9.40186 109.209 9.40186C114.447 9.40186 117.747 13.349 117.747 18.6601C117.747 23.9711 114.445 27.894 109.209 27.894C103.972 27.894 100.645 23.9729 100.645 18.6601ZM114.073 18.6601C114.073 15.1113 112.484 12.3557 109.233 12.3557C105.982 12.3557 104.319 15.1113 104.319 18.6601C104.319 22.2089 105.982 24.9401 109.233 24.9401C112.484 24.9401 114.073 22.1845 114.073 18.6601Z" fill="white"/>
<path d="M119.703 9.75H123.351L129.259 19.6536C129.829 20.6209 130.499 22.1361 130.499 22.1361H130.55C130.55 22.1361 130.45 20.299 130.45 19.0587V9.75H133.999V27.4976H130.524L124.468 17.6931C123.897 16.7502 123.201 15.235 123.201 15.235H123.153C123.153 15.235 123.252 17.0964 123.252 18.3385V27.4976H119.703V9.75Z" fill="white"/>
<rect x="131" width="30" height="12.2432" rx="6.12158" fill="#7767F6"/>
<path d="M137.07 9.62158H135.81V2.31158H137.08L140.51 7.49158V2.31158H141.77V9.62158H140.51L137.07 4.44158V9.62158ZM145.518 9.75158C144.048 9.75158 143.018 8.68158 143.018 7.15158C143.018 5.60158 144.028 4.53158 145.478 4.53158C146.958 4.53158 147.898 5.52158 147.898 7.06158V7.43158L144.178 7.44158C144.268 8.31158 144.728 8.75158 145.538 8.75158C146.208 8.75158 146.648 8.49158 146.788 8.02158H147.918C147.708 9.10158 146.808 9.75158 145.518 9.75158ZM145.488 5.53158C144.768 5.53158 144.328 5.92158 144.208 6.66158H146.688C146.688 5.98158 146.218 5.53158 145.488 5.53158ZM149.85 9.62158L148.25 4.68158H149.52L150.17 6.80158C150.28 7.19158 150.38 7.62158 150.47 8.08158C150.56 7.60158 150.65 7.29158 150.81 6.80158L151.49 4.68158H152.73L153.39 6.80158C153.45 7.00158 153.65 7.74158 153.71 8.07158C153.79 7.70158 153.95 7.11158 154.04 6.80158L154.7 4.68158H155.99L154.28 9.62158H153.14L152.46 7.48158C152.26 6.83158 152.15 6.36158 152.11 6.11158C152.06 6.34158 151.97 6.69158 151.72 7.50158L151.04 9.62158H149.85Z" fill="#F3F3F3"/>
</svg>
