<svg width="131" height="35" viewBox="0 0 131 35" fill="none" xmlns="http://www.w3.org/2000/svg">
<path d="M38.299 5.89453V14.9949C34.7806 16.5327 30.8954 17.3857 26.8096 17.3857C22.7239 17.3857 18.8369 16.5327 15.3203 14.9949V5.89453C18.8387 7.43234 22.7239 8.28528 26.8096 8.28528C30.8954 8.28528 34.7806 7.43234 38.299 5.89453Z" fill="white"/>
<path d="M38.299 29.1049V20.0045C34.7806 18.4667 30.8954 17.6138 26.8096 17.6138C22.7239 17.6138 18.8369 18.4667 15.3203 20.0045V29.1049C18.8387 27.5671 22.7239 26.7142 26.8096 26.7142C30.8954 26.7142 34.7806 27.5671 38.299 29.1049Z" fill="white"/>
<path d="M45 10.8188H47.8331L50.1817 18.5346C50.4429 19.411 50.759 20.6598 50.759 20.6598H50.7969C50.7969 20.6598 51.113 19.3927 51.3743 18.5346L53.7045 10.8188H56.4436L51.9516 24.1447H49.492L45 10.8188Z" fill="white"/>
<path d="M57.707 10.8188H60.4096V24.1447H57.707V10.8188Z" fill="white"/>
<path d="M61.7148 17.5275C61.7148 13.5762 64.1757 10.5576 68.1074 10.5576C71.3872 10.5576 73.3256 12.5143 73.6052 15.0496H70.9209C70.6793 13.7082 69.6722 12.8317 68.1074 12.8317C65.6465 12.8317 64.4735 14.8811 64.4735 17.5288C64.4735 20.1765 65.8895 22.2063 68.127 22.2063C69.7114 22.2063 70.8295 21.2554 70.9967 19.8578H73.6431C73.5686 21.032 73.0657 22.1684 72.171 23.007C71.2579 23.8639 69.9713 24.4229 68.127 24.4229C64.3808 24.4229 61.7161 21.5349 61.7161 17.5275H61.7148Z" fill="white"/>
<path d="M74.349 10.8188H85.065V13.0929H81.0576V24.1447H78.3551V13.0929H74.3477V10.8188H74.349Z" fill="white"/>
<path d="M86.4414 10.8188H89.1439V24.1447H86.4414V10.8188Z" fill="white"/>
<path d="M90.6367 17.5092C90.6367 13.5214 93.1342 10.5576 97.0671 10.5576C101 10.5576 103.478 13.5214 103.478 17.5092C103.478 21.497 100.999 24.4425 97.0671 24.4425C93.1355 24.4425 90.6367 21.4983 90.6367 17.5092ZM100.719 17.5092C100.719 14.8446 99.5267 12.7755 97.0854 12.7755C94.6441 12.7755 93.3954 14.8446 93.3954 17.5092C93.3954 20.1739 94.6441 22.2246 97.0854 22.2246C99.5267 22.2246 100.719 20.1556 100.719 17.5092Z" fill="white"/>
<path d="M104.945 10.8188H107.684L112.12 18.255C112.549 18.9813 113.052 20.119 113.052 20.119H113.089C113.089 20.119 113.015 18.7396 113.015 17.8083V10.8188H115.68V24.1447H113.07L108.523 16.783C108.095 16.075 107.572 14.9373 107.572 14.9373H107.536C107.536 14.9373 107.61 16.3349 107.61 17.2676V24.1447H104.945V10.8188Z" fill="white"/>
</svg>
