<svg width="150" height="36" viewBox="0 0 150 36" fill="none" xmlns="http://www.w3.org/2000/svg">
<path d="M30.6033 4.85693V16.977C25.9175 19.025 20.7431 20.161 15.3017 20.161C9.86016 20.161 4.68339 19.025 0 16.977V4.85693C4.6858 6.90502 9.86016 8.04097 15.3017 8.04097C20.7431 8.04097 25.9175 6.90502 30.6033 4.85693Z" fill="white"/>
<path d="M30.6033 35.7699V23.6499C25.9175 21.6018 20.7431 20.4658 15.3017 20.4658C9.86016 20.4658 4.68339 21.6018 0 23.6499V35.7699C4.6858 33.7218 9.86016 32.5858 15.3017 32.5858C20.7431 32.5858 25.9175 33.7218 30.6033 35.7699Z" fill="white"/>
<path d="M39.8672 11.4155H43.6404L46.7682 21.6914C47.1162 22.8587 47.5371 24.5218 47.5371 24.5218H47.5876C47.5876 24.5218 48.0086 22.8344 48.3565 21.6914L51.46 11.4155H55.108L49.1254 29.1631H45.8497L39.8672 11.4155Z" fill="white"/>
<path d="M56.793 11.4155H60.3922V29.1631H56.793V11.4155Z" fill="white"/>
<path d="M62.1289 20.35C62.1289 15.0876 65.4063 11.0674 70.6426 11.0674C75.0108 11.0674 77.5923 13.6733 77.9646 17.0499H74.3897C74.0679 15.2633 72.7266 14.0961 70.6426 14.0961C67.3651 14.0961 65.803 16.8255 65.803 20.3517C65.803 23.8779 67.6887 26.5813 70.6687 26.5813C72.7788 26.5813 74.2679 25.3148 74.4906 23.4534H78.0151C77.9159 25.0174 77.2462 26.5308 76.0545 27.6476C74.8385 28.7888 73.125 29.5334 70.6687 29.5334C65.6795 29.5334 62.1306 25.6871 62.1306 20.35H62.1289Z" fill="white"/>
<path d="M78.9588 11.4155H93.2306V14.4442H87.8934V29.1631H84.2942V14.4442H78.957V11.4155H78.9588Z" fill="white"/>
<path d="M95.0625 11.4155H98.6618V29.1631H95.0625V11.4155Z" fill="white"/>
<path d="M100.645 20.3256C100.645 15.0146 103.971 11.0674 109.209 11.0674C114.447 11.0674 117.747 15.0146 117.747 20.3256C117.747 25.6367 114.445 29.5595 109.209 29.5595C103.972 29.5595 100.645 25.6384 100.645 20.3256ZM114.073 20.3256C114.073 16.7768 112.484 14.0212 109.233 14.0212C105.982 14.0212 104.319 16.7768 104.319 20.3256C104.319 23.8744 105.982 26.6056 109.233 26.6056C112.484 26.6056 114.073 23.8501 114.073 20.3256Z" fill="white"/>
<path d="M119.703 11.4155H123.351L129.259 21.3192C129.829 22.2864 130.499 23.8016 130.499 23.8016H130.55C130.55 23.8016 130.45 21.9646 130.45 20.7242V11.4155H133.999V29.1631H130.524L124.468 19.3586C123.897 18.4157 123.201 16.9005 123.201 16.9005H123.153C123.153 16.9005 123.252 18.7619 123.252 20.004V29.1631H119.703V11.4155Z" fill="white"/>
<rect x="129" y="0.756836" width="21" height="9" rx="4.5" fill="#7767F6"/>
<path d="M133.901 7.25684H133.588V2.61897H133.908L136.625 6.72773V2.61897H136.939V7.25684H136.625L133.901 3.13501V7.25684ZM139.332 7.33522C138.424 7.33522 137.823 6.682 137.823 5.69564C137.823 4.71581 138.418 4.04299 139.293 4.04299C140.109 4.04299 140.671 4.63089 140.671 5.48661V5.69564H138.124C138.15 6.55136 138.594 7.06087 139.332 7.06087C139.887 7.06087 140.24 6.81918 140.364 6.35539H140.671C140.488 7.00208 140.038 7.33522 139.332 7.33522ZM139.293 4.31734C138.653 4.31734 138.202 4.76153 138.13 5.44741H140.364C140.364 4.76806 139.94 4.31734 139.293 4.31734ZM142.042 7.25684L140.997 4.12138H141.304L142.009 6.25088C142.075 6.44031 142.133 6.62974 142.199 6.87144C142.251 6.63628 142.375 6.26394 142.382 6.25088L143.087 4.12138H143.394L144.1 6.25088C144.165 6.44031 144.224 6.62321 144.289 6.8649C144.361 6.59708 144.341 6.64934 144.472 6.25088L145.184 4.12138H145.491L144.439 7.25684H144.132L143.388 5.01629C143.335 4.86605 143.29 4.72234 143.244 4.51331C143.198 4.69621 143.146 4.86605 143.094 5.01629L142.349 7.25684H142.042Z" fill="#F3F3F3"/>
</svg>
