<svg width="148" height="35" viewBox="0 0 148 35" fill="none" xmlns="http://www.w3.org/2000/svg">
<path d="M30.6033 3.85693V15.977C25.9175 18.025 20.7431 19.161 15.3017 19.161C9.86016 19.161 4.68339 18.025 0 15.977V3.85693C4.6858 5.90502 9.86016 7.04097 15.3017 7.04097C20.7431 7.04097 25.9175 5.90502 30.6033 3.85693Z" fill="white"/>
<path d="M30.6033 34.7699V22.6499C25.9175 20.6018 20.7431 19.4658 15.3017 19.4658C9.86016 19.4658 4.68339 20.6018 0 22.6499V34.7699C4.6858 32.7218 9.86016 31.5858 15.3017 31.5858C20.7431 31.5858 25.9175 32.7218 30.6033 34.7699Z" fill="white"/>
<path d="M39.8672 10.4155H43.6404L46.7682 20.6914C47.1162 21.8587 47.5371 23.5218 47.5371 23.5218H47.5876C47.5876 23.5218 48.0086 21.8344 48.3565 20.6914L51.46 10.4155H55.108L49.1254 28.1631H45.8497L39.8672 10.4155Z" fill="white"/>
<path d="M56.793 10.4155H60.3922V28.1631H56.793V10.4155Z" fill="white"/>
<path d="M62.1289 19.35C62.1289 14.0876 65.4063 10.0674 70.6426 10.0674C75.0108 10.0674 77.5923 12.6733 77.9646 16.0499H74.3897C74.0679 14.2633 72.7266 13.0961 70.6426 13.0961C67.3651 13.0961 65.803 15.8255 65.803 19.3517C65.803 22.8779 67.6887 25.5813 70.6687 25.5813C72.7788 25.5813 74.2679 24.3148 74.4906 22.4534H78.0151C77.9159 24.0174 77.2462 25.5308 76.0545 26.6476C74.8385 27.7888 73.125 28.5334 70.6687 28.5334C65.6795 28.5334 62.1306 24.6871 62.1306 19.35H62.1289Z" fill="white"/>
<path d="M78.9588 10.4155H93.2306V13.4442H87.8934V28.1631H84.2942V13.4442H78.957V10.4155H78.9588Z" fill="white"/>
<path d="M95.0625 10.4155H98.6618V28.1631H95.0625V10.4155Z" fill="white"/>
<path d="M100.645 19.3256C100.645 14.0146 103.971 10.0674 109.209 10.0674C114.447 10.0674 117.747 14.0146 117.747 19.3256C117.747 24.6367 114.445 28.5595 109.209 28.5595C103.972 28.5595 100.645 24.6384 100.645 19.3256ZM114.073 19.3256C114.073 15.7768 112.484 13.0212 109.233 13.0212C105.982 13.0212 104.319 15.7768 104.319 19.3256C104.319 22.8744 105.982 25.6056 109.233 25.6056C112.484 25.6056 114.073 22.8501 114.073 19.3256Z" fill="white"/>
<path d="M119.703 10.4155H123.351L129.259 20.3192C129.829 21.2864 130.499 22.8016 130.499 22.8016H130.55C130.55 22.8016 130.45 20.9646 130.45 19.7242V10.4155H133.999V28.1631H130.524L124.468 18.3586C123.897 17.4157 123.201 15.9005 123.201 15.9005H123.153C123.153 15.9005 123.252 17.7619 123.252 19.004V28.1631H119.703V10.4155Z" fill="white"/>
<path d="M131 8.46154C131 3.78836 134.788 0 139.462 0H142.923C145.684 0 147.923 2.23858 147.923 5C147.923 7.76142 145.685 10 142.923 10H132.429C131.64 10 131 9.36041 131 8.57143V8.46154Z" fill="white"/>
<path d="M133.858 8H133.534V4.62533H133.794L133.865 5.27917C134.09 4.80813 134.554 4.54097 135.06 4.54097C136.016 4.54097 136.375 5.10341 136.375 5.94708V8H136.051V6.01035C136.051 5.11747 135.665 4.83625 135.053 4.83625C134.287 4.83625 133.858 5.40572 133.858 6.25642V8ZM138.806 8.08437C137.829 8.08437 137.182 7.38131 137.182 6.3197C137.182 5.26511 137.822 4.54097 138.764 4.54097C139.643 4.54097 140.247 5.17372 140.247 6.09472V6.3197H137.505C137.533 7.2407 138.011 7.78908 138.806 7.78908C139.403 7.78908 139.783 7.52895 139.917 7.02978H140.247C140.05 7.72581 139.565 8.08437 138.806 8.08437ZM138.764 4.83625C138.075 4.83625 137.59 5.31433 137.512 6.05254H139.917C139.917 5.32136 139.46 4.83625 138.764 4.83625ZM141.723 8L140.598 4.62533H140.928L141.687 6.91729C141.758 7.12118 141.821 7.32507 141.891 7.5852C141.948 7.3321 142.081 6.93136 142.088 6.91729L142.847 4.62533H143.178L143.937 6.91729C144.007 7.12118 144.071 7.31804 144.141 7.57817C144.218 7.28991 144.197 7.34616 144.338 6.91729L145.104 4.62533H145.435L144.303 8H143.972L143.171 5.58852C143.115 5.42682 143.065 5.27214 143.016 5.04717C142.967 5.24402 142.911 5.42682 142.854 5.58852L142.053 8H141.723Z" fill="black"/>
</svg>
