<svg width="184" height="35" viewBox="0 0 184 35" fill="none" xmlns="http://www.w3.org/2000/svg">
<g id="zeta chain">
<g id="Zetachain">
<path id="Vector" d="M23.6586 25.0797V29.5148H5.36277C5.61516 26.5959 6.55703 24.5419 9.81421 21.6543L23.6586 9.84361V20.2077H28.6423V1.14014H0.302353V10.6447H5.28415V6.12374H20.3392L6.56251 17.8796L6.52961 17.9107C0.755931 23.0223 0.296875 27.1483 0.296875 32.0093V34.5H28.6404V25.0816H23.6567L23.6586 25.0797Z" fill="white"/>
<path id="Vector_2" d="M59.1405 18.8104C59.1239 18.8104 59.1092 18.825 59.1092 18.8433C59.2099 20.8477 60.0455 24.0848 64.3452 24.0848C67.6626 24.0848 68.3432 22.0145 68.6101 21.4293C68.6155 21.4183 68.6248 21.411 68.6375 21.411H71.847C71.8674 21.411 71.8801 21.4293 71.8763 21.4476C71.6807 22.5359 70.0017 26.795 64.3452 26.795C58.6887 26.795 55.9141 22.5447 55.9141 17.9563C55.9141 12.3418 59.4495 9.0791 64.2337 9.0791C68.6942 9.0791 72.0337 12.4515 72.0337 16.6926C72.0337 16.9395 72.0283 17.2376 72.0155 17.5832C72.0024 17.9234 71.9604 18.3239 71.889 18.783C71.8875 18.7976 71.8747 18.8086 71.8601 18.8086H59.1405V18.8104ZM64.1604 11.5682C60.1188 11.5682 59.1478 14.5803 59.1478 16.3268C59.1478 16.3433 59.1605 16.3598 59.1786 16.3598H68.8844C68.901 16.3598 68.9138 16.3451 68.9153 16.3287C69.0287 14.3974 67.7232 11.5682 64.1604 11.5682Z" fill="white"/>
<path id="Vector_3" d="M83.939 26.3617C83.939 26.3763 83.9282 26.3891 83.9135 26.391C83.5952 26.4385 83.1763 26.4878 82.657 26.5353C82.125 26.5847 81.5853 26.6101 81.0421 26.6101C78.2751 26.6101 75.7312 25.6171 75.7312 20.705V12.2667C75.7312 12.2502 75.7185 12.2356 75.7 12.2356H72.6406C72.624 12.2356 72.6094 12.2228 72.6094 12.2045V9.55451C72.6094 9.53803 72.6221 9.52341 72.6406 9.52341H75.7C75.7166 9.52341 75.7312 9.5106 75.7312 9.49231V3.87041C75.7312 3.85398 75.744 3.83936 75.7625 3.83936H78.9337C78.9499 3.83936 78.9646 3.85213 78.9646 3.87041V9.49231C78.9646 9.50875 78.9773 9.52341 78.9958 9.52341H83.3171C83.3337 9.52341 83.3483 9.53622 83.3483 9.55451V12.2045C83.3483 12.221 83.3356 12.2356 83.3171 12.2356H78.9958C78.9792 12.2356 78.9646 12.2484 78.9646 12.2667V19.9734C78.9646 23.5161 80.4132 23.6384 81.75 23.6384H82.9205C83.3317 23.6384 83.6612 23.6056 83.9043 23.5377C83.9228 23.5323 83.9409 23.5469 83.9409 23.567V26.3617H83.939Z" fill="white"/>
<path id="Vector_4" d="M102.075 9.55654V26.358C102.075 26.3746 102.062 26.3892 102.044 26.3892H98.9106C98.8944 26.3892 98.8798 26.3765 98.8798 26.358V23.571C98.8798 23.5398 98.8377 23.529 98.8246 23.5583C98.2579 24.6794 96.3594 26.797 92.9744 26.797C88.4661 26.797 84.3203 23.2581 84.3203 17.9583C84.3203 13.655 87.3835 9.08105 92.9744 9.08105C96.1399 9.08105 98.1773 11.0306 98.8246 12.3199C98.8393 12.3474 98.8798 12.3382 98.8798 12.3071V9.55654C98.8798 9.54011 98.8925 9.52545 98.9106 9.52545H102.044C102.06 9.52545 102.075 9.53826 102.075 9.55654ZM93.1608 23.9001C97.1368 23.9001 98.8813 20.6887 98.8813 17.9583C98.8813 14.7944 96.6484 11.9779 93.1608 11.9779C89.2141 11.9779 87.5151 15.3448 87.5151 17.9583C87.5151 20.5717 89.1207 23.9001 93.1608 23.9001Z" fill="white"/>
<path id="Vector_5" d="M117.776 15.6539C117.762 15.6539 117.751 15.6429 117.747 15.6283C117.471 14.2366 116.948 11.9779 113.071 11.9779C109.966 11.9779 107.833 14.3061 107.833 17.9583C107.833 20.6375 109.124 23.9001 113.256 23.9001C116.344 23.9001 117.25 22.4188 117.78 20.6174C117.784 20.6046 117.795 20.5955 117.81 20.5955H120.982C121.001 20.5955 121.016 20.6119 121.014 20.6302C120.602 23.4742 118.466 26.797 113.032 26.797C107.941 26.797 104.602 22.9966 104.602 17.9583C104.602 13.4996 107.42 9.08105 112.996 9.08105C118.942 9.08105 120.796 13.1411 120.979 15.621C120.979 15.6393 120.966 15.6539 120.948 15.6539H117.776Z" fill="white"/>
<path id="Vector_6" d="M123.697 0.946149H126.868C126.885 0.946149 126.899 0.958958 126.899 0.977244V12.371C126.899 12.4021 126.941 12.4112 126.956 12.3838C127.451 11.398 128.988 9.08084 132.843 9.08084C138.178 9.08084 139.281 13.1208 139.195 16.4347V26.3582C139.195 26.3744 139.182 26.389 139.163 26.389H135.992C135.976 26.389 135.961 26.3763 135.961 26.3582V17.4369C135.961 14.5381 134.982 11.9393 131.689 11.9393C129.202 11.9393 126.897 13.7901 126.897 17.6965V26.3582C126.897 26.3744 126.885 26.389 126.866 26.389H123.695C123.678 26.389 123.664 26.3763 123.664 26.3582V0.975391C123.664 0.958957 123.677 0.944336 123.695 0.944336L123.697 0.946149Z" fill="white"/>
<path id="Vector_7" d="M159.161 9.55654V26.358C159.161 26.3746 159.148 26.3892 159.13 26.3892H155.997C155.98 26.3892 155.966 26.3765 155.966 26.358V23.571C155.966 23.5398 155.926 23.5309 155.911 23.5583C155.368 24.5494 153.579 26.797 150.06 26.797C145.104 26.797 141.406 22.8924 141.406 17.9583C141.406 13.8799 144.329 9.08105 150.06 9.08105C153.537 9.08105 155.366 11.3305 155.911 12.3199C155.926 12.3474 155.966 12.3382 155.966 12.3071V9.55654C155.966 9.54011 155.978 9.52545 155.997 9.52545H159.13C159.146 9.52545 159.161 9.53826 159.161 9.55654ZM150.247 23.9001C154.036 23.9001 155.968 20.8149 155.968 17.9583C155.968 14.7797 153.713 11.9779 150.247 11.9779C146.165 11.9779 144.525 15.5698 144.601 17.9583C144.729 21.9964 147.504 23.9001 150.247 23.9001Z" fill="white"/>
<path id="Vector_8" d="M161.326 3.01641C161.326 2.4001 161.516 1.86061 161.898 1.39789C162.397 0.790726 163.175 0.452384 163.958 0.505431C164.565 0.547483 165.093 0.792539 165.543 1.24426C165.993 1.69599 166.24 2.22453 166.282 2.83173C166.335 3.61628 165.997 4.38987 165.391 4.89098C164.929 5.27322 164.387 5.46527 163.771 5.46527C163.085 5.46527 162.506 5.22932 162.034 4.75564C161.56 4.28382 161.324 3.70409 161.324 3.01826L161.326 3.01641Z" fill="white"/>
<path id="Vector_9" d="M165.392 9.52539H162.223C162.206 9.52539 162.191 9.53932 162.191 9.55649V26.3564C162.191 26.3734 162.206 26.3873 162.223 26.3873H165.392C165.409 26.3873 165.423 26.3734 165.423 26.3564V9.55649C165.423 9.53932 165.409 9.52539 165.392 9.52539Z" fill="white"/>
<path id="Vector_10" d="M183.999 26.3872H180.898C180.881 26.3872 180.866 26.3744 180.866 26.3563V15.7488C180.914 13.0111 180.237 12.6251 177.77 12.658H171.605C171.589 12.658 171.574 12.6709 171.574 12.6891V26.3563C171.574 26.3725 171.561 26.3872 171.543 26.3872H168.472C168.456 26.3872 168.441 26.3744 168.441 26.3563V9.55453C168.441 9.53806 168.454 9.52344 168.472 9.52344H177.768C181.6 9.56368 183.994 12.7422 183.994 15.7488V26.3852H183.995L183.999 26.3872Z" fill="white"/>
<path id="Vector_11" d="M44.6277 17.8393C41.7728 20.4198 41.5463 22.4993 41.5463 24.9479V26.3873H54.6332V23.507H44.4467C44.5968 22.2413 45.0702 21.2976 46.4968 20.0046L54.6332 13.1483V9.51074H41.5352V12.3912H51.1148L44.6643 17.8045L44.6277 17.8375V17.8393Z" fill="white"/>
</g>
</g>
</svg>
