<svg width="184" height="34" viewBox="0 0 184 34" fill="none" xmlns="http://www.w3.org/2000/svg">
<g id="Zetachain">
<path id="Vector" d="M23.3617 24.5797V29.0148H5.0659C5.31828 26.0959 6.26016 24.0419 9.51734 21.1543L23.3617 9.34361V19.7077H28.3454V0.640137H0.00547762V10.1447H4.98727V5.62374H20.0423L6.26564 17.3796L6.23273 17.4107C0.459056 22.5223 0 26.6483 0 31.5093V34H28.3435V24.5816H23.3598L23.3617 24.5797Z" fill="white"/>
<path id="Vector_2" d="M58.8436 18.3104C58.827 18.3104 58.8123 18.325 58.8123 18.3433C58.913 20.3477 59.7486 23.5848 64.0483 23.5848C67.3658 23.5848 68.0463 21.5145 68.3133 20.9293C68.3187 20.9183 68.3279 20.911 68.3407 20.911H71.5501C71.5705 20.911 71.5833 20.9293 71.5794 20.9476C71.3838 22.0359 69.7048 26.295 64.0483 26.295C58.3918 26.295 55.6172 22.0447 55.6172 17.4563C55.6172 11.8418 59.1526 8.5791 63.9368 8.5791C68.3974 8.5791 71.7368 11.9515 71.7368 16.1926C71.7368 16.4395 71.7314 16.7376 71.7187 17.0832C71.7056 17.4234 71.6635 17.8239 71.5921 18.283C71.5906 18.2976 71.5779 18.3086 71.5632 18.3086H58.8436V18.3104ZM63.8635 11.0682C59.822 11.0682 58.8509 14.0803 58.8509 15.8268C58.8509 15.8433 58.8636 15.8598 58.8818 15.8598H68.5876C68.6042 15.8598 68.6169 15.8451 68.6184 15.8287C68.7319 13.8974 67.4263 11.0682 63.8635 11.0682Z" fill="white"/>
<path id="Vector_3" d="M83.6421 25.8617C83.6421 25.8763 83.6313 25.8891 83.6166 25.891C83.2984 25.9385 82.8794 25.9878 82.3601 26.0353C81.8281 26.0847 81.2884 26.1101 80.7452 26.1101C77.9783 26.1101 75.4343 25.1171 75.4343 20.205V11.7667C75.4343 11.7502 75.4216 11.7356 75.4031 11.7356H72.3438C72.3272 11.7356 72.3125 11.7228 72.3125 11.7045V9.05451C72.3125 9.03803 72.3252 9.02341 72.3438 9.02341H75.4031C75.4197 9.02341 75.4343 9.0106 75.4343 8.99231V3.37041C75.4343 3.35398 75.4471 3.33936 75.4656 3.33936H78.6368C78.653 3.33936 78.6677 3.35213 78.6677 3.37041V8.99231C78.6677 9.00875 78.6804 9.02341 78.6989 9.02341H83.0202C83.0368 9.02341 83.0515 9.03622 83.0515 9.05451V11.7045C83.0515 11.721 83.0387 11.7356 83.0202 11.7356H78.6989C78.6823 11.7356 78.6677 11.7484 78.6677 11.7667V19.4734C78.6677 23.0161 80.1163 23.1384 81.4531 23.1384H82.6236C83.0349 23.1384 83.3643 23.1056 83.6074 23.0377C83.6259 23.0323 83.644 23.0469 83.644 23.067V25.8617H83.6421Z" fill="white"/>
<path id="Vector_4" d="M101.778 9.05654V25.858C101.778 25.8746 101.765 25.8892 101.747 25.8892H98.6138C98.5976 25.8892 98.5829 25.8765 98.5829 25.858V23.071C98.5829 23.0398 98.5409 23.029 98.5277 23.0583C97.961 24.1794 96.0625 26.297 92.6776 26.297C88.1692 26.297 84.0234 22.7581 84.0234 17.4583C84.0234 13.155 87.0866 8.58105 92.6776 8.58105C95.843 8.58105 97.8804 10.5306 98.5277 11.8199C98.5424 11.8474 98.5829 11.8382 98.5829 11.8071V9.05654C98.5829 9.04011 98.5956 9.02545 98.6138 9.02545H101.747C101.763 9.02545 101.778 9.03826 101.778 9.05654ZM92.8639 23.4001C96.8399 23.4001 98.5845 20.1887 98.5845 17.4583C98.5845 14.2944 96.3515 11.4779 92.8639 11.4779C88.9172 11.4779 87.2182 14.8448 87.2182 17.4583C87.2182 20.0717 88.8239 23.4001 92.8639 23.4001Z" fill="white"/>
<path id="Vector_5" d="M117.48 15.1539C117.465 15.1539 117.454 15.1429 117.45 15.1283C117.174 13.7366 116.651 11.4779 112.774 11.4779C109.669 11.4779 107.536 13.8061 107.536 17.4583C107.536 20.1375 108.827 23.4001 112.959 23.4001C116.047 23.4001 116.953 21.9188 117.483 20.1174C117.487 20.1046 117.498 20.0955 117.513 20.0955H120.685C120.704 20.0955 120.719 20.1119 120.717 20.1302C120.305 22.9742 118.169 26.297 112.735 26.297C107.644 26.297 104.305 22.4966 104.305 17.4583C104.305 12.9996 107.123 8.58105 112.699 8.58105C118.645 8.58105 120.499 12.6411 120.682 15.121C120.682 15.1393 120.669 15.1539 120.651 15.1539H117.48Z" fill="white"/>
<path id="Vector_6" d="M123.4 0.446149H126.571C126.588 0.446149 126.602 0.458958 126.602 0.477244V11.871C126.602 11.9021 126.645 11.9112 126.659 11.8838C127.155 10.898 128.691 8.58084 132.546 8.58084C137.881 8.58084 138.984 12.6208 138.898 15.9347V25.8582C138.898 25.8744 138.885 25.889 138.866 25.889H135.695C135.679 25.889 135.664 25.8763 135.664 25.8582V16.9369C135.664 14.0381 134.686 11.4393 131.392 11.4393C128.905 11.4393 126.601 13.2901 126.601 17.1965V25.8582C126.601 25.8744 126.588 25.889 126.569 25.889H123.398C123.381 25.889 123.367 25.8763 123.367 25.8582V0.475391C123.367 0.458957 123.38 0.444336 123.398 0.444336L123.4 0.446149Z" fill="white"/>
<path id="Vector_7" d="M158.864 9.05654V25.858C158.864 25.8746 158.851 25.8892 158.833 25.8892H155.7C155.684 25.8892 155.669 25.8765 155.669 25.858V23.071C155.669 23.0398 155.629 23.0309 155.614 23.0583C155.071 24.0494 153.282 26.297 149.764 26.297C144.807 26.297 141.109 22.3924 141.109 17.4583C141.109 13.3799 144.032 8.58105 149.764 8.58105C153.24 8.58105 155.069 10.8305 155.614 11.8199C155.629 11.8474 155.669 11.8382 155.669 11.8071V9.05654C155.669 9.04011 155.682 9.02545 155.7 9.02545H158.833C158.849 9.02545 158.864 9.03826 158.864 9.05654ZM149.95 23.4001C153.739 23.4001 155.671 20.3149 155.671 17.4583C155.671 14.2797 153.416 11.4779 149.95 11.4779C145.868 11.4779 144.228 15.0698 144.305 17.4583C144.433 21.4964 147.207 23.4001 149.95 23.4001Z" fill="white"/>
<path id="Vector_8" d="M161.029 2.51641C161.029 1.9001 161.219 1.36061 161.601 0.897888C162.101 0.290726 162.878 -0.0476156 163.661 0.00543101C164.268 0.0474825 164.797 0.292539 165.246 0.744265C165.696 1.19599 165.943 1.72453 165.985 2.33173C166.038 3.11628 165.7 3.88987 165.094 4.39098C164.632 4.77322 164.091 4.96527 163.474 4.96527C162.788 4.96527 162.209 4.72932 161.737 4.25564C161.263 3.78382 161.027 3.20409 161.027 2.51826L161.029 2.51641Z" fill="white"/>
<path id="Vector_9" d="M165.095 9.02539H161.926C161.909 9.02539 161.895 9.03932 161.895 9.05649V25.8564C161.895 25.8734 161.909 25.8873 161.926 25.8873H165.095C165.112 25.8873 165.126 25.8734 165.126 25.8564V9.05649C165.126 9.03932 165.112 9.02539 165.095 9.02539Z" fill="white"/>
<path id="Vector_10" d="M183.702 25.8872H180.601C180.584 25.8872 180.569 25.8744 180.569 25.8563V15.2488C180.617 12.5111 179.941 12.1251 177.473 12.1581H171.308C171.292 12.1581 171.277 12.1709 171.277 12.1891V25.8563C171.277 25.8725 171.264 25.8872 171.246 25.8872H168.175C168.159 25.8872 168.145 25.8744 168.145 25.8563V9.05453C168.145 9.03806 168.157 9.02344 168.175 9.02344H177.471C181.303 9.06368 183.697 12.2422 183.697 15.2488V25.8852H183.699L183.702 25.8872Z" fill="white"/>
<path id="Vector_11" d="M44.3308 17.3393C41.4759 19.9198 41.2495 21.9993 41.2495 24.4479V25.8873H54.3364V23.007H44.1499C44.2999 21.7413 44.7733 20.7976 46.2 19.5046L54.3364 12.6483V9.01074H41.2383V11.8912H50.8179L44.3675 17.3045L44.3308 17.3375V17.3393Z" fill="white"/>
</g>
</svg>
