<svg width="69" height="69" viewBox="0 0 69 69" fill="none" xmlns="http://www.w3.org/2000/svg">
<g id="Group 48101020">
<circle id="Bg" cx="34.8537" cy="34.1734" r="34.0685" fill="#DBD1FB"/>
<g id="Mask group">
<mask id="mask0_7544_58193" style="mask-type:alpha" maskUnits="userSpaceOnUse" x="0" y="0" width="69" height="69">
<circle id="Ellipse 3168" cx="34.8542" cy="34.1736" r="34.0685" fill="#C4C4C4"/>
</mask>
<g mask="url(#mask0_7544_58193)">
<g id="Artboard 68">
<path id="Path" d="M37.3162 62.4972C33.9304 62.7141 30.6469 62.5933 27.2918 62.5361C23.4764 62.5361 18.9286 63.5303 16.0706 60.2059C14.0944 57.9064 14.3317 54.4183 15.3505 51.5624C16.0686 49.5514 17.1344 47.4954 16.7375 45.3964C16.4368 43.8068 15.3362 42.4873 14.8472 40.9468C14.3706 39.4452 14.5056 37.608 15.3198 36.2414C16.0624 34.9894 17.2572 34.3409 17.5047 32.7534C17.6397 31.8818 17.3983 31.0042 17.2572 30.1327C16.1013 22.9908 21.8827 17.9909 27.5803 14.9938C31.0745 13.1526 35.2704 12.3097 39.0367 13.8604C39.3141 13.9981 39.613 14.0873 39.9205 14.1243C40.2017 14.1126 40.4812 14.0742 40.7552 14.0098C45.4401 13.3183 51.5079 21.6733 50.215 25.9102C49.8222 27.1929 49.2043 28.5226 49.5521 29.8197C50.0656 31.7305 52.4756 32.7452 52.7743 34.7009C53.0975 36.8102 50.7387 38.6984 51.2031 40.7831C51.4772 42.0106 52.6454 42.8125 53.386 43.8375C53.9418 44.6168 54.2594 45.5407 54.3004 46.497C54.329 47.0875 54.2493 47.6782 54.0652 48.24C53.5128 49.9074 52.048 51.4233 52.4142 53.1499C52.8479 55.1957 55.4829 55.92 55.3458 58.2481C55.2701 59.4919 54.1797 60.4555 53.0279 60.9281C52.1989 61.2412 51.3448 61.4835 50.4748 61.6523C49.8324 61.7955 49.2657 61.6666 48.6233 61.7321C46.8353 61.9141 45.0718 62.1944 43.2715 62.2967C41.2994 62.3949 39.3006 62.3704 37.3162 62.4972Z" fill="#A0A0A1"/>
<path id="Path_2" d="M59.3855 61.3308C45.7097 71.8608 26.6345 71.7766 13.0522 61.1262L23.0071 56.4598C23.3118 56.3157 23.6088 56.1559 23.897 55.9811L24.1261 55.8378C24.208 55.7867 24.2878 55.7335 24.3675 55.6783C25.6235 54.8118 26.6528 53.6562 27.3687 52.3088C28.1871 50.7643 28.4571 49.0581 28.4694 47.3191C28.4694 46.149 28.406 44.9788 28.3937 43.8065C28.3855 43.1573 28.3787 42.5088 28.3732 41.861L28.7824 42.0655L29.8462 42.6159L36.0429 43.6694L42.4094 44.7537L42.6017 51.3003L42.6979 54.5469L45.0444 55.5023L46.8856 56.247L59.3855 61.3308Z" fill="#E18477"/>
<path id="Path_3" d="M42.5933 49.6059C42.0368 49.9496 41.5111 50.1112 41.0508 50.0621C38.025 49.7368 32.1229 47.3657 28.4077 42.9775C28.4077 42.7634 28.4036 42.5486 28.3955 42.3331C28.3873 41.6852 28.3805 41.0367 28.375 40.3875L28.7842 40.5921L29.848 41.1424L36.0447 42.196L42.4112 43.2803L42.5933 49.6059Z" fill="#A76962"/>
<circle id="Oval" cx="23.2591" cy="35.2636" r="3.47785" fill="#E18477"/>
<circle id="Oval_2" cx="24.4869" cy="34.8543" r="3.47785" fill="#A76962"/>
<path id="Path_4" d="M46.8969 30.0531C49.2987 38.3774 44.1965 48.4427 41.0582 48.4427C36.762 48.4427 26.3285 45.0119 23.9287 36.6876C21.529 28.3632 24.7287 20.1289 31.0706 18.2979C37.4126 16.4669 44.4931 21.7308 46.8969 30.0531Z" fill="#E18477"/>
<path id="Path_5" d="M33.5091 31.4996C34.757 31.4996 34.757 33.4185 33.5091 33.4267H33.4518C32.2039 33.4267 32.2039 31.5098 33.4518 31.4996H33.5091Z" fill="#00214E"/>
<path id="Path_6" d="M43.755 31.2148C44.915 31.2148 44.915 32.9946 43.755 33.0049H43.7039C42.546 33.0049 42.546 31.223 43.7039 31.2148H43.755Z" fill="#00214E"/>
<path id="Path_7" d="M39.2685 19.9652C39.2439 20.0204 39.2194 20.0777 39.1928 20.135C38.5939 21.4009 37.8047 22.5676 36.8524 23.5944C34.96 25.6811 32.5889 27.3096 30.1299 28.6618C28.7113 29.4711 27.2436 30.1912 25.7355 30.8181C23.5608 31.6835 21.7176 32.1151 21.6582 32.1765C21.468 29.7441 20.1382 24.6419 26.7359 19.646C32.055 15.6219 39.7656 15.937 39.7656 15.937C39.741 17.4529 39.8658 18.574 39.2685 19.9652Z" fill="#55AA79"/>
<path id="Path_8" d="M39.3355 30.4393C39.3191 30.5109 41.0458 37.8881 41.0458 37.8881H38.4885" stroke="#00214E" stroke-width="0.681371"/>
<path id="Path_9" d="M41.679 28.3529C43.1243 27.6166 44.7959 27.4586 46.3536 27.911" stroke="#00214E" stroke-width="0.681371"/>
<path id="Path_10" d="M30.4031 29.11C32.3958 28.0927 34.7384 28.0177 36.7921 28.9054" stroke="#00214E" stroke-width="0.681371"/>
<path id="Path_11" d="M59.3855 61.3314C45.7097 71.8614 26.6345 71.7771 13.0522 61.1268L23.0071 56.4603C23.4812 56.2375 23.9362 55.9761 24.3675 55.6788C24.4985 55.5888 24.6294 55.4947 24.7542 55.3965C25.8376 54.5675 26.7294 53.5145 27.3687 52.3094C27.852 51.3835 28.1731 50.3815 28.318 49.3471C28.4625 49.4871 28.6141 49.6196 28.7721 49.744C30.0265 50.6716 31.3879 51.445 32.8269 52.0476C33.5256 52.339 34.24 52.591 34.9668 52.8025C37.1566 53.441 39.443 53.6828 41.718 53.5164C42.033 53.4919 42.3501 53.4612 42.6652 53.4387L42.6958 54.478V54.5455L45.1713 55.552L59.3855 61.3314Z" fill="#7767F6"/>
<rect id="Rectangle" x="24.9075" y="20.3416" width="5.74051" height="1.99056" rx="0.99528" transform="rotate(20.94 24.9075 20.3416)" fill="#FF2609"/>
<rect id="Rectangle_2" x="23.5491" y="23.376" width="5.74051" height="1.99056" rx="0.99528" transform="rotate(20.94 23.5491 23.376)" fill="#F2D4CF"/>
<path id="Path_12" d="M34.0175 39.3697C34.0733 39.2794 34.1644 39.2167 34.2687 39.1969C34.3729 39.177 34.4807 39.2019 34.5658 39.2653C34.9913 39.5661 35.7687 40.1982 36.8734 40.4192C38.3792 40.7178 39.6864 40.1164 39.9974 40.5051C40.1733 40.724 39.9585 40.9899 39.5473 41.3336C38.6765 41.9833 37.5806 42.2547 36.5073 42.0865C35.0588 41.8164 33.9705 40.1368 33.9705 39.5436C33.9702 39.4824 33.9865 39.4223 34.0175 39.3697Z" fill="white"/>
</g>
</g>
</g>
</g>
</svg>
