<svg width="69" height="69" viewBox="0 0 69 69" fill="none" xmlns="http://www.w3.org/2000/svg">
<circle cx="34.8354" cy="34.9185" r="34.0685" fill="#C6EBFC"/>
<mask id="mask0_7544_58019" style="mask-type:alpha" maskUnits="userSpaceOnUse" x="0" y="0" width="69" height="69">
<circle cx="34.8362" cy="34.9185" r="34.0685" fill="#C4C4C4"/>
</mask>
<g mask="url(#mask0_7544_58019)">
<path d="M57.3199 61.7397C43.6441 72.2697 24.5689 72.1855 10.9867 61.5352L20.9415 56.8687C21.4156 56.6458 21.8706 56.3845 22.302 56.0872C22.4329 55.9972 22.5639 55.9031 22.6887 55.8049C23.7721 54.9759 24.6639 53.9229 25.3032 52.7178C25.7865 51.7918 26.1076 50.7899 26.2524 49.7555C26.3523 49.0843 26.4029 48.4067 26.4038 47.7281C26.4038 46.5579 26.3404 45.3877 26.3281 44.2155C26.3199 43.5676 26.3131 42.9191 26.3077 42.2699L26.7168 42.4745L27.7806 43.0248L28.2737 43.1087L33.9774 44.0784L40.3439 45.1627L40.5362 51.7092L40.5996 53.8491L40.6303 54.8884V54.9518L43.1057 55.9583L57.3199 61.7397Z" fill="#F2A196"/>
<path d="M40.6063 54.467C39.9032 54.588 39.1798 54.4759 38.5462 54.1479L26.3451 44.1685C26.3307 43.7061 26.3185 44.191 26.3123 43.7286C26.3041 43.0808 26.2973 42.4323 26.2919 41.7831L26.701 41.9877L27.7648 42.538L28.2579 42.6219L33.9616 43.5916L40.3281 44.6758L40.5204 51.2224L40.5838 53.3623L40.6145 54.4016V54.4691L40.6063 54.467Z" fill="#E88870"/>
<path d="M57.3199 61.7397C43.6441 72.2696 24.5689 72.1854 10.9867 61.5351L20.9415 56.8686C21.4156 56.6458 21.8706 56.3844 22.302 56.0871C22.4329 55.9971 22.5639 55.903 22.6887 55.8048C27.5065 59.2336 34.0817 61.396 39.769 58.8367C41.1233 58.2229 42.3672 57.2328 43.1037 55.9603L57.3199 61.7397Z" fill="#FF2609"/>
<path d="M53.6568 20.7665C53.6383 20.8872 53.6158 21.0059 53.5892 21.1245C53.4473 21.7328 53.2193 22.3176 52.9121 22.8614L52.8957 22.8901C52.7791 23.0946 52.6543 23.2992 52.5193 23.5038C52.161 24.029 51.7702 24.5312 51.3491 25.0075L51.0975 25.2877C50.9277 25.478 50.7558 25.6642 50.584 25.8483C50.7136 25.8205 50.8468 25.8129 50.9788 25.8258C51.0278 25.8298 51.0764 25.838 51.1241 25.8503C51.7767 25.9853 52.3352 26.5929 52.5091 27.2824C52.5193 27.3274 52.5295 27.3744 52.5377 27.4194C52.6993 28.336 52.3331 29.2607 51.881 30.079C51.0893 31.5274 49.9477 32.491 48.9432 33.7491C48.1904 34.6861 47.773 35.7949 46.9527 36.691L46.8913 36.7585L46.8422 36.8076C44.6737 39.0416 41.2838 39.5715 38.4544 40.5371C37.4315 40.889 26.3392 44.0395 26.3392 44.7269C26.3392 44.5775 25.2529 43.4994 23.8843 42.1881C18.9744 37.5257 17.3602 30.3224 20.2816 24.1441C23.4219 17.4953 30.5536 12.7511 37.3456 10.4721C39.4692 9.76012 41.8791 9.28141 43.8922 10.2675C45.9052 11.2536 46.9077 14.312 45.2383 15.8055C46.2883 15.0111 47.5942 14.6316 48.9064 14.7396C50.1184 14.8155 51.2614 15.3296 52.1224 16.186C52.6035 16.6681 52.9906 17.2356 53.264 17.8594C53.3765 18.1183 53.4702 18.3849 53.5442 18.6573C53.7285 19.3448 53.7668 20.0633 53.6568 20.7665Z" fill="#F2D4CF"/>
<path d="M53.659 20.7667C53.6406 20.8874 53.6181 21.0061 53.5915 21.1247C53.4496 21.733 53.2216 22.3178 52.9144 22.8616L52.898 22.8903C52.7814 23.0948 52.6566 23.2994 52.5216 23.504C52.1633 24.0292 51.7725 24.5314 51.3514 25.0077L51.0998 25.2879C50.93 25.4782 50.7581 25.6644 50.5863 25.8485C50.7159 25.8207 50.8491 25.8131 50.9811 25.826C51.0301 25.83 51.0787 25.8382 51.1263 25.8505C51.779 25.9856 52.3375 26.5932 52.5114 27.2826C52.5216 27.3276 52.5318 27.3747 52.54 27.4197C52.7016 28.3362 52.3354 29.2609 51.8833 30.0792C51.0916 31.5276 49.95 32.4912 48.9455 33.7494C48.1927 34.6863 47.7753 35.7952 46.955 36.6912L46.8936 36.7587L46.8445 36.8078C46.0219 35.701 45.4978 34.4012 45.3224 33.0333C44.9726 30.2019 45.1854 27.1169 45.0892 24.2507C45.0565 23.2503 44.9971 22.0576 45.3183 21.1084C45.4061 20.8734 45.5237 20.6506 45.6682 20.4455C46.0446 19.8382 46.4739 19.2652 46.9509 18.7332C47.4918 18.1573 48.1748 17.734 48.9312 17.5057C49.3396 17.3897 49.7582 17.3129 50.1812 17.2766C50.6335 17.2323 51.0894 17.2412 51.5396 17.3032C52.1401 17.3889 52.7206 17.5808 53.254 17.8699C53.3665 18.1287 53.4602 18.3954 53.5343 18.6677C53.7211 19.3512 53.7636 20.066 53.659 20.7667Z" fill="#DAAEA8"/>
<circle cx="24.2954" cy="36.5394" r="3.47785" fill="#F2A196"/>
<circle cx="25.3974" cy="36.5394" r="3.1137" fill="#E88870"/>
<path d="M25.4452 33.2666L26.3453 44.9277L39.9376 52.8694C41.8857 53.597 44.0679 52.728 44.9826 50.8605C46.9383 46.8548 50.0766 40.5312 49.6633 38.1765C49.0496 34.6987 47.413 33.4712 47.413 33.4712L48.0942 29.3919C48.3499 27.8555 48.6793 26.2516 48.2988 24.707C47.863 22.9374 46.5251 22.1804 45.4244 20.8568C42.5276 24.5883 37.765 26.6976 33.6059 28.8354C31.4598 29.9483 25.4452 33.2666 25.4452 33.2666Z" fill="#F2A196"/>
<path d="M40.6906 32.2645C40.6743 32.334 43.4238 39.6539 43.4238 39.6539L39.7537 39.8339" stroke="#00214E" stroke-width="0.681371"/>
<path d="M32.001 30.8462C33.8949 30.4552 35.8429 30.4005 37.7558 30.6846" stroke="#00214E" stroke-width="0.681371"/>
<path d="M44.0833 30.8687C45.2527 30.5985 46.4576 30.5149 47.6532 30.6211" stroke="#00214E" stroke-width="0.681371"/>
<path d="M35.9946 41.8789C36.0511 41.7895 36.1424 41.7276 36.2464 41.7082C36.3504 41.6888 36.4578 41.7136 36.5428 41.7767C36.9684 42.0753 37.7458 42.7095 38.8505 42.9284C40.3562 43.2292 41.6614 42.6257 41.9744 43.0144C42.1504 43.2333 41.9356 43.5013 41.5244 43.8327C40.6543 44.4841 39.558 44.7564 38.4843 44.5876C37.0359 44.3155 35.9475 42.6379 35.9475 42.0426C35.9492 41.985 35.9654 41.9287 35.9946 41.8789Z" fill="white"/>
<path d="M35.4515 33.1934C36.6994 33.2036 36.6994 35.1103 35.4515 35.1206H35.3942C34.1463 35.1103 34.1463 33.2036 35.3942 33.1934H35.4515Z" fill="#00214E"/>
<path d="M45.7375 33.0616C46.8954 33.0616 46.8954 34.8414 45.7375 34.8496H45.6864C44.5264 34.8496 44.5264 33.0698 45.6864 33.0616H45.7375Z" fill="#00214E"/>
</g>
</svg>
