<svg width="69" height="69" viewBox="0 0 69 69" fill="none" xmlns="http://www.w3.org/2000/svg">
<circle cx="34.0871" cy="34.1738" r="34.0685" fill="#F5CE93"/>
<mask id="mask0_7544_58101" style="mask-type:alpha" maskUnits="userSpaceOnUse" x="0" y="0" width="69" height="69">
<circle cx="34.0872" cy="34.1743" r="34.0685" fill="#C4C4C4"/>
</mask>
<g mask="url(#mask0_7544_58101)">
<path d="M38.057 15.906C37.7767 17.1089 36.1728 17.7022 35.4956 18.6453C34.7939 19.6252 34.7325 21.3253 33.724 21.9513C32.7154 22.5773 31.1647 21.8817 29.9761 22.0781C28.8304 22.2684 27.5886 23.4447 26.3877 23.1644C25.1868 22.8842 24.5915 21.2803 23.6464 20.6031C22.6685 19.9014 20.9664 19.838 20.3404 18.8314C19.7143 17.8249 20.4099 16.2722 20.2135 15.0835C20.0253 13.9359 18.849 12.6961 19.1292 11.4932C19.4095 10.2902 21.0134 9.69696 21.6906 8.75385C22.3923 7.77391 22.4537 6.07385 23.4622 5.44784C24.4708 4.82183 26.0215 5.5174 27.2101 5.321C28.3558 5.13074 29.5976 3.95645 30.8005 4.23673C32.0034 4.517 32.5947 6.11886 33.5398 6.79602C34.5177 7.49773 36.2198 7.56115 36.8458 8.56768C37.4719 9.57421 36.7763 11.129 36.9727 12.3176C37.1629 13.4633 38.3475 14.7051 38.057 15.906Z" fill="#DAAEA8"/>
<path d="M41.7033 43.4846C41.1878 44.0983 40.7418 44.7694 40.216 45.3729C37.4296 48.5766 31.3598 46.4715 28.3504 44.5546C26.1348 43.1532 24.4634 41.0399 23.0313 38.8386C21.2719 36.1238 19.801 33.1717 19.1627 30.0008C16.2393 15.4776 34.8703 9.16022 45.3182 16.2898C49.2052 18.9494 52.7179 24.9149 51.8648 29.6959C51.429 32.1222 49.7044 34.3051 49.8885 36.7621C50.0931 39.4094 52.4847 41.9318 51.4843 44.3909C51.0915 45.3524 50.2445 46.0398 49.5592 46.8193C48.6324 47.8728 47.9553 49.1903 47.8755 50.5897C47.7957 51.989 48.3767 53.4538 49.5305 54.2557C46.6807 53.8752 44.9254 50.4628 45.6619 47.6846C45.9033 46.7722 46.3493 45.9212 46.5437 44.9964C46.738 44.0717 46.6235 42.9977 45.9177 42.3717C45.0114 41.5677 43.5343 41.8725 42.583 42.6213C42.2619 42.8792 41.9672 43.1684 41.7033 43.4846Z" fill="#F2D4CF"/>
<path d="M59.3005 61.5065C45.6242 72.035 26.55 71.9508 12.9673 61.3019L22.9221 56.6355C23.2268 56.4921 23.5239 56.333 23.8121 56.1588C23.8898 56.1117 23.9655 56.0647 24.0412 56.0135C24.1169 55.9624 24.2028 55.9112 24.2826 55.856C25.5384 54.9894 26.5676 53.8338 27.2838 52.4866C28.1021 50.9441 28.3721 49.2379 28.3844 47.4989C28.3844 46.3267 28.321 45.1585 28.3087 43.9842C28.3005 43.3364 28.2937 42.6879 28.2883 42.0387L28.3271 42.0592L28.6933 42.2494L29.7571 42.7977L35.9539 43.8513L42.3204 44.9376L42.4677 49.9396L42.5127 51.476L42.6088 54.7226L44.9554 55.678L46.7966 56.4247L59.3005 61.5065Z" fill="#845161"/>
<path d="M42.4666 49.9337C42.0299 50.2246 41.5115 50.368 40.9875 50.3428C37.9617 50.0175 32.0596 47.6465 28.3444 43.2582C28.3444 43.0427 28.3403 42.8279 28.3322 42.6138V42.043L28.6984 42.2333L29.7622 42.7816L35.9589 43.8351L42.3254 44.9215L42.4666 49.9337Z" fill="#69303A"/>
<path d="M59.3005 61.5066C45.6247 72.0366 26.5495 71.9524 12.9673 61.302L22.9221 56.6356C23.2268 56.4915 23.5239 56.3317 23.8121 56.1568C28.6565 59.7186 35.3995 62.0385 41.2136 59.4301C42.8625 58.6895 44.3498 57.3741 44.9554 55.6843L46.7966 56.4289L59.3005 61.5066Z" fill="#00214E"/>
<circle cx="23.1741" cy="35.4885" r="3.47785" fill="#845161"/>
<circle cx="24.4018" cy="35.0791" r="3.47785" fill="#69303A"/>
<path d="M46.8118 30.2202C49.2136 38.5445 44.1093 48.5996 40.9731 48.5996C36.6769 48.5996 26.2434 45.1688 23.8437 36.8445C21.4439 28.5201 24.6436 20.296 30.9855 18.465C37.3275 16.634 44.408 21.8979 46.8118 30.2202Z" fill="#845161"/>
<path d="M39.6867 20.0038C39.1957 20.9735 38.1728 21.8164 37.5652 22.8086C36.7694 24.1077 36.1679 25.5193 35.4928 26.8838C34.9916 27.9067 34.431 28.9174 33.5841 29.6682C32.7371 30.419 31.5383 30.8629 30.452 30.5499C29.7073 30.3351 29.1017 29.8032 28.4368 29.4084C27.772 29.0135 26.9168 28.7496 26.2335 29.1179C25.227 29.6579 25.2413 31.1248 24.5212 32.0106C22.8682 34.0421 19.8384 31.3048 19.4742 29.5311C18.9403 26.9391 21.0679 24.7726 22.6145 22.9846C23.9034 21.4911 25.6484 19.2121 27.6738 18.715C27.7085 18.715 39.5394 14.0096 39.5394 14.0096C39.6458 15.591 40.2841 17.9294 39.9015 19.4433C39.8513 19.6376 39.7792 19.8257 39.6867 20.0038Z" fill="#F2D4CF"/>
<path d="M39.2483 30.6093C39.236 30.6584 40.3816 33.858 41.0752 35.7893C41.1903 36.1176 41.1395 36.4814 40.9389 36.7657C40.7382 37.05 40.4125 37.2198 40.0645 37.2213H39.3199" stroke="#00214E" stroke-width="0.681371"/>
<path d="M41.5938 28.5205C43.0391 27.7842 44.7107 27.6262 46.2684 28.0786" stroke="#F2D4CF" stroke-width="0.681371"/>
<path d="M30.3198 29.2771C32.3121 28.2611 34.6536 28.1861 36.7068 29.0726" stroke="#F2D4CF" stroke-width="0.681371"/>
<path d="M34.0378 31.5435C35.2857 31.5435 35.2857 33.4604 34.0378 33.4707H33.9805C32.7326 33.4604 32.7326 31.5517 33.9805 31.5435H34.0378Z" fill="#00214E"/>
<path d="M44.3185 30.9119C45.4764 30.9222 45.4764 32.6918 44.3185 32.702H44.2653C43.1074 32.702 43.1074 30.9222 44.2653 30.9119H44.3185Z" fill="#00214E"/>
<path d="M37.7972 36.0486C37.4628 36.0849 37.2035 36.3572 37.1835 36.693C37.1886 36.855 37.2658 37.0062 37.3942 37.1052C37.5225 37.2042 37.6883 37.2406 37.8463 37.2045" stroke="#00214E" stroke-width="0.681371"/>
<path d="M34.1865 39.1419C34.243 39.0524 34.3343 38.9906 34.4383 38.9712C34.5423 38.9518 34.6497 38.9766 34.7347 39.0396C35.1582 39.3383 35.9377 39.9725 37.0424 40.1914C38.5481 40.4921 39.8533 39.8886 40.1663 40.2773C40.3423 40.4962 40.1275 40.7622 39.7162 41.1058C38.8456 41.756 37.7498 42.0281 36.6762 41.8607C35.2278 41.5887 34.1394 39.9111 34.1394 39.3158C34.1393 39.2547 34.1556 39.1946 34.1865 39.1419Z" fill="white"/>
</g>
</svg>
