<svg width="70" height="69" viewBox="0 0 70 69" fill="none" xmlns="http://www.w3.org/2000/svg">
<circle cx="35.0314" cy="34.0685" r="34.0685" fill="#C7F599"/>
<mask id="mask0_7544_57822" style="mask-type:alpha" maskUnits="userSpaceOnUse" x="0" y="0" width="70" height="69">
<circle cx="35.0312" cy="34.0685" r="34.0685" fill="#C4C4C4"/>
</mask>
<g mask="url(#mask0_7544_57822)">
<path d="M53.9072 31.1637C53.8551 32.4178 52.214 33.43 51.9293 34.604C51.6372 35.8153 52.6252 37.4657 52.1154 38.569C51.6056 39.6724 49.6966 39.9998 48.9654 40.9878C48.2341 41.9758 48.5188 43.8885 47.6145 44.7202C46.7103 45.5519 44.8348 45.1091 43.7835 45.751C42.7323 46.3929 42.2727 48.261 41.1098 48.6852C39.9469 49.1095 38.4044 47.9801 37.1746 48.1698C35.98 48.3559 34.8339 49.904 33.5798 49.8444C32.3258 49.7849 31.3136 48.1512 30.1395 47.8666C28.9301 47.5726 27.2779 48.5624 26.1745 48.0526C25.0712 47.5428 24.7456 45.6338 23.7557 44.9044C22.7659 44.1751 20.855 44.4579 20.0233 43.5536C19.1916 42.6494 19.6326 40.7739 18.9907 39.7207C18.3487 38.6676 16.4844 38.2118 16.0583 37.0507C15.6322 35.8897 16.7653 34.3454 16.5737 33.1155C16.3876 31.921 14.8396 30.773 14.8991 29.5208C14.9587 28.2686 16.5942 27.2545 16.8788 26.0805C17.171 24.8711 16.183 23.2188 16.6928 22.1155C17.2026 21.0121 19.1116 20.6865 19.841 19.6967C20.5703 18.7068 20.2894 16.796 21.1936 15.9754C22.0979 15.1549 23.9734 15.5847 25.0247 14.9428C26.0759 14.3009 26.5355 12.4346 27.6984 12.0086C28.8613 11.5825 30.4019 12.7063 31.628 12.5165C32.8207 12.3304 33.9687 10.7824 35.2209 10.8419C36.4731 10.9015 37.4872 12.537 38.6631 12.8198C39.8725 13.1138 41.5229 12.1239 42.6262 12.6337C43.7296 13.1435 44.057 15.0525 45.045 15.7819C46.033 16.5113 47.9457 16.2285 48.7774 17.1327C49.6091 18.037 49.1682 19.9144 49.8101 20.9656C50.452 22.0169 52.3182 22.4764 52.7443 23.6375C53.1704 24.7985 52.0373 26.3428 52.227 27.5727C52.4094 28.7598 53.9612 29.9115 53.9072 31.1637Z" fill="url(#paint0_linear_7544_57822)"/>
<path d="M58.2569 62.6916C45.819 72.2685 28.4703 72.1919 16.1174 62.5055L25.1712 58.2614C25.4484 58.1304 25.7185 57.9851 25.9806 57.8261L26.189 57.6958C26.2634 57.6493 26.336 57.6009 26.4086 57.5507C27.5508 56.7627 28.4869 55.7117 29.1381 54.4862C29.8824 53.0815 30.128 51.5297 30.1391 49.9482C30.1391 48.8839 30.0814 47.8196 30.0703 46.7535C30.0628 46.1643 30.0566 45.5744 30.0517 44.984L30.4238 45.1701L31.3913 45.6706L37.0272 46.6288L42.8174 47.6149L42.9923 53.5689L43.0798 56.5218L45.2139 57.3907L46.8885 58.0679L58.2569 62.6916Z" fill="#845161"/>
<path d="M42.9925 53.5661C41.1212 53.9002 39.1955 53.7516 37.3976 53.1344C33.3823 51.7854 30.6789 48.5312 30.424 45.1783L31.3915 45.6789L37.0273 46.6371L42.8176 47.6232L42.9925 53.5661Z" fill="#69303A"/>
<path d="M58.2569 62.6924C45.819 72.2693 28.4703 72.1927 16.1174 62.5064L25.1712 58.2623C25.4484 58.1312 25.7185 57.9859 25.9806 57.8269C30.3866 61.0663 36.5173 63.1762 41.8071 60.8039C43.3068 60.1304 44.6595 58.934 45.2102 57.3971L46.8848 58.0744L58.2569 62.6924Z" fill="url(#paint1_linear_7544_57822)"/>
<circle cx="25.8633" cy="38.7391" r="3.16307" fill="#845161"/>
<circle cx="26.9966" cy="38.4154" r="3.16307" fill="#69303A"/>
<path d="M41.4325 51.344C37.5251 51.1784 28.1811 47.6599 26.3149 40.0053C25.9228 38.4105 25.7476 36.7702 25.7939 35.1286C25.7939 34.8067 25.8237 34.4885 25.8497 34.1722C26.3093 28.9141 29.1895 24.6216 33.5006 23.5667C33.7499 23.5071 33.9993 23.4569 34.2449 23.4215C35.7499 23.2051 37.2852 23.3774 38.7048 23.922C40.5299 24.6333 42.1613 25.7655 43.4661 27.2265C44.0176 27.8287 44.5209 28.4732 44.9714 29.1541C46.1201 30.8962 46.9557 32.8255 47.4404 34.8551C49.3048 42.5153 44.2829 51.4593 41.4325 51.344Z" fill="#845161"/>
<path d="M35.343 35.2866C36.4761 35.3443 36.4036 37.0765 35.2686 37.0393H35.2183C34.0834 36.9816 34.1578 35.2475 35.2909 35.2866H35.343Z" fill="#00214E"/>
<path d="M44.7142 34.9652C45.7654 35.0191 45.6985 36.6267 44.6453 36.5914H44.597C43.5457 36.5393 43.6127 34.9298 44.6658 34.9652H44.7142Z" fill="#00214E"/>
<path d="M41.313 34.9136C41.3335 35.6384 41.4283 36.3591 41.5958 37.0645C41.7633 37.6878 42.0219 38.0823 42.3717 38.6274C42.492 38.8073 42.5954 38.9979 42.6806 39.1968C43.1253 40.3132 42.422 41.5189 41.1791 41.4668L40.4125 41.4333" stroke="#00214E" stroke-width="0.0818676"/>
<path d="M35.8713 43.322C36.723 44.3569 37.9207 45.0482 39.2428 45.2682" stroke="#00214E" stroke-width="0.0818676"/>
<path d="M37.7542 39.894C37.4684 40.023 37.3203 40.342 37.4061 40.6436C37.4918 40.9452 37.7856 41.1384 38.0965 41.0978" stroke="#00214E" stroke-width="0.0818676"/>
<path d="M42.2905 32.6679C43.6317 32.0528 45.157 31.973 46.5551 32.4446" stroke="#00214E" stroke-width="0.0818676"/>
<path d="M32.5117 32.7934C34.3619 31.9473 36.493 31.9705 38.3243 32.8566" stroke="#00214E" stroke-width="0.0818676"/>
<path d="M43.7993 27.3666C43.8905 27.5861 43.8719 27.7777 43.7156 28.0773C43.5288 28.432 43.2961 28.7604 43.0234 29.0541C41.8846 30.3073 40.142 30.8204 38.5058 30.3845C38.0748 30.282 37.6633 30.1105 37.2871 29.8765C37.008 29.6905 36.6843 29.2514 36.3047 29.4002C36.1507 29.4812 36.0292 29.6125 35.9605 29.7723C35.352 30.8478 34.9781 31.9772 33.7761 32.5428C33.0771 32.8429 32.302 32.9184 31.5582 32.7586C30.9219 32.6452 30.7247 32.1409 30.1795 31.9865C29.8725 31.899 29.5655 32.1353 29.3794 32.3958C29.0278 32.8889 28.998 33.5122 28.7077 34.035C28.3356 34.7235 27.5783 35.3375 26.7708 35.4268C26.4484 35.4712 26.1252 35.3502 25.9112 35.1049C25.5 34.5728 25.7438 33.6164 25.8219 33.0005C26.1196 30.6971 26.9122 28.4159 28.3133 26.546C29.5767 24.8714 31.3424 23.569 33.4002 23.0759C36.9633 22.207 41.3749 24.2854 43.5872 27.013C43.6762 27.1189 43.7478 27.2382 43.7993 27.3666Z" fill="url(#paint2_linear_7544_57822)"/>
<path d="M43.3687 26.7445C39.9432 25.8254 35.9057 26.0003 33.165 27.539C28.4018 30.2072 27.2835 32.3246 25.769 34.5443L25.7039 34.6429C25.7039 34.5145 25.7039 34.3843 25.7206 34.2559C26.0146 28.7391 28.9451 24.1732 33.4106 23.0921C36.929 22.2344 40.5982 23.734 43.3631 26.739L43.3687 26.7445Z" fill="#00214E"/>
</g>
<defs>
<linearGradient id="paint0_linear_7544_57822" x1="30.0187" y1="73.5718" x2="75.6846" y2="34.5663" gradientUnits="userSpaceOnUse">
<stop stop-color="#315676"/>
<stop offset="1" stop-color="#E1B9E0"/>
</linearGradient>
<linearGradient id="paint1_linear_7544_57822" x1="16.1174" y1="69.8173" x2="58.2569" y2="69.8173" gradientUnits="userSpaceOnUse">
<stop stop-color="#16243F"/>
<stop offset="1" stop-color="#6878B1"/>
</linearGradient>
<linearGradient id="paint2_linear_7544_57822" x1="34.7228" y1="50.577" x2="41.4232" y2="23.4368" gradientUnits="userSpaceOnUse">
<stop stop-color="#315676"/>
<stop offset="1" stop-color="#E1B9E0"/>
</linearGradient>
</defs>
</svg>
