<svg width="69" height="69" viewBox="0 0 69 69" fill="none" xmlns="http://www.w3.org/2000/svg">
<circle cx="34.0685" cy="34.9185" r="34.0685" fill="#FEBDB8"/>
<mask id="mask0_7544_57915" style="mask-type:alpha" maskUnits="userSpaceOnUse" x="0" y="0" width="69" height="69">
<circle cx="34.0685" cy="34.9185" r="34.0685" fill="#C4C4C4"/>
</mask>
<g mask="url(#mask0_7544_57915)">
<circle cx="33.5326" cy="19.7506" r="5.95449" fill="url(#paint0_linear_7544_57915)"/>
<path d="M38.6775 52.0648C35.5674 52.0108 32.4655 51.7266 29.3973 51.2144C23.2855 50.1932 17.3019 48.242 11.8736 45.2347C11.5513 45.0541 11.229 44.8716 10.9028 44.6852C15.7157 40.117 19.288 34.5896 22.307 28.7263C24.4815 24.4959 25.6075 21.706 30.304 19.9257C38.4698 16.8329 49.5012 19.8402 51.8232 29.0273C52.8037 32.9102 52.8406 36.9698 52.2834 40.9207C51.7456 44.7415 50.3302 52.0997 50.3302 52.0997C50.3302 52.0997 40.2016 52.0919 38.6775 52.0648Z" fill="url(#paint1_linear_7544_57915)"/>
<path d="M59.9609 64.4902C46.9826 74.4832 28.8801 74.4033 15.9905 64.296L25.4377 59.8675C25.7269 59.7308 26.0087 59.5792 26.2822 59.4132L26.4997 59.2773C26.5773 59.2288 26.653 59.1783 26.7288 59.1259C27.9209 58.3031 28.8977 57.2057 29.5769 55.9263C30.3535 54.4605 30.6098 52.8414 30.6214 51.1911C30.6214 50.2844 30.5845 49.3778 30.5612 48.473C30.5612 48.2685 30.5573 48.0647 30.5496 47.8615C30.5418 47.2454 30.5353 46.6299 30.5302 46.0151H30.5437L30.9146 46.2093L31.9241 46.7315L37.8049 47.7314L43.8467 48.7604L43.9846 53.4199L44.0234 54.7556V54.9634L44.1146 58.0445L46.3415 58.9512L48.0888 59.6579L59.9609 64.4902Z" fill="#F2A196"/>
<path d="M43.986 53.4233C43.5676 53.7098 43.0677 53.8535 42.561 53.8329C39.6895 53.5242 34.0884 51.2741 30.5627 47.1096C30.5627 46.9051 30.5588 46.7012 30.551 46.498V46.0185L30.9218 46.2126L31.9314 46.7349L37.8121 47.7348L43.854 48.7637L43.986 53.4233Z" fill="#E88870"/>
<ellipse cx="25.6755" cy="39.7984" rx="3.3005" ry="3.3005" fill="#F2A196"/>
<circle cx="26.8397" cy="39.4102" r="3.3005" fill="#E88870"/>
<path d="M48.1075 34.8007C50.3888 42.6986 45.5448 52.2487 42.5666 52.2487C38.4895 52.2487 28.588 48.9909 26.3106 41.093C24.0333 33.1951 27.0542 25.3826 33.0728 23.645C39.0913 21.9074 45.8282 26.9086 48.1075 34.8007Z" fill="#F2A196"/>
<path d="M35.8461 36.4417C37.0304 36.4514 37.0304 38.2608 35.8461 38.2705H35.7918C34.6075 38.2608 34.6075 36.4514 35.7918 36.4417H35.8442H35.8461Z" fill="#00214E"/>
<path d="M45.6032 35.6956C46.704 35.7053 46.704 37.3846 45.6032 37.3943H45.5546C44.4558 37.3943 44.4558 35.7053 45.5546 35.6956H45.6032Z" fill="#00214E"/>
<ellipse cx="35.8446" cy="37.3712" rx="3.6888" ry="3.6888" stroke="white" stroke-width="0.681371"/>
<ellipse cx="46.1564" cy="36.7891" rx="3.6888" ry="3.6888" stroke="white" stroke-width="0.681371"/>
<path d="M40.5915 24.2993C39.7547 27.9299 37.9317 31.0129 34.6001 33.2592C31.0045 35.7482 27.2089 36.948 23.0677 37.7731C23.1726 35.2279 22.893 31.6478 24.2055 29.3782C25.695 26.8582 27.8706 24.8139 30.4783 23.4839C33.3537 21.9987 37.8016 20.5426 41.0322 21.5715C40.9424 22.4891 40.7952 23.4001 40.5915 24.2993Z" fill="url(#paint2_linear_7544_57915)"/>
<path d="M40.9285 35.1697C40.913 35.2357 42.4661 41.4485 42.4661 41.4485H40.0393" stroke="#00214E" stroke-width="0.681371"/>
<path d="M43.1545 33.1878C44.5256 32.4872 46.1127 32.3371 47.5908 32.7685" stroke="#00214E" stroke-width="0.681371"/>
<path d="M32.4559 33.8977C34.3475 32.9342 36.5698 32.8631 38.5191 33.7035" stroke="#00214E" stroke-width="0.681371"/>
<path d="M39.5312 37.3714L42.4687 37.1209" stroke="white" stroke-width="0.681371"/>
<path d="M59.959 64.49C46.9806 74.483 28.8781 74.4031 15.9885 64.2959L25.4357 59.8674C25.8856 59.6559 26.3174 59.4078 26.7268 59.1257C26.8511 59.0403 26.9753 58.951 27.0937 58.8578C28.1228 58.0708 28.9699 57.0708 29.5769 55.9262C30.0345 55.0485 30.3385 54.099 30.4758 53.1188C30.6129 53.2517 30.7568 53.3774 30.9068 53.4955C32.0972 54.3758 33.3891 55.1097 34.7548 55.6816C35.4178 55.9581 36.0958 56.1973 36.7856 56.398C38.8637 57.004 41.0335 57.2334 43.1924 57.0756C43.4914 57.0523 43.7923 57.0231 44.0913 57.0018L44.1204 57.988V58.0521L46.4696 59.0073L59.959 64.49Z" fill="#845161"/>
<path d="M35.8853 43.64C35.9393 43.555 36.0262 43.4963 36.1253 43.4779C36.2243 43.4595 36.3265 43.4831 36.4075 43.543C36.8094 43.8264 37.5472 44.4283 38.5956 44.636C40.0245 44.9214 41.2651 44.3487 41.5602 44.7176C41.7271 44.9253 41.5233 45.1796 41.1331 45.5039C40.3076 46.121 39.2683 46.3792 38.25 46.2203C36.8735 45.962 35.8425 44.37 35.8425 43.8051C35.8419 43.7472 35.8566 43.6903 35.8853 43.64Z" fill="white"/>
</g>
<defs>
<linearGradient id="paint0_linear_7544_57915" x1="27.5781" y1="25.706" x2="39.4891" y2="25.706" gradientUnits="userSpaceOnUse">
<stop stop-color="#16243F"/>
<stop offset="1" stop-color="#6878B1"/>
</linearGradient>
<linearGradient id="paint1_linear_7544_57915" x1="36.5893" y1="64.2889" x2="54.3311" y2="35.8558" gradientUnits="userSpaceOnUse">
<stop stop-color="#16243F"/>
<stop offset="1" stop-color="#6878B1"/>
</linearGradient>
<linearGradient id="paint2_linear_7544_57915" x1="29.1859" y1="43.408" x2="37.9743" y2="31.3793" gradientUnits="userSpaceOnUse">
<stop stop-color="#16243F"/>
<stop offset="1" stop-color="#6878B1"/>
</linearGradient>
</defs>
</svg>
