<svg width="69" height="69" viewBox="0 0 69 69" fill="none" xmlns="http://www.w3.org/2000/svg">
<circle cx="34.8549" cy="34.0685" r="34.0685" fill="#F5BAA7"/>
<mask id="mask0_7544_57888" style="mask-type:alpha" maskUnits="userSpaceOnUse" x="0" y="0" width="69" height="69">
<circle cx="34.8554" cy="34.0685" r="34.0685" fill="#C4C4C4"/>
</mask>
<g mask="url(#mask0_7544_57888)">
<path d="M52.7072 59.6519C52.2969 46.2559 51.7267 32.2176 44.8754 20.6494C43.1934 17.8126 40.5391 14.8846 37.2263 15.1905C33.3535 15.5472 31.4294 19.8997 30.3012 23.5754C28.6233 29.0242 26.9412 34.477 25.5361 40.0027C24.5207 44.0007 21.7125 50.8577 23.2469 54.9975C25.9792 62.3591 46.2806 59.8748 52.7072 59.6519Z" fill="#DAAEA8"/>
<ellipse cx="23.4295" cy="36.2318" rx="3.48715" ry="3.44473" fill="#F2A196"/>
<ellipse cx="24.6231" cy="36.0031" rx="3.28203" ry="3.2421" fill="#E88870"/>
<path d="M58.0828 60.7593C44.3705 71.189 25.2443 71.1056 11.6257 60.5566L21.6072 55.9346C22.0826 55.7139 22.5388 55.455 22.9713 55.1606L23.199 55.0025L23.359 54.8809C24.4453 54.0599 25.3395 53.0169 25.9805 51.8232C26.801 50.2934 27.0718 48.6034 27.0841 46.8811C27.0841 46.2995 27.0718 45.718 27.0533 45.1364C27.0348 44.5549 27.0143 43.9814 27.0082 43.4019C27 42.7602 26.9931 42.1179 26.9877 41.4749L27.3651 41.6674L27.3938 41.6815L28.4605 42.2266L28.9548 42.3097L34.6738 43.26L36.9404 43.641L41.0573 44.334L41.2501 50.8182L41.3301 53.5132L41.3445 53.9671V54.0339L43.8265 55.0309L43.9804 55.0937L58.0828 60.7593Z" fill="#F2A196"/>
<path d="M27.0557 44.6746L33.7962 50.9197C35.872 52.7221 38.5786 53.6521 41.3387 53.5113L41.2587 50.8163L41.0659 44.3321L36.949 43.6391C36.3869 43.8904 35.8249 44.1416 35.2628 44.3605C33.5808 45.015 31.6793 44.7657 30.0485 44.0849C28.8334 43.5527 27.7815 42.7141 26.9983 41.6533L27.0557 44.6746Z" fill="#E88870"/>
<path d="M58.0828 60.7593C44.3705 71.189 25.2443 71.1056 11.6257 60.5567L21.6072 55.9347C22.0826 55.7139 22.5388 55.455 22.9713 55.1606L23.199 55.0026C28.1959 58.3683 34.8543 60.4047 40.6347 57.8394C41.9912 57.2604 43.1519 56.3106 43.9804 55.1019L58.0828 60.7593Z" fill="#F2D4CF"/>
<path d="M48.0086 37.3281C47.9579 38.8095 47.7516 40.2818 47.3932 41.7212C46.5973 45.1659 45.2209 48.5964 44.5215 49.8831C43.9984 50.8436 43.2435 51.0442 42.0476 51.3563C39.0449 52.1142 35.8567 51.5312 33.3277 49.7616L25.7195 44.5073C25.5903 43.4942 25.3852 42.4385 25.1616 41.3605C24.5114 38.2258 23.6867 34.9087 23.9308 31.9584C24.0135 31.1183 24.4054 30.3374 25.0324 29.7639C26.7083 28.1124 29.9041 27.3019 31.8775 26.7487C34.8559 25.9119 37.9246 25.3911 40.8558 24.4083C43.0158 23.687 45.3379 22.611 46.5994 20.6414C46.5994 20.6414 46.8825 22.8258 46.9461 23.3243C47.0814 24.3536 47.102 25.2472 47.2414 26.2624C47.3801 27.3743 47.3385 28.5008 47.1184 29.5998C46.9686 30.3596 46.7861 31.1175 46.663 31.8834C46.544 32.6169 46.7389 32.623 47.1307 33.1296C47.9512 34.1731 48.023 36.0779 48.0086 37.3281Z" fill="#F2A196"/>
<path d="M34.1411 31.9439C35.3923 31.9216 35.4395 33.8101 34.1903 33.8526H34.1329C32.8816 33.8729 32.8324 31.9844 34.0836 31.9418H34.1411V31.9439Z" fill="#00214E"/>
<path d="M44.4118 31.4003C45.5728 31.38 45.6179 33.1328 44.4569 33.1713H44.4056C43.2446 33.1895 43.1995 31.4368 44.3605 31.3983H44.4118V31.4003Z" fill="#00214E"/>
<path d="M40.6867 32.5946C40.6867 32.6351 41.7123 34.3028 42.2785 36.1204C42.5444 37.0917 42.6823 38.0929 42.6887 39.0991L39.9175 39.17" stroke="#00214E" stroke-width="0.0842387"/>
<path d="M47.395 41.7227C46.5991 45.1675 45.2227 48.598 44.5232 49.8847C44.0002 50.8452 43.2453 51.0458 42.0494 51.3578C39.0467 52.1158 35.8585 51.5327 33.3295 49.7631L25.7213 44.5089C25.5695 43.3215 25.106 42.1888 24.8208 41.0216C24.6957 40.4907 24.5829 39.9396 24.706 39.4006C24.7481 39.6814 24.8771 39.9426 25.0752 40.1483C26.0762 41.4249 27.2454 42.8635 28.8721 43.358C30.5664 43.8726 32.4844 43.9132 34.0864 43.0864C35.4813 42.3671 36.8433 41.439 38.3038 40.8372C39.2717 40.4136 40.3223 40.206 41.3807 40.2293C42.8884 40.2942 43.551 40.9487 44.675 41.8058C45.0422 42.0875 45.4545 42.3813 45.9222 42.3732C46.4555 42.3691 46.9602 42.0692 47.395 41.7227Z" fill="#C9C2FB"/>
<path d="M38.157 43.6822C39.4417 45.0062 40.8149 44.5895 42.0215 42.5096" stroke="#F2A196" stroke-width="0.966129"/>
<path d="M31.0027 30.403C32.8909 29.9675 34.8421 29.8639 36.7667 30.097" stroke="#00214E" stroke-width="0.0842387"/>
<path d="M43.1174 30.1232C44.283 29.8251 45.4892 29.7122 46.6907 29.7889" stroke="#00214E" stroke-width="0.0842387"/>
<path d="M37.5709 38.2095C37.2657 38.3708 37.1265 38.7287 37.2438 39.0504C37.3611 39.3721 37.6994 39.5601 38.0386 39.4921" stroke="#00214E" stroke-width="0.0842387"/>
<path d="M24.9683 41.3819L25.1734 41.3657L25.3129 41.5197L25.8257 44.3079L25.7272 44.3464L25.5754 44.1498L24.9683 41.3819Z" fill="#00214E"/>
<path d="M25.1132 39.1282C24.0157 43.8009 26.2282 61.3185 26.0887 66.1006C26.1276 64.6822 14.8929 62.6336 13.9329 61.2374C13.9329 61.2374 20.9749 27.4223 21.1759 24.3099C21.1923 24.0546 21.7913 21.5744 22.142 20.9401C28.064 10.456 42.306 9.45905 49.1264 18.7983C49.2639 18.9868 49.59 20.3748 49.7193 20.5673C50.0987 21.1306 50.3777 21.6939 50.7059 22.2552C52.7203 25.7 52.8803 30.6138 53.0444 34.5631C53.2495 39.5093 55.9038 60.3904 55.9038 60.3904C55.9038 60.3904 48.9049 62.4168 48.8475 62.4289C48.8475 62.4289 50.9193 44.0866 50.7059 41.5436C50.7059 34.5631 48.1931 29.6675 46.8947 27.55C45.869 25.8844 37.8958 26.2106 35.7132 26.9056C32.7327 27.8539 31.5738 30.399 30.8825 33.5094C29.9558 37.679 25.1132 32.3653 25.1132 39.1282Z" fill="#D67656"/>
<path d="M21.574 20.4457C26.7585 21.8049 32.1358 22.3027 37.4857 21.9189C41.7443 21.6533 45.9474 20.8232 49.982 19.4508" stroke="#00214E" stroke-width="0.252716" stroke-linecap="round"/>
<path d="M25.5977 17.1652C29.3004 18.1778 33.1408 18.5487 36.9616 18.2627C40.0031 18.0649 43.0049 17.4465 45.8864 16.424" stroke="#00214E" stroke-width="0.252716" stroke-linecap="round"/>
<path d="M20.887 22.388C26.4162 23.8432 32.1501 24.3908 37.8591 24.009C42.3032 23.7349 46.6895 22.8693 50.899 21.4356" stroke="#00214E" stroke-width="0.252716" stroke-linecap="round"/>
<path d="M23.6638 19.0403C28.1137 20.0851 32.7282 20.4783 37.3227 20.2041C40.8993 20.0073 44.9123 18.9028 48.3001 17.8734" stroke="#00214E" stroke-width="0.252716" stroke-linecap="round"/>
</g>
</svg>
