<svg width="69" height="69" viewBox="0 0 69 69" fill="none" xmlns="http://www.w3.org/2000/svg">
<circle cx="34.8939" cy="34.9187" r="34.0685" fill="#F5CE93"/>
<mask id="mask0_7544_57979" style="mask-type:alpha" maskUnits="userSpaceOnUse" x="0" y="0" width="69" height="69">
<circle cx="34.8945" cy="34.9188" r="34.0685" fill="#C4C4C4"/>
</mask>
<g mask="url(#mask0_7544_57979)">
<path d="M36.525 52.4829C34.5001 52.4478 32.4733 52.3505 30.3686 52.222C27.746 52.0604 24.5588 52.7087 22.055 51.7041C19.6251 50.7306 18.0772 49.1866 16.4807 47.226C15.6493 46.2116 14.3663 45.6957 13.1221 45.279C11.878 44.8623 10.5794 44.4788 9.57862 43.6299C8.57786 42.781 7.96845 41.3071 8.54087 40.1253C9.94855 37.2223 14.5279 38.1919 14.5376 33.8112C14.5376 32.3218 13.8737 30.6532 14.7576 29.4538C15.0574 29.0909 15.4234 28.7883 15.8363 28.5621C17.8417 27.3258 20.4273 27.4465 22.4171 26.2257C24.6639 24.8356 24.1966 22.2052 26.1982 20.3711C26.8666 19.7886 27.589 19.271 28.3554 18.8252C33.5967 15.5815 39.0152 15.8852 44.385 18.9751C47.2568 20.632 49.7509 23.6031 50.925 26.6872C52.2275 30.1217 49.6575 33.9397 51.8206 36.9264C52.3112 37.604 52.9615 38.153 53.4931 38.7994C55.7204 41.5057 52.2918 43.1724 50.886 45.0103C49.7587 46.4881 49.932 48.6493 48.8495 50.1601C47.5937 51.9124 45.1502 52.2064 42.991 52.3407C40.7733 52.4868 38.6492 52.5199 36.525 52.4829Z" fill="#845161"/>
<path d="M58.7405 62.5529C45.7253 72.5743 27.5713 72.4941 14.645 62.3582L24.1191 57.9171C24.4091 57.7799 24.6918 57.6279 24.966 57.4615L25.1841 57.3252C25.262 57.2765 25.3379 57.2259 25.4138 57.1733C26.6091 56.3487 27.5887 55.2489 28.2701 53.9666C29.0489 52.4966 29.3059 50.8729 29.3176 49.2179C29.3176 48.3087 29.2806 47.3994 29.2572 46.4921C29.2572 46.287 29.2533 46.0826 29.2455 45.8788C29.2377 45.2623 29.2312 44.6451 29.2261 44.0272L29.6155 44.2219L30.6279 44.7457L36.5253 45.7484L42.5844 46.7803L42.7616 52.7965V53.0048L42.8531 56.0947L45.0863 57.0039L46.8386 57.7126L58.7405 62.5529Z" fill="#F2A196"/>
<path d="M42.7601 51.4313C42.2305 51.7584 41.7302 51.9122 41.2921 51.8655C38.4125 51.5559 32.7954 49.2993 29.2597 45.123C29.2597 44.918 29.2558 44.7135 29.248 44.5097C29.2402 43.8932 29.2337 43.276 29.2285 42.6581L29.6179 42.8528L30.6304 43.3766L36.5278 44.3793L42.5868 45.4112L42.7601 51.4313Z" fill="#E88870"/>
<circle cx="24.3586" cy="37.7906" r="3.30989" fill="#F2A196"/>
<circle cx="25.5285" cy="37.401" r="3.30989" fill="#E88870"/>
<path d="M46.8543 32.7789C49.14 40.7012 44.2823 50.2766 41.2976 50.2766C37.2089 50.2766 27.2792 47.0095 24.9954 39.0891C22.7116 31.1688 25.7469 23.3341 31.7826 21.5915C37.8183 19.849 44.5666 24.8586 46.8543 32.7789Z" fill="#F2A196"/>
<path d="M34.5592 34.4244C35.7468 34.4244 35.7468 36.2507 34.5592 36.2585H34.5046C33.317 36.2585 33.317 34.4342 34.5046 34.4244H34.5592Z" fill="#00214E"/>
<path d="M44.3429 33.6764C45.4449 33.6764 45.4449 35.3703 44.3429 35.38H44.2923C43.1903 35.3703 43.1903 33.6861 44.2923 33.6764H44.3429Z" fill="#00214E"/>
<ellipse cx="34.5538" cy="35.3567" rx="3.69929" ry="3.69929" stroke="white" stroke-width="0.681371"/>
<ellipse cx="44.9023" cy="34.7732" rx="3.69929" ry="3.69929" stroke="white" stroke-width="0.681371"/>
<path d="M39.3188 22.2481C38.4816 25.8909 36.6534 28.9827 33.3104 31.2335C29.7065 33.7295 25.8982 34.9328 21.7472 35.7622C21.8523 33.2097 21.572 29.6194 22.8881 27.3414C24.3819 24.8143 26.5637 22.7641 29.1789 21.4304C32.0604 19.9409 36.521 18.4807 39.7608 19.5145C39.6715 20.4342 39.5239 21.3472 39.3188 22.2481Z" fill="#845161"/>
<path d="M39.6625 33.1492C39.6469 33.2154 41.2045 39.4457 41.2045 39.4457H38.7708" stroke="#00214E" stroke-width="0.681371"/>
<path d="M41.8918 31.1653C43.2685 30.4593 44.8633 30.3074 46.3485 30.7409" stroke="#00214E" stroke-width="0.681371"/>
<path d="M31.1624 31.8798C33.0584 30.9129 35.2868 30.8415 37.2409 31.6851" stroke="#00214E" stroke-width="0.681371"/>
<path d="M38.2532 35.3568L41.2009 35.1056" stroke="white" stroke-width="0.681371"/>
<path d="M58.7405 62.5523C45.7253 72.5737 27.5713 72.4935 14.645 62.3576L24.1191 57.9165C24.5703 57.7044 25.0033 57.4556 25.4138 57.1727C25.5384 57.0871 25.6631 56.9975 25.7818 56.904C26.8129 56.1151 27.6617 55.113 28.2701 53.966C28.73 53.0848 29.0356 52.1312 29.1735 51.1468C29.311 51.28 29.4553 51.4061 29.6057 51.5245C30.7995 52.4073 32.0951 53.1433 33.4647 53.7168C34.1295 53.9942 34.8095 54.234 35.5012 54.4353C37.5853 55.043 39.7612 55.2731 41.9263 55.1148C42.2261 55.0914 42.5279 55.0622 42.8277 55.0408L42.857 56.0298V56.0863L45.2128 57.0442L58.7405 62.5523Z" fill="url(#paint0_linear_7544_57979)"/>
<path d="M34.5996 41.6438C34.6534 41.5587 34.7403 41.4998 34.8393 41.4814C34.9383 41.4629 35.0405 41.4865 35.1214 41.5465C35.5264 41.8307 36.2662 42.4343 37.3176 42.6446C38.7506 42.9288 39.9928 42.3564 40.2907 42.7244C40.4581 42.9327 40.2537 43.1878 39.8623 43.5032C39.0343 44.1232 37.9909 44.3823 36.9691 44.2216C35.5906 43.9627 34.5548 42.3662 34.5548 41.8015C34.5564 41.7461 34.5718 41.6919 34.5996 41.6438Z" fill="white"/>
<path d="M36.525 52.4829C34.5001 52.4478 32.4733 52.3505 30.3686 52.222C27.746 52.0604 24.5588 52.7087 22.055 51.7041C19.6251 50.7306 18.0772 49.1866 16.4807 47.226C15.6493 46.2116 14.3663 45.6957 13.1221 45.279C11.878 44.8623 10.5794 44.4788 9.57862 43.6299C8.57786 42.781 7.96845 41.3071 8.54087 40.1253C9.94855 37.2223 14.5279 38.1919 14.5376 33.8112C14.5376 32.3218 13.8737 30.6532 14.7576 29.4538C15.0574 29.0909 15.4234 28.7883 15.8363 28.5621C17.8417 27.3258 20.4273 27.4465 22.4171 26.2257C24.6639 24.8356 24.1966 22.2052 26.1982 20.3711C26.8666 19.7886 27.589 19.271 28.3554 18.8252C33.5967 15.5815 39.0152 15.8852 44.385 18.9751C47.2568 20.632 49.7509 23.6031 50.925 26.6872C52.2275 30.1217 49.6575 33.9397 51.8206 36.9264C52.3112 37.604 52.9615 38.153 53.4931 38.7994C55.7204 41.5057 52.2918 43.1724 50.886 45.0103C49.7587 46.4881 49.932 48.6493 48.8495 50.1601C47.5937 51.9124 45.1502 52.2064 42.991 52.3407C40.7733 52.4868 38.6492 52.5199 36.525 52.4829Z" fill="#845161"/>
<path d="M58.7405 62.5529C45.7253 72.5743 27.5713 72.4941 14.645 62.3582L24.1191 57.9171C24.4091 57.7799 24.6918 57.6279 24.966 57.4615L25.1841 57.3252C25.262 57.2765 25.3379 57.2259 25.4138 57.1733C26.6091 56.3487 27.5887 55.2489 28.2701 53.9666C29.0489 52.4966 29.3059 50.8729 29.3176 49.2179C29.3176 48.3087 29.2806 47.3994 29.2572 46.4921C29.2572 46.287 29.2533 46.0826 29.2455 45.8788C29.2377 45.2623 29.2312 44.6451 29.2261 44.0272L29.6155 44.2219L30.6279 44.7457L36.5253 45.7484L42.5844 46.7803L42.7616 52.7965V53.0048L42.8531 56.0947L45.0863 57.0039L46.8386 57.7126L58.7405 62.5529Z" fill="#F2A196"/>
<path d="M42.7601 51.4313C42.2305 51.7584 41.7302 51.9122 41.2921 51.8655C38.4125 51.5559 32.7954 49.2993 29.2597 45.123C29.2597 44.918 29.2558 44.7135 29.248 44.5097C29.2402 43.8932 29.2337 43.276 29.2285 42.6581L29.6179 42.8528L30.6304 43.3766L36.5278 44.3793L42.5868 45.4112L42.7601 51.4313Z" fill="#E88870"/>
<circle cx="24.3586" cy="37.7906" r="3.30989" fill="#F2A196"/>
<circle cx="25.5285" cy="37.401" r="3.30989" fill="#E88870"/>
<path d="M46.8543 32.7789C49.14 40.7012 44.2823 50.2766 41.2976 50.2766C37.2089 50.2766 27.2792 47.0095 24.9954 39.0891C22.7116 31.1688 25.7469 23.3341 31.7826 21.5915C37.8183 19.849 44.5666 24.8586 46.8543 32.7789Z" fill="#F2A196"/>
<path d="M34.5592 34.4244C35.7468 34.4244 35.7468 36.2507 34.5592 36.2585H34.5046C33.317 36.2585 33.317 34.4342 34.5046 34.4244H34.5592Z" fill="#00214E"/>
<path d="M44.3429 33.6764C45.4449 33.6764 45.4449 35.3703 44.3429 35.38H44.2923C43.1903 35.3703 43.1903 33.6861 44.2923 33.6764H44.3429Z" fill="#00214E"/>
<ellipse cx="34.5538" cy="35.3567" rx="3.69929" ry="3.69929" stroke="white" stroke-width="0.681371"/>
<ellipse cx="44.9023" cy="34.7732" rx="3.69929" ry="3.69929" stroke="white" stroke-width="0.681371"/>
<path d="M39.3188 22.2481C38.4816 25.8909 36.6534 28.9827 33.3104 31.2335C29.7065 33.7295 25.8982 34.9328 21.7472 35.7622C21.8523 33.2097 21.572 29.6194 22.8881 27.3414C24.3819 24.8143 26.5637 22.7641 29.1789 21.4304C32.0604 19.9409 36.521 18.4807 39.7608 19.5145C39.6715 20.4342 39.5239 21.3472 39.3188 22.2481Z" fill="#845161"/>
<path d="M39.6625 33.1492C39.6469 33.2154 41.2045 39.4457 41.2045 39.4457H38.7708" stroke="#00214E" stroke-width="0.681371"/>
<path d="M41.8918 31.1653C43.2685 30.4593 44.8633 30.3074 46.3485 30.7409" stroke="#00214E" stroke-width="0.681371"/>
<path d="M31.1624 31.8798C33.0584 30.9129 35.2868 30.8415 37.2409 31.6851" stroke="#00214E" stroke-width="0.681371"/>
<path d="M38.2532 35.3568L41.2009 35.1056" stroke="white" stroke-width="0.681371"/>
<path d="M58.7405 62.5523C45.7253 72.5737 27.5713 72.4935 14.645 62.3576L24.1191 57.9165C24.5703 57.7044 25.0033 57.4556 25.4138 57.1727C25.5384 57.0871 25.6631 56.9975 25.7818 56.904C26.8129 56.1151 27.6617 55.113 28.2701 53.966C28.73 53.0848 29.0356 52.1312 29.1735 51.1468C29.311 51.28 29.4553 51.4061 29.6057 51.5245C30.7995 52.4073 32.0951 53.1433 33.4647 53.7168C34.1295 53.9942 34.8095 54.234 35.5012 54.4353C37.5853 55.043 39.7612 55.2731 41.9263 55.1148C42.2261 55.0914 42.5279 55.0622 42.8277 55.0408L42.857 56.0298V56.0863L45.2128 57.0442L58.7405 62.5523Z" fill="url(#paint1_linear_7544_57979)"/>
<path d="M34.5996 41.6438C34.6534 41.5587 34.7403 41.4998 34.8393 41.4814C34.9383 41.4629 35.0405 41.4865 35.1214 41.5465C35.5264 41.8307 36.2662 42.4343 37.3176 42.6446C38.7506 42.9288 39.9928 42.3564 40.2907 42.7244C40.4581 42.9327 40.2537 43.1878 39.8623 43.5032C39.0343 44.1232 37.9909 44.3823 36.9691 44.2216C35.5906 43.9627 34.5548 42.3662 34.5548 41.8015C34.5564 41.7461 34.5718 41.6919 34.5996 41.6438Z" fill="white"/>
</g>
<defs>
<linearGradient id="paint0_linear_7544_57979" x1="14.645" y1="70.0137" x2="58.7405" y2="70.0137" gradientUnits="userSpaceOnUse">
<stop stop-color="#16243F"/>
<stop offset="1" stop-color="#6878B1"/>
</linearGradient>
<linearGradient id="paint1_linear_7544_57979" x1="14.645" y1="70.0137" x2="58.7405" y2="70.0137" gradientUnits="userSpaceOnUse">
<stop stop-color="#16243F"/>
<stop offset="1" stop-color="#6878B1"/>
</linearGradient>
</defs>
</svg>
