<svg width="69" height="69" viewBox="0 0 69 69" fill="none" xmlns="http://www.w3.org/2000/svg">
<circle cx="34.777" cy="34.9185" r="34.0685" fill="#C7F599"/>
<mask id="mask0_7544_58038" style="mask-type:alpha" maskUnits="userSpaceOnUse" x="0" y="0" width="69" height="69">
<circle cx="34.778" cy="34.9186" r="34.0685" fill="#C4C4C4"/>
</mask>
<g mask="url(#mask0_7544_58038)">
<path d="M57.9465 61.6501C44.2707 72.1801 25.1955 72.0959 11.6133 61.4455L21.5681 56.7791C22.0422 56.5562 22.4972 56.2948 22.9286 55.9976C23.0595 55.9076 23.1904 55.8135 23.3152 55.7153C24.3987 54.8863 25.2905 53.8333 25.9298 52.6282C26.4142 51.699 26.7353 50.6935 26.879 49.6556C26.9789 48.9844 27.0295 48.3068 27.0304 47.6282C27.0304 46.458 26.967 45.2878 26.9547 44.1156C26.9465 43.4664 26.9397 42.8179 26.9343 42.17L27.3434 42.3746L28.4072 42.9249L28.9003 43.0088L34.6039 43.9785L40.9705 45.0628L41.1628 51.6094L41.2262 53.7493L41.2569 54.7885V54.856L43.7323 55.8626L57.9465 61.6501Z" fill="#F2A196"/>
<path d="M57.9465 61.6504C44.2707 72.1804 25.1955 72.0962 11.6133 61.4459L21.5681 56.7794C22.0422 56.5565 22.4972 56.2952 22.9286 55.9979C23.0595 55.9079 23.1904 55.8138 23.3152 55.7156C28.1331 59.1443 34.7083 61.3067 40.3956 58.7474C41.7499 58.1337 42.9938 57.1435 43.7302 55.8711L57.9465 61.6504Z" fill="url(#paint0_linear_7544_58038)"/>
<path d="M41.2503 54.7951C39.1124 54.924 36.9541 53.2649 34.7242 51.9821C30.5487 49.5701 28.0917 46.4708 28.8937 43.0215L34.5974 43.9913L40.9639 45.0755L41.1562 51.6221L41.2503 54.7951Z" fill="#E88870"/>
<path d="M51.0593 21.9275C52.1108 26.0191 50.3985 29.8447 48.7475 33.5886C46.6588 38.3205 43.6596 38.8831 39.0812 40.4461C38.0583 40.7979 26.9659 43.9485 26.9659 44.6359C26.9659 44.4865 25.8796 43.4084 24.511 42.097C19.6011 37.4347 17.9869 30.2314 20.9083 24.0531C24.7954 15.8474 36.3787 14.3806 44.3286 16.3752C47.07 17.0626 49.7459 18.1469 50.7749 20.9885C50.8813 21.3035 50.9775 21.6166 51.0593 21.9275Z" fill="#00214E"/>
<circle cx="24.9219" cy="36.4502" r="3.47785" fill="#F2A196"/>
<circle cx="26.0241" cy="36.4502" r="3.1137" fill="#E88870"/>
<path d="M26.0718 33.1691L26.9678 44.8302L40.5601 52.772C42.5115 53.5009 44.6972 52.6276 45.6091 50.7548C47.5649 46.7491 50.7032 40.4256 50.2899 38.0709C49.6762 34.593 48.0395 33.3655 48.0395 33.3655L48.7208 29.2862C48.9765 27.7498 49.3059 26.1459 48.9254 24.6013C48.4896 22.8317 47.1517 22.0748 46.051 20.7512C43.1542 24.4827 38.3916 26.5919 34.2325 28.7298C32.0864 29.859 26.0718 33.1691 26.0718 33.1691Z" fill="#F2A196"/>
<path d="M41.3173 32.1747C41.301 32.2443 44.0505 39.5642 44.0505 39.5642L40.3804 39.7442" stroke="#00214E" stroke-width="0.681371"/>
<path d="M32.6277 30.757C34.5216 30.366 36.4696 30.3112 38.3825 30.5954" stroke="#00214E" stroke-width="0.681371"/>
<path d="M44.7097 30.7794C45.8792 30.5092 47.0841 30.4256 48.2796 30.5318" stroke="#00214E" stroke-width="0.681371"/>
<path d="M36.6213 41.7902C36.6778 41.7008 36.7691 41.6389 36.8731 41.6195C36.9771 41.6001 37.0845 41.6249 37.1695 41.6879C37.5951 41.9866 38.3725 42.6208 39.4772 42.8397C40.9829 43.1404 42.2881 42.5369 42.6011 42.9256C42.7771 43.1445 42.5623 43.4125 42.1511 43.7542C41.2811 44.4056 40.1847 44.6779 39.111 44.5091C37.6626 44.237 36.5742 42.5594 36.5742 41.9641C36.5742 41.903 36.5904 41.8429 36.6213 41.7902Z" fill="white"/>
<path d="M35.9721 32.7823C37.2221 32.7823 37.2221 34.7012 35.9721 34.7115H35.9169C34.669 34.7115 34.669 32.7925 35.9169 32.7823H35.9721Z" fill="#00214E"/>
<path d="M46.2351 32.498C47.393 32.5082 47.393 34.2778 46.2351 34.2881H46.1839C45.024 34.2881 45.024 32.5082 46.1839 32.498H46.2351Z" fill="#00214E"/>
<path d="M46.202 16.9845C41.9004 17.0664 37.623 17.65 33.4567 18.7234C29.2726 19.7437 25.2218 21.2486 21.3865 23.2078C22.2989 18.9873 26.4785 15.0921 32.176 13.6621C37.8736 12.2321 43.3952 13.6969 46.202 16.9845Z" fill="#845161"/>
</g>
<defs>
<linearGradient id="paint0_linear_7544_58038" x1="11.6133" y1="69.4895" x2="57.9465" y2="69.4895" gradientUnits="userSpaceOnUse">
<stop stop-color="#16243F"/>
<stop offset="1" stop-color="#6878B1"/>
</linearGradient>
</defs>
</svg>
