<svg width="69" height="69" viewBox="0 0 69 69" fill="none" xmlns="http://www.w3.org/2000/svg">
<circle cx="34.1463" cy="34.1734" r="34.0685" fill="#C1F1CA"/>
<mask id="mask0_7544_58080" style="mask-type:alpha" maskUnits="userSpaceOnUse" x="0" y="0" width="69" height="69">
<circle cx="34.1459" cy="34.1736" r="34.0685" fill="#C4C4C4"/>
</mask>
<g mask="url(#mask0_7544_58080)">
<path d="M49.3495 62.2361C47.1707 62.5082 45.1822 63.0892 42.9563 63.2242C41.2808 63.3265 39.6012 63.1363 37.9278 62.991C34.2811 62.674 30.6193 62.5654 26.9603 62.6657C24.9717 62.721 23.0098 63.2058 21.0111 63.0954C19.9575 63.0381 19.3744 62.7701 18.4866 62.277C18.1756 62.1031 15.3033 60.7447 15.3381 60.89C15.4772 61.4608 16.8274 35.1621 17.3082 30.5795C17.6969 26.8786 18.5111 23.1512 20.2419 19.8308C21.9399 16.5678 24.9288 14.8309 28.4128 13.8285C33.5764 12.3494 39.5194 12.9345 44.0099 15.997C47.2832 18.2269 49.1612 23.5092 49.599 27.4535C50.3376 34.1453 50.2148 56.9334 49.3495 62.2361Z" fill="url(#paint0_linear_7544_58080)"/>
<path d="M57.9919 61.2134C44.3161 71.7434 25.2409 71.6592 11.6587 61.0089L21.6135 56.3424C21.9183 56.1983 22.2153 56.0385 22.5035 55.8637L22.7326 55.7205C22.8144 55.6693 22.8942 55.6161 22.974 55.5609C24.2299 54.6945 25.2592 53.5389 25.9752 52.1915C26.7935 50.6469 27.0635 48.9407 27.0758 47.2018C27.0758 46.0316 27.0124 44.8614 27.0001 43.6891C26.9919 43.0399 26.9851 42.3914 26.9797 41.7436L27.3888 41.9482L28.4526 42.4985L34.6494 43.5521L41.0159 44.6363L41.2082 51.1829L41.3043 54.4296L43.6509 55.385L45.4921 56.1296L57.9919 61.2134Z" fill="#845161"/>
<path d="M41.1624 49.6402C39.1043 50.0056 36.987 49.8401 35.0107 49.1594C30.5958 47.6762 27.6294 44.0981 27.343 40.4034L28.4068 40.9537L34.6036 42.0073L40.9701 43.0916L41.1624 49.6402Z" fill="#69303A"/>
<path d="M57.9919 61.2129C44.3161 71.7429 25.2409 71.6587 11.6587 61.0083L21.6135 56.3419C21.9183 56.1978 22.2153 56.038 22.5035 55.8631C27.3479 59.4249 34.0909 61.7448 39.905 59.1364C41.5539 58.3958 43.0412 57.0906 43.6468 55.3906L45.488 56.1352L57.9919 61.2129Z" fill="url(#paint1_linear_7544_58080)"/>
<circle cx="21.8656" cy="35.1948" r="3.47785" fill="#845161"/>
<circle cx="23.0932" cy="34.786" r="3.47785" fill="#69303A"/>
<path d="M45.5032 29.9295C47.905 38.2518 42.8028 48.3151 39.6645 48.3151C35.3684 48.3151 24.9348 44.8822 22.5351 36.5599C20.1354 28.2376 23.335 20.0053 29.6769 18.1744C36.0189 16.3434 43.0994 21.6052 45.5032 29.9295Z" fill="#845161"/>
<path d="M38.3942 19.7164C38.1449 20.4602 37.8406 21.1843 37.4838 21.8829C36.1131 24.6529 33.6868 26.7744 31.24 28.5788C29.364 29.9618 27.353 31.2649 25.0658 31.7396C22.9893 32.1733 19.489 31.7641 18.3147 29.6774C16.9583 27.29 19.9513 24.2785 21.3159 22.689C22.6047 21.1976 24.3498 18.9186 26.3751 18.4194C26.4099 18.4194 38.2408 13.7141 38.2408 13.7141C38.3349 15.1257 38.7379 16.5188 38.7236 17.9386C38.7013 18.5441 38.5903 19.1431 38.3942 19.7164Z" fill="url(#paint2_linear_7544_58080)"/>
<path d="M37.9396 30.3185C37.9294 30.3676 39.073 33.5673 39.7665 35.4985C39.8826 35.8269 39.8323 36.1912 39.6315 36.4758C39.4306 36.7604 39.1042 36.9299 38.7559 36.9306H38.0112" stroke="#00214E" stroke-width="0.681371"/>
<path d="M40.2852 28.2272C41.7305 27.4906 43.4024 27.3333 44.9598 27.7874" stroke="#00214E" stroke-width="0.681371"/>
<path d="M29.0112 28.9843C31.0044 27.9691 33.3462 27.8941 35.4003 28.7797" stroke="#00214E" stroke-width="0.681371"/>
<path d="M36.4886 35.7574C36.1542 35.7937 35.8949 36.066 35.8749 36.4018C35.88 36.5638 35.9573 36.715 36.0856 36.814C36.2139 36.913 36.3797 36.9494 36.5377 36.9133" stroke="#00214E" stroke-width="0.681371"/>
<ellipse cx="37.4054" cy="27.0568" rx="0.82241" ry="0.82241" fill="#FF2609"/>
<path d="M32.6238 39.2442C32.6804 39.1547 32.7716 39.0929 32.8757 39.0735C32.9797 39.0541 33.0871 39.0789 33.1721 39.1419C33.5976 39.4406 34.375 40.0748 35.4798 40.2937C36.9855 40.5944 38.2927 39.9909 38.6037 40.3796C38.7796 40.5985 38.5648 40.8644 38.1536 41.2081C37.2831 41.8585 36.1872 42.1307 35.1136 41.963C33.6651 41.691 32.5768 40.0134 32.5768 39.4181C32.5767 39.357 32.593 39.2969 32.6238 39.2442Z" fill="white"/>
<path d="M32.2432 31.0032C33.4912 30.9889 33.528 32.8976 32.2801 32.9324H32.2248C30.9769 32.9467 30.9401 31.04 32.188 31.0052H32.2432V31.0032Z" fill="#00214E"/>
<path d="M42.5228 30.6694C43.6807 30.6551 43.7155 32.4247 42.5576 32.4574H42.5044C41.3465 32.4697 41.3117 30.7001 42.4717 30.6674H42.5228V30.6694Z" fill="#00214E"/>
</g>
<defs>
<linearGradient id="paint0_linear_7544_58080" x1="15.3381" y1="63.2551" x2="50.0859" y2="63.2551" gradientUnits="userSpaceOnUse">
<stop stop-color="#16243F"/>
<stop offset="1" stop-color="#6878B1"/>
</linearGradient>
<linearGradient id="paint1_linear_7544_58080" x1="29.2661" y1="74.8184" x2="36.4287" y2="51.9812" gradientUnits="userSpaceOnUse">
<stop stop-color="#315676"/>
<stop offset="1" stop-color="#E1B9E0"/>
</linearGradient>
<linearGradient id="paint2_linear_7544_58080" x1="15.4416" y1="27.7156" x2="34.7706" y2="38.2175" gradientUnits="userSpaceOnUse">
<stop stop-color="#16243F"/>
<stop offset="1" stop-color="#6878B1"/>
</linearGradient>
</defs>
</svg>
