<svg width="70" height="69" viewBox="0 0 70 69" fill="none" xmlns="http://www.w3.org/2000/svg">
<circle cx="35.0095" cy="34.9192" r="34.0685" fill="#C7F599"/>
<mask id="mask0_7544_57938" style="mask-type:alpha" maskUnits="userSpaceOnUse" x="0" y="0" width="70" height="69">
<circle cx="35.0115" cy="34.9186" r="34.0685" fill="#F59D7F"/>
</mask>
<g mask="url(#mask0_7544_57938)">
<path d="M58.1794 61.6502C44.5036 72.1802 25.4284 72.096 11.8462 61.4457L21.801 56.7792C22.2751 56.5563 22.7301 56.295 23.1615 55.9977C23.2924 55.9077 23.4234 55.8136 23.5482 55.7154C24.6316 54.8864 25.5234 53.8334 26.1627 52.6283C26.6471 51.6992 26.9682 50.6937 27.1119 49.6557C27.2118 48.9845 27.2624 48.3069 27.2633 47.6284C27.2633 46.4582 27.1999 45.288 27.1876 44.1157C27.1794 43.4665 27.1726 42.818 27.1672 42.1702L27.5763 42.3747L28.6401 42.9251L29.1332 43.0089L34.8369 43.9787L41.2034 45.0629L41.3957 51.6095L41.4591 53.7494L41.4898 54.7886V54.8562L43.9652 55.8627L58.1794 61.6502Z" fill="#F2A196"/>
<path d="M58.1794 61.6506C44.5036 72.1805 25.4284 72.0963 11.8462 61.446L21.801 56.7795C22.2751 56.5566 22.7301 56.2953 23.1615 55.998C23.2924 55.908 23.4234 55.8139 23.5482 55.7157C28.366 59.1445 34.9412 61.3069 40.6285 58.7476C41.9828 58.1338 43.2267 57.1437 43.9632 55.8712L58.1794 61.6506Z" fill="url(#paint0_linear_7544_57938)"/>
<path d="M41.4832 54.7952C39.3454 54.9241 37.187 53.265 34.9571 51.9823C30.7816 49.5703 28.3246 46.4709 29.1266 43.0217L34.8303 43.9914L41.1968 45.0756L41.3891 51.6222L41.4832 54.7952Z" fill="#E88870"/>
<path d="M51.2921 21.9276C52.3436 26.0192 50.6313 29.8449 48.9803 33.5887C46.8916 38.3206 43.8924 38.8832 39.3139 40.4462C38.291 40.7981 27.1987 43.9486 27.1987 44.636C27.1987 44.4866 26.1124 43.4085 24.7438 42.0971C19.8339 37.4348 18.2197 30.2315 21.1411 24.0532C25.0281 15.8475 36.6114 14.3807 44.5614 16.3753C47.3028 17.0627 49.9787 18.147 51.0077 20.9886C51.1141 21.3037 51.2102 21.6167 51.2921 21.9276Z" fill="#E7E7E8"/>
<circle cx="25.1549" cy="36.4503" r="3.47785" fill="#F2A196"/>
<circle cx="26.257" cy="36.4503" r="3.1137" fill="#E88870"/>
<path d="M26.3047 33.1693L27.2007 44.8303L40.793 52.7721C42.7444 53.501 44.9301 52.6277 45.8421 50.7549C47.7978 46.7493 50.9361 40.4257 50.5228 38.071C49.9091 34.5931 48.2725 33.3657 48.2725 33.3657L48.9537 29.2863C49.2094 27.75 49.5388 26.146 49.1583 24.6015C48.7225 22.8319 47.3846 22.0749 46.2839 20.7513C43.3871 24.4828 38.6245 26.592 34.4654 28.7299C32.3193 29.8592 26.3047 33.1693 26.3047 33.1693Z" fill="#F2A196"/>
<path d="M41.5501 32.1749C41.5338 32.2444 44.2833 39.5643 44.2833 39.5643L40.6132 39.7443" stroke="#00214E" stroke-width="0.681371"/>
<path d="M32.8605 30.7571C34.7544 30.3661 36.7024 30.3114 38.6153 30.5955" stroke="#00214E" stroke-width="0.681371"/>
<path d="M44.9426 30.7795C46.1121 30.5093 47.317 30.4257 48.5125 30.532" stroke="#00214E" stroke-width="0.681371"/>
<path d="M36.659 42.5931C36.7308 42.4464 36.8466 42.3449 36.9786 42.3131C37.1107 42.2812 37.247 42.3219 37.3549 42.4253C37.8951 42.9152 38.8819 43.9555 40.2843 44.3146C42.1956 44.8079 43.8524 43.818 44.2498 44.4556C44.4731 44.8146 44.2004 45.2542 43.6785 45.8146C42.5741 46.8833 41.1824 47.3298 39.8194 47.0529C37.9808 46.6066 36.5992 43.8549 36.5992 42.8783C36.5992 42.7781 36.6198 42.6796 36.659 42.5931Z" fill="white"/>
<path d="M36.2051 32.7824C37.455 32.7824 37.455 34.7014 36.2051 34.7116H36.1498C34.9019 34.7116 34.9019 32.7926 36.1498 32.7824H36.2051Z" fill="#00214E"/>
<path d="M46.468 32.4981C47.6259 32.5083 47.6259 34.278 46.468 34.2882H46.4169C45.2569 34.2882 45.2569 32.5083 46.4169 32.4981H46.468Z" fill="#00214E"/>
<path d="M46.4348 16.9846C42.1332 17.0665 37.8558 17.6501 33.6895 18.7235C29.5053 19.7438 25.4545 21.2487 21.6193 23.2079C22.5317 18.9874 26.7113 15.0923 32.4088 13.6622C38.1063 12.2322 43.6279 13.697 46.4348 16.9846Z" fill="#5746DB"/>
</g>
<defs>
<linearGradient id="paint0_linear_7544_57938" x1="11.8462" y1="69.4896" x2="58.1794" y2="69.4896" gradientUnits="userSpaceOnUse">
<stop stop-color="#16243F"/>
<stop offset="1" stop-color="#6878B1"/>
</linearGradient>
</defs>
</svg>
