<svg width="69" height="69" viewBox="0 0 69 69" fill="none" xmlns="http://www.w3.org/2000/svg">
<circle cx="34.7197" cy="34.9185" r="34.0685" fill="#DCDCDC"/>
<mask id="mask0_7544_58058" style="mask-type:alpha" maskUnits="userSpaceOnUse" x="0" y="0" width="69" height="69">
<circle cx="34.7189" cy="34.9186" r="34.0685" fill="#C4C4C4"/>
</mask>
<g mask="url(#mask0_7544_58058)">
<path d="M49.1265 30.956C48.6314 32.4289 48.5517 34.4338 47.6822 35.739C45.7694 38.6032 42.0583 39.0942 39.0387 40.1252C38.8393 40.1627 38.6455 40.2252 38.4618 40.3114L37.3939 40.649C36.3669 40.9722 35.344 41.2995 34.3252 41.6309C32.9095 42.0912 30.9639 42.3736 29.9451 43.5356C29.3581 44.2069 28.8116 44.9126 28.3085 45.6489C28.2103 45.7941 28.0896 45.9537 27.9157 45.968C27.8052 45.968 27.7111 45.8228 27.6191 45.7635C25.8024 44.7856 24.4665 43.4435 23.3474 41.7414C19.9693 36.5258 18.5889 30.2654 19.4604 24.1128C19.4727 24.0228 19.485 23.9348 19.4993 23.8448C19.8427 21.8541 20.7502 20.0038 22.1138 18.5134C23.4928 17.0161 25.1191 15.767 26.9214 14.8208C27.9937 14.2538 29.0991 13.7517 30.2315 13.3171C32.6893 12.3469 35.2986 11.8172 37.9401 11.7521C40.4488 11.7544 42.9331 12.2457 45.2538 13.1985C48.4494 14.4771 50.9268 16.8645 51.1334 20.4774C51.338 24.0391 50.2578 27.5886 49.1265 30.956Z" fill="#00214E"/>
<circle cx="24.1497" cy="36.4776" r="3.47785" fill="#F2A196"/>
<ellipse cx="25.3458" cy="36.273" rx="3.27328" ry="3.27327" fill="#E88870"/>
<path d="M57.205 61.6697C43.5293 72.1997 24.4541 72.1154 10.8718 61.4651L20.8267 56.7986C21.3008 56.5758 21.7558 56.3144 22.1871 56.0171L22.4142 55.8576L22.5738 55.7348C23.6572 54.9058 24.549 53.8528 25.1883 52.6477C26.0066 51.1031 26.2767 49.3969 26.289 47.658C26.289 47.0709 26.2767 46.4837 26.2583 45.8966C26.2399 45.3094 26.2194 44.7305 26.2133 44.1454C26.2051 43.4962 26.1983 42.8477 26.1928 42.1998L26.5692 42.3942L26.5979 42.4085L27.6617 42.9588L28.1547 43.0427L33.8584 44.0124L36.119 44.397L40.2249 45.0987L40.4172 51.6453L40.497 54.3662L40.5113 54.8244V54.892L42.9867 55.8985L43.1402 55.9619L57.205 61.6697Z" fill="#F2A196"/>
<path d="M26.2592 44.6238L32.9817 50.929C35.052 52.7488 37.7513 53.6877 40.5041 53.5456L40.4243 50.8246L40.232 44.2781L36.1261 43.5784C35.5655 43.8321 35.005 44.0858 34.4444 44.3067C32.7669 44.9675 30.8704 44.7159 29.244 44.0285C28.0322 43.4912 26.983 42.6446 26.2019 41.5735L26.2592 44.6238Z" fill="#E88870"/>
<path d="M57.205 61.67C43.5293 72.2 24.4541 72.1158 10.8718 61.4654L20.8267 56.799C21.3008 56.5761 21.7558 56.3147 22.1871 56.0175L22.4142 55.8579C27.3978 59.256 34.0384 61.312 39.8035 58.722C41.1563 58.1374 42.314 57.1785 43.1402 55.9582L57.205 61.67Z" fill="#845161"/>
<path d="M48.6228 38.2061C48.5365 39.6999 48.2959 41.1808 47.9047 42.625C47.0229 46.0865 45.5622 49.5091 44.836 50.7898C44.2918 51.7452 43.5328 51.9293 42.3319 52.2219C39.3194 52.9114 36.156 52.2426 33.6803 50.3929L26.2295 44.8938C26.1251 43.8709 25.9492 42.7969 25.7528 41.7024C25.1841 38.5232 24.4476 35.1558 24.7667 32.1812C24.8705 31.3355 25.281 30.5573 25.9206 29.9943C27.6349 28.3699 30.8305 27.6334 32.8231 27.1302C35.814 26.3609 38.8868 25.9027 41.8348 24.9964C44.0054 24.3213 46.3478 23.2943 47.649 21.3385C47.649 21.3385 47.874 23.55 47.9251 24.0553C48.0336 25.0966 48.0315 26.0009 48.144 27.0279C48.2552 28.1534 48.1861 29.2894 47.9395 30.3932C47.7697 31.1563 47.5692 31.9173 47.426 32.6865C47.2889 33.423 47.4832 33.4353 47.8617 33.957C48.6391 35.0208 48.6698 36.9438 48.6228 38.2061Z" fill="#F2A196"/>
<path d="M34.9363 32.4152C36.1842 32.4152 36.1842 34.3342 34.9363 34.3444H34.881C33.6331 34.3444 33.6331 32.4255 34.881 32.4152H34.9363Z" fill="#00214E"/>
<path d="M45.1914 32.1281C46.3493 32.1383 46.3493 33.9079 45.1914 33.9181H45.1402C43.9803 33.9181 43.9803 32.1383 45.1402 32.1281H45.1914Z" fill="#00214E"/>
<path d="M41.4511 33.233C41.4409 33.2739 42.4311 34.9842 42.9466 36.8316C43.1858 37.8191 43.2972 38.8332 43.278 39.8491H40.5142" stroke="#00214E" stroke-width="0.681371"/>
<path d="M47.9136 42.6251C47.0319 46.0866 45.5712 49.5092 44.8449 50.7898C44.3007 51.7452 43.5417 51.9294 42.3409 52.2219C39.3283 52.9114 36.1649 52.2427 33.6892 50.393L26.2282 44.8939C26.1054 43.6889 25.6656 42.5351 25.4098 41.3485C25.2994 40.8125 25.2053 40.2519 25.3362 39.7119C25.372 39.996 25.4941 40.2624 25.686 40.4749C26.6516 41.7883 27.7809 43.2715 29.3889 43.8116C31.0665 44.3742 32.9772 44.4622 34.5955 43.6684C36.005 42.9769 37.3859 42.0747 38.8569 41.506C39.8352 41.1021 40.8909 40.9197 41.9481 40.9721C43.4497 41.0744 44.0921 41.7515 45.1906 42.6455C45.5507 42.9401 45.9537 43.247 46.4181 43.249C46.95 43.2572 47.4615 42.9626 47.9136 42.6251Z" fill="#00214E"/>
<path d="M38.3745 43.7318C39.7822 44.1686 41.3004 44.0806 42.6482 43.4843" stroke="#F2A196" stroke-width="0.681371"/>
<path d="M31.8552 30.778C33.7489 30.3854 35.6971 30.33 37.6101 30.6144" stroke="#00214E" stroke-width="0.681371"/>
<path d="M43.9355 30.8048C45.1057 30.5346 46.3112 30.4511 47.5075 30.5573" stroke="#00214E" stroke-width="0.681371"/>
<path d="M38.1952 38.8262C37.8898 38.9825 37.744 39.3381 37.8517 39.6638C37.9594 39.9895 38.2885 40.188 38.6268 40.1315" stroke="#00214E" stroke-width="0.681371"/>
<path d="M25.5476 41.7109L25.7522 41.6986L25.8872 41.8582L26.3271 44.6855L26.2289 44.7223L26.0816 44.5198L25.5476 41.7109Z" fill="#00214E"/>
</g>
</svg>
