<svg width="70" height="69" viewBox="0 0 70 69" fill="none" xmlns="http://www.w3.org/2000/svg">
<circle cx="34.9526" cy="34.9185" r="34.0685" fill="#D9CEFB"/>
<mask id="mask0_7544_57958" style="mask-type:alpha" maskUnits="userSpaceOnUse" x="0" y="0" width="70" height="69">
<circle cx="34.9527" cy="34.9185" r="34.0685" fill="#D9CFFB"/>
</mask>
<g mask="url(#mask0_7544_57958)">
<path d="M43.8791 55.9951C42.7198 57.2957 41.4372 58.481 40.0494 59.5343C37.5719 61.4021 35.7368 61.1873 32.8584 60.9377C29.5135 60.6492 26.1952 60.1194 22.8606 59.7266C22.4371 59.6775 21.9829 59.6141 21.672 59.3174C21.423 59.0405 21.2559 58.6998 21.1892 58.3334C19.2218 51.1861 18.0351 43.8465 17.65 36.4434C17.2817 29.3649 20.9232 22.4338 27.7951 19.8356C34.9247 17.1351 44.2044 18.9293 48.431 25.6825C54.3618 35.1688 51.0865 47.9428 43.8791 55.9951Z" fill="url(#paint0_linear_7544_57958)"/>
<path d="M59.482 62.0453C45.8063 72.5753 26.731 72.4911 13.1488 61.8408L23.1037 57.1743C23.4084 57.0302 23.7054 56.8704 23.9936 56.6956L24.2227 56.5524C24.3045 56.5012 24.3843 56.448 24.4641 56.3928C25.72 55.5264 26.7493 54.3708 27.4653 53.0234C28.2836 51.4788 28.5537 49.7726 28.5659 48.0337C28.5659 46.8635 28.5025 45.6933 28.4902 44.5211C28.4821 43.8732 28.4752 43.2247 28.4698 42.5755L28.8789 42.7801L29.9428 43.3304L36.1395 44.384L42.506 45.4683L42.6983 52.0148L42.7944 55.2615L45.141 56.2169L46.9822 56.9615L59.482 62.0453Z" fill="#00214E"/>
<path d="M42.6967 52.0105C40.6386 52.3759 38.5213 52.2104 36.545 51.5297C32.1301 50.0465 29.1576 46.4684 28.8773 42.7819L29.9411 43.3322L36.1379 44.3858L42.5044 45.47L42.6967 52.0105Z" fill="#F2A196"/>
<circle cx="23.3557" cy="36.0263" r="3.47785" fill="#F2A196"/>
<circle cx="24.5833" cy="35.6174" r="3.47785" fill="#E88870"/>
<path d="M46.9933 30.7584C49.3951 39.0807 44.2929 49.1439 41.1546 49.1439C36.8585 49.1439 26.4249 45.7111 24.0252 37.3888C21.6255 29.0665 24.8251 20.8362 31.1671 19.0053C37.509 17.1743 44.5895 22.4381 46.9933 30.7584Z" fill="#F2A196"/>
<path d="M35.2118 40.3838C36.1945 41.4818 37.5422 42.1862 39.0047 42.3662" stroke="#00214E" stroke-width="0.681371"/>
<path d="M48.0146 25.7974C47.1615 23.7271 44.8722 22.7042 42.7671 21.937C41.6296 21.5279 40.4635 21.1187 39.2524 21.0921C38.132 21.0948 37.0234 21.3209 35.9914 21.757C34.1768 22.4689 32.309 23.5327 30.9158 24.9014C30.2386 25.5663 29.6228 26.2639 28.9232 26.9288C28.5386 27.297 28.1683 27.6816 27.8164 28.0805C27.5484 28.3854 27.2252 29.0216 26.8896 29.2262C33.1355 25.4394 40.889 24.038 48.0146 25.7974Z" fill="#FF2609"/>
<path d="M39.4315 31.1495C39.4315 31.1904 40.4114 32.9007 40.929 34.748C41.1682 35.7355 41.2789 36.7497 41.2584 37.7656H38.4945" stroke="#00214E" stroke-width="0.681371"/>
<path d="M41.9678 29.409C43.4125 28.6706 45.0849 28.5125 46.6424 28.9671" stroke="#00214E" stroke-width="0.681371"/>
<path d="M29.8702 30.2227C31.8634 29.2075 34.2052 29.1325 36.2593 30.0181" stroke="#00214E" stroke-width="0.681371"/>
<path d="M33.4611 32.0351C34.7091 32.0351 34.7091 33.952 33.4611 33.9622H33.4038C32.1559 33.9622 32.1559 32.0453 33.4038 32.0351H33.4611Z" fill="#00214E"/>
<path d="M43.7128 31.7504C44.8728 31.7504 44.8728 33.5302 43.7128 33.5384H43.6617C42.5037 33.5384 42.5037 31.7585 43.6617 31.7504H43.7128Z" fill="#00214E"/>
<path fill-rule="evenodd" clip-rule="evenodd" d="M41.3093 14.4394C47.7801 16.3788 51.258 21.9761 52.4855 28.2097C53.3182 32.5268 53.163 36.9764 52.0313 41.225C50.8611 45.5007 48.9564 49.5309 46.9434 53.4793C46.9123 53.5403 46.8813 53.601 46.8505 53.6615C45.5864 56.1429 44.5451 58.1869 41.7491 59.2873C36.8331 61.2268 30.8409 60.1241 26.8332 56.6667C19.7711 50.5723 16.4365 38.0111 17.8215 28.9564C19.3599 18.8665 31.6183 11.5282 41.3093 14.4394ZM33.8056 47.6649C35.9005 48.7983 39.3742 49.8396 41.7228 48.8924C41.861 48.8292 41.9926 48.7525 42.1156 48.6633C42.4541 48.4315 42.7609 48.1564 43.028 47.845C44.7792 45.9015 45.8574 43.4547 46.5059 40.8893C46.9539 39.0617 47.2279 37.1958 47.3242 35.3165C47.5104 32.0616 46.5816 29.0011 44.9695 26.182C43.5579 23.7107 40.5465 21.2476 37.5432 22.0106C35.702 22.4832 34.1533 23.68 32.8379 25.0323C32.0962 25.795 31.4492 26.6291 30.8034 27.4617C29.8834 28.6477 28.9659 29.8305 27.7807 30.7994C27.228 31.2692 26.6281 31.6806 25.9906 32.0269C25.8924 32.076 24.5954 32.7183 24.5811 32.6529C24.7179 33.3528 24.8906 34.0452 25.0987 34.7273C26.4612 39.4572 28.687 44.3507 32.9381 47.1453C33.2191 47.3294 33.5082 47.5026 33.8056 47.6649Z" fill="url(#paint1_linear_7544_57958)"/>
</g>
<defs>
<linearGradient id="paint0_linear_7544_57958" x1="17.6234" y1="61.1057" x2="51.5038" y2="61.1057" gradientUnits="userSpaceOnUse">
<stop stop-color="#16243F"/>
<stop offset="1" stop-color="#6878B1"/>
</linearGradient>
<linearGradient id="paint1_linear_7544_57958" x1="17.5146" y1="60.2375" x2="53.0133" y2="60.2375" gradientUnits="userSpaceOnUse">
<stop stop-color="#16243F"/>
<stop offset="1" stop-color="#6878B1"/>
</linearGradient>
</defs>
</svg>
