<svg width="69" height="69" viewBox="0 0 69 69" fill="none" xmlns="http://www.w3.org/2000/svg">
<circle cx="34.1459" cy="34.0685" r="34.0685" fill="#A9EBE6"/>
<mask id="mask0_7544_57779" style="mask-type:alpha" maskUnits="userSpaceOnUse" x="0" y="0" width="69" height="69">
<circle cx="34.1495" cy="34.0685" r="34.0685" fill="#C4C4C4"/>
</mask>
<g mask="url(#mask0_7544_57779)">
<path d="M55.8376 61.0899C43.0394 70.9442 25.1883 70.8653 12.4777 60.8984L21.7937 56.5314C22.2374 56.3229 22.6632 56.0783 23.0668 55.8001C23.1894 55.7158 23.3119 55.6278 23.4287 55.5359C24.4426 54.7601 25.2772 53.7747 25.8754 52.6469C26.3277 51.7803 26.6282 50.8427 26.7638 49.8747C26.8573 49.2465 26.9046 48.6124 26.9055 47.9774C26.9055 47.315 26.8882 46.6525 26.8652 45.9901C26.8518 45.5574 26.8404 45.1228 26.8346 44.6902C26.827 44.0839 26.8206 43.477 26.8155 42.8694L27.1984 43.0609L28.1939 43.5759L28.6553 43.6544L33.993 44.5619L39.951 45.5766L40.1309 51.703L40.1903 53.7056L40.219 54.6782V54.7375L40.4104 54.8179L42.5298 55.6795L55.8376 61.0899Z" fill="#F2A196"/>
<path d="M40.2185 54.7337C39.5605 54.8469 38.8835 54.742 38.2906 54.435L26.8667 45.0979C26.8533 44.6653 26.8418 45.1171 26.836 44.6844C26.8284 44.0781 26.822 43.4712 26.8169 42.8637L27.1998 43.0552L28.1953 43.5702L28.6567 43.6487L33.9944 44.5561L39.9524 45.5708L40.1324 51.6973L40.1917 53.6999L40.2204 54.6724V54.7337H40.2185Z" fill="#E88870"/>
<path d="M55.8376 61.0964C43.0394 70.9506 25.1883 70.8718 12.4777 60.9049L21.7937 56.5379C22.2374 56.3293 22.6632 56.0847 23.0668 55.8066C23.1894 55.7223 23.3119 55.6343 23.4287 55.5424C27.9374 58.7511 34.0906 60.7747 39.413 58.3797C40.6804 57.8053 41.8444 56.8787 42.5336 55.6879L55.8376 61.0964Z" fill="url(#paint0_linear_7544_57779)"/>
<path d="M52.4085 22.7461C52.3912 22.8591 52.3702 22.9701 52.3453 23.0811C52.2125 23.6503 51.9991 24.1977 51.7116 24.7066L51.6963 24.7334C51.5872 24.9248 51.4704 25.1163 51.344 25.3077C51.0088 25.7992 50.643 26.2692 50.2489 26.7149L50.0134 26.9772C49.8545 27.1552 49.6937 27.3295 49.5329 27.5018C50.3848 27.3103 51.21 28.1048 51.3612 28.9625C51.5125 29.8202 51.1698 30.6856 50.7467 31.4514C50.0058 32.8069 48.9375 33.7086 47.9974 34.886C47.2929 35.7629 46.9023 36.8006 46.1346 37.6391L46.0772 37.7023C44.0497 39.8312 40.8486 40.329 38.1836 41.2384C37.2264 41.5677 26.8459 44.5161 26.8459 45.1593C26.8459 45.0196 25.8293 44.0106 24.5484 42.7834C19.9536 38.4202 18.4431 31.6792 21.177 25.8974C24.1158 19.6752 30.7898 15.2355 37.146 13.1027C39.1332 12.4364 41.3885 11.9884 43.2724 12.9112C45.1563 13.834 46.0944 16.6962 44.5322 18.0938C45.5148 17.3504 46.7369 16.9953 47.9649 17.0964C49.0991 17.1674 50.1688 17.6485 50.9745 18.4499C51.6128 19.0911 52.0716 19.8886 52.3051 20.7627C52.4782 21.4093 52.5134 22.085 52.4085 22.7461Z" fill="#845161"/>
<path d="M52.4072 22.7507C52.39 22.8637 52.3689 22.9747 52.344 23.0858C52.3268 23.1183 52.3096 23.1528 52.2923 23.1911C52.076 23.685 51.9764 24.2173 51.718 24.7112L51.7027 24.738C51.5935 24.9295 51.4767 25.1209 51.3504 25.3124C51.0184 25.8062 50.6525 26.2764 50.2553 26.7195L50.0121 26.9818C49.8532 27.1599 49.6924 27.3341 49.5316 27.5064C50.3836 27.3149 51.2087 28.1095 51.36 28.9672C51.5112 29.8249 51.1685 30.6902 50.7454 31.456C50.0045 32.8115 48.9362 33.7133 47.9962 34.8907C47.2916 35.7675 46.901 36.8052 46.1333 37.6438C45.242 36.5838 44.6744 35.2898 44.4983 33.9162C44.1844 31.3775 44.3758 28.6111 44.2896 26.0418C44.236 24.4259 43.7153 24.1273 44.684 22.8197C45.463 21.8586 46.3641 21.0032 47.3644 20.2753C48.1455 19.7603 49.1506 19.6799 50.083 19.812C50.8954 19.923 51.662 20.2541 52.3 20.7692C52.4741 21.4149 52.5106 22.09 52.4072 22.7507Z" fill="#69303A"/>
<circle cx="24.9301" cy="37.5104" r="3.25468" fill="#F2A196"/>
<circle cx="25.9497" cy="37.5078" r="2.91389" fill="#E88870"/>
<path d="M25.9991 34.4427L26.8415 45.3555L39.5616 52.7876C41.3846 53.4676 43.4262 52.6546 44.2828 50.9076C46.1131 47.159 49.0499 41.2393 48.6632 39.0376C48.0888 35.7829 46.5572 34.6342 46.5572 34.6342C46.7704 33.3578 46.9822 32.0853 47.1928 30.8166C47.4341 29.3788 47.7423 27.8779 47.3843 26.4324C46.9765 24.7744 45.7244 24.068 44.6944 22.8293C41.9834 26.3214 37.5264 28.2952 33.6342 30.2959C31.6278 31.3374 25.9991 34.4427 25.9991 34.4427Z" fill="#F2A196"/>
<path d="M35.4067 34.0258C36.5745 34.0258 36.5745 35.8216 35.4067 35.8311H35.3531C34.1852 35.8311 34.1852 34.0353 35.3531 34.0258H35.4067Z" fill="#00214E"/>
<path d="M45.0032 33.7535C46.0887 33.7631 46.0887 35.4191 45.0032 35.4287H44.9553C43.8717 35.4287 43.8717 33.7631 44.9553 33.7535H45.0032Z" fill="#00214E"/>
<path d="M40.2684 33.5C40.2531 33.567 42.8262 40.4171 42.8262 40.4171L39.3916 40.5837" stroke="#00214E" stroke-width="0.0842387"/>
<path d="M32.1354 32.1788C33.9078 31.8128 35.7308 31.7616 37.5209 32.0275" stroke="#00214E" stroke-width="0.0842387"/>
<path d="M43.4479 32.201C44.5422 31.9471 45.6699 31.8689 46.7887 31.9693" stroke="#00214E" stroke-width="0.0842387"/>
<path d="M35.874 42.5041C35.9265 42.4199 36.012 42.3616 36.1095 42.3434C36.207 42.3252 36.3077 42.3488 36.3871 42.4083C36.7853 42.6878 37.5128 43.2813 38.5467 43.4862C39.9557 43.7676 41.1772 43.2029 41.4701 43.5666C41.6348 43.7715 41.4337 44.0204 41.0489 44.3324C40.2343 44.9411 39.2087 45.1957 38.204 45.0389C36.8485 44.7842 35.83 43.2143 35.83 42.6572C35.8314 42.6033 35.8465 42.5505 35.874 42.5041Z" fill="white"/>
</g>
<defs>
<linearGradient id="paint0_linear_7544_57779" x1="12.4777" y1="68.4324" x2="55.8376" y2="68.4324" gradientUnits="userSpaceOnUse">
<stop stop-color="#16243F"/>
<stop offset="1" stop-color="#6878B1"/>
</linearGradient>
</defs>
</svg>
