<svg width="69" height="69" viewBox="0 0 69 69" fill="none" xmlns="http://www.w3.org/2000/svg">
<circle cx="34.9135" cy="34.0685" r="34.0685" fill="#F5CE93"/>
<mask id="mask0_7544_57869" style="mask-type:alpha" maskUnits="userSpaceOnUse" x="0" y="0" width="69" height="69">
<circle cx="34.914" cy="34.0685" r="34.0685" fill="#C4C4C4"/>
</mask>
<g mask="url(#mask0_7544_57869)">
<path d="M22.2621 36.903C21.9538 36.2903 21.6553 35.6697 21.3686 35.0472C20.8069 33.8297 20.2807 32.5828 20.045 31.2631C19.2811 27.0057 21.4825 22.3635 24.6421 19.6339C29.1391 15.7516 35.5094 14.2847 40.4639 10.8403C40.1893 12.5334 39.2844 14.0599 37.9307 15.1134C40.2499 13.3264 47.1603 16.27 49.3204 17.3736C52.902 19.1769 55.9457 21.8915 58.1454 25.2443C55.8135 24.2963 53.275 23.9714 50.7794 24.3017C52.7196 26.181 54.7383 28.1859 55.4728 30.782C51.9911 28.2724 46.4317 29.48 44.3109 33.221C42.95 35.6167 42.9697 38.5348 42.1508 41.1682C41.2867 43.9567 38.9558 45.728 36.2144 46.4703C34.1486 47.0358 30.0836 47.2911 28.2122 46.0775C27.6447 45.7103 27.2303 45.1487 26.8494 44.5949C25.1386 42.1437 23.6056 39.5732 22.2621 36.903Z" fill="#DAAEA8"/>
<circle cx="24.4279" cy="37.6867" r="3.33835" fill="#845161"/>
<circle cx="25.5824" cy="37.4904" r="3.14198" fill="#69303A"/>
<path d="M56.1607 61.8848C43.0335 71.9924 24.7235 71.9116 11.686 61.6884L21.2416 57.2091C21.6966 56.9952 22.1334 56.7443 22.5475 56.459C22.6731 56.3726 22.7988 56.2823 22.9186 56.188C23.9586 55.3923 24.8146 54.3815 25.4283 53.2247C26.2138 51.7421 26.473 50.1043 26.4847 48.4352C26.4847 47.8834 26.473 47.3296 26.4573 46.7758C26.4415 46.222 26.418 45.6349 26.4121 45.0634C26.4042 44.4416 26.3977 43.8191 26.3925 43.1959L26.7852 43.3923L27.8063 43.9205L28.2796 44.0011L33.7545 44.9319L39.8656 45.9726L40.0502 52.2566L40.1268 54.8664L40.1406 55.3082V55.373L42.5167 56.3392L56.1607 61.8848Z" fill="#845161"/>
<path d="M40.1232 54.8505L39.8208 54.8819C36.8655 55.141 33.9455 54.0892 31.8343 52.005L26.4183 45.6209C26.4006 45.0514 26.4183 45.6209 26.4183 45.0495C26.4105 44.4276 26.4039 43.8051 26.3987 43.1819L26.7914 43.3783L27.8126 43.9066L28.2858 43.9871L33.7607 44.9179L39.8719 45.9587L40.0565 52.2426L40.1232 54.8505Z" fill="#69303A"/>
<path d="M26.127 31.4516C25.5146 31.9932 25.1208 32.7396 25.0195 33.5508C24.6091 37.386 26.0289 41.9124 26.4236 45.7535L33.5755 51.0281C35.9521 52.8034 38.9884 53.4452 41.8801 52.7836C43.0328 52.5107 43.7634 52.3339 44.2837 51.409C45.2892 49.6417 47.7576 43.5953 47.9186 39.3301C47.9638 38.1185 47.9343 36.2726 47.1881 35.2416C46.8248 34.7408 46.6383 34.7291 46.7698 34.0221C46.9053 33.2837 47.0997 32.5532 47.2627 31.8208C47.4995 30.7613 47.5658 29.6708 47.4591 28.5904C47.3511 27.6086 47.355 26.7367 47.2509 25.7371C47.1999 25.2521 46.9839 23.1293 46.9839 23.1293C45.7369 25.0066 43.4865 25.9924 41.4049 26.6404C38.5732 27.5202 35.6256 27.9502 32.7547 28.6886C30.8518 29.1854 27.7746 29.8924 26.127 31.4516Z" fill="#845161"/>
<path d="M34.6192 34.4128C35.817 34.4227 35.817 36.2548 34.6192 36.2646H34.5661C33.3663 36.2548 33.3663 34.4227 34.5661 34.4128H34.6192Z" fill="#00214E"/>
<path d="M44.9608 33.8495C46.0743 33.8495 46.0743 35.558 44.9608 35.5678H44.9117C43.8003 35.558 43.8003 33.8574 44.9117 33.8495H44.9608Z" fill="#00214E"/>
<path d="M35.4924 43.2407C36.4358 44.2946 37.7293 44.9707 39.1332 45.1435" stroke="#00214E" stroke-width="0.0864044"/>
<path d="M31.823 32.2141C33.6407 31.8371 35.5108 31.7839 37.347 32.057" stroke="#DAAEA8" stroke-width="0.0864044"/>
<path d="M43.426 32.2303C44.5486 31.9709 45.7051 31.8907 46.8527 31.9927" stroke="#DAAEA8" stroke-width="0.0864044"/>
<path d="M56.1607 61.8816C43.0335 71.9892 24.7235 71.9084 11.686 61.6852L21.2416 57.206C21.6966 56.992 22.1334 56.7411 22.5475 56.4558C22.6731 56.3694 22.7988 56.2791 22.9186 56.1848C27.5432 59.476 33.8546 61.5517 39.3138 59.0951C40.6138 58.506 41.8078 57.5555 42.5147 56.3341L56.1607 61.8816Z" fill="#DE8276"/>
<path d="M37.9148 39.9354C37.6217 40.0854 37.4817 40.4267 37.5851 40.7393C37.6885 41.052 38.0044 41.2425 38.3292 41.1882" stroke="#00214E" stroke-width="0.0864044"/>
<path d="M40.938 34.231C41.427 36.1064 41.8335 37.9621 42.2989 39.8414C42.3534 40.0138 42.3735 40.1954 42.3578 40.3755C42.2733 40.9156 41.6312 41.1375 41.0971 41.2533" stroke="#00214E" stroke-width="0.0864044"/>
</g>
</svg>
