<svg width="70" height="69" viewBox="0 0 70 69" fill="none" xmlns="http://www.w3.org/2000/svg">
<circle cx="34.9728" cy="34.0685" r="34.0685" fill="#F5A489"/>
<mask id="mask0_7544_57843" style="mask-type:alpha" maskUnits="userSpaceOnUse" x="0" y="0" width="70" height="69">
<circle cx="34.9726" cy="34.069" r="34.0685" fill="#C4C4C4"/>
</mask>
<g mask="url(#mask0_7544_57843)">
<path fill-rule="evenodd" clip-rule="evenodd" d="M44.5022 16.5766C50.6519 20.5889 51.8663 28.0555 51.9504 34.8637C51.9859 37.7419 51.9587 40.6077 51.9316 43.4696C51.8789 49.0375 51.8263 54.5911 52.2355 60.1948C52.2068 59.7948 45.7227 58.8327 44.9822 58.7999C43.4253 58.7326 41.8151 58.8788 40.223 59.0234C39.4384 59.0946 38.6582 59.1655 37.891 59.2102C36.5528 59.2938 35.1848 59.3274 33.8093 59.3611C31.1722 59.4258 28.5075 59.4911 25.9731 59.9117C25.4816 59.9935 24.9966 60.0763 24.5156 60.1584C21.9691 60.5931 19.5338 61.0088 16.8388 61.1589C16.6258 61.1959 16.4066 61.1528 16.2234 61.0378C16.0183 60.8696 16.0183 60.566 16.0183 60.3014C16.0183 57.1308 16.1603 53.9617 16.3023 50.7949C16.5027 46.3218 16.703 41.8535 16.5024 37.3929C16.324 33.598 16.9532 29.8085 18.3486 26.275C19.5407 23.2279 21.4108 20.4921 23.8172 18.2751C24.4705 17.6846 25.1717 17.1495 25.9136 16.6751C31.4254 13.1305 38.9494 12.9541 44.5022 16.5766ZM26.4187 31.9565L29.3089 34.0078L38.6217 24.6971L37.4504 23.9566C36.3341 25.8485 34.8021 27.4618 32.9704 28.6745C30.9475 30.0641 28.7429 31.1685 26.4187 31.9565Z" fill="#00214E"/>
<path d="M59.7491 61.673C46.0368 72.2312 26.9105 72.1467 13.292 61.4679L23.2735 56.789C23.579 56.6445 23.8768 56.4843 24.1658 56.309L24.3955 56.1654C24.4776 56.1141 24.5576 56.0608 24.6375 56.0054C25.8968 55.1366 26.9289 53.9779 27.6468 52.6269C28.4673 51.0782 28.738 49.3675 28.7503 47.6239C28.7503 46.6659 28.7114 45.708 28.6868 44.7521C28.6868 44.5374 28.6826 44.322 28.6744 44.106C28.6662 43.4564 28.6594 42.8061 28.6539 42.1552H28.6662L29.0601 42.3603L30.1267 42.9121L36.34 43.9685L42.7236 45.0557L42.8754 50.1839L42.9102 51.3941V51.6136L43.0066 54.869L45.3594 55.8269L47.2056 56.5736L59.7491 61.673Z" fill="#F2A196"/>
<path d="M42.8728 50.1818C42.4292 50.4866 41.8989 50.6399 41.3611 50.6187C38.3293 50.2926 32.4093 47.9152 28.6883 43.5152C28.6883 43.3005 28.6842 43.0851 28.676 42.8691C28.676 42.6311 28.676 42.3932 28.676 42.1552L29.0699 42.3603L30.1365 42.9121L36.3498 43.9685L42.7334 45.0557L42.8728 50.1818Z" fill="#E88870"/>
<circle cx="22.9116" cy="35.5826" r="3.48715" fill="#F2A196"/>
<circle cx="24.1412" cy="35.1747" r="3.48715" fill="#E88870"/>
<path d="M47.2251 30.3037C49.6333 38.6483 44.5154 48.7384 41.3708 48.7384C37.0631 48.7384 26.6017 45.2964 24.1955 36.9519C21.7894 28.6073 24.9976 20.353 31.3565 18.5192C37.7154 16.6853 44.8149 21.9571 47.2251 30.3037Z" fill="#F2A196"/>
<path d="M35.3146 40.4437C36.2999 41.5446 37.6512 42.2509 39.1176 42.4313" stroke="#00214E" stroke-width="0.0902558"/>
<path d="M39.5464 31.1824C39.5464 31.2235 40.529 32.9383 41.0479 34.7906C41.2878 35.7814 41.3988 36.7991 41.3782 37.8183H38.6069" stroke="#00214E" stroke-width="0.0902558"/>
<path d="M42.0956 29.436C43.5448 28.6978 45.2208 28.5393 46.7827 28.993" stroke="#00214E" stroke-width="0.0902558"/>
<path d="M29.9595 30.2535C31.958 29.2355 34.306 29.1603 36.3656 30.0483" stroke="#00214E" stroke-width="0.0902558"/>
<path d="M33.5569 32.0704C34.8082 32.0807 34.8082 33.9925 33.5569 34.0027H33.4995C32.2482 34.0027 32.2482 32.0807 33.4995 32.0704H33.5569Z" fill="#00214E"/>
<path d="M43.8393 31.7852C45.0023 31.7852 45.0023 33.5698 43.8393 33.578H43.788C42.627 33.578 42.627 31.7934 43.788 31.7852H43.8393Z" fill="#00214E"/>
<path d="M39.7535 16.3315C39.6581 17.2975 39.5026 18.2566 39.2879 19.2033C38.9209 20.8738 38.2982 22.4776 37.4417 23.9581C36.3254 25.8501 34.7934 27.4634 32.9617 28.676C30.9389 30.0656 28.7342 31.17 26.41 31.9581C24.5967 32.5899 22.7177 32.6452 20.7772 33.0309C20.8408 31.4658 20.7772 29.9396 20.97 28.1222C21.1136 26.8176 21.4008 25.5725 21.9793 24.5694C23.5488 21.9153 25.8382 19.7603 28.5823 18.3541L28.6069 18.3418C31.6407 16.7807 36.3402 15.2402 39.7535 16.3315Z" fill="#00214E"/>
<circle cx="23.4224" cy="35.5777" r="1.23281" fill="#F2D4CF"/>
<path d="M21.0833 38.5399C21.0074 38.5276 20.9295 38.5133 20.8516 38.4948C19.3709 38.1544 18.3822 36.756 18.5551 35.2465C18.728 33.7371 20.0071 32.5984 21.5264 32.6015C21.6138 32.6012 21.6899 32.661 21.7105 32.7459C21.731 32.8309 21.6905 32.9188 21.6126 32.9584C20.7068 33.4462 20.1162 34.3661 20.0494 35.3926C19.9827 36.4192 20.4494 37.4077 21.2844 38.0086C21.3937 38.0858 21.437 38.227 21.3896 38.3521C21.3423 38.4773 21.2163 38.5545 21.0833 38.5399Z" fill="#F2D4CF"/>
<path d="M21.0177 32.9273C21.4427 32.7652 21.9133 32.7703 22.3346 32.9416C22.7818 33.1404 23.1234 33.52 23.2741 33.9857C23.3905 34.3145 23.4407 34.6631 23.4218 35.0113" stroke="#F2D4CF" stroke-width="0.180512"/>
<path d="M59.7491 61.6698C46.0368 72.2279 26.9105 72.1435 13.292 61.4646L23.2735 56.7857C23.7488 56.5622 24.205 56.3002 24.6375 56.0021C24.7688 55.9119 24.9001 55.8175 25.0252 55.719C26.1116 54.8878 27.0058 53.832 27.6468 52.6237C28.1314 51.6952 28.4533 50.6906 28.5985 49.6534C28.7434 49.7938 28.8954 49.9266 29.0539 50.0514C30.3116 50.9822 31.6766 51.7583 33.1195 52.3632C33.82 52.6554 34.5364 52.9081 35.2652 53.1201C37.4608 53.7603 39.7533 54.0028 42.0343 53.836C42.3502 53.8114 42.6682 53.7806 42.9841 53.758L43.0148 54.8001V54.8678L45.4969 55.877L59.7491 61.6698Z" fill="#F2D4CF"/>
<path d="M37.4361 23.9679C36.3198 25.8598 34.7878 27.4731 32.9561 28.6858C30.9333 30.0754 28.7286 31.1798 26.4044 31.9678L20.9644 28.1319L18.345 26.2858C19.5371 23.2387 21.4072 20.5029 23.8136 18.2859C24.4666 17.6926 25.1679 17.1547 25.91 16.6777L28.5767 18.3638L37.4361 23.9679Z" fill="url(#paint0_linear_7544_57843)"/>
</g>
<defs>
<linearGradient id="paint0_linear_7544_57843" x1="31.1494" y1="37.7236" x2="39.3973" y2="20.6094" gradientUnits="userSpaceOnUse">
<stop offset="0.29" stop-color="#00214E"/>
<stop offset="0.51" stop-color="#6878B1"/>
<stop offset="0.79" stop-color="#00214E"/>
</linearGradient>
</defs>
</svg>
