<svg width="69" height="69" viewBox="0 0 69 69" fill="none" xmlns="http://www.w3.org/2000/svg">
<circle cx="34.09" cy="34.0685" r="34.0685" fill="#8CC8FA"/>
<mask id="mask0_7544_57798" style="mask-type:alpha" maskUnits="userSpaceOnUse" x="0" y="0" width="69" height="69">
<circle cx="34.0901" cy="34.0685" r="34.0685" fill="#C4C4C4"/>
</mask>
<g mask="url(#mask0_7544_57798)">
<path d="M51.9409 59.6519C51.5307 46.2559 50.9604 32.2176 44.1092 20.6494C42.4272 17.8126 39.7728 14.8846 36.46 15.1905C32.5872 15.5472 30.6631 19.8997 29.535 23.5754C27.857 29.0242 26.175 34.477 24.7699 40.0027C23.7545 44.0007 20.9463 50.8577 22.4806 54.9975C25.2129 62.3591 45.5143 59.8748 51.9409 59.6519Z" fill="#DAAEA8"/>
<ellipse cx="22.6632" cy="36.2318" rx="3.48715" ry="3.44473" fill="#F2A196"/>
<ellipse cx="23.857" cy="36.0031" rx="3.28203" ry="3.2421" fill="#E88870"/>
<path d="M57.3167 60.7593C43.6044 71.189 24.4782 71.1056 10.8596 60.5566L20.8411 55.9346C21.3164 55.7139 21.7727 55.455 22.2052 55.1606L22.4329 55.0025L22.5929 54.8809C23.6792 54.0599 24.5734 53.0169 25.2144 51.8232C26.0349 50.2934 26.3057 48.6034 26.318 46.8811C26.318 46.2995 26.3057 45.718 26.2872 45.1364C26.2687 44.5549 26.2482 43.9814 26.2421 43.4019C26.2339 42.7602 26.227 42.1179 26.2216 41.4749L26.599 41.6674L26.6277 41.6815L27.6944 42.2266L28.1887 42.3097L33.9077 43.26L36.1743 43.641L40.2912 44.334L40.484 50.8182L40.564 53.5132L40.5784 53.9671V54.0339L43.0604 55.0309L43.2143 55.0937L57.3167 60.7593Z" fill="#F2A196"/>
<path d="M26.2896 44.6746L33.0301 50.9197C35.1059 52.7221 37.8125 53.6521 40.5726 53.5113L40.4926 50.8163L40.2998 44.3321L36.1829 43.6391C35.6208 43.8904 35.0588 44.1416 34.4967 44.3605C32.8147 45.015 30.9132 44.7657 29.2824 44.0849C28.0673 43.5527 27.0154 42.7141 26.2322 41.6533L26.2896 44.6746Z" fill="#E88870"/>
<path d="M57.3167 60.7593C43.6044 71.189 24.4782 71.1056 10.8596 60.5567L20.8411 55.9347C21.3164 55.7139 21.7727 55.455 22.2052 55.1606L22.4329 55.0026C27.4298 58.3683 34.0882 60.4047 39.8686 57.8394C41.2251 57.2604 42.3858 56.3106 43.2143 55.1019L57.3167 60.7593Z" fill="#F2D4CF"/>
<path d="M47.2424 37.328C47.1916 38.8095 46.9854 40.2817 46.627 41.7211C45.8311 45.1658 44.4547 48.5964 43.7552 49.8831C43.2322 50.8436 42.4773 51.0442 41.2814 51.3562C38.2787 52.1142 35.0905 51.5311 32.5615 49.7615L24.9533 44.5073C24.8241 43.4941 24.619 42.4384 24.3954 41.3604C23.7451 38.2257 22.9205 34.9086 23.1646 31.9583C23.2472 31.1182 23.6392 30.3373 24.2661 29.7638C25.942 28.1124 29.1379 27.3018 31.1112 26.7487C34.0897 25.9118 37.1584 25.391 40.0896 24.4083C42.2496 23.6869 44.5716 22.6109 45.8332 20.6414C45.8332 20.6414 46.1162 22.8257 46.1798 23.3242C46.3152 24.3536 46.3357 25.2472 46.4752 26.2624C46.6138 27.3742 46.5723 28.5008 46.3521 29.5997C46.2024 30.3596 46.0198 31.1174 45.8967 31.8833C45.7778 32.6169 45.9726 32.6229 46.3644 33.1295C47.1849 34.1731 47.2567 36.0778 47.2424 37.328Z" fill="#F2A196"/>
<path d="M33.3747 31.9439C34.626 31.9216 34.6732 33.8101 33.4239 33.8526H33.3665C32.1152 33.8729 32.066 31.9844 33.3173 31.9418H33.3747V31.9439Z" fill="#00214E"/>
<path d="M43.6455 31.4002C44.8066 31.38 44.8517 33.1327 43.6907 33.1712H43.6394C42.4784 33.1895 42.4332 31.4367 43.5943 31.3982H43.6455V31.4002Z" fill="#00214E"/>
<path d="M39.9206 32.5946C39.9206 32.6351 40.9462 34.3028 41.5124 36.1204C41.7783 37.0917 41.9162 38.0929 41.9226 39.0991L39.1514 39.17" stroke="#00214E" stroke-width="0.0842387"/>
<path d="M46.6288 41.7227C45.8329 45.1675 44.4565 48.598 43.757 49.8847C43.2339 50.8452 42.4791 51.0458 41.2832 51.3578C38.2805 52.1158 35.0923 51.5327 32.5632 49.7631L24.9551 44.5089C24.8033 43.3215 24.3397 42.1888 24.0546 41.0216C23.9295 40.4907 23.8166 39.9396 23.9397 39.4006C23.9819 39.6814 24.1108 39.9426 24.309 40.1483C25.31 41.4249 26.4792 42.8635 28.1058 43.358C29.8002 43.8726 31.7181 43.9132 33.3202 43.0864C34.715 42.3671 36.0771 41.439 37.5376 40.8372C38.5055 40.4136 39.5561 40.206 40.6145 40.2293C42.1222 40.2942 42.7847 40.9487 43.9088 41.8058C44.276 42.0875 44.6883 42.3813 45.156 42.3732C45.6893 42.3691 46.1939 42.0692 46.6288 41.7227Z" fill="#00214E"/>
<path d="M37.1097 43.057C38.5315 43.4551 40.0513 43.3298 41.3866 42.7044" stroke="#F2A196" stroke-width="0.0842387"/>
<path d="M30.2365 30.403C32.1247 29.9675 34.0759 29.8639 36.0005 30.097" stroke="#00214E" stroke-width="0.0842387"/>
<path d="M42.3513 30.1231C43.5169 29.825 44.7231 29.7121 45.9246 29.7888" stroke="#00214E" stroke-width="0.0842387"/>
<path d="M36.8048 38.2095C36.4996 38.3708 36.3604 38.7287 36.4776 39.0504C36.5949 39.3721 36.9333 39.5601 37.2725 39.4921" stroke="#00214E" stroke-width="0.0842387"/>
<path d="M24.2021 41.3819L24.4073 41.3657L24.5468 41.5197L25.0596 44.3079L24.9611 44.3464L24.8093 44.1498L24.2021 41.3819Z" fill="#00214E"/>
<path d="M29.22 37.4323C28.1225 42.105 25.462 61.3185 25.3226 66.1006C25.3615 64.6822 14.1267 62.6336 13.1667 61.2374C13.1667 61.2374 20.2087 27.4223 20.4098 24.3099C20.4262 24.0546 21.0252 21.5744 21.3759 20.9401C27.2979 10.456 41.5399 9.45905 48.3603 18.7983C48.4978 18.9868 48.8239 20.3748 48.9531 20.5673C49.3326 21.1306 49.6116 21.6939 49.9398 22.2552C51.9542 25.7 52.1141 30.6138 52.2783 34.5631C52.4834 39.5093 55.1377 60.3904 55.1377 60.3904C55.1377 60.3904 48.1388 62.4168 48.0814 62.4289C48.0814 62.4289 48.3439 37.793 48.1306 35.25C47.9255 32.8184 47.427 29.6675 46.1286 27.55C45.1029 25.8843 37.1296 26.2106 34.9471 26.9056C31.9666 27.8539 30.8076 30.399 30.1164 33.5094C29.8251 34.8224 29.5263 36.1301 29.22 37.4323Z" fill="#F2D4CF"/>
<path d="M20.8079 20.4457C25.9924 21.8049 31.3696 22.3027 36.7195 21.9189C40.9782 21.6533 45.1813 20.8232 49.2159 19.4508" stroke="#00214E" stroke-width="0.252716" stroke-linecap="round"/>
<path d="M20.1208 22.388C25.6501 23.8432 31.3839 24.3908 37.093 24.009C41.5371 23.7349 45.9234 22.8693 50.1329 21.4356" stroke="#00214E" stroke-width="0.252716" stroke-linecap="round"/>
</g>
</svg>
